<svg width="32" height="32" viewBox="0 0 32 32" fill="none" xmlns="http://www.w3.org/2000/svg">
<rect width="32" height="32" rx="16" fill="#292929"/>
<path d="M12 13.6L16 16.4L20 13.6" stroke="white" stroke-linecap="round" stroke-linejoin="round"/>
<path d="M8 20V12C8 11.5757 8.16857 11.1687 8.46863 10.8686C8.76869 10.5686 9.17565 10.4 9.6 10.4H22.4C22.8243 10.4 23.2313 10.5686 23.5314 10.8686C23.8314 11.1687 24 11.5757 24 12V20C24 20.4243 23.8314 20.8313 23.5314 21.1314C23.2313 21.4314 22.8243 21.6 22.4 21.6H9.6C9.17565 21.6 8.76869 21.4314 8.46863 21.1314C8.16857 20.8313 8 20.4243 8 20Z" stroke="white"/>
</svg>
