<svg width="32" height="32" viewBox="0 0 32 32" fill="none" xmlns="http://www.w3.org/2000/svg">
<rect width="32" height="32" rx="16" fill="#292929"/>
<path d="M22.4435 12.8929C21.0418 7.67781 16.2213 8.00404 16.2213 8.00404C16.2213 8.00404 9.55469 7.55959 9.55469 15.9996C9.55469 24.4395 16.2213 23.996 16.2213 23.996C16.2213 23.996 20.184 24.2591 21.9991 20.5133C22.592 18.8618 22.4435 15.5596 16.6658 15.5596C16.6658 15.5596 13.9991 15.5596 13.9991 17.7818C13.9991 18.6493 14.888 19.5596 16.2213 19.5596C17.5547 19.5596 19.04 18.6467 19.3324 16.8929C20.2213 11.5596 15.3324 11.1151 13.9991 13.3374" stroke="white" stroke-linecap="round" stroke-linejoin="round"/>
</svg>
