<svg width="32" height="32" viewBox="0 0 32 32" fill="none" xmlns="http://www.w3.org/2000/svg">
<rect width="32" height="32" rx="16" fill="#292929"/>
<path d="M21.639 10.328C20.9056 9.58718 20.032 8.99978 19.0691 8.60009C18.1063 8.20039 17.0735 7.99642 16.031 8.00005C11.6631 8.00005 8.10306 11.56 8.10306 15.928C8.10306 17.328 8.47106 18.688 9.15906 19.888L8.03906 24L12.239 22.896C13.399 23.528 14.703 23.864 16.031 23.864C20.399 23.864 23.959 20.304 23.959 15.936C23.959 13.816 23.135 11.824 21.639 10.328ZM16.031 22.52C14.847 22.52 13.687 22.2 12.671 21.6L12.431 21.456L9.93506 22.112L10.5991 19.68L10.4391 19.432C9.78125 18.3816 9.43197 17.1674 9.43106 15.928C9.43106 12.296 12.391 9.33604 16.023 9.33604C17.783 9.33604 19.439 10.024 20.679 11.272C21.293 11.8832 21.7796 12.6102 22.1105 13.4108C22.4415 14.2114 22.6102 15.0697 22.607 15.936C22.623 19.568 19.663 22.52 16.031 22.52ZM19.647 17.592C19.447 17.496 18.471 17.016 18.295 16.944C18.111 16.88 17.983 16.848 17.847 17.04C17.711 17.24 17.335 17.688 17.223 17.816C17.111 17.952 16.991 17.968 16.791 17.864C16.591 17.768 15.951 17.552 15.199 16.88C14.607 16.352 14.215 15.704 14.095 15.504C13.983 15.304 14.079 15.2 14.183 15.096C14.271 15.008 14.383 14.864 14.479 14.752C14.575 14.64 14.615 14.552 14.679 14.424C14.743 14.288 14.711 14.176 14.663 14.08C14.615 13.984 14.215 13.008 14.055 12.608C13.895 12.224 13.727 12.272 13.607 12.264H13.223C13.087 12.264 12.879 12.312 12.695 12.512C12.519 12.712 12.0071 13.192 12.0071 14.168C12.0071 15.144 12.719 16.088 12.815 16.216C12.911 16.352 14.215 18.352 16.199 19.208C16.671 19.416 17.039 19.536 17.327 19.624C17.799 19.776 18.231 19.752 18.575 19.704C18.959 19.648 19.751 19.224 19.911 18.76C20.079 18.296 20.079 17.904 20.023 17.816C19.967 17.728 19.847 17.688 19.647 17.592Z" fill="white"/>
</svg>
