<svg width="120" height="126" viewBox="0 0 120 126" fill="none" xmlns="http://www.w3.org/2000/svg">
<g clip-path="url(#clip0_8555_2180)">
<path d="M103.529 108.17V37.4434H91.7647V116.015L85.8823 118.868V23.7736H74.1176V123.504H68.2353V34.8283H56.4706V123.504H50.5882V72.6283H38.8235V118.987L33.8823 116.847V93.4302H23.8823V110.428C23.8823 110.428 62.5882 140.621 103.294 108.17H103.529Z" fill="#292929"/>
<path d="M62.9414 125.881C28.5884 125.881 0.706055 97.7095 0.706055 63C0.706055 28.2906 28.5884 0.118896 62.9414 0.118896C97.2943 0.118896 82.9414 2.61512 91.7649 7.25097L89.5296 11.4113C81.4119 7.1321 72.1178 4.87361 62.9414 4.87361C31.1766 4.87361 5.41194 30.9057 5.41194 63C5.41194 95.0944 31.1766 121.126 62.9414 121.126C94.7061 121.126 105.53 108.051 114.941 87.7246L119.177 89.7453C108.941 111.736 86.8237 125.881 62.8237 125.881H62.9414Z" fill="#292929"/>
</g>
<defs>
<clipPath id="clip0_8555_2180">
<rect width="120" height="126" fill="white"/>
</clipPath>
</defs>
</svg>
