<svg width="64" height="64" viewBox="0 0 64 64" fill="none" xmlns="http://www.w3.org/2000/svg">
<g clip-path="url(#clip0_7733_232)">
<path d="M0.28946 32.2218C0.0602154 32.2218 -0.111395 32.1465 -0.225067 32.0328C-0.338739 31.9191 -0.414062 31.7475 -0.414062 31.5183C-0.414062 17.7169 9.41635 5.99916 22.834 3.73124C23.2681 3.65902 23.6218 3.94733 23.6917 4.29653C23.7234 4.45518 23.6775 4.65071 23.562 4.82397C23.4471 4.99618 23.2856 5.11344 23.1278 5.146C10.3276 7.36133 0.992983 18.4303 0.992983 31.5183C0.992983 31.6753 0.91193 31.8533 0.768231 31.997C0.624532 32.1407 0.446533 32.2218 0.28946 32.2218Z" fill="#292929" stroke="white" stroke-width="0.5"/>
<path d="M-0.130355 35.6762L-0.130095 35.6762L-0.132342 35.6649C-0.192934 35.362 0.0506583 34.9902 0.521783 34.9117C0.972431 34.8366 1.27956 35.1354 1.27956 35.4279V35.4465L1.2823 35.4648C3.20752 48.3638 14.5637 58.1811 27.5607 58.1811C27.79 58.1811 27.9616 58.2564 28.0753 58.3701C28.1889 58.4837 28.2643 58.6553 28.2643 58.8846C28.2643 59.3027 27.916 59.5881 27.5607 59.5881C13.8594 59.5881 1.94894 49.2862 -0.130355 35.6762Z" fill="#292929" stroke="white" stroke-width="0.5"/>
<path d="M31.1843 57.8949H31.2017L31.2189 57.8925C44.3102 56.0635 54.2235 44.7064 54.2235 31.423C54.2235 31.1938 54.2988 31.0221 54.4125 30.9085C54.5262 30.7948 54.6978 30.7195 54.927 30.7195C55.1563 30.7195 55.3279 30.7948 55.4415 30.9085C55.5552 31.0221 55.6305 31.1938 55.6305 31.423C55.6305 45.4058 45.2413 57.4046 31.4533 59.3019H31.4531H31.4525H31.4519H31.4514H31.4508H31.4503H31.4497H31.4492H31.4486H31.448H31.4475H31.4469H31.4464H31.4458H31.4453H31.4447H31.4442H31.4436H31.4431H31.4425H31.442H31.4414H31.4408H31.4403H31.4397H31.4392H31.4386H31.4381H31.4375H31.437H31.4364H31.4359H31.4353H31.4348H31.4342H31.4337H31.4331H31.4326H31.432H31.4315H31.4309H31.4304H31.4298H31.4293H31.4287H31.4282H31.4277H31.4271H31.4266H31.426H31.4255H31.4249H31.4244H31.4238H31.4233H31.4228H31.4222H31.4217H31.4211H31.4206H31.42H31.4195H31.419H31.4184H31.4179H31.4173H31.4168H31.4163H31.4157H31.4152H31.4147H31.4141H31.4136H31.413H31.4125H31.412H31.4114H31.4109H31.4104H31.4098H31.4093H31.4088H31.4082H31.4077H31.4072H31.4067H31.4061H31.4056H31.4051H31.4045H31.404H31.4035H31.403H31.4024H31.4019H31.4014H31.4009H31.4003H31.3998H31.3993H31.3988H31.3982H31.3977H31.3972H31.3967H31.3962H31.3956H31.3951H31.3946H31.3941H31.3936H31.393H31.3925H31.392H31.3915H31.391H31.3905H31.39H31.3895H31.3889H31.3884H31.3879H31.3874H31.3869H31.3864H31.3859H31.3854H31.3849H31.3844H31.3839H31.3834H31.3829H31.3824H31.3819H31.3814H31.3809H31.3804H31.3799H31.3794H31.3789H31.3784H31.3779H31.3774H31.3769H31.3764H31.3759H31.3754H31.3749H31.3744H31.3739H31.3734H31.373H31.3725H31.372H31.3715H31.371H31.3705H31.37H31.3696H31.3691H31.3686H31.3681H31.3676H31.3672H31.3667H31.3662H31.3657H31.3652H31.3648H31.3643H31.3638H31.3633H31.3629H31.3624H31.3619H31.3615H31.361H31.3605H31.3601H31.3596H31.3591H31.3587H31.3582H31.3578H31.3573H31.3568H31.3564H31.3559H31.3555H31.355H31.3545H31.3541H31.3536H31.3532H31.3527H31.3523H31.3518H31.3514H31.3509H31.3505H31.35H31.3496H31.3492H31.3487H31.3483H31.3478H31.3474H31.347H31.3465H31.3461H31.3456H31.3452H31.3448H31.3443H31.3439H31.3435H31.3431H31.3426H31.3422H31.3418H31.3414H31.3409H31.3405H31.3401H31.3397H31.3392H31.3388H31.3384H31.338H31.3376H31.3372H31.3367H31.3363H31.3359H31.3355H31.3351H31.3347H31.3343H31.3339H31.3335H31.3331H31.3327H31.3323H31.3319H31.3315H31.3311H31.3307H31.3303H31.3299H31.3295H31.3291H31.3287H31.3283H31.328H31.3276H31.3272H31.3268H31.3264H31.326H31.3257H31.3253H31.3249H31.3245H31.3241H31.3238H31.3234H31.323H31.3227H31.3223H31.3219H31.3216H31.3212H31.3208H31.3205H31.3201H31.3197H31.3194H31.319H31.3187H31.3183H31.318H31.3176H31.3173H31.3169H31.3166H31.3162H31.3159H31.3155H31.3152H31.3148H31.3145H31.3142H31.3138H31.3135H31.3132H31.3128H31.3125H31.3122H31.3118H31.3115H31.3112H31.3109H31.3105H31.3102H31.3099H31.3096H31.3093H31.3089H31.3086H31.3083H31.308H31.3077H31.3074H31.3071H31.3068H31.3065H31.3062H31.3059H31.3056H31.3053H31.305H31.3047H31.3044H31.3041H31.3038H31.3035H31.3032H31.3029H31.3026H31.3024H31.3021H31.3018H31.3015H31.3012H31.301H31.3007H31.3004H31.3002H31.2999H31.2996H31.2994H31.2991H31.2988H31.2986H31.2983H31.298H31.2978H31.2975H31.2973H31.297H31.2968H31.2965H31.2963H31.296H31.2958H31.2956H31.2953H31.2951H31.2948H31.2946H31.2944H31.2941H31.2939H31.2937H31.2934H31.2932H31.293H31.2928H31.2926H31.2923H31.2921H31.2919H31.2917H31.2915H31.2913H31.2911H31.2909H31.2907H31.2904H31.2902H31.29H31.2899H31.2897H31.2895H31.2893H31.2891H31.2889H31.2887H31.2885H31.2883H31.2881H31.288H31.2878H31.2876H31.2874H31.2873H31.2871H31.2869H31.2868H31.2866H31.2864H31.2863H31.2861H31.286H31.2858H31.2856H31.2855H31.2853H31.2852H31.285H31.2849H31.2848H31.2846H31.2845H31.2843H31.2842H31.2841H31.2839H31.2838H31.2837H31.2835H31.2834H31.2833H31.2832H31.2831H31.2829H31.2828H31.2827H31.2826H31.2825H31.2824H31.2823H31.2822H31.2821H31.282H31.2819H31.2818H31.2817H31.2816H31.2815H31.2814H31.2813H31.2813H31.2812H31.2811H31.281H31.281H31.2809H31.2808H31.2807H31.2807H31.2806H31.2805H31.2805H31.2804H31.2804H31.2803H31.2803H31.2802H31.2802H31.2801H31.2801H31.28H31.28H31.28H31.2799H31.2799H31.2799H31.2798H31.2798H31.2798H31.2798H31.2797H31.2797H31.2797H31.2797H31.2796C30.9476 59.3019 30.6487 59.0317 30.5713 58.6447C30.5033 58.305 30.7875 57.8949 31.1843 57.8949Z" fill="#292929" stroke="white" stroke-width="0.5"/>
<path d="M55.2513 27.4539L55.2509 27.454L55.2535 27.4671C55.2855 27.6268 55.2383 27.8203 55.1276 27.9772C55.0166 28.1344 54.8703 28.217 54.7359 28.217H54.6323L54.5591 28.2902L54.5369 28.3123C54.2101 28.3079 53.917 28.042 53.8381 27.6619C52.0058 14.5742 40.6504 4.76032 27.5605 4.76032C27.3312 4.76032 27.1596 4.68499 27.0459 4.57132C26.9323 4.45765 26.8569 4.28604 26.8569 4.05679C26.8569 3.82755 26.9323 3.65594 27.0459 3.54227C27.1596 3.4286 27.3312 3.35327 27.5605 3.35327C41.3563 3.35327 53.2665 13.7494 55.2513 27.4539Z" fill="#292929" stroke="white" stroke-width="0.5"/>
<path d="M27.127 3.59744L27.1389 3.58951L27.1498 3.58028L30.8686 0.433651L30.8765 0.426934L30.8839 0.419582C31.0131 0.290294 31.1974 0.235276 31.3866 0.253298C31.5785 0.271578 31.7478 0.362524 31.842 0.488157C32.0572 0.775102 32.0569 1.2021 31.7771 1.48905L28.8301 3.9607L28.621 4.13606L28.814 4.32903L31.4838 6.99889C31.7676 7.28267 31.7676 7.69649 31.4838 7.98027C31.4032 8.06086 31.3326 8.11137 31.2611 8.14314C31.1907 8.17442 31.107 8.1931 30.9931 8.1931C30.8793 8.1931 30.7956 8.17442 30.7252 8.14314C30.6537 8.11137 30.583 8.06086 30.5025 7.98027L27.0698 4.54759C26.929 4.40683 26.8569 4.18576 26.8569 4.0569C26.8569 3.94253 26.8758 3.86849 26.9089 3.80882C26.943 3.74748 27.0046 3.67904 27.127 3.59744Z" fill="#292929" stroke="white" stroke-width="0.5"/>
<path d="M17.1832 41.0183H25.2075C25.4137 41.0183 25.5806 40.8548 25.5806 40.6529C25.5806 40.451 25.4137 40.2875 25.2075 40.2875H17.1832C16.3901 40.2853 15.7471 39.6543 15.7471 38.8762V24.1391C15.7482 23.3621 16.3912 22.7333 17.1832 22.7311H27.203V25.9883C27.203 27.1713 28.1821 28.1305 29.3898 28.1305H32.7148V31.2064C32.7148 31.4084 32.8828 31.5719 33.0889 31.5719C33.2951 31.5719 33.462 31.4084 33.462 31.2064V27.2907C33.4631 27.1909 33.4217 27.0965 33.3489 27.0274L28.1956 22.1054C28.1261 22.0373 28.0331 22 27.9357 22H17.1812C15.9769 22.0033 15.0011 22.9591 15 24.1389V38.8759C15 40.0578 15.9769 41.017 17.1834 41.0181L17.1832 41.0183ZM32.6763 27.3994H29.3895C28.5941 27.3994 27.95 26.7673 27.95 25.9881V22.8891L32.6763 27.3994ZM17.7723 26.0671C17.7723 25.8652 17.9392 25.7017 18.1454 25.7017H20.5561C20.7623 25.7017 20.9292 25.8652 20.9292 26.0671C20.9292 26.269 20.7623 26.4337 20.5561 26.4337H18.1454C17.9392 26.4337 17.7723 26.269 17.7723 26.0671ZM17.7723 27.8438C17.7723 27.6419 17.9392 27.4784 18.1454 27.4784H25.2344C25.4406 27.4784 25.6075 27.6419 25.6075 27.8438C25.6075 28.0457 25.4406 28.2093 25.2344 28.2093H18.1454C17.9392 28.2093 17.7723 28.0457 17.7723 27.8438ZM30.3192 29.9827H18.1454C17.9393 29.9827 17.7724 29.8192 17.7724 29.6172C17.7724 29.4153 17.9393 29.2518 18.1454 29.2518H30.3126C30.5188 29.2518 30.6868 29.4153 30.6868 29.6172C30.6868 29.8192 30.5188 29.9827 30.3126 29.9827H30.3192ZM17.7723 32.8128C17.7723 32.6109 17.9392 32.4474 18.1454 32.4474H20.5561C20.7623 32.4474 20.9292 32.6109 20.9292 32.8128C20.9292 33.0148 20.7623 33.1783 20.5561 33.1783H18.1454C17.9392 33.1783 17.7723 33.0148 17.7723 32.8128ZM24.4154 34.9671H18.142C17.9358 34.9671 17.7689 34.8024 17.7689 34.6005C17.7689 34.3986 17.9358 34.2351 18.142 34.2351H24.4154C24.6216 34.2351 24.7896 34.3986 24.7896 34.6005C24.7896 34.8024 24.6216 34.9671 24.4154 34.9671ZM22.1335 36.0118C22.3396 36.0118 22.5065 36.1753 22.5065 36.3772C22.5065 36.5792 22.3396 36.7427 22.1335 36.7427H18.1454C17.9393 36.7427 17.7724 36.5792 17.7724 36.3772C17.7724 36.1753 17.9393 36.0118 18.1454 36.0118H22.1335ZM39 37.3462C39 37.5317 38.9126 37.7073 38.7636 37.8225L34.4237 41.0918C33.5768 41.7327 32.5372 42.0816 31.4672 42.0816C30.3972 42.0816 29.3577 41.7327 28.5107 41.0918L24.1708 37.8051C24.0218 37.691 23.9355 37.5165 23.9355 37.331C23.9355 37.1467 24.0218 36.9711 24.1708 36.8569L28.5107 33.5714C29.3576 32.9305 30.3972 32.5826 31.4672 32.5826C32.5372 32.5826 33.5766 32.9305 34.4237 33.5714C34.5884 33.6943 34.6197 33.9258 34.4931 34.0872C34.3677 34.2496 34.1313 34.2803 33.9666 34.1563C32.4946 33.0413 30.44 33.0413 28.9679 34.1563L24.7648 37.3312L28.9679 40.5268C30.4399 41.6429 32.4945 41.6429 33.9666 40.5268L38.1698 37.3312L35.1551 35.0485C34.9904 34.9256 34.959 34.6941 35.0845 34.5328C35.2111 34.3704 35.4474 34.3396 35.6121 34.4636L38.7633 36.8483C38.9168 36.9624 39.0053 37.1424 38.9997 37.3312L39 37.3462ZM31.4807 34.5335C30.3258 34.5324 29.2828 35.2128 28.8403 36.2586C28.3966 37.3034 28.6409 38.5072 29.4575 39.3082C30.2742 40.1093 31.502 40.3485 32.5697 39.9162C33.6374 39.4827 34.3341 38.4632 34.3341 37.3307C34.3319 35.7877 33.0558 34.5368 31.4807 34.5335ZM31.4807 39.3971C30.626 39.4037 29.8519 38.9054 29.5192 38.134C29.1876 37.3625 29.3634 36.4714 29.965 35.8766C30.5666 35.2818 31.4751 35.1018 32.266 35.4201C33.0558 35.7394 33.5723 36.4933 33.5723 37.3307C33.57 38.4643 32.638 39.3861 31.4807 39.3971Z" fill="#292929"/>
</g>
<defs>
<clipPath id="clip0_7733_232">
<rect width="64" height="64" fill="white"/>
</clipPath>
</defs>
</svg>
