<svg width="120" height="126" viewBox="0 0 120 126" fill="none" xmlns="http://www.w3.org/2000/svg">
<path d="M62.9414 124.94C28.5884 124.94 0.706055 97.0318 0.706055 62.6467C0.706055 28.2617 28.5884 0.353271 62.9414 0.353271C97.2943 0.353271 82.9414 2.82617 91.7649 7.41869L89.5296 11.5402C81.4119 7.30094 72.1178 5.06355 62.9414 5.06355C31.1766 5.06355 5.41194 30.8523 5.41194 62.6467C5.41194 94.4411 31.1766 120.23 62.9414 120.23C94.7061 120.23 105.53 107.277 114.941 87.1402L119.177 89.1421C108.941 110.927 86.8237 124.94 62.8237 124.94H62.9414Z" fill="#292929"/>
<path d="M98.8235 91.4972C98.1176 91.4972 97.2941 91.4972 96.5882 91.3794C93.4118 90.9084 90.3529 89.3775 87.5294 87.0224L86 94.6766C90.5882 97.2673 95.0588 98.4448 99.647 98.4448H100.235C100.588 98.4448 101.059 98.4448 101.529 98.4448C102.824 95.6187 103.882 92.9103 104.706 90.5551C102.824 91.1439 100.824 91.4972 99.0588 91.4972H98.8235Z" fill="#292929"/>
<path d="M80.1175 107.159C78.2351 107.394 76.2351 107.512 74.2351 107.512C70.4704 107.512 66.7057 107.159 62.941 106.335C62.8233 106.335 62.7057 106.217 62.8233 106.099C62.8233 105.981 62.941 105.864 63.0586 105.864C67.2939 106.335 71.4116 106.452 75.4116 105.864C77.4116 105.628 79.4116 105.275 81.2939 104.804L82.8233 97.0318C79.6469 97.7383 76.4704 98.2093 73.1763 98.5626C69.7645 98.9159 66.3528 99.1514 62.941 99.1514C59.5292 99.1514 54.7057 98.9159 50.588 98.3271C50.4704 98.3271 50.3528 98.2093 50.3528 98.0916C50.3528 97.9738 50.4704 97.8561 50.588 97.8561C56.1175 98.2094 61.5292 98.0916 66.8233 97.5028C72.3528 96.914 77.8822 95.7364 83.1763 94.2056L84.7057 86.5514C78.1175 88.9065 71.1763 90.4374 64.2351 91.2617C60.8233 91.615 57.4116 91.8505 53.9998 91.8505C50.588 91.8505 45.7645 91.615 41.6469 91.0262C41.5292 91.0262 41.4116 90.9084 41.4116 90.7907C41.4116 90.6729 41.5292 90.5551 41.6469 90.5551C47.1763 90.9084 52.5881 90.7907 57.9998 90.2019C67.5292 89.1421 76.7057 86.6692 85.4116 82.7832L96.7057 24.9645C90.8233 25.2 88.941 38.271 88.941 38.271L71.0586 76.5421C48.7057 86.3159 22.941 81.1346 22.941 81.1346C21.9998 101.035 34.8233 113.636 34.8233 113.636C34.8233 113.636 47.4116 120.583 59.8822 120.583C72.3527 120.583 78.4704 118.346 78.4704 118.346L80.588 107.277C80.3528 107.277 79.9998 107.277 79.7645 107.277L80.1175 107.159Z" fill="#292929"/>
<path d="M99.4113 89.9663C101.176 90.2018 102.941 90.2018 104.823 89.8486C105.764 86.7869 106.235 84.6673 106.235 84.6673C95.0584 78.6616 91.8819 71.1252 91.8819 71.1252L100.588 26.9663C100.47 26.2598 100.117 25.7888 100.117 25.7888L88.2349 83.4897C91.6466 87.2579 95.4113 89.4953 99.4113 90.0841V89.9663Z" fill="#292929"/>
<path d="M96.9409 24.9645L100.117 25.788C98.235 24.9645 96.9409 24.9645 96.9409 24.9645Z" fill="#292929"/>
<path d="M101.059 99.1508C101.059 98.9155 101.294 98.6802 101.412 98.4449L101.059 99.1508Z" fill="#292929"/>
<path d="M90.7057 108.336C88.941 108.336 87.0586 108.101 85.2939 107.748C84.588 107.63 83.9998 107.394 83.2939 107.159L81.1763 117.639L86.2351 115.755L90.588 113.4C92.3527 111.987 93.9998 109.867 95.4116 108.101C93.8822 108.101 92.3527 108.336 90.7057 108.336Z" fill="#292929"/>
<path d="M95.5293 107.983C95.6469 107.747 95.8822 107.63 95.9999 107.394L95.5293 107.983Z" fill="#292929"/>
<path d="M96.7058 99.9757C92.9411 99.9757 89.0588 99.0336 85.4117 97.2673L83.7646 105.157C85.2941 105.864 86.9411 106.335 88.4705 106.806C90.9411 107.394 93.647 107.277 96.2352 107.041C97.9999 104.686 99.5294 102.095 100.823 99.6224C99.647 99.8579 98.4705 99.9757 97.2941 99.9757H96.5882H96.7058Z" fill="#292929"/>
</svg>
