<svg width="100" height="101" viewBox="0 0 100 101" fill="none" xmlns="http://www.w3.org/2000/svg">
<path d="M55.3942 21.3207C55.2555 21.331 55.1178 21.3363 54.9792 21.3437L54.1042 18.2987C53.9645 17.8119 53.6432 17.4101 53.2018 17.1669C52.7624 16.9262 52.2565 16.87 51.7741 17.0092L50.6725 17.3305C50.1984 17.4696 49.8239 17.7846 49.5885 18.182C49.1618 17.9643 48.6779 17.914 48.2155 18.0482L47.1159 18.369C46.6359 18.5097 46.2565 18.8295 46.0221 19.2338C45.6081 19.0219 45.1217 18.9521 44.6584 19.0873L43.5578 19.4081C42.8962 19.6015 42.4279 20.1332 42.2687 20.7606C41.7687 20.6039 41.1432 20.5775 40.4504 20.8925C38.8527 21.6186 38.134 23.6742 37.9611 24.7743C37.5392 27.4604 37.8454 33.0917 38.8044 35.8349C39.3434 37.3739 41.717 41.0473 42.2419 41.851V46.9545H42.1628C41.1564 46.9545 40.3376 47.7772 40.3376 48.789V50.5341C40.3376 51.5458 41.1564 52.3686 42.1628 52.3686H42.2428V84.0893C42.2428 84.4203 42.5114 84.6889 42.8429 84.6889C43.1745 84.6889 43.443 84.4203 43.443 84.0893V52.3686H54.8688L54.8932 84.0893C54.8932 84.4213 55.1618 84.6889 55.4928 84.6889C55.8249 84.6889 56.0934 84.4203 56.0924 84.0893L56.068 52.3686H56.2624C57.2692 52.3686 58.0876 51.5458 58.0876 50.5341V48.789C58.0876 47.7772 57.2692 46.9545 56.2624 46.9545H56.0602L56.0514 40.7729L61.5065 31.8046C61.7799 31.4706 62.9421 29.7963 61.5612 26.8754C60.279 24.1596 58.8434 21.0824 55.3942 21.3207ZM51.0094 18.4823L52.11 18.1615C52.2848 18.1122 52.4655 18.1322 52.6227 18.2182C52.7839 18.3065 52.9001 18.453 52.9518 18.6308L53.7487 21.4008H53.7467C52.8171 21.4359 51.9333 21.4731 51.196 21.5985L50.5456 19.3388C50.4406 18.9721 50.6491 18.5878 51.0094 18.4823ZM47.4528 19.5209L48.5519 19.2001C48.7257 19.1488 48.9079 19.1693 49.0651 19.2567C49.2253 19.3451 49.3415 19.4916 49.3923 19.6698L50.0485 21.9506C49.2463 22.3637 49.05 22.9955 49.05 23.4965C49.05 25.1586 50.11 25.7714 51.2438 26.101L51.6686 27.5805C51.7741 27.9467 51.5651 28.331 51.2038 28.4364L50.1037 28.7572C49.9313 28.808 49.7492 28.7875 49.591 28.7006C49.4308 28.6122 49.3141 28.4657 49.2633 28.288L46.9884 20.3769C46.988 20.3759 46.9875 20.3749 46.987 20.3734C46.8849 20.0082 47.0924 19.6264 47.4528 19.5209ZM52.8219 27.2489L52.5768 26.3949C53.1764 26.494 53.9147 26.5863 54.8923 26.685C55.0124 26.766 55.111 26.8627 55.2165 26.955C55.1471 27.164 54.9811 27.3329 54.7633 27.3969L53.6608 27.7187C53.4909 27.7699 53.3083 27.7489 53.151 27.6625C52.9899 27.5736 52.8727 27.4267 52.8219 27.2489ZM43.8942 20.5605L44.9948 20.2392C45.0568 20.2211 45.1203 20.2118 45.1838 20.2118C45.4821 20.2118 45.7487 20.4149 45.8337 20.7055C45.8337 20.7064 45.8337 20.7079 45.8341 20.7089L47.8239 27.6254L48.11 28.62C48.2155 28.9857 48.0075 29.3695 47.6466 29.4745L46.5456 29.7963C46.1921 29.8988 45.8073 29.6806 45.7057 29.3266L43.4303 21.4154C43.3249 21.0492 43.5334 20.6659 43.8942 20.5605ZM56.8883 48.789V50.5341C56.8883 50.8842 56.6071 51.1688 56.2624 51.1688H55.4733C55.4714 51.1688 55.4704 51.1679 55.4684 51.1679C55.4665 51.1679 55.4655 51.1688 55.4635 51.1688H42.8478C42.8459 51.1688 42.8444 51.1679 42.8429 51.1679C42.8415 51.1679 42.84 51.1688 42.8381 51.1688H42.1628C41.818 51.1688 41.5378 50.8842 41.5378 50.5341V48.789C41.5378 48.4394 41.818 48.1547 42.1628 48.1547H55.4616H56.2624C56.6071 48.1547 56.8883 48.4394 56.8883 48.789ZM60.5827 31.0404C60.5534 31.0712 60.528 31.1044 60.5055 31.1405L54.9382 40.2929C54.8805 40.3871 54.8503 40.4955 54.8512 40.6059L54.861 46.9545H43.4421V41.6718C43.4421 41.5541 43.4074 41.4394 43.3429 41.3412C43.3141 41.2982 40.4821 36.995 39.9372 35.4389C39.0475 32.8939 38.7541 27.4594 39.1466 24.9608C39.2731 24.1571 39.8117 22.5009 40.9469 21.9848C41.6354 21.6732 42.1203 21.9574 42.3117 22.1083L44.2404 28.8065C44.2502 28.8397 44.2624 28.872 44.2775 28.9032C44.279 28.9062 44.4113 29.2157 44.2819 29.5683C44.1515 29.9228 43.7824 30.2421 43.2526 30.4765C42.9826 30.5731 42.8263 30.5233 42.7194 30.4687C42.0915 30.1459 41.6979 28.7504 41.509 28.08C41.4616 27.912 41.4206 27.768 41.3849 27.6596C41.2809 27.3451 40.9445 27.1747 40.6271 27.2777C40.3122 27.3817 40.1413 27.7211 40.2453 28.0356C40.277 28.1308 40.3122 28.2577 40.3542 28.4057C40.6247 29.3661 41.0783 30.974 42.1706 31.536C42.6242 31.7689 43.1379 31.7939 43.6969 31.5902C44.3332 31.3109 44.8024 30.9501 45.1125 30.5204C45.4508 30.8266 45.883 31.0233 46.3576 31.0233C46.5348 31.0233 46.7111 30.998 46.882 30.9481L47.9826 30.6269C48.4587 30.4882 48.8341 30.1723 49.069 29.7743C49.3351 29.9096 49.6217 29.9853 49.9132 29.9853C50.089 29.9853 50.2663 29.9599 50.4396 29.9096L51.5407 29.5883C52.0163 29.4491 52.3913 29.1337 52.6266 28.7357C52.8932 28.8715 53.1803 28.9467 53.4714 28.9467C53.6471 28.9462 53.8249 28.9213 53.9977 28.8705L55.1003 28.5487C55.4557 28.4447 55.7477 28.2284 55.9782 27.9613C56.0661 28.1625 56.1237 28.351 56.1549 28.5014C54.3044 29.1679 47.6891 31.8993 47.6891 36.8715C47.6891 37.203 47.9577 37.4716 48.2892 37.4716C48.6208 37.4716 48.8893 37.203 48.8893 36.8715C48.8893 32.0932 56.8981 29.5131 56.9782 29.4877C57.2204 29.4115 57.3883 29.1923 57.3981 28.9394C57.4001 28.8808 57.4421 27.4901 56.2829 26.289C56.2799 26.286 56.277 26.2836 56.2741 26.2807C56.2721 26.2792 56.2702 26.2777 56.2692 26.2763C56.0192 26.0209 55.7311 25.7909 55.4128 25.5927C55.3346 25.5443 55.2467 25.5146 55.1559 25.5053C53.5553 25.3461 52.5729 25.204 51.8717 25.0302C50.4928 24.6908 50.2502 24.265 50.2502 23.4965C50.2502 23.3397 50.2507 23.079 50.9382 22.8798C50.9391 22.8793 50.9396 22.8793 50.9406 22.8793C50.9411 22.8793 50.9416 22.8788 50.9421 22.8783C51.6257 22.6815 52.6784 22.642 53.7926 22.6L54.5622 22.5692C54.8649 22.5556 55.1725 22.5395 55.4792 22.518C57.8815 22.352 59.0348 24.3349 60.4762 27.3881C61.6266 29.8207 60.6198 30.998 60.5827 31.0404Z" fill="#3D130B" stroke="#3D130B"/>
<path d="M25.5683 30.2431C25.4726 30.25 25.3794 30.2539 25.2836 30.2592L24.5527 27.7168C24.4267 27.2783 24.1377 26.916 23.7397 26.6962C23.3427 26.4785 22.8857 26.4262 22.4506 26.5532L21.5073 26.8286C21.1054 26.9467 20.7856 27.2065 20.5717 27.5341C20.2041 27.3667 19.7949 27.331 19.4033 27.4433L18.4604 27.7187C18.0542 27.8374 17.7314 28.101 17.5175 28.4336C17.1596 28.269 16.7504 28.2172 16.3564 28.333L15.4135 28.6084C14.8501 28.7729 14.437 29.2089 14.2714 29.7338C13.8418 29.6186 13.3193 29.6191 12.7407 29.8833C11.3378 30.5205 10.7104 32.3144 10.5605 33.2734C10.1967 35.582 10.4589 40.4262 11.2846 42.789C11.7446 44.1025 13.7465 47.207 14.2241 47.9384V58.0346C10.5434 60.6792 11.0561 61.7378 11.2314 62.0883C11.4672 62.562 11.9946 62.7973 12.8291 62.7973C13.2187 62.7973 13.7002 62.727 14.2241 62.6245V63.2163C12.124 64.8149 11.3007 66.0229 11.7368 66.895C11.9731 67.3686 12.5 67.604 13.3339 67.604C13.5966 67.604 13.8999 67.5737 14.2241 67.5268V84.0893C14.2241 84.4204 14.4926 84.6889 14.8242 84.6889C15.1557 84.6889 15.4243 84.4204 15.4243 84.0893V67.2846C17.2749 66.8217 19.663 65.8833 22.082 64.6586C23.1347 64.1254 24.1074 63.5678 25.0336 63.0024L25.0478 84.0893C25.0483 84.4213 25.3169 84.6889 25.6479 84.6889C25.9794 84.6889 26.248 84.4204 26.248 84.0893L26.2329 62.2495C29.2627 60.2299 30.5522 58.6772 30.0346 57.6391C29.6347 56.8354 28.3813 56.7202 26.2294 57.2788V57.101C28.8935 55.2426 30.0127 53.8042 29.5278 52.8315C29.1586 52.0952 28.0732 51.9379 26.226 52.3491L26.2226 47.0141L30.8803 39.3564C31.1347 39.0424 32.1284 37.5752 30.934 35.0483C29.8237 32.6967 28.56 30.0337 25.5683 30.2431ZM21.8442 27.9804L22.7861 27.7055C22.9116 27.6704 23.0444 27.684 23.1601 27.747C23.2768 27.8115 23.3623 27.9189 23.3994 28.0488L24.0512 30.3159C23.3252 30.3432 22.6303 30.373 22.0405 30.4668L21.5053 28.6074C21.4287 28.3393 21.581 28.0576 21.8442 27.9804ZM18.7968 28.8706L19.7397 28.5952C19.8652 28.5581 19.998 28.5732 20.1123 28.6367C20.2294 28.7011 20.3149 28.8086 20.352 28.9389L20.895 30.8247C20.2226 31.1967 20.0546 31.7504 20.0546 32.1928C20.0546 33.6513 20.9648 34.1987 21.9502 34.4921L22.3012 35.7148C22.3784 35.9829 22.2265 36.2631 21.9619 36.3408L21.0205 36.6157C20.894 36.6528 20.7612 36.6377 20.6469 36.5742C20.5297 36.5092 20.4448 36.4023 20.4072 36.2719L18.4585 29.4965C18.3813 29.2285 18.5332 28.9472 18.7968 28.8706ZM23.4541 35.3828L23.2807 34.7788C23.7749 34.8564 24.3618 34.9301 25.1142 35.0063C25.1899 35.0581 25.2485 35.1201 25.3164 35.1762C25.2573 35.3051 25.1508 35.4096 25.0092 35.4506L24.0664 35.726C23.9404 35.7627 23.809 35.747 23.6953 35.685C23.5776 35.6201 23.4917 35.5127 23.4541 35.3828ZM15.75 29.7602L16.6928 29.4848C16.7378 29.4716 16.7841 29.4653 16.83 29.4653C17.0483 29.4653 17.2436 29.6147 17.3051 29.8286L19.2539 36.604C19.331 36.872 19.1792 37.1528 18.9145 37.2299L17.9731 37.5053C17.7168 37.58 17.435 37.4213 17.3603 37.1616L15.4111 30.3867C15.3344 30.1181 15.4863 29.8369 15.75 29.7602ZM12.3183 61.5952C12.3139 61.4301 12.6948 60.7348 14.2241 59.5336V61.4106C12.9165 61.6967 12.3789 61.5991 12.3183 61.5952ZM13.1894 66.4174C12.9594 66.4174 12.8491 66.392 12.8232 66.4018C12.8198 66.2553 13.104 65.7085 14.2241 64.7534V66.3169C13.7524 66.3969 13.414 66.4174 13.1894 66.4174ZM21.54 63.5883C19.3247 64.7104 17.1455 65.5844 15.4243 66.0483V62.3335C17.207 61.8335 19.3598 60.9731 21.5766 59.852C22.8007 59.2329 23.9746 58.5678 25.0297 57.9008L25.0327 61.603C23.9765 62.2778 22.7807 62.9604 21.54 63.5883ZM28.9477 58.1323C28.9526 58.3403 28.4287 59.2387 26.2319 60.7983L26.2304 58.5219C28.1049 58.0014 28.8559 58.1069 28.9477 58.1323ZM28.4419 53.3266C28.4462 53.5083 28.0166 54.2807 26.2285 55.6254L26.227 53.5825C27.7509 53.2104 28.3686 53.3129 28.4419 53.3266ZM29.956 38.5932C29.9267 38.624 29.9008 38.6577 29.8789 38.6938L25.1098 46.5341C25.0527 46.6284 25.0224 46.7363 25.0224 46.8466L25.0288 56.4672C23.8515 57.2524 22.4829 58.0483 21.0351 58.7817C19.0175 59.8012 17.0703 60.5913 15.4243 61.0835V47.7592C15.4243 47.6416 15.3896 47.5268 15.3252 47.4287C14.6464 46.4004 12.8017 43.4907 12.4174 42.393C11.6792 40.2802 11.4135 35.5693 11.7461 33.4589C11.8681 32.6777 12.3657 31.3715 13.2378 30.9755C13.7612 30.7373 14.1313 30.9287 14.2944 31.0522L15.9399 36.7636C15.9497 36.7968 15.9619 36.8291 15.977 36.8603C15.978 36.8628 16.0747 37.0976 15.977 37.3628C15.874 37.644 15.5732 37.9004 15.146 38.0898C14.9453 38.163 14.8344 38.1264 14.7587 38.0879C14.2563 37.8295 13.9262 36.6626 13.7675 36.1015C13.7251 35.9526 13.6889 35.8252 13.6572 35.7299C13.5517 35.415 13.2089 35.2446 12.8984 35.3501C12.5839 35.455 12.414 35.7944 12.5185 36.1088C12.5459 36.1909 12.5766 36.3007 12.6128 36.4287C12.8486 37.2627 13.2436 38.6582 14.2099 39.1552C14.6196 39.3647 15.083 39.3886 15.5903 39.2036C16.1113 38.9751 16.499 38.6801 16.7734 38.3344C17.0688 38.5761 17.4379 38.7251 17.8354 38.7251C17.9956 38.7251 18.1552 38.7021 18.31 38.6567L19.2509 38.3818C19.6552 38.2641 19.9765 38.0029 20.1904 37.6738C20.4106 37.7739 20.643 37.8359 20.8813 37.8359C21.04 37.8359 21.1997 37.8134 21.3564 37.7675L22.2988 37.4921C22.7026 37.374 23.0239 37.1132 23.2378 36.7846C23.4575 36.8842 23.6904 36.9462 23.9277 36.9462C24.0869 36.9462 24.2465 36.9233 24.4028 36.8779L25.3457 36.6025C25.6225 36.5219 25.8501 36.3588 26.0454 36.1655C26.08 36.2578 26.1079 36.3457 26.1264 36.4233C24.437 37.042 18.8891 39.3979 18.8891 43.6484C18.8891 43.9799 19.1577 44.2485 19.4892 44.2485C19.8208 44.2485 20.0893 43.9799 20.0893 43.6484C20.0893 39.6196 26.8906 37.4262 26.9589 37.4047C27.2006 37.3286 27.3686 37.1088 27.3784 36.8559C27.3803 36.8042 27.4155 35.5795 26.4013 34.5293C26.3984 34.5263 26.3945 34.5234 26.3916 34.5205C26.3867 34.5156 26.3818 34.5117 26.3769 34.5068C26.164 34.288 25.916 34.0879 25.6362 33.914C25.5581 33.8657 25.4702 33.8359 25.3784 33.8266C24.0586 33.6958 23.229 33.5781 22.6254 33.436C22.6098 33.4306 22.5937 33.4262 22.5776 33.4223C21.3466 33.1201 21.2548 32.7392 21.2548 32.1928C21.2548 32.0752 21.2548 31.8979 21.7846 31.7465C22.3696 31.5781 23.2841 31.5444 24.2524 31.5087L24.8667 31.4848C25.1259 31.4731 25.3896 31.4589 25.6538 31.4404C27.6674 31.2939 28.6298 32.979 29.8491 35.561C30.8066 37.5874 29.9838 38.5605 29.956 38.5932Z" fill="#3D130B" stroke="#3D130B"/>
<path d="M89.0251 35.9375C87.9128 33.5869 86.653 30.9273 83.6598 31.1328C83.5622 31.1397 83.4694 31.1411 83.3727 31.1465L82.6423 28.6065C82.5163 28.1675 82.2272 27.8052 81.8288 27.5855C81.4323 27.3672 80.9743 27.3164 80.5407 27.4429L79.5964 27.7183C79.194 27.8364 78.8747 28.0962 78.6608 28.4238C78.2917 28.2564 77.8815 28.2192 77.4919 28.3335L76.5514 28.6079C76.1442 28.7266 75.821 28.9907 75.6071 29.3237C75.2497 29.1592 74.8395 29.1074 74.446 29.2232L73.5036 29.4981C72.9391 29.6631 72.5261 30.0996 72.361 30.6245C71.9313 30.5103 71.4089 30.5103 70.8288 30.773C69.4264 31.4102 68.7985 33.2041 68.6491 34.1636C68.2868 36.4741 68.5505 41.3184 69.3757 43.6782C69.8347 44.9922 71.8376 48.0967 72.3151 48.8281V84.0894C72.3151 84.4204 72.5837 84.689 72.9147 84.689C73.2458 84.689 73.5143 84.4204 73.5143 84.0894V48.6489C73.5143 48.5313 73.4802 48.4165 73.4157 48.3184C72.737 47.29 70.8923 44.3809 70.5085 43.2827C69.7507 41.1143 69.5007 36.481 69.8347 34.3491C69.9567 33.5674 70.4548 32.2612 71.3249 31.8657C71.8513 31.6255 72.2214 31.8174 72.3854 31.9424L74.0602 37.7393C74.1354 37.9116 74.2956 38.5122 73.237 38.9795C73.0358 39.0518 72.9245 39.0171 72.8483 38.9775C72.3434 38.7168 72.0016 37.5005 71.8561 36.9815C71.8151 36.8379 71.7809 36.7153 71.7507 36.6226C71.6481 36.3086 71.3083 36.1372 70.9938 36.2393C70.6784 36.3428 70.5065 36.6817 70.61 36.9966C70.6364 37.0762 70.6657 37.1821 70.7009 37.3057C70.9352 38.1431 71.3288 39.5444 72.2995 40.044C72.7097 40.2544 73.1735 40.2778 73.6813 40.0933C74.2018 39.8643 74.5886 39.5698 74.862 39.2241C75.1579 39.4658 75.527 39.6148 75.9245 39.6148C76.0847 39.6148 76.2438 39.5918 76.3981 39.5469L77.3415 39.2715C77.7458 39.1538 78.0671 38.8931 78.2809 38.564C78.5007 38.6636 78.7331 38.7256 78.9714 38.7256C79.1296 38.7256 79.2897 38.7031 79.446 38.6572L80.3874 38.3823C80.7917 38.2642 81.113 38.0029 81.3268 37.6738C81.5475 37.7739 81.7809 37.8359 82.0182 37.8359C82.1764 37.8359 82.3366 37.813 82.4929 37.7676L83.4362 37.4917C83.7116 37.4111 83.9382 37.2495 84.1335 37.0571C84.1667 37.147 84.197 37.2363 84.2155 37.3125C82.528 37.9307 76.9802 40.2866 76.9802 44.5381C76.9802 44.8696 77.2487 45.1382 77.5798 45.1382C77.9108 45.1382 78.1794 44.8696 78.1794 44.5381C78.1794 40.5093 84.9782 38.3159 85.0475 38.2944C85.2888 38.2183 85.4567 37.999 85.4665 37.7461C85.4684 37.686 85.4841 36.5176 84.5348 35.4844C84.4987 35.4321 84.4587 35.3872 84.4098 35.3486C84.2165 35.1587 83.9987 34.9732 83.7272 34.8042C83.6491 34.7559 83.5612 34.7261 83.4694 34.7168C79.7009 34.3442 79.3454 33.9727 79.3454 33.0825C79.3454 32.5108 80.8483 32.4546 82.3014 32.3999C82.7682 32.3823 83.2546 32.3643 83.7438 32.3301C85.7848 32.1797 86.7184 33.8701 87.9401 36.4502C88.8962 38.4771 88.0749 39.4512 88.0466 39.4834C88.0182 39.5142 87.9929 39.5479 87.9704 39.5835L83.1999 47.4243C83.1432 47.5186 83.113 47.6265 83.113 47.7363L83.1208 84.0894C83.1208 84.4204 83.3893 84.689 83.7204 84.689C84.0514 84.689 84.32 84.4204 84.32 84.0894L84.3122 47.9043L88.9723 40.2461C89.2253 39.9321 90.2165 38.4649 89.0251 35.9375ZM79.9333 28.8701L80.8766 28.5952C81.0026 28.5596 81.1354 28.5737 81.2497 28.6367C81.3669 28.7012 81.4518 28.8086 81.4899 28.9385L82.1423 31.2056C81.4294 31.2324 80.737 31.2651 80.1315 31.3618L79.5954 29.4966C79.5182 29.2285 79.6706 28.9473 79.9333 28.8701ZM77.0055 38.1192L76.0612 38.395C75.8024 38.4707 75.5241 38.3106 75.4489 38.0513L73.5007 31.2764C73.4235 31.0083 73.5759 30.7271 73.8395 30.6499L74.7819 30.3745C74.8278 30.3613 74.8737 30.355 74.9196 30.355C75.1384 30.355 75.3337 30.5039 75.3952 30.7183L77.3434 37.4927L77.3444 37.4956C77.4206 37.7632 77.2682 38.0425 77.0055 38.1192ZM83.4059 36.0659C83.3473 36.1948 83.2409 36.2988 83.1003 36.3399L82.1559 36.6157C82.0309 36.6519 81.9001 36.6372 81.7848 36.5747C81.6667 36.5098 81.5817 36.4024 81.5446 36.2725L81.3718 35.6699C81.9264 35.7573 82.5309 35.8291 83.2057 35.8965C83.2839 35.9502 83.3386 36.0093 83.4059 36.0659ZM80.0368 35.374L80.3913 36.604C80.4684 36.8721 80.3161 37.1528 80.0505 37.2305L79.11 37.5054C78.985 37.543 78.8522 37.5274 78.736 37.4639C78.6198 37.3989 78.5348 37.292 78.4968 37.1616L76.5485 30.3867C76.4714 30.1182 76.6237 29.8374 76.8874 29.7598L77.8278 29.4854C77.9567 29.4483 78.0876 29.4634 78.2018 29.5264C78.32 29.5913 78.405 29.6987 78.4421 29.8281L78.9821 31.7085C78.4694 31.9771 78.1462 32.396 78.1462 33.0825C78.1462 34.3682 78.8337 35.0005 80.0368 35.374Z" fill="#3D130B" stroke="#3D130B"/>
</svg>
