<svg width="100" height="101" viewBox="0 0 100 101" fill="none" xmlns="http://www.w3.org/2000/svg">
<g clip-path="url(#clip0_2259_6211)">
<path fill-rule="evenodd" clip-rule="evenodd" d="M31.6197 10.8268C30.7043 10.8595 29.9339 10.9494 29.1451 11.21C27.5748 11.7208 26.4631 12.8335 24.8407 14.6909L15.4859 25.424C13.5804 27.6156 13.187 29.9155 13.187 33.0337V83.5829C13.187 87.2866 16.2205 90.3139 19.9242 90.3139L65.1727 90.3568C67.1303 90.362 68.9081 89.5262 70.1372 88.1908L67.87 86.1055C67.2039 86.8238 66.2578 87.2692 65.1819 87.2641L19.9232 87.2171C17.8675 87.2171 16.2716 85.6202 16.2716 83.5829L16.294 32.0376H28.8519C31.7852 32.0376 34.2057 29.6376 34.2057 26.7052V18.3027C34.222 17.4363 33.5089 16.7221 32.6353 16.7395C31.7852 16.7497 31.1027 17.4516 31.115 18.3027V26.7052C31.115 27.9722 30.1352 28.9571 28.8519 28.9571H16.7988C17.0286 28.4667 17.3474 27.9936 17.8164 27.4501L27.1712 16.7221C28.7293 14.9351 29.3679 14.3803 30.1025 14.1423C30.8371 13.9032 32.1837 13.9247 34.9239 13.9247H65.1727C67.2263 13.9247 68.8284 15.5165 68.8284 17.5538V38.5459L71.9191 41.7969V17.5538C71.9191 13.8542 68.8754 10.8319 65.1717 10.8319H34.9239C33.5834 10.8319 32.529 10.7952 31.6197 10.8268Z" fill="#3D130B"/>
<path d="M53.0528 48.4543C48.5788 48.4543 44.448 50.7062 40.5052 55.3887C39.9586 56.0436 39.9586 57.0326 40.5011 57.6916C44.4 62.4171 48.5788 64.6321 53.0528 64.6321C57.529 64.6321 61.7057 62.4171 65.6025 57.6916C66.145 57.0326 66.145 56.0436 65.5964 55.3887C61.6577 50.7062 57.529 48.4543 53.0528 48.4543ZM53.0651 50.4916C54.7928 50.5243 56.4112 50.8492 57.6567 51.4878C59.9177 53.9787 59.7961 57.804 57.3798 60.1458C54.9594 62.4876 51.1279 62.4824 48.7167 60.1345C46.3003 57.7887 46.188 53.9563 48.4613 51.4776C49.8283 50.7481 51.7124 50.4722 53.0651 50.4916Z" fill="#3D130B"/>
<path d="M52.7558 51.6728C52.5218 51.6891 52.3665 51.9343 52.4626 52.1581C52.5801 52.4298 52.6025 52.7282 52.5269 53.0153C52.3318 53.7274 51.6125 54.1433 50.9045 53.9512C50.6388 53.8837 50.3997 53.7274 50.224 53.5098C50.0748 53.3228 49.7867 53.3392 49.659 53.5466C49.4455 53.8827 49.282 54.2546 49.1798 54.6367C48.6046 56.7772 49.8766 58.9851 52.011 59.5542C54.1443 60.1295 56.3533 58.8513 56.9223 56.7129C57.4976 54.5724 56.2296 52.3532 54.0912 51.7954C53.6406 51.6728 53.187 51.6533 52.7558 51.6728Z" fill="#3D130B"/>
<path fill-rule="evenodd" clip-rule="evenodd" d="M53.0529 39.4122C57.433 39.4122 61.8069 41.0838 65.1602 44.437C71.8616 51.1364 71.8616 61.9492 65.1602 68.6475C58.4608 75.3479 47.6419 75.3479 40.9426 68.6475C34.2432 61.9481 34.2432 51.1354 40.9426 44.437C44.2948 41.0838 48.6749 39.4122 53.0529 39.4122ZM53.0488 36.2102C47.8381 36.2102 42.6284 38.1903 38.6652 42.1596C30.7347 50.0881 30.7347 62.9985 38.6652 70.932C46.2105 78.4784 58.2534 78.8248 66.235 72.0079L68.8057 74.5785C67.6981 76.6751 68.0179 79.3458 69.7732 81.1022L77.4156 88.7435C79.5592 90.8942 83.1025 90.8942 85.2542 88.7435C87.4039 86.5939 87.3937 83.0608 85.2481 80.9101L77.6016 73.2697C75.8514 71.5134 73.1796 71.1946 71.0882 72.3062L68.5124 69.7356C75.3293 61.7489 74.9778 49.7111 67.4325 42.1658C63.4682 38.1944 58.2575 36.2143 53.0488 36.2102Z" fill="#3D130B"/>
</g>
<defs>
<clipPath id="clip0_2259_6211">
<rect width="74.4828" height="80" fill="white" transform="translate(12.7588 10.8115)"/>
</clipPath>
</defs>
</svg>
