<svg width="100" height="101" viewBox="0 0 100 101" fill="none" xmlns="http://www.w3.org/2000/svg">
<path d="M79.4728 65.2456L80.6698 66.4286C80.9868 66.7366 80.9868 67.2416 80.6748 67.5526L74.9358 73.3556L73.4208 74.8556C73.1028 75.1686 72.5968 75.1686 72.2848 74.8556L67.9048 70.4806C67.5918 70.1676 67.5918 69.6626 67.9048 69.3506L69.1288 68.1116C69.4418 67.7986 69.9418 67.7936 70.2548 68.1116L72.8588 70.7106L78.2438 65.3356C78.6488 64.9276 79.1488 64.9226 79.4728 65.2456ZM74.2848 57.2976L63.0718 61.1976V65.4356C63.0718 74.0726 67.5718 79.2756 74.2848 82.8326C80.9988 79.2746 85.5038 74.0716 85.5038 65.4356V61.1976L74.2848 57.2976Z" fill="#3D130B"/>
<path fill-rule="evenodd" clip-rule="evenodd" d="M46.6232 34.5376H53.4152C54.9932 34.5376 56.4102 35.5526 56.8632 36.9906L57.4252 38.7866C57.9982 40.6146 56.5712 41.6666 54.5772 42.1726C51.5562 42.9476 48.5502 42.9536 45.4622 42.1726C43.4682 41.6726 42.0342 40.6146 42.6132 38.7866L43.1812 36.9906C43.6282 35.5516 45.0452 34.5376 46.6232 34.5376ZM50.4102 24.7286C50.6542 24.7396 50.8942 24.7706 51.1342 24.8276C53.0912 25.3026 54.2952 27.2916 53.8262 29.2696C53.3582 31.2486 51.3942 32.4736 49.4352 31.9986C47.4762 31.5296 46.2682 29.5416 46.7372 27.5556C47.1402 25.8546 48.6752 24.6666 50.4102 24.7286ZM50.0202 18.7976C42.0882 18.7976 35.6602 25.2236 35.6602 33.1526C35.6602 36.9596 37.1702 40.6146 39.8642 43.3076C42.5562 45.9996 46.2132 47.5166 50.0202 47.5166C53.8272 47.5166 57.4822 45.9996 60.1762 43.3076C62.8682 40.6146 64.3792 36.9636 64.3792 33.1526C64.3792 29.3446 62.8682 25.6936 60.1712 22.9996C57.4772 20.3076 53.8262 18.7976 50.0202 18.7976Z" fill="#3D130B"/>
<path fill-rule="evenodd" clip-rule="evenodd" d="M21.7851 31.4746C17.8011 31.4746 14.5391 34.7186 14.5391 38.7086V75.5946C14.5391 79.5786 17.8011 82.8336 21.7851 82.8336H67.7121L64.9731 79.8076H21.7851C19.4161 79.8076 17.5661 77.9536 17.5661 75.5946V38.7086C17.5661 36.3496 19.4161 34.4996 21.7851 34.4996H29.4771C31.4981 34.4996 31.4981 31.4746 29.4771 31.4746H21.7851Z" fill="#3D130B"/>
<path fill-rule="evenodd" clip-rule="evenodd" d="M70.993 31.4746C68.977 31.4746 68.977 34.4996 70.993 34.4996H78.249C80.618 34.4996 82.482 36.3496 82.482 38.7086V56.5366L85.499 57.5886V38.7086C85.499 34.7186 82.238 31.4746 78.249 31.4746H70.993Z" fill="#3D130B"/>
<path d="M36.14 54.2915C34.566 54.2285 34.566 56.6195 36.14 56.5575H63.905C65.473 56.6205 65.473 54.2295 63.905 54.2915H36.14Z" fill="#3D130B"/>
<path d="M36.2172 63.3325C35.5142 63.3445 34.9512 63.9225 34.9622 64.6255V66.8795C34.9302 67.5995 35.5092 68.1975 36.2332 68.1975C36.9522 68.1975 37.5312 67.5985 37.5042 66.8795V64.6255C37.5142 63.9125 36.9362 63.3285 36.2172 63.3325Z" fill="#3D130B"/>
<path d="M41.8671 63.3326C41.1651 63.3446 40.5961 63.9226 40.6071 64.6256V66.8796C40.6071 67.5836 41.1801 68.1506 41.8831 68.1506C42.5871 68.1506 43.1591 67.5836 43.1591 66.8796V64.6256C43.1701 63.9076 42.5871 63.3246 41.8671 63.3326Z" fill="#3D130B"/>
<path d="M47.5202 63.3326C46.8162 63.3496 46.2582 63.9226 46.2702 64.6256V66.8796C46.2392 67.5996 46.8162 68.1976 47.5402 68.1976C48.2592 68.1976 48.8382 67.5986 48.8112 66.8796V64.6256C48.8202 63.9076 48.2382 63.3246 47.5202 63.3326Z" fill="#3D130B"/>
<path d="M53.1702 63.3326C52.4682 63.3496 51.9042 63.9226 51.9212 64.6256V66.8796C51.8892 67.5996 52.4682 68.1976 53.1922 68.1976C53.9112 68.1976 54.4882 67.5986 54.4572 66.8796V64.6256C54.4732 63.9076 53.8842 63.3246 53.1702 63.3326Z" fill="#3D130B"/>
<path d="M58.8149 63.3326C58.1179 63.3496 57.5549 63.9226 57.5649 64.6256V66.8796C57.5379 67.5996 58.1169 68.1976 58.8359 68.1976C59.5599 68.1976 60.1389 67.5986 60.1069 66.8796V64.6256C60.1179 63.9076 59.5339 63.3246 58.8149 63.3326Z" fill="#3D130B"/>
</svg>
