<svg width="100" height="101" viewBox="0 0 100 101" fill="none" xmlns="http://www.w3.org/2000/svg">
<g clip-path="url(#clip0_2259_6243)">
<path d="M66.193 54.432C69.1665 54.432 71.5741 56.9504 71.5741 60.0559C71.5741 61.918 70.6903 63.6531 69.2153 64.7025L70.8234 71.58C70.9504 72.3307 70.3957 72.9605 69.8552 72.9605H62.5267C61.9934 72.9605 61.4357 72.3307 61.5637 71.58L63.1728 64.7076C61.6958 63.6653 60.8079 61.919 60.8079 60.0559C60.8079 56.9494 63.2196 54.432 66.193 54.432ZM66.193 40.8701L44.3467 48.4628V56.7055C44.3467 73.5111 53.1137 83.6313 66.193 90.5534C79.2663 83.6313 88.0394 73.5111 88.0394 56.7055V48.4628L66.193 40.8701Z" fill="#3D130B"/>
<path fill-rule="evenodd" clip-rule="evenodd" d="M30.1623 14.167H55.0604C56.6004 14.167 57.8083 15.3576 57.8083 16.9027V17.9339H37.0195C35.9193 17.9339 35.0507 17.9024 34.2848 17.9227C33.5168 17.9501 32.8554 18.0294 32.1728 18.2579C30.8023 18.7019 29.8606 19.6751 28.5227 21.2151L20.8183 30.0827C19.2102 31.9336 18.8557 33.9461 18.8557 36.5375V74.2041H17.8124C16.2682 74.2041 15.0776 73.0135 15.0776 71.4694V29.6967C15.0776 27.2789 15.1416 26.5637 16.2835 25.2522L23.9828 16.3847C25.983 14.0867 27.9823 14.167 30.1623 14.167ZM27.4266 11.0879C24.8869 11.0879 22.9659 12.8697 21.6595 14.3773L13.9673 23.2398C12.3531 25.0917 11.9985 27.1031 11.9985 29.6956V71.4683C11.9985 74.6582 14.6185 77.2781 17.8134 77.2781H18.8567V78.3052C18.8567 81.5001 21.4766 84.12 24.6665 84.12H51.9569L49.0058 81.0511H24.6644C23.1244 81.0511 21.9287 79.8554 21.9287 78.3062L21.9389 35.9778H32.0255C34.5794 35.9778 36.6863 33.8709 36.6863 31.3099V25.4483C36.7025 24.5807 35.9924 23.8716 35.1259 23.8869C34.2797 23.8981 33.6021 24.5949 33.6112 25.4483V31.3099C33.6112 32.2201 32.9336 32.9088 32.0255 32.9088H22.845C22.845 32.5807 22.8826 32.3907 23.1356 32.0992L30.8399 23.2276C32.1138 21.7566 32.6004 21.3543 33.1297 21.1796C33.6651 21.0099 34.7541 21.0099 37.0185 21.0099H61.9236C63.4637 21.0099 64.6583 22.2066 64.6583 23.7497V38.0776H67.7273V23.7477C67.7273 20.5579 65.1135 17.9328 61.9236 17.9328H60.8702V16.9017C60.8702 13.7109 58.2512 11.0909 55.0604 11.0909L27.4266 11.0879Z" fill="#3D130B"/>
<path d="M29.8715 49.9652C29.2142 49.9439 28.6748 50.463 28.6748 51.1182C28.6748 51.7745 29.2132 52.2926 29.8715 52.2723H39.8128C40.4691 52.2926 41.0075 51.7745 41.0075 51.1182C41.0075 50.463 40.4691 49.9449 39.8128 49.9652H29.8715Z" fill="#3D130B"/>
<path d="M29.7609 58.532C28.226 58.6062 28.3367 60.9071 29.8717 60.834H39.813C40.4693 60.8604 41.0128 60.3362 41.0128 59.6851C41.0128 59.0288 40.4682 58.5046 39.813 58.532H29.8717C29.8331 58.532 29.7965 58.532 29.7609 58.532Z" fill="#3D130B"/>
<path d="M29.7609 67.0981C28.226 67.1722 28.3367 69.4742 29.8717 69.399H39.813C40.4693 69.4204 41.0077 68.9012 41.0077 68.246C41.0077 67.5948 40.4693 67.0717 39.813 67.0981H29.8717C29.8331 67.092 29.7965 67.092 29.7609 67.0981Z" fill="#3D130B"/>
<path d="M29.8716 41.4045C28.3306 41.4045 28.3306 43.7126 29.8716 43.7126H44.8182C46.3582 43.7126 46.3582 41.4045 44.8182 41.4045H29.8716Z" fill="#3D130B"/>
</g>
<defs>
<clipPath id="clip0_2259_6243">
<rect width="76.8" height="80" fill="white" transform="translate(11.6001 10.8115)"/>
</clipPath>
</defs>
</svg>
