<svg width="120" height="126" viewBox="0 0 120 126" fill="none" xmlns="http://www.w3.org/2000/svg">
<g clip-path="url(#clip0_8555_461)">
<path d="M63.2079 125.538C28.5149 125.538 0.356445 97.6016 0.356445 63.1817C0.356445 28.7618 28.5149 0.825134 63.2079 0.825134C97.901 0.825134 83.4059 3.30054 92.3168 7.89772L90.0594 12.0234C81.7426 7.66196 72.7129 5.54019 63.2079 5.54019C31.1287 5.54019 5.10892 31.3551 5.10892 63.1817C5.10892 95.0084 31.1287 120.823 63.2079 120.823C95.2871 120.823 106.218 107.857 115.723 87.7L120 89.7039C109.663 111.393 87.3267 125.538 63.0891 125.538H63.2079Z" fill="#292929"/>
<path d="M103.367 41.7282L96.0002 41.2567L94.812 40.7852L99.2081 37.3668L99.921 35.245H98.9705L101.703 33.359L102.654 31.9445L97.7823 33.8305L94.5744 34.0663C94.5744 34.0663 92.317 35.9523 92.0794 37.4847L90.6536 37.2489C90.6536 37.2489 95.0497 26.0507 94.3368 23.3395L88.3962 28.1725C88.3962 28.1725 87.6833 30.4121 88.3962 32.5339L82.9309 38.0741L82.6932 31.0015L81.0299 30.2942L80.317 28.4082L79.1289 27.701L78.416 25.2256L76.6338 26.8758L73.4259 27.3473L78.1784 32.416L76.2774 32.8875C76.2774 32.8875 76.9903 36.7774 78.1784 38.7813L77.2279 40.1959L69.6239 33.5948L54.5348 31.3551C54.5348 31.3551 59.5249 36.6596 65.1091 35.0093L65.8219 36.6596L62.1388 36.8953L68.0794 38.6635L70.3368 40.5495L71.7625 42.7891L70.5744 43.4964L67.6041 42.0819C67.6041 42.0819 59.4061 37.2489 56.7922 38.192L50.1388 39.8422L56.317 41.3746L60.2378 43.85L71.4061 44.0858L73.1883 44.793L74.1388 47.7399V49.1545L72.9506 49.3902L69.7427 46.4433L67.4853 45.9718C67.4853 45.9718 64.515 46.9148 62.02 47.9757L60.0002 48.4472L60.713 45.5003C60.713 45.5003 54.0596 51.1584 53.8219 53.2801L52.7526 53.0444L50.4952 45.736L43.1289 39.3707L42.6536 41.6104L46.812 44.5573L42.6536 42.6713L43.3665 45.8539L46.812 48.3293H43.8417V52.6907C43.8417 52.6907 48.0002 54.5768 47.2873 56.3449H45.5051L41.1091 52.6907L35.4061 53.1623L33.5051 52.455L24.8318 46.5612V48.5651L33.5051 53.398L26.1388 52.455L31.1289 54.5768L30.1784 55.284L31.6041 56.227L33.8615 55.7555L38.3764 56.227L37.0695 58.1131C37.0695 58.1131 38.3764 63.5354 46.218 62.7102L45.0299 64.7141L28.515 64.0069L25.3071 66.0108L23.8813 66.2465L26.1388 68.1326L27.5645 68.8398L31.4853 66.3644H34.6932L28.9903 70.7258L33.8615 72.1403L38.8516 68.0147L37.6635 70.9616H40.8715L43.6041 68.7219L45.2675 70.3722C45.2675 70.3722 45.3863 70.7258 45.6239 71.0795C45.6239 71.0795 45.6239 71.0795 45.5051 71.0795C45.5051 71.0795 41.1091 70.8437 42.7724 75.6766C42.7724 75.6766 39.3269 77.7984 43.0101 78.8593L43.4853 79.5666C43.4853 79.5666 31.8417 96.6586 35.5249 116.462C35.5249 116.462 39.6833 119.645 50.4952 122.238C61.3071 124.831 70.3368 123.534 70.3368 123.534C68.1982 112.218 62.2576 87.4643 69.7427 73.0834L75.5645 69.0756L71.8814 68.3683C72.2378 67.661 72.5942 66.9538 72.9506 66.2465C76.3962 65.5393 79.7229 64.4784 79.7229 62.946L74.9705 62.3566C76.0398 60.3527 77.2279 58.2309 78.5348 56.1092L82.218 62.4745L83.6437 62.2387L82.6932 59.5276L85.4259 62.003H86.8517L80.6734 57.1701L79.3665 54.8125C79.7229 54.341 79.9606 53.8695 80.317 53.398L81.9804 55.1662L90.8913 63.1818C90.8913 63.1818 91.8418 64.5963 91.8418 66.1287L94.3368 67.0717L94.0992 64.5963L94.5744 63.6533L96.0002 65.6571C96.0002 65.6571 95.7625 60.2348 94.3368 58.3488L86.4952 52.455C86.4952 52.455 89.2279 50.569 93.6239 54.9304L107.763 66.6002L108.475 67.5432C108.475 67.5432 105.98 50.6868 95.1685 48.5651L92.6734 47.3863L92.4358 46.6791L107.287 47.8578L108.238 45.736L109.426 46.4433L110.376 45.736L111.683 47.1506H113.109L114.297 48.4472L115.01 50.3332H116.792C116.792 50.3332 114.772 41.7282 103.01 42.0819L103.367 41.7282ZM64.1586 50.9226L71.7625 51.3941L71.5249 53.0444L70.812 54.2231L70.3368 54.9304L68.5546 53.0444C67.6041 51.7477 63.0893 53.2801 63.0893 53.2801L64.1586 51.0405V50.9226ZM55.0101 116.108H43.8417C41.3467 106.796 41.2279 95.1262 47.0497 81.3347C47.0497 81.3347 51.8021 80.3917 50.4952 76.266L54.6536 81.099L54.8912 79.0951L56.5546 82.2777C56.5546 82.2777 55.8417 76.6197 53.3467 73.2012V71.3152L61.3071 78.3878L62.4952 78.152L62.8516 78.7414C59.0497 87.3464 53.4655 95.2441 55.1289 116.108H55.0101ZM64.2774 74.7336C63.5645 74.2621 62.7328 73.9085 61.6635 73.7906L55.4853 68.4862C55.4853 68.4862 62.2576 69.5471 65.4655 71.7867C65.1091 72.7297 64.6338 73.6727 64.2774 74.7336ZM67.6041 67.1895L66.2972 66.9538C66.2972 66.9538 66.8913 66.9538 67.8418 66.8359C67.8418 66.9538 67.7229 67.0717 67.6041 67.3074V67.1895ZM70.3368 61.2957C68.5546 61.06 63.8022 60.4706 63.0893 60.7063C63.4457 60.7063 64.0398 60.4706 64.0398 60.4706L62.8516 57.9952L70.4556 57.0522L72.3566 56.5807L73.0695 56.1092C72.3566 57.4058 71.4061 59.174 70.4556 61.2957H70.3368Z" fill="#292929"/>
</g>
<defs>
<clipPath id="clip0_8555_461">
<rect width="120" height="126" fill="white"/>
</clipPath>
</defs>
</svg>
