<svg xmlns="http://www.w3.org/2000/svg" viewBox="0 0 60.56 60.56"><circle cx="30.28" cy="30.28" r="30.28"/><g fill="#fff"><path d="M30.28 45.35a1 1 0 0 1-.62-.21c-1.21-1-11.8-9.59-11.8-17.52a12.42 12.42 0 0 1 24.84 0c0 8.08-11.57 17.5-12.11 17.68a.81.81 0 0 1-.31.05zm0-28.15a10.43 10.43 0 0 0-10.42 10.42c0 5.39 6.49 12.17 10.41 15.44 2.31-1.95 10.43-9.27 10.43-15.44A10.43 10.43 0 0 0 30.28 17.2z"/><path d="M30.28 33.38a5.77 5.77 0 1 1 5.77-5.76 5.77 5.77 0 0 1-5.77 5.76zm0-9.53a3.77 3.77 0 1 0 3.77 3.77 3.77 3.77 0 0 0-3.77-3.77z"/></g></svg>