<svg width="30" height="30" viewBox="0 0 16 16" fill="none" xmlns="http://www.w3.org/2000/svg">
<g clip-path="url(#clip0_11785_3854)">
<path d="M8 16C12.4183 16 16 12.4183 16 8C16 3.58172 12.4183 0 8 0C3.58172 0 0 3.58172 0 8C0 12.4183 3.58172 16 8 16Z" fill="#47952C"/>
<path d="M8 11.9815C7.94072 11.9819 7.88303 11.9624 7.8362 11.926C7.51651 11.6618 4.71863 9.39236 4.71863 7.29724C4.71863 6.42697 5.06434 5.59234 5.67972 4.97696C6.2951 4.36158 7.12973 4.01587 8 4.01587C8.87028 4.01587 9.70491 4.36158 10.3203 4.97696C10.9357 5.59234 11.2814 6.42697 11.2814 7.29724C11.2814 9.43199 8.22457 11.9208 8.0819 11.9683C8.05573 11.978 8.0279 11.9825 8 11.9815ZM8 4.54427C7.27008 4.54497 6.57026 4.83524 6.05413 5.35137C5.538 5.8675 5.24773 6.56732 5.24703 7.29724C5.24703 8.72129 6.96169 10.5126 7.99736 11.3765C8.60766 10.8613 10.753 8.92736 10.753 7.29724C10.7523 6.56732 10.462 5.8675 9.94587 5.35137C9.42974 4.83524 8.72992 4.54497 8 4.54427Z" fill="black"/>
<path d="M7.99999 8.81902C7.69837 8.81902 7.40354 8.72954 7.15279 8.56192C6.90204 8.3943 6.70665 8.15606 6.59134 7.87735C6.47604 7.59864 6.44601 7.29199 6.50504 6.9962C6.56408 6.70042 6.70953 6.4288 6.92299 6.21571C7.13645 6.00261 7.40833 5.85763 7.70421 5.79911C8.0001 5.74059 8.30669 5.77116 8.5852 5.88694C8.86371 6.00273 9.10161 6.19853 9.2688 6.44957C9.43599 6.70061 9.52495 6.99561 9.52443 7.29722C9.52373 7.70107 9.36281 8.08814 9.077 8.37346C8.79119 8.65877 8.40384 8.81902 7.99999 8.81902ZM7.99999 6.30119C7.803 6.30119 7.61042 6.3596 7.44662 6.46905C7.28283 6.57849 7.15516 6.73405 7.07977 6.91606C7.00439 7.09806 6.98466 7.29833 7.02309 7.49154C7.06153 7.68475 7.15639 7.86223 7.29569 8.00153C7.43499 8.14083 7.61246 8.23569 7.80568 8.27412C7.99889 8.31255 8.19916 8.29283 8.38116 8.21744C8.56316 8.14205 8.71872 8.01439 8.82817 7.85059C8.93761 7.68679 8.99603 7.49422 8.99603 7.29722C8.99603 7.03306 8.89109 6.77971 8.7043 6.59292C8.5175 6.40613 8.26416 6.30119 7.99999 6.30119Z" fill="black"/>
</g>
<defs>
<clipPath id="clip0_11785_3854">
<rect width="16" height="16" fill="white"/>
</clipPath>
</defs>
</svg>
