<svg xmlns="http://www.w3.org/2000/svg" fill="none" viewBox="0 0 348 89"><path d="m26.007 21.15-.114.996h.587l.082-.571-.441-.425h-.114Zm-.178 2.643.424.408.05-.408h-.474Zm.032-1.321-.098.995h.57l.115-.995h-.587Zm.72-1.322.032.017v-.017h-.033Zm-.444-1.32-.081.799.195.195h.392l.114-.995h-.62ZM8.44 21.15l.099.996h1.601l-.997-.996H8.44Zm.13 1.322.114.995h2.778l-.997-.995H8.57Zm9.135 0 1.013.995h2.942l-.997-.995h-2.958Zm7.259 8.486c.18-.065.343-.13.507-.196l.735-6.152-.507-.505-.735 6.853Zm-8.581-9.808 1.013.996h2.942l-.997-.996h-2.958Zm-2.077 1.322 1.013.995h2.942l-.997-.995h-2.958Zm8.876-1.322 1.013.996h.883l.114-.996h-2.01Zm-10.068 0 .017.13.866.866h2.942l-.997-.996h-2.828Zm6.667 0 1.014.996h2.942l-.997-.996h-2.96Zm38.017-1.714.131-.196.213-.326.065-.457-2.255-.13-.344.652s1.357-.457 1.635-.065l.54.522h.015Zm-2.582 5.369c.31.033.572.13.785.277.114-.277.245-.554.36-.832-.965-.653-2.992-.946-2.992-.946l1.847 1.485v.016ZM8.407 20.823h.408l-.457-.457.05.457Z" fill="#243C6C"/><path d="M55.887 21.053s-.163.033-.278.065c.212-.049 1.634.098 2.174.163.294-.57.572-1.06.784-1.452l-.228.114-.556.13-2.256.262.344.718h.016Zm-.376 5.155-.098-.18-.343.066-2.386-2.007v.522c.752.963.964 2.578.964 2.578l-.474-.897-.065.587-1.226-1.354c.409 1.159-1.03 1.42-1.03 1.42-3.906 7.587-2.386 15.11-1.634 17.754h3.334c-1.291-6.087.801-13.234 2.975-18.472" fill="#fff"/><path d="m36.65 11.898-3.317 16.808c1.03 2.757 5.491 5.156 5.491 5.156a28.97 28.97 0 0 1-.572 1.99 5.772 5.772 0 0 1-2.043.066c-1.536-.228-2.975-1.077-4.282-2.497l4.544-22.013c.31.392.163.523.163.523m.327 27.218c-.163 0-.31.033-.474.033h-.245c-1.733 0-3.482-.49-5.23-1.453l.604-2.937c1.08.93 2.256 1.501 3.482 1.68.278.05.572.066.866.066.703 0 1.422-.13 2.157-.359a27.158 27.158 0 0 1-1.176 2.986m-2.01 3.378a8.827 8.827 0 0 1-2.926-.18 12 12 0 0 1-1.831-.603l.621-3.003c1.422.67 2.877 1.028 4.331 1.028h.262a7.36 7.36 0 0 0 1.324-.146 17.568 17.568 0 0 1-1.782 2.888M8.26 19.502h2.632l-1.357-1.354s0-.114.05-.18c.064-.065.146-.081.179-.049l1.569 1.567h.768l-.163-1.6h.817l.163 1.6h1.357l-1.357-1.355s0-.114.05-.18c.065-.064.146-.08.18-.048l1.568 1.567h2.942l-1.356-1.355s0-.114.049-.18c.065-.065.147-.081.18-.048l1.569 1.566h2.958L19.7 18.1s0-.114.05-.18c.065-.065.146-.081.18-.049l1.568 1.567h2.942l-1.357-1.355s0-.114.05-.179c.065-.065.147-.082.18-.049l1.568 1.567h.425l.246-2.22h.817l-.245 2.22h.62l.082-.62h.393l-.752-.751s0-.098.065-.163c.066-.066.131-.082.164-.066l1.585 1.583H30.8c.768-1.501 1.537-3.214 1.88-4.83.703-3.296 2.55-3.606 2.55-3.606L30.896 33.03a34.974 34.974 0 0 1-10.51 2.84c-2.026.227-4.134.26-6.243.13-.033 0-.098.032-.098.097 0 .05.033.099.082.115a35.34 35.34 0 0 0 4.723.31 34.54 34.54 0 0 0 3.89-.212 36.096 36.096 0 0 0 7.862-1.779l-.572 2.937a35.377 35.377 0 0 1-6.276 1.273c-2.027.228-4.12.261-6.244.13-.033 0-.098.033-.098.082 0 .05.033.114.082.114 1.569.213 3.154.31 4.723.31 1.291 0 2.6-.081 3.89-.212a34.834 34.834 0 0 0 3.694-.603l-.588 2.986a26.44 26.44 0 0 1-2.272.391 20.957 20.957 0 0 1-4.74-.032c-.05 0-.098.032-.098.081 0 .05.016.082.065.098a21.62 21.62 0 0 0 4.315.44c.752 0 1.504-.048 2.24-.13.114 0 .212-.032.31-.049l-.441 2.252h.915l.457-2.219c.246.082.507.147.752.196a8.99 8.99 0 0 0 2.076.228 9.21 9.21 0 0 0 1.896-.212 11.83 11.83 0 0 1-1.961 1.99h13.974c-2.974-9.725 3.057-18.34 3.057-18.34l-.131-.196c-1.095-.327-.066-.914-.066-.914-.473-1.355.818-1.29.818-1.29h.032a3.502 3.502 0 0 0-.114-.211l-.474-.457-.817.652h-.965l.344-.848-1.504 1.158-1.438-.391 1.716-1.224h-.964l-1.16.718-.41-.196-.686-.522.409-.065.964-.588 4.92.196.343-.587c-2.321.26-2.73-1.29-2.73-1.29l.409-.522-1.357-.13-.686.13-.409-.26.278-.197-1.504-.587 2.19.261-2.598-1.354v-.588l2.599 1.681.555.196 1.716-.13 1.292 1.027h.539c.213-.522-1.03-1.028-1.03-1.028v-1.224h.883l-1.03-.718-.196-.897 1.226.522-1.226-.848.13-.653 2.191 1.811.687 2.073.343.065c.081-.588 2.06-2.203 2.06-2.203l-.213.832.62-.13c.753-.327 1.635-.588 1.635-.588l.687.13.964.833.343-.065v-.392l-.278-.849-.54-.195-3.35-.066-1.16-.718-1.847-.457 1.978-.457c.752-.26 3.203 1.094 3.203 1.094l.883.391.343-.195-.409-.653-.686-.522-1.782-.522 1.095-.066-.212-.457c-1.635.457-3.138-1.028-3.138-1.028l4.51.637 2.256 1.876.278-.391c-.343-.588-.555-1.681-.555-1.681l.555-.13-1.438-1.42.948-.13.54-.458.195.702.344.196.212.522.474.196.066 2.007 1.634-1.55c-.196-.588 0-1.224 0-1.224l1.781-1.355c.213.784-1.095 3.95-1.095 3.95l.409.065c.065-.457.752-.963.752-.963l.964-.065 1.439-.523-.278.392-.818.522h.278l-.196.588-1.307.962.343.131 2.19.13c3.481-.13 4.102 2.318 4.102 2.318h-.539l-.212-.523-.344-.391h-.408l-.409-.392-.278.196-.343-.196-.278.588-4.445-.327.065.196.752.326c3.203.588 3.971 5.37 3.971 5.37l-.212-.262-4.233-3.296c-1.291-1.224-2.125-.718-2.125-.718l2.32 1.68c.41.523.475 2.073.475 2.073l-.409-.571-.13.26.065.719-.752-.261c0-.457-.278-.849-.278-.849l-2.664-2.252-.523-.49c-.098.148-.18.278-.278.409l.376.652 1.847 1.355h-.409l-.817-.702.278.767-.409.066-1.078-1.796a33.64 33.64 0 0 0-1.063 1.763l1.406.163c0 .457-1.013.75-2.027.947-.098.195-.196.407-.31.603l1.095.196-1.733 1.126c-4.02 8.926-3.138 16.97-2.517 20.185h5.557v-6.364h2.583v6.364h1.29V33.666h2.583v10.786h1.292V25.915h2.598v18.782h1.292V23.565h2.598v21.132h1.291V26.47h2.6v18.227h9.234c.147-9.497-2.746-19.125-8.957-27.284-14.562-19.37-42.2-23.155-61.584-8.452a43.713 43.713 0 0 0-9.267 9.53l.115 1.011H8.26Z" fill="#fff"/><path d="M57.031 22.815c-.277.033-.457.05-.457.05l.392.081s.032-.082.049-.114m-44.785.961.391.375-.049-.375h-.342Zm1.341 9.252-.899-8.37-.882-.882H8.733l.965 9.008h-.736c1.618.195 3.155.277 4.61.26m-2.665-10.59 1.014.996h.62l-.097-.995h-1.537Zm-1.323-1.32 1.013.995h1.815l-.115-.996H9.584Zm2.075-1.322.555.555-.065-.555h-.49Zm-3.369 0 .016.033.965.963h2.942l-.997-.996H8.29Zm20.611 3.213c.082-.163.196-.359.31-.587h-1.323l.866.865c.049-.098.082-.18.147-.277Z" fill="#fff"/><path d="M7.033 32.508c.621.114 1.226.195 1.83.26l-.947-8.99H5.234s-.098-.066-.098-.164.049-.163.098-.163h2.631l-.114-1.012H5.627A44.421 44.421 0 0 0 .005 44.697H11.56C6.477 39.46 7.033 32.524 7.033 32.524m.553-11.702-.114-1.011H7.26c-.228.342-.44.669-.653 1.011h.98Zm38.25 31.235H.74c.131.734.294 1.468.458 2.186h40.469a31.87 31.87 0 0 1 4.167-2.186ZM27.021 24.494l1.062.294s.098-.277.457-1.012h-1.438l-.082.718ZM37.94 56.838H1.917c.212.734.458 1.468.735 2.187h32.166c1.03-.718 2.076-1.453 3.122-2.187ZM7.621 21.15H6.428c-.196.343-.392.67-.588 1.012h1.896L7.62 21.15Zm19.645 1.322-.115.995h1.308l-.997-.995h-.196ZM30.96 61.62H3.682c.327.734.67 1.469 1.03 2.187h22.767c1.144-.686 2.305-1.42 3.481-2.187Zm54.542-2.612c.261-.718.507-1.452.72-2.17h-3.76a690.76 690.76 0 0 1 3.024 2.17M.136 47.274c.049.735.13 1.453.212 2.187h87.443a32.94 32.94 0 0 0 .212-2.187H.136Zm79.058 7.459v-.49h7.747c.18-.734.327-1.452.474-2.186H73.261c2.223.8 4.217 1.73 5.933 2.676ZM6.134 66.399c.065.098.114.196.18.31 4.07 3.868 9.773 2.97 16.458-.31H6.134Zm42.706-6.346c-10.33 9.513-15.396 20.218-26.347 22.29h-.049c14.841 8.339 33.85 7.637 48.282-3.296 6.75-5.124 11.604-11.798 14.448-19.157-18.24-9.236-28.21-7.311-36.334.163ZM21.857 19.829l1.014.995h2.353l.05-.522-.475-.473h-2.942Zm2.648 2.643.49.49.048-.49h-.538Zm-3.399 0 1.014.995h2.827l.017-.098-.9-.897h-2.958Zm4.152-2.643.065.065v-.065h-.065Zm-12.014 2.643.115.995h1.52l-1.014-.995h-.62Zm10.868 8.795.8-7.474h-2.484l.98.98s0 .113-.048.178c-.066.066-.147.082-.18.05l-1.21-1.192h-2.94l.98.98s0 .114-.049.179c-.065.065-.147.081-.18.049l-1.21-1.191H15.63l.98.979s0 .114-.049.18c-.065.064-.147.08-.18.048l-1.192-1.191H13.39l.98 9.252c3.923-.114 7.192-.88 9.725-1.778m-10.883-9.17h.327l-.36-.36.033.36Zm14.12-.246.246.261h1.814c.13-.228.262-.457.409-.718l-.278-.277h-2.108l-.099.75.017-.016Zm.245-2.07-.114.995h1.749l-1.014-.996h-.62Zm.033-.327h.278l-.245-.229-.033.229Zm2.535 1.32c.18-.31.36-.654.54-1.012h-2.027l1.014 1.011h.49-.017Zm-17.18-.994.115.995h2.534l-.997-.995h-1.651Zm2.094 0 1.013.995h2.942L18 19.83h-2.942Zm3.399 0 1.013.995h2.942L21.4 19.83h-2.942Zm129.875 2.949-4.925-13.74-4.924 13.74h9.849Zm.267.598h-10.383l-1.657 4.773c-.427 1.196-.641 2.23-.641 3.096 0 1.338.508 2.293 1.505 2.873 1.006.58 2.422.865 4.257.865v.545h-13.678v-.544c2.475 0 4.399-.937 5.761-2.81.757-1.045 1.728-3.204 2.912-6.487l9.101-25.4h1.077l11.639 31.672c.543 1.481 1.077 2.355 1.612 2.623.543.268 2.155.401 4.844.401v.545h-19.876v-.544c2.699 0 4.542-.099 5.548-.295 1.006-.196 1.505-.607 1.505-1.222l-.107-.544-3.428-9.547h.009Z" fill="#fff"/><path d="M174.326 16.836h4.986c2.609 0 4.542-.49 5.788-1.463 1.496-1.16 2.253-3.114 2.253-5.871 0-3.042-.614-5.193-1.852-6.442-1.238-1.249-3.286-1.873-6.144-1.873h-2.574c-.757 0-1.309.053-1.665.16a.948.948 0 0 0-.677.678c-.089.348-.133 1.044-.133 2.097v12.714h.018Zm21.816 10.902v1.785c0 2.123-.196 3.595-.596 4.425-.65 1.365-1.933 2.052-3.847 2.052-2.493 0-4.132-.937-4.924-2.81-.651-1.508-.971-4.39-.971-8.637V23.42c0-.357.018-.74.053-1.133 0-1.91-.445-3.194-1.344-3.854-.891-.66-2.182-1-3.856-1h-6.331v14.508c0 1.08.062 1.766.187 2.052.124.285.4.517.81.678.41.16 1.256.258 2.529.294 1.273.036 2.609.054 4.016.054v.482h-21.924v-.545c3.767 0 6.038-.143 6.786-.437.356-.143.614-.348.757-.624.142-.268.213-.928.213-1.972V4.113c0-1.008-.071-1.642-.213-1.891-.072-.143-.303-.286-.704-.429-1.042-.392-3.321-.597-6.839-.597V.714h22.031c3.882 0 6.963 1.044 9.261 3.131 1.834 1.66 2.751 3.364 2.751 5.14 0 2.087-.721 3.8-2.163 5.13-1.737 1.623-4.471 2.65-8.22 3.078 3.829.758 6.358 2.89 7.587 6.415.615 1.757.926 4.416.926 7.976 0 1.044.089 1.793.268 2.266.187.464.614.696 1.309.696.765 0 1.291-.607 1.576-1.811.294-1.205.436-2.873.436-4.997h.436ZM230.39.705v15.382h-.757c-.828-5.889-2.137-9.93-3.927-12.134-1.469-1.847-3.651-2.766-6.518-2.766-.721 0-1.113.036-1.184.107-.143.107-.214.58-.214 1.41V31.94c0 1.044.071 1.713.214 1.998.071.143.32.304.756.464.428.16 1.256.295 2.476.402 1.22.107 2.876.16 4.951.16v.544h-23.428v-.544c2.048 0 3.677-.053 4.897-.16 1.22-.107 2.048-.241 2.476-.402.427-.16.703-.366.837-.597.124-.232.187-.857.187-1.865V2.757c0-.937-.107-1.445-.321-1.517-.107-.035-.481-.053-1.131-.053-2.805 0-4.942.901-6.411 2.712-1.799 2.24-3.144 6.263-4.043 12.08h-.757V.705h31.897Zm16.003 3.408v27.828c0 1.044.071 1.713.214 1.998.071.143.285.286.65.428 1.042.402 3.179.598 6.411.598v.544h-21.22v-.544c1.541 0 2.885-.053 4.016-.16 1.131-.107 1.906-.241 2.316-.402.409-.16.685-.366.81-.597.125-.232.187-.857.187-1.865V4.113c0-1.008-.071-1.641-.214-1.891-.071-.143-.303-.286-.703-.437-1.042-.393-3.179-.598-6.412-.598V.705h21.283v.482c-1.541 0-2.885.053-4.016.16-1.131.108-1.933.25-2.396.429l-.534.214c-.249.214-.374.919-.374 2.114m35.583 16.943c0 5.22-.997 9.011-2.992 11.384-1.994 2.373-4.871 3.56-8.646 3.56-4.274 0-7.881-1.294-10.828-3.881-3.518-3.096-5.281-7.539-5.281-13.33 0-5.79 1.781-10.268 5.343-13.873 3.054-3.096 6.331-4.64 9.822-4.64 1.692 0 3.17.304 4.426.92 1.62.794 3.099 2.087 4.425 3.89L280.908 0h.267v15.658l-.436-.268c0-4.621-1.274-8.333-3.829-11.125-2.128-2.329-4.364-3.498-6.697-3.498-3.134 0-5.387 1.446-6.749 4.336-1.372 2.891-2.049 7.245-2.049 13.071s.74 10.028 2.218 12.955c1.478 2.926 3.731 4.39 6.75 4.39 3.419 0 6.046-1.009 7.889-3.025 2.191-2.374 3.295-6.192 3.295-11.438h.436l-.009-.01ZM134.26 86.477c.106.053.249.16.436.328.187.17.329.33.445.49v.062a3.39 3.39 0 0 0-.214.196l-.24.24c-.08.08-.16.17-.232.24-.071.08-.133.143-.169.179h-.062a6.216 6.216 0 0 0-.374-.427 2 2 0 0 0-.489-.365v-.063s.044-.062.124-.16.178-.204.285-.303l.294-.293a.8.8 0 0 1 .151-.134h.062l-.017.01Zm-1.932 0c.107.053.249.16.436.328.187.17.33.33.445.49v.062a3.71 3.71 0 0 0-.213.196l-.241.24c-.08.08-.16.17-.231.24-.071.08-.133.143-.169.179h-.062a4.864 4.864 0 0 0-.383-.427 2 2 0 0 0-.49-.365v-.063s.045-.062.125-.16.178-.204.285-.303l.294-.293a.8.8 0 0 1 .151-.134h.062l-.009.01Zm3.952-6.97h3.222c.16 0 .267.054.32.151.063.098.089.267.089.49v.08c0 .25-.062.41-.195.499-.134.08-.312.124-.526.124h-.631a.873.873 0 0 1 .249.258.75.75 0 0 1 .107.419c0 .169-.063.382-.178.64a4.299 4.299 0 0 1-.543.837 7.034 7.034 0 0 1-.89.89 6.6 6.6 0 0 1-1.202.801 7.48 7.48 0 0 1-1.513.579 7.355 7.355 0 0 1-1.816.222c-.649 0-1.139-.062-1.575-.178a3.712 3.712 0 0 1-1.068-.463 2.107 2.107 0 0 1-.659-.658 3.034 3.034 0 0 1-.347-.757 3.625 3.625 0 0 1-.133-.748 9.108 9.108 0 0 1-.027-.65c0-.284.027-.569.089-.863.053-.293.124-.56.196-.81.071-.249.142-.453.222-.623.071-.169.134-.266.178-.311.018-.018.045-.036.062-.036.054 0 .107.027.161.08-.08.214-.152.481-.214.81-.053.33-.089.668-.089 1.015 0 .312.062.632.178.944.125.311.321.596.596.845.276.25.641.454 1.086.614.445.16.997.24 1.647.24a9.18 9.18 0 0 0 1.976-.195 8.754 8.754 0 0 0 1.557-.48c.436-.188.775-.392 1.015-.597.24-.214.365-.392.365-.552 0-.178-.16-.365-.481-.57-.32-.195-.89-.436-1.718-.712l.508-1.317-.018-.018Z" fill="#fff"/><path d="M140.535 76.9c.16-.17.293-.365.418-.579a7.04 7.04 0 0 1 .356-.596c.071-.125.32-.187.739-.187.311 0 .685.071 1.103.205.419.133.873.285 1.344.445.481.16.962.311 1.46.445.499.133.979.205 1.451.205.151 0 .329 0 .534-.018a7.7 7.7 0 0 0 .552-.045l.026.045c-.044.07-.089.16-.151.258a3.285 3.285 0 0 0-.169.302 4.38 4.38 0 0 0-.142.294.889.889 0 0 0-.081.232 9.59 9.59 0 0 0-.934.044c-.276.027-.534.08-.774.16a3.61 3.61 0 0 0-.721.303 7.82 7.82 0 0 0-.775.472c-.4.284-.783.543-1.148.783-.365.24-.756.445-1.175.623-.418.169-.89.311-1.415.41a10.16 10.16 0 0 1-1.851.15c-.107 0-.196-.044-.285-.142-.08-.098-.125-.249-.125-.454v-.098c0-.222.063-.382.196-.48a.84.84 0 0 1 .508-.152c.863-.008 1.557-.08 2.1-.213a6.986 6.986 0 0 0 1.389-.48 7.394 7.394 0 0 0 1.023-.606 6.796 6.796 0 0 1 1.015-.605c-.241-.098-.499-.187-.783-.294a14.895 14.895 0 0 0-.828-.267c-.267-.08-.525-.142-.766-.196a2.903 2.903 0 0 0-.614-.08c-.4 0-.703.018-.908.045a2.06 2.06 0 0 0-.507.142l-.062-.08v.009Zm10.662-6.026c.018.419.036.9.044 1.442.009.543.018 1.104.018 1.71v1.05c0 .355-.009.711-.035 1.05a5.18 5.18 0 0 0-.018.365v.347c0 .427.027.81.08 1.148.053.338.142.623.285.845.133.232.32.4.569.517.241.115.552.169.926.169.16 0 .267.053.32.151.063.098.089.258.089.48v.08c0 .241-.062.401-.195.49a1 1 0 0 1-.526.125c-.525 0-.943-.071-1.254-.223a1.618 1.618 0 0 1-.713-.614 2.238 2.238 0 0 1-.311-.908 8.471 8.471 0 0 1-.071-1.112v-2.501c0-.48 0-.988-.027-1.522a36.318 36.318 0 0 0-.08-1.504c-.036-.472-.08-.89-.134-1.246-.053-.356-.115-.606-.186-.74.08-.07.169-.168.267-.275.097-.107.186-.214.275-.32a4.61 4.61 0 0 0 .232-.294c.071-.09.116-.151.151-.178a.185.185 0 0 1 .107-.045c.036 0 .071.018.098.045a.146.146 0 0 1 .035.098l.045 1.353.009.017Z" fill="#fff"/><path d="M156.128 82.56c.106.054.249.16.436.33.187.169.329.33.445.49v.062a3.365 3.365 0 0 0-.214.196l-.24.24c-.089.08-.16.169-.232.24a1.54 1.54 0 0 1-.178.178h-.062a6.216 6.216 0 0 0-.374-.427 2 2 0 0 0-.489-.365v-.062s.044-.063.124-.16a2.93 2.93 0 0 1 .285-.303l.294-.294a.8.8 0 0 1 .151-.133h.062l-.008.009Zm-1.932 0c.107.054.249.16.436.33.187.169.33.33.445.49v.062a3.679 3.679 0 0 0-.213.196l-.241.24c-.08.08-.16.169-.231.24-.071.08-.134.143-.169.178h-.062a6.501 6.501 0 0 0-.374-.427 2 2 0 0 0-.49-.365v-.062s.045-.063.125-.16a2.93 2.93 0 0 1 .285-.303l.293-.294a.785.785 0 0 1 .152-.133h.062l-.018.009Zm3.943-2.322c0 .24-.062.4-.196.49-.133.08-.311.124-.525.124-.24 0-.472-.018-.685-.045a1.913 1.913 0 0 1-.579-.178 1.465 1.465 0 0 1-.445-.365 1.421 1.421 0 0 1-.267-.605 6.144 6.144 0 0 1-.329.392 2.102 2.102 0 0 1-.499.382 2.565 2.565 0 0 1-.756.294c-.294.08-.668.116-1.113.116-.106 0-.195-.045-.284-.143-.081-.097-.125-.249-.125-.454v-.097c0-.223.071-.383.205-.481a.863.863 0 0 1 .516-.151c.4 0 .73-.036 1.006-.107.276-.071.498-.17.667-.285a1.61 1.61 0 0 0 .401-.365c.098-.125.16-.25.204-.365.107-.293.214-.525.33-.703.115-.178.213-.294.285-.347a.064.064 0 0 1 .044-.018c.018 0 .045 0 .062.027.018.018.036.027.045.035-.054.08-.098.223-.143.41a2.318 2.318 0 0 0-.062.534c0 .445.143.748.418.917.276.169.748.258 1.407.258.16 0 .267.053.32.151.054.098.089.258.089.48v.08l.009.019Z" fill="#fff"/><path d="M165.429 80.842c-.125 0-.259-.017-.401-.044a1.318 1.318 0 0 1-.418-.178 1.416 1.416 0 0 1-.365-.365 1.643 1.643 0 0 1-.24-.605 5.126 5.126 0 0 1-1.051.872c-.356.213-.765.32-1.246.32-.338 0-.658-.08-.961-.249-.303-.17-.516-.48-.632-.943a6.144 6.144 0 0 1-.329.391 2.102 2.102 0 0 1-.499.383 2.845 2.845 0 0 1-.756.302c-.294.08-.668.116-1.113.116-.107 0-.196-.044-.285-.142-.08-.098-.124-.25-.124-.454v-.098c0-.222.071-.383.205-.48a.863.863 0 0 1 .516-.152c.4 0 .738-.035 1.005-.107.276-.07.499-.169.668-.285a1.59 1.59 0 0 0 .401-.364c.097-.125.16-.25.204-.365.107-.294.214-.534.33-.703.115-.178.213-.294.284-.348a.07.07 0 0 1 .045-.017c.018 0 .044 0 .062.026.018.018.036.027.045.036-.054.08-.098.222-.143.41a2.318 2.318 0 0 0-.062.533c0 .445.133.748.392.917.258.17.605.258 1.023.258.294 0 .552-.035.774-.107.223-.07.41-.169.561-.284.152-.116.276-.232.374-.365.098-.125.16-.25.205-.365.107-.294.213-.534.329-.703.116-.178.214-.294.285-.348a.069.069 0 0 1 .044-.017c.018 0 .045 0 .063.026.017.018.035.027.044.036-.053.08-.098.223-.142.41a2.268 2.268 0 0 0-.063.533c0 .348.089.632.276.846.187.222.499.33.953.33.267 0 .507-.072.703-.223.196-.151.356-.32.454-.499a2.68 2.68 0 0 1-.063-.374c-.008-.124-.017-.24-.017-.356 0-.213.009-.4.035-.57.027-.168.063-.293.107-.373.009-.035.036-.044.08-.044.045 0 .062.008.062.035.036.285.081.57.143.855.062.284.178.551.356.774.169.231.409.418.721.56.311.143.721.214 1.246.214.16 0 .267.054.32.152.063.097.089.258.089.48v.08c0 .24-.062.4-.195.49-.134.08-.312.124-.526.124-.979 0-1.637-.4-1.984-1.192a6.73 6.73 0 0 1-.294.382c-.107.143-.24.267-.383.392a1.632 1.632 0 0 1-1.139.418" fill="#fff"/><path d="M171.196 70.954a1.305 1.305 0 0 1-.249-.347.987.987 0 0 1-.098-.436c0-.196.053-.454.16-.766.107-.311.249-.56.427-.765.036.276.089.498.17.667.089.17.186.32.311.445s.276.232.445.312c.169.089.365.169.579.249l-.57 1.29c.036.837.053 1.55.08 2.128.018.578.036 1.068.053 1.45.018.392.027.695.027.908 0 .223.009.383.018.499v.293c0 .463-.08.926-.24 1.398a4.292 4.292 0 0 1-.686 1.273 3.584 3.584 0 0 1-1.059.916c-.409.24-.863.356-1.362.356-.106 0-.195-.044-.284-.142-.081-.098-.125-.25-.125-.454v-.098c0-.222.071-.383.205-.48a.863.863 0 0 1 .516-.152c.427 0 .783-.026 1.059-.08.276-.053.498-.142.65-.276a.96.96 0 0 0 .32-.543c.054-.231.089-.525.089-.88 0-.303-.009-.677-.035-1.113-.018-.437-.045-.89-.081-1.371-.026-.48-.062-.961-.097-1.45a42.468 42.468 0 0 0-.098-1.327c-.036-.4-.072-.748-.098-1.024a16.592 16.592 0 0 0-.054-.507m3.721-.017a2.694 2.694 0 0 1-.302-.374.817.817 0 0 1-.143-.472c0-.196.054-.454.161-.765.106-.312.249-.561.427-.766.026.276.089.499.169.668.089.169.187.32.311.445.125.124.276.231.445.311.169.09.365.17.579.25l-.57 1.192c.036.48.063 1.006.098 1.584.027.57.062 1.157.089 1.754.027.596.045 1.193.062 1.78a54.6 54.6 0 0 1 .027 1.647c0 .293-.009.551-.035.774a3.517 3.517 0 0 1-.437 1.326c-.124.231-.284.49-.471.774h-.063l-.08-.062c.054-.276.089-.703.098-1.29.018-.588.027-1.291.027-2.11 0-.507-.018-1.06-.036-1.673-.026-.614-.062-1.22-.098-1.834a79.798 79.798 0 0 0-.124-1.744 48.717 48.717 0 0 0-.134-1.433m10.511 8.856c0-.543-.329-1.228-.988-2.047-.089-.107-.142-.196-.142-.267 0-.045.018-.09.044-.143l.517-1.272h.062c.08.106.187.267.311.49.125.222.25.462.365.729.116.267.214.543.294.837.089.284.125.551.125.783 0 1.023-.116 1.878-.339 2.554-.222.677-.498 1.22-.81 1.62-.311.4-.631.694-.961.855-.32.169-.587.249-.783.249a4.84 4.84 0 0 1-.846-.08 10.008 10.008 0 0 1-.845-.187 15.555 15.555 0 0 0-.454-.134 5.4 5.4 0 0 1-.454-.151l.018-.098c.837-.018 1.566-.151 2.18-.374.615-.231 1.122-.525 1.522-.88.401-.357.695-.749.89-1.185.196-.436.294-.863.294-1.3Zm3.863-8.874c.018.419.036.9.045 1.442.009.543.018 1.104.018 1.71v1.05c0 .355-.009.711-.036 1.05a5.18 5.18 0 0 0-.018.365v.347c0 .427.027.81.08 1.148.054.338.143.623.285.845.142.223.321.4.57.517.24.115.552.169.925.169.161 0 .267.053.321.151.062.098.089.258.089.48v.08c0 .241-.063.401-.196.49a1.02 1.02 0 0 1-.525.125c-.525 0-.944-.071-1.255-.223a1.61 1.61 0 0 1-.712-.614 2.254 2.254 0 0 1-.312-.908 8.647 8.647 0 0 1-.071-1.112v-2.501c0-.48 0-.988-.027-1.522a34.655 34.655 0 0 0-.08-1.504c-.035-.472-.08-.89-.133-1.246-.054-.356-.116-.606-.187-.74.08-.07.169-.168.267-.275.098-.107.187-.214.276-.32.089-.107.169-.205.231-.294.071-.09.116-.151.152-.178a.162.162 0 0 1 .106-.045.14.14 0 0 1 .098.045.147.147 0 0 1 .036.098l.044 1.353.009.017Z" fill="#fff"/><path d="M194.498 77.131a.725.725 0 0 0-.428.142 2.029 2.029 0 0 0-.374.356 3.696 3.696 0 0 0-.542.97 3.33 3.33 0 0 0 1.068.837 2.92 2.92 0 0 0 1.272.294c.508 0 .757-.223.757-.659 0-.08-.054-.231-.151-.445a3.622 3.622 0 0 0-.392-.65 2.651 2.651 0 0 0-.561-.578 1.032 1.032 0 0 0-.658-.25m-3.365 2.395c.258 0 .49-.053.677-.16.187-.107.347-.25.471-.418.125-.17.232-.348.312-.552.08-.196.16-.392.222-.579.223-.605.49-1.077.819-1.397.33-.32.659-.49.988-.49.241 0 .463.054.668.16.204.107.391.24.569.419.178.169.339.365.49.587.142.223.285.445.409.677.178.356.339.65.499.872.151.222.302.4.445.534.151.133.302.222.463.276.16.053.338.08.525.08.16 0 .267.053.32.151.054.098.089.258.089.48v.081c0 .24-.062.4-.196.49-.133.08-.311.124-.525.124-.276 0-.569-.098-.881-.285-.311-.187-.614-.552-.908-1.086-.044.16-.107.32-.196.499a3.467 3.467 0 0 1-.302.49 1.879 1.879 0 0 1-.374.373.694.694 0 0 1-.409.143c-.472 0-.926-.107-1.353-.32-.428-.214-.864-.588-1.309-1.122a2.354 2.354 0 0 1-.73.952 1.72 1.72 0 0 1-1.094.365c-.107 0-.196-.044-.285-.142-.08-.098-.125-.25-.125-.454v-.098c0-.223.072-.383.205-.48a.867.867 0 0 1 .516-.152" fill="#fff"/><path d="M202.187 73.188c.107.054.25.16.437.33.186.169.338.329.445.49v.061a3.39 3.39 0 0 0-.214.196l-.24.24c-.08.08-.161.17-.232.24-.071.08-.133.143-.169.179h-.062a6.501 6.501 0 0 0-.374-.427 1.98 1.98 0 0 0-.49-.365v-.063l.125-.169a2.93 2.93 0 0 1 .285-.302l.294-.294a.8.8 0 0 1 .151-.133h.062l-.018.017Zm-1.05-1.993c.107.053.249.16.436.329s.33.33.445.49v.062a3.71 3.71 0 0 0-.213.196l-.241.24c-.08.089-.16.169-.24.24-.071.08-.133.142-.169.178h-.062a6.501 6.501 0 0 0-.374-.427 2 2 0 0 0-.49-.365v-.062s.045-.063.125-.17a2.93 2.93 0 0 1 .285-.302l.293-.294a.785.785 0 0 1 .152-.133h.062l-.009.018Zm-.881 1.993c.107.054.249.16.436.33.187.169.33.329.445.49v.061a3.71 3.71 0 0 0-.213.196l-.241.24c-.08.08-.16.17-.24.24-.071.08-.134.143-.169.179h-.062a4.864 4.864 0 0 0-.383-.427 2 2 0 0 0-.49-.365v-.063l.125-.169a2.93 2.93 0 0 1 .285-.302l.293-.294a.785.785 0 0 1 .152-.133h.062v.017Zm3.525 7.05c0 .24-.063.4-.196.489a.998.998 0 0 1-.525.124 5.55 5.55 0 0 1-.686-.044 1.915 1.915 0 0 1-.578-.178 1.453 1.453 0 0 1-.445-.365 1.397 1.397 0 0 1-.267-.605 5.858 5.858 0 0 1-.33.391 2.075 2.075 0 0 1-.498.383 2.587 2.587 0 0 1-.756.294c-.303.08-.668.116-1.113.116-.107 0-.196-.045-.285-.143-.08-.098-.124-.249-.124-.454v-.098c0-.222.071-.382.204-.48a.867.867 0 0 1 .516-.152c.401 0 .73-.035 1.006-.106.276-.072.499-.17.668-.285.169-.116.311-.232.4-.365a1.37 1.37 0 0 0 .205-.365c.107-.294.214-.525.329-.703.116-.178.205-.294.285-.347a.07.07 0 0 1 .045-.018c.017 0 .044 0 .062.027.018.017.036.026.044.035-.053.08-.097.223-.142.41a2.318 2.318 0 0 0-.062.534c0 .445.142.747.418.916.276.17.748.259 1.406.259.161 0 .267.053.321.15.062.099.089.259.089.481v.08l.009.018Z" fill="#fff"/><path d="M207.021 73.188c.106.053.249.16.436.329.187.17.329.33.445.49v.062a3.39 3.39 0 0 0-.214.196l-.24.24c-.08.08-.16.17-.232.24-.071.08-.133.143-.169.178h-.062a6.501 6.501 0 0 0-.374-.427 2 2 0 0 0-.489-.365v-.062l.124-.17c.08-.097.178-.204.285-.302l.294-.294a.8.8 0 0 1 .151-.133h.062l-.017.018Zm-1.932 0c.107.053.249.16.436.329.187.17.338.33.445.49v.062a3.71 3.71 0 0 0-.213.196l-.241.24c-.08.08-.16.17-.231.24-.071.08-.134.143-.169.178h-.062a6.501 6.501 0 0 0-.374-.427 2 2 0 0 0-.49-.365v-.062l.125-.17c.08-.097.178-.204.285-.302l.293-.294a.785.785 0 0 1 .152-.133h.062l-.018.018Zm3.364 7.049c0 .24-.062.4-.195.49a.998.998 0 0 1-.525.124 5.55 5.55 0 0 1-.686-.044 1.915 1.915 0 0 1-.578-.178 1.453 1.453 0 0 1-.445-.365 1.398 1.398 0 0 1-.267-.606 5.884 5.884 0 0 1-.33.392 2.075 2.075 0 0 1-.498.383 2.583 2.583 0 0 1-.757.293c-.302.08-.667.116-1.112.116-.107 0-.196-.044-.285-.142-.08-.098-.125-.25-.125-.454v-.098c0-.223.072-.383.205-.48a.867.867 0 0 1 .516-.152c.401 0 .739-.036 1.006-.107a2.12 2.12 0 0 0 .668-.285c.169-.115.311-.231.4-.365.098-.124.16-.249.205-.365.107-.293.213-.525.329-.703.116-.178.214-.293.285-.347a.069.069 0 0 1 .044-.018c.018 0 .045 0 .063.027.018.018.035.027.044.036-.053.08-.098.222-.142.41a2.265 2.265 0 0 0-.062.533c0 .445.142.748.418.917.276.169.748.258 1.406.258.16 0 .267.053.321.151.062.098.089.258.089.481v.08l.008.018Z" fill="#fff"/><path d="M211.8 80.843c-.338 0-.659-.08-.961-.25-.303-.169-.516-.48-.632-.943a6.144 6.144 0 0 1-.329.392 2.102 2.102 0 0 1-.499.382 2.859 2.859 0 0 1-.756.303c-.303.08-.668.116-1.113.116-.107 0-.196-.045-.285-.143-.08-.098-.124-.249-.124-.454v-.098c0-.222.071-.382.204-.48a.868.868 0 0 1 .517-.152c.4 0 .729-.035 1.005-.106.276-.072.499-.17.668-.285.169-.116.302-.232.4-.365a1.37 1.37 0 0 0 .205-.365c.107-.294.214-.534.329-.703.116-.178.214-.294.285-.347a.07.07 0 0 1 .045-.018c.017 0 .044 0 .062.027.018.017.036.026.044.035-.053.08-.097.223-.142.41a2.318 2.318 0 0 0-.062.534c0 .445.124.747.382.916.259.17.624.259 1.113.259.249 0 .481-.036.694-.107.205-.072.392-.17.543-.276.152-.107.276-.232.374-.365.098-.134.169-.258.214-.365.115-.294.231-.534.338-.703.107-.178.205-.294.276-.347a.066.066 0 0 1 .044-.018c.018 0 .045 0 .063.027.017.017.035.026.044.035-.053.08-.098.223-.142.41a2.268 2.268 0 0 0-.063.534c0 .347.089.632.276.845.187.223.499.33.953.33.543 0 .925-.08 1.148-.25a.79.79 0 0 0 .329-.658c0-.16-.044-.374-.133-.641-.089-.267-.303-.614-.641-1.033a.39.39 0 0 1-.098-.267c0-.098.018-.178.062-.249l.614-1.175h.063c.267.481.454.97.578 1.451.125.49.187.944.187 1.362 0 .231-.036.454-.098.676a3.8 3.8 0 0 1-.231.614 3.479 3.479 0 0 1-.312.508 1.766 1.766 0 0 1-.311.347 2.597 2.597 0 0 1-.686.48 1.81 1.81 0 0 1-.765.16c-.125 0-.258-.017-.401-.044a1.326 1.326 0 0 1-.418-.178 1.432 1.432 0 0 1-.605-.97 4.355 4.355 0 0 1-1.015.846 2.384 2.384 0 0 1-1.281.347m14.765-9.96c.018.419.036.9.045 1.442.009.543.017 1.104.017 1.71v1.05c0 .355-.008.711-.035 1.05v.596c0 .454.027.846.089 1.193.062.347.16.632.311.872.143.24.347.418.597.543.249.124.578.187.979.187.16 0 .267.053.32.151.054.098.089.258.089.48v.08c0 .241-.062.401-.196.49a.993.993 0 0 1-.525.125c-.534 0-.961-.071-1.281-.223a1.765 1.765 0 0 1-.748-.614 2.28 2.28 0 0 1-.356-.908 7.184 7.184 0 0 1-.089-1.112v-.864c-.49.944-.97 1.674-1.433 2.19-.463.516-.899.908-1.308 1.157-.41.25-.793.4-1.14.454-.356.053-.667.08-.934.08-.107 0-.241 0-.41-.018a9.7 9.7 0 0 0-.507-.035 41.592 41.592 0 0 1-.481-.054 2.064 2.064 0 0 1-.311-.062c-.107-.036-.16-.071-.16-.125 0-.026.018-.062.044-.097a15.307 15.307 0 0 0 2.021-.454 9.63 9.63 0 0 0 1.53-.606 6.606 6.606 0 0 0 1.14-.73 6.35 6.35 0 0 0 .854-.836c-.116-.214-.294-.49-.525-.837a11.83 11.83 0 0 0-.89-1.121c-.356-.4-.774-.82-1.246-1.246a10.7 10.7 0 0 0-1.602-1.184l-.169.374-.045.018a8.637 8.637 0 0 0-.213-.41c-.072-.124-.125-.25-.178-.365a10.38 10.38 0 0 1-.276-.552c-.08-.169-.116-.275-.116-.311 0-.018.018-.08.045-.178.026-.098.071-.205.124-.312.018-.053.045-.115.071-.178.027-.07.063-.133.098-.213h.098a22.286 22.286 0 0 1 2.982 2.875 15.117 15.117 0 0 1 2.136 3.257 8.9 8.9 0 0 0 .472-.694 6.18 6.18 0 0 0 .329-.596v-.837c0-.48 0-.988-.027-1.513a34.162 34.162 0 0 0-.08-1.478c-.035-.462-.08-.872-.133-1.228-.054-.356-.116-.605-.187-.756v-.063c.08-.062.169-.151.267-.249.098-.107.187-.213.276-.311.089-.107.169-.205.231-.294.071-.09.116-.151.151-.178a.167.167 0 0 1 .107-.045c.036 0 .08.018.098.045a.147.147 0 0 1 .036.098l.044 1.353v.017Z" fill="#fff"/><path d="M230.171 70.954a1.331 1.331 0 0 1-.25-.347.987.987 0 0 1-.098-.436c0-.196.054-.454.161-.766a2.25 2.25 0 0 1 .427-.765c.035.276.089.498.169.667a1.577 1.577 0 0 0 .757.757c.169.089.364.169.578.249l-.57 1.29c.036.837.063 1.55.081 2.128.017.578.035 1.068.053 1.45.018.392.027.695.027.908 0 .223.009.383.017.499 0 .107.009.187.009.222v.071c0 .463-.08.926-.24 1.398a4.29 4.29 0 0 1-.685 1.273 3.61 3.61 0 0 1-1.059.916c-.419.24-.864.356-1.362.356-.107 0-.196-.044-.285-.142-.08-.098-.125-.25-.125-.454v-.098c0-.222.072-.383.205-.48a.867.867 0 0 1 .516-.152 5.7 5.7 0 0 0 1.059-.08c.276-.053.499-.142.65-.276a.966.966 0 0 0 .321-.543c.053-.231.089-.525.089-.88 0-.303-.009-.677-.036-1.113a43.61 43.61 0 0 0-.08-1.371 84.04 84.04 0 0 0-.098-1.45 39.62 39.62 0 0 0-.098-1.327c-.036-.4-.071-.748-.098-1.024a18.198 18.198 0 0 0-.053-.507m10.769 2.26c.107.054.249.16.436.33s.329.33.445.49v.062a3.71 3.71 0 0 0-.213.196l-.241.24c-.089.08-.16.17-.24.24-.071.08-.134.143-.169.178h-.063a6.172 6.172 0 0 0-.373-.427 2.018 2.018 0 0 0-.49-.365v-.062l.125-.17c.08-.097.178-.204.285-.302l.293-.294a.785.785 0 0 1 .152-.133h.062l-.009.018Zm2.91 3.24c.116.223.223.472.33.757.107.285.196.57.285.872.08.303.151.588.204.873.054.284.08.525.08.738 0 .365-.089.766-.267 1.202-.178.436-.4.828-.658 1.175-.16.213-.347.427-.57.64a4.493 4.493 0 0 1-.774.606 4.16 4.16 0 0 1-1.006.445 4.388 4.388 0 0 1-1.273.169c-.925 0-1.655-.258-2.198-.766-.543-.516-.819-1.264-.819-2.251 0-.214.018-.436.053-.677.036-.24.089-.48.143-.712a5.85 5.85 0 0 1 .213-.667c.081-.214.17-.392.267-.552.027-.045.054-.063.063-.063a.1.1 0 0 1 .062.027l.045.045a.992.992 0 0 0-.072.24 9.25 9.25 0 0 0-.08.436 8.74 8.74 0 0 0-.071.516c-.018.187-.036.356-.036.508 0 .249.045.525.134.819.089.293.231.56.427.8.196.24.454.445.774.606.321.16.721.24 1.193.24.641 0 1.193-.089 1.665-.267a4.294 4.294 0 0 0 1.157-.632c.302-.24.534-.49.685-.756.151-.258.222-.481.222-.659 0-.427-.08-.792-.24-1.104a7.023 7.023 0 0 0-.543-.863c-.107-.133-.16-.25-.16-.347l.08-.232.614-1.183h.063l.008.017Zm4.167-5.553c.017.419.035.9.044 1.442.009.543.018 1.104.018 1.71v1.05c0 .355-.009.711-.036 1.05a5.164 5.164 0 0 0-.017.365v.347c0 .427.026.81.08 1.148.053.338.151.623.284.845.134.232.321.4.57.517.24.115.552.169.926.169.16 0 .267.053.32.151.062.098.089.258.089.48v.08c0 .241-.062.401-.196.49a.993.993 0 0 1-.525.125c-.525 0-.943-.071-1.255-.223a1.615 1.615 0 0 1-.712-.614 2.238 2.238 0 0 1-.311-.908 8.471 8.471 0 0 1-.071-1.112v-2.501c0-.48 0-.988-.027-1.522a38.148 38.148 0 0 0-.08-1.504c-.036-.472-.08-.89-.134-1.246-.053-.356-.115-.606-.187-.74.08-.07.169-.168.267-.275.098-.107.187-.214.276-.32a5 5 0 0 0 .232-.294c.071-.09.115-.151.151-.178a.17.17 0 0 1 .116-.045c.044 0 .071.018.098.045a.151.151 0 0 1 .035.098l.045 1.353v.017Z" fill="#fff"/><path d="M252.182 82.56c.107.054.249.16.436.33.187.169.329.329.445.49v.061a3.693 3.693 0 0 0-.214.196l-.24.24-.24.24c-.072.081-.134.143-.169.179h-.063a6.216 6.216 0 0 0-.374-.427 2 2 0 0 0-.489-.365v-.063s.044-.062.125-.169c.08-.098.178-.204.284-.302l.294-.294a.8.8 0 0 1 .151-.133h.063l-.009.017Zm-1.932 0c.107.054.25.16.436.33.187.169.33.329.446.49v.061a3.39 3.39 0 0 0-.214.196l-.24.24-.241.24c-.071.081-.133.143-.169.179h-.062a6.501 6.501 0 0 0-.374-.427 2 2 0 0 0-.489-.365v-.063s.044-.062.124-.169a2.93 2.93 0 0 1 .285-.302l.294-.294a.8.8 0 0 1 .151-.133h.062l-.009.017Zm-1.103-2.403c0-.222.071-.382.204-.48a.867.867 0 0 1 .517-.152c.694 0 1.201-.08 1.522-.249.32-.17.489-.392.489-.659 0-.16-.044-.365-.133-.64-.089-.267-.303-.606-.641-1.033a.39.39 0 0 1-.098-.267.46.46 0 0 1 .062-.25l.614-1.183h.063c.258.48.454.97.578 1.46.125.49.187.943.187 1.362a2.5 2.5 0 0 1-.098.676 3.8 3.8 0 0 1-.231.614 3.484 3.484 0 0 1-.312.508 2.565 2.565 0 0 1-.302.347c-.223.204-.49.365-.801.48-.312.107-.721.17-1.229.17-.106 0-.195-.045-.284-.143-.081-.098-.125-.25-.125-.454v-.098l.018-.009Zm9.291.25c0-.188-.053-.428-.16-.713-.107-.285-.347-.694-.721-1.22a3.3 3.3 0 0 1-.125-.15.259.259 0 0 1-.062-.098c.009 0 .018 0 .018-.018 0-.036 0-.063.018-.098l.614-1.21h.08c.196.471.374.872.534 1.201.16.33.311.605.472.819.151.213.32.365.498.463a1.3 1.3 0 0 0 .632.142c.16 0 .267.053.32.151.054.098.089.258.089.481v.08c0 .24-.062.4-.195.49-.134.089-.303.124-.526.124a1.01 1.01 0 0 1-.489-.142.905.905 0 0 1-.392-.383c-.115.73-.285 1.344-.534 1.834-.24.49-.498.872-.774 1.166-.276.284-.543.489-.828.614-.276.124-.507.178-.703.178a4.7 4.7 0 0 1-.837-.08 10.57 10.57 0 0 1-.836-.187c-.143-.045-.294-.08-.454-.125a6.432 6.432 0 0 1-.445-.142l.018-.098c.872-.036 1.611-.17 2.216-.41.605-.24 1.103-.525 1.477-.836.374-.32.65-.65.828-.98.169-.338.258-.622.258-.845" fill="#fff"/><path d="M261.874 70.954a1.305 1.305 0 0 1-.249-.347.973.973 0 0 1-.098-.436c0-.196.053-.454.16-.766.107-.311.249-.56.427-.765.027.276.089.498.169.667.089.17.187.32.312.445.124.125.276.232.445.312.169.089.365.169.578.249l-.569 1.29c.035.837.062 1.55.08 2.128.018.578.035 1.068.053 1.45.018.392.027.695.027.908 0 .223.009.383.018.499v.293c0 .463-.08.926-.241 1.398-.16.472-.391.899-.685 1.273a3.61 3.61 0 0 1-1.059.916c-.418.24-.872.356-1.362.356-.107 0-.196-.044-.285-.142-.08-.098-.124-.25-.124-.454v-.098c0-.222.071-.383.204-.48a.868.868 0 0 1 .517-.152c.427 0 .783-.026 1.059-.08.276-.053.498-.142.65-.276a.96.96 0 0 0 .32-.543c.053-.231.089-.525.089-.88 0-.303-.009-.677-.036-1.113a38.35 38.35 0 0 0-.08-1.371c-.026-.48-.062-.961-.098-1.45a37.13 37.13 0 0 0-.098-1.327c-.035-.4-.071-.748-.097-1.024a16.592 16.592 0 0 0-.054-.507m3.721-.017a2.627 2.627 0 0 1-.303-.374.823.823 0 0 1-.142-.472c0-.196.053-.454.16-.765.107-.312.249-.561.427-.766.036.276.089.499.17.668.08.169.187.32.311.445.125.124.276.231.445.311.169.09.365.17.579.25l-.57 1.192c.036.48.062 1.006.098 1.584.036.57.062 1.157.089 1.754.027.596.044 1.193.062 1.78a54.6 54.6 0 0 1 .027 1.647c0 .293-.018.551-.036.774a3.308 3.308 0 0 1-.142.658 4.2 4.2 0 0 1-.294.668c-.124.231-.285.49-.471.774h-.063l-.08-.062c.053-.276.089-.703.098-1.29.018-.588.027-1.291.027-2.11 0-.507-.009-1.06-.045-1.673-.027-.614-.053-1.22-.098-1.834a79.798 79.798 0 0 0-.124-1.744 48.717 48.717 0 0 0-.134-1.433m10.182-.837c.107.053.249.16.436.33a3 3 0 0 1 .445.489v.062a3.71 3.71 0 0 0-.213.196l-.241.24c-.089.09-.16.17-.24.24-.071.08-.133.143-.169.178h-.062a6.501 6.501 0 0 0-.374-.427 2 2 0 0 0-.49-.365v-.062l.125-.17a2.93 2.93 0 0 1 .285-.302l.294-.293a.8.8 0 0 1 .151-.134h.062l-.009.018Zm.107 8.553a15.64 15.64 0 0 1-.187-1.112c-.053-.41-.107-.881-.169-1.415-.783.32-1.397.667-1.842 1.023-.437.356-.659.668-.659.944 0 .053.027.115.089.195.053.08.16.16.311.24.143.08.339.143.588.196.249.054.561.08.952.08.249 0 .445-.017.588-.035.142-.027.258-.062.338-.098m-2.047-8.553c.107.053.249.16.436.329.187.17.329.33.445.49v.062a3.693 3.693 0 0 0-.214.196l-.24.24c-.08.089-.16.17-.24.24-.071.08-.134.143-.169.178h-.063a6.216 6.216 0 0 0-.374-.427 2 2 0 0 0-.489-.365v-.062s.044-.062.125-.17c.08-.097.178-.204.284-.302l.294-.294a.837.837 0 0 1 .151-.133h.063l-.009.018Zm4.619 9.47c.16 0 .267.053.321.151.053.098.089.258.089.48v.08c0 .241-.063.401-.196.49a.998.998 0 0 1-.525.125c-.365 0-.677-.045-.935-.142a1.773 1.773 0 0 1-.641-.392 1.82 1.82 0 0 1-.409-.605 4.166 4.166 0 0 1-.232-.775 2.06 2.06 0 0 1-.231.196 9.413 9.413 0 0 1-.65.48c-.115.072-.213.134-.302.17a1.581 1.581 0 0 1-.267.089 1.538 1.538 0 0 1-.347.035c-.517 0-.926-.115-1.247-.347-.311-.231-.471-.525-.471-.899 0-.694.24-1.335.721-1.922.48-.596 1.228-1.175 2.251-1.754a2.313 2.313 0 0 0-.071-.391c-.035-.142-.062-.276-.089-.392l.908-.552.045.036c.071 1.3.151 2.332.24 3.106.089.775.214 1.362.365 1.772.16.409.365.676.632.792.258.124.605.178 1.023.178" fill="#fff"/><path d="m285.585 69.646-.098.196c-.062.106-.125.231-.205.365-.08.133-.16.258-.249.365a.758.758 0 0 1-.24.222c-.419.142-.881.303-1.389.48-.507.17-.988.348-1.442.526-.462.178-.881.356-1.263.525-.383.178-.677.33-.873.463.285.293.57.587.855.89.285.302.56.587.819.872.258.285.489.552.703.81.213.258.391.49.525.703.285.436.463.819.543 1.14.08.32.115.551.115.702 0 .454-.071.855-.195 1.22-.134.365-.383.667-.757.925-.374.259-.89.454-1.566.588-.668.133-1.549.205-2.626.205-.356 0-.534-.196-.534-.597v-.098c0-.213.062-.365.169-.454a.8.8 0 0 1 .454-.169c.828 0 1.522-.018 2.092-.044.569-.036 1.023-.08 1.379-.16.347-.072.605-.17.757-.285a.542.542 0 0 0 .231-.436 1.4 1.4 0 0 0-.124-.525 5.188 5.188 0 0 0-.33-.615 12.79 12.79 0 0 0-.988-1.308c-.213-.25-.436-.507-.667-.765a15.9 15.9 0 0 0-.766-.775l-.142.187h-.062s-.081-.089-.17-.205a8.137 8.137 0 0 1-.275-.382 4.48 4.48 0 0 1-.259-.436.747.747 0 0 1-.115-.347c0-.098.018-.223.062-.374a4.339 4.339 0 0 1 .365-.926c.071-.133.142-.231.205-.285.293-.169.676-.356 1.157-.57.48-.213.997-.427 1.557-.64.561-.214 1.131-.41 1.709-.588.579-.178 1.113-.32 1.602-.427l.045.045-.009-.018Zm9.613 1.985c.106.053.249.16.436.329.187.17.329.33.445.49v.062a3.39 3.39 0 0 0-.214.196l-.24.24c-.08.08-.16.169-.232.24-.071.08-.133.143-.169.178h-.062a6.501 6.501 0 0 0-.374-.427 2 2 0 0 0-.489-.365v-.062s.044-.063.124-.17a2.93 2.93 0 0 1 .285-.302l.294-.294a.8.8 0 0 1 .151-.133h.062l-.017.018Zm-1.051-1.994c.107.053.25.16.436.33.187.168.33.329.445.489v.062a3.71 3.71 0 0 0-.213.196l-.24.24c-.089.08-.161.17-.241.24a1.54 1.54 0 0 1-.178.178h-.062a6.501 6.501 0 0 0-.374-.427 2 2 0 0 0-.489-.365v-.062s.044-.062.124-.169c.089-.098.178-.205.285-.303l.294-.293a.8.8 0 0 1 .151-.134h.062v.018Zm-.881 1.994c.107.053.249.16.436.329.187.17.33.33.445.49v.062a3.71 3.71 0 0 0-.213.196l-.241.24c-.08.08-.16.169-.24.24-.071.08-.133.143-.169.178h-.062a4.864 4.864 0 0 0-.383-.427 1.98 1.98 0 0 0-.49-.365v-.062s.045-.063.125-.17a2.93 2.93 0 0 1 .285-.302l.294-.294a.8.8 0 0 1 .151-.133h.062v.018Zm-.765 7.894c.276 0 .516-.035.73-.107.213-.07.4-.16.56-.275a1.663 1.663 0 0 0 .597-.739c.115-.294.231-.525.338-.703.107-.178.205-.294.276-.347a.066.066 0 0 1 .044-.018c.018 0 .045 0 .063.026.017.018.035.027.044.036-.053.08-.098.223-.142.41a2.269 2.269 0 0 0-.063.534c0 .347.089.632.276.845.187.223.499.33.953.33.543 0 .925-.08 1.148-.25a.79.79 0 0 0 .329-.658c0-.16-.044-.374-.133-.641-.089-.267-.303-.614-.641-1.033a.39.39 0 0 1-.098-.267c0-.098.018-.178.062-.249l.614-1.175h.063c.258.48.454.97.578 1.451.125.49.187.943.187 1.362 0 .231-.036.454-.098.676a3.8 3.8 0 0 1-.231.614 3.483 3.483 0 0 1-.312.508 3.267 3.267 0 0 1-.302.347 2.404 2.404 0 0 1-.686.48 1.84 1.84 0 0 1-.765.16c-.125 0-.258-.017-.401-.044a1.316 1.316 0 0 1-.418-.178 1.416 1.416 0 0 1-.365-.365 1.644 1.644 0 0 1-.24-.605 4.355 4.355 0 0 1-1.015.846 2.385 2.385 0 0 1-1.282.347c-.24 0-.48-.036-.712-.098a1.96 1.96 0 0 1-.658-.32 1.911 1.911 0 0 1-.516-.606c-.143-.25-.232-.56-.276-.926l-2.136.695c.08.124.169.329.249.614.08.285.124.57.124.863 0 .917-.115 1.682-.338 2.305-.222.623-.498 1.13-.81 1.522-.311.392-.632.668-.961.837-.32.178-.587.258-.783.258a4.92 4.92 0 0 1-.846-.08 9.694 9.694 0 0 1-.836-.187l-.454-.133a5.282 5.282 0 0 1-.454-.152l.017-.098c.837-.017 1.567-.151 2.181-.374.614-.23 1.122-.525 1.522-.88.401-.357.694-.757.89-1.184a3.16 3.16 0 0 0 .294-1.3c0-.392-.098-.73-.294-1.032-.196-.303-.543-.588-1.041-.873.32-.863.534-1.299.632-1.317a7.16 7.16 0 0 1 .596-.115c.223-.036.454-.08.703-.134.338-.071.623-.142.846-.196a5.34 5.34 0 0 0 .578-.169c.16-.053.285-.116.383-.17a1.53 1.53 0 0 0 .276-.213c.107-.098.187-.195.249-.302.062-.107.125-.187.187-.25a.095.095 0 0 1 .062-.026c.018 0 .045 0 .063.026.017.018.035.027.044.036-.053.08-.098.223-.142.41a2.268 2.268 0 0 0-.063.534c0 .222.027.436.089.64.054.214.152.392.294.552.134.16.312.285.534.383.223.098.499.151.837.151m-87.999-31.329v4.593h-.222c-.249-1.754-.641-2.964-1.175-3.623-.445-.552-1.095-.828-1.949-.828-.214 0-.33.01-.356.036-.045.036-.063.17-.063.418v8.74c0 .312.018.517.063.597.018.044.098.089.222.142.125.045.374.09.739.125.365.036.863.044 1.486.044v.16h-7.013v-.16c.614 0 1.103-.017 1.468-.044.365-.036.615-.071.739-.125.125-.044.214-.106.249-.178.036-.07.054-.258.054-.56v-8.723c0-.276-.036-.436-.098-.454a1.946 1.946 0 0 0-.338-.018c-.837 0-1.478.267-1.923.81-.534.668-.943 1.87-1.21 3.605h-.223v-4.557h9.55Zm5.269 7.014c0-1.193-.107-2.03-.302-2.52-.241-.56-.677-.836-1.309-.836-.578 0-.997.267-1.237.81-.249.534-.374 1.389-.374 2.546 0 1.157.107 2.038.33 2.58.222.535.649.802 1.281.802.579 0 .997-.276 1.237-.82.25-.55.374-1.396.374-2.562Zm1.673 0c0 1.04-.356 1.904-1.076 2.599-.659.623-1.389.934-2.208.934a3.148 3.148 0 0 1-2.189-.872c-.73-.677-1.095-1.567-1.095-2.661 0-1.095.356-1.905 1.077-2.582.659-.614 1.388-.916 2.207-.916s1.558.293 2.19.872c.73.667 1.094 1.54 1.094 2.626Zm5.617-2.492c0-.25-.027-.41-.089-.499a.412.412 0 0 0-.294-.151c-.134-.018-.57-.036-1.317-.036V51.9l3.204-.178v5.892c0 .142.027.24.071.303l.098.16c.107.07.516.115 1.228.115v.143l-2.919.258v-2.038a2.83 2.83 0 0 1-.481 1.22c-.329.48-.738.747-1.228.8a1.335 1.335 0 0 1-.196.018h-.196c-.632 0-1.13-.196-1.486-.596a1.747 1.747 0 0 1-.454-1.21v-4.22c0-.196-.027-.329-.071-.391a.283.283 0 0 0-.214-.125 10.641 10.641 0 0 0-.756-.018h-.374v-.142l2.937-.178v5.313c0 .552.071.917.205 1.113.133.196.329.294.587.294.481 0 .89-.294 1.228-.873.33-.578.499-1.219.499-1.895v-2.946l.018.009Zm4.619.062c0-.214-.017-.356-.062-.41a.472.472 0 0 0-.214-.195c-.195-.054-.632-.08-1.326-.08v-.143l3.115-.24v2.047c.045-.436.196-.855.454-1.237.356-.534.801-.801 1.335-.801.205 0 .428.07.659.204.24.134.392.303.481.508.08.204.124.382.124.551 0 .428-.178.721-.534.89a.764.764 0 0 1-.338.063.751.751 0 0 1-.552-.223c-.151-.151-.231-.373-.231-.676 0-.196.071-.383.222-.579.143-.196.321-.267.508-.222-.063-.232-.259-.338-.579-.338-.32 0-.623.231-.934.676-.41.587-.615 1.335-.615 2.252v3.017c0 .214.018.356.045.418.018.036.071.063.142.098.223.072.695.116 1.398.116v.142h-4.709v-.142c.312 0 .597-.009.846-.036.249-.017.472-.062.65-.133.062-.053.098-.214.098-.472v-5.037l.017-.018Zm7.076-4.709c.258 0 .472.09.641.258.169.17.258.383.258.641a.873.873 0 0 1-.258.64.873.873 0 0 1-.641.259.873.873 0 0 1-.641-.258.873.873 0 0 1-.258-.641c0-.258.089-.472.258-.64a.873.873 0 0 1 .641-.259Zm.846 3.64v6.106c0 .214.018.356.044.418.018.036.071.063.143.098.222.072.694.116 1.397.116v.142h-4.708v-.142c.311 0 .596-.009.845-.036.249-.017.472-.062.65-.124.062-.054.098-.214.098-.472v-5.038c0-.204-.027-.338-.062-.391a.482.482 0 0 0-.214-.196c-.196-.053-.632-.08-1.326-.08v-.143l3.115-.258h.018Zm5.865.5c.418-.312.641-.481.659-.5v2.422l-.125-.036c-.151-.64-.418-1.175-.81-1.575-.418-.437-.881-.659-1.388-.659-.383 0-.703.071-.953.222-.338.205-.498.543-.498 1.015 0 .383.178.685.543.9.258.15.774.32 1.54.498.774.186 1.308.4 1.62.65.436.346.658.89.658 1.646 0 .694-.24 1.21-.712 1.549-.374.267-.845.4-1.415.4-.472 0-.81-.036-1.015-.098-.302-.098-.632-.33-.988-.694-.427.507-.658.765-.676.792v-2.857h.116c.187.667.338 1.13.454 1.388.16.356.338.615.516.793.249.24.48.382.703.445.222.062.552.089.997.089.338 0 .614-.09.828-.258.258-.205.391-.499.391-.873 0-.48-.169-.845-.516-1.077-.267-.187-.748-.347-1.433-.48-.685-.143-1.219-.365-1.593-.677-.454-.373-.677-.872-.677-1.495 0-.56.187-1.032.57-1.424a1.877 1.877 0 0 1 1.397-.587c.419 0 .784.07 1.095.213.41.187.641.276.712.294m8.606 1.432c.089-.49.214-.88.365-1.174.267-.463.632-.721 1.104-.775.071 0 .16 0 .249-.018.089-.008.16-.017.205-.017.668 0 1.193.204 1.593.614.329.347.499.756.499 1.228v4.281c0 .205.017.338.053.4.018.045.071.08.151.116.08.027.223.063.436.08.214.018.383.036.526.036v.142h-3.819v-.142c.258 0 .454 0 .597-.027a1.43 1.43 0 0 0 .453-.151c.063-.053.098-.205.098-.454v-4.103c0-.507-.044-.899-.133-1.184-.142-.445-.392-.667-.766-.667-.373 0-.694.178-.943.534-.285.4-.498 1.121-.65 2.171v3.24c0 .214.018.356.045.419.018.035.071.062.142.089.071.026.214.053.41.08.195.026.382.044.551.044v.143h-3.836v-.143c.41 0 .73-.035.953-.116l.115-.053c.063-.053.098-.214.098-.472v-4.103c0-.516-.044-.908-.124-1.184-.143-.445-.401-.667-.775-.667-.48 0-.863.311-1.13.925-.187.437-.329 1.05-.436 1.852v3.177c0 .214.018.356.044.419.018.035.072.062.152.097.08.027.222.063.436.08.213.018.383.036.525.036v.143h-4.076v-.143c.222 0 .453-.009.685-.035.231-.018.436-.063.623-.134.062-.053.098-.214.098-.472v-5.189a.336.336 0 0 0-.071-.222.58.58 0 0 0-.196-.196c-.16-.053-.534-.08-1.113-.08v-.142l2.902-.276v2.056c.071-.517.187-.917.338-1.22.249-.49.614-.765 1.104-.819.106-.008.204-.017.285-.026h.186c.695 0 1.211.196 1.567.578.32.356.489.82.489 1.398m13.503-4.424v8.313c0 .312.017.508.062.597.018.044.089.089.196.124.311.116.952.178 1.922.178v.16h-6.355v-.16c.463 0 .864-.017 1.202-.044.338-.036.569-.071.694-.125.125-.044.205-.107.24-.178.036-.07.054-.258.054-.56v-8.305c0-.302-.018-.489-.063-.57-.026-.044-.089-.088-.213-.124-.312-.115-.952-.178-1.923-.178v-.142h6.364v.142c-.463 0-.863.018-1.201.045-.339.035-.579.071-.721.124l-.161.063c-.071.062-.115.276-.115.632m5.464 5.438v3.177c0 .214.018.356.044.419.018.035.072.062.152.098.08.035.222.062.436.08.205.017.392.035.552.035v.143h-4.13v-.143c.24 0 .472-.009.703-.035.231-.027.436-.063.623-.134.062-.053.098-.213.098-.471V52.62a.336.336 0 0 0-.071-.223l-.098-.16c-.107-.071-.516-.116-1.228-.116v-.142l2.919-.258v2.056c.062-.463.205-.864.418-1.22.303-.49.614-.756.953-.792.329-.035.551-.053.64-.053.677 0 1.211.205 1.611.614.33.347.499.757.499 1.228v4.281c0 .214.018.356.044.419.018.035.072.062.161.098.089.035.24.062.462.08.223.017.445.035.65.035v.143h-4.13v-.143c.169 0 .374-.009.597-.035.222-.027.427-.063.596-.134.062-.053.098-.213.098-.471v-4.095c0-.516-.045-.907-.134-1.183-.142-.446-.4-.668-.774-.668-.498 0-.899.312-1.21.926-.241.462-.401 1.077-.499 1.851m8.803 4.032-2.261-6.204c-.098-.25-.151-.392-.178-.436-.062-.107-.249-.16-.561-.16h-.374v-.16h3.694v.16h-.748c-.249 0-.382.071-.382.204l.098.32 1.53 4.157 1.086-3.168c.125-.374.196-.668.196-.872 0-.428-.365-.65-1.077-.65v-.16h2.724v.16c-.41 0-.73.098-.953.303-.222.195-.48.694-.765 1.495l-1.718 5.01h-.311Zm8.393-3.596c0-1.042-.098-1.834-.276-2.386-.187-.542-.489-.818-.899-.818-.587 0-.996.258-1.237.783-.24.525-.356 1.326-.356 2.43h2.777l-.009-.01Zm-2.777.196c0 1.157.134 1.993.41 2.51.276.516.694.774 1.246.774.587 0 1.112-.205 1.566-.596.552-.49.819-1.149.819-1.976h.125c0 .8-.258 1.468-.775 1.984-.516.517-1.201.775-2.065.775-.72 0-1.379-.276-1.967-.82-.694-.64-1.05-1.486-1.05-2.527 0-1.13.347-2.047 1.033-2.759.605-.614 1.281-.917 2.029-.917.694 0 1.282.205 1.736.614.676.606 1.014 1.585 1.014 2.947h-4.139l.018-.01Zm8.58-3.07c.418-.312.641-.481.659-.5v2.422l-.125-.036c-.151-.64-.418-1.175-.81-1.575-.418-.437-.881-.659-1.388-.659-.383 0-.703.071-.953.222-.338.205-.498.543-.498 1.015 0 .383.178.685.543.9.258.15.774.32 1.54.498.774.186 1.308.4 1.619.65.437.346.659.89.659 1.646 0 .694-.24 1.21-.712 1.549-.374.267-.845.4-1.415.4-.472 0-.81-.036-1.015-.098-.302-.098-.632-.33-.988-.694-.427.507-.658.765-.676.792v-2.857h.116c.187.667.338 1.13.454 1.388.16.356.338.615.516.793.249.24.48.382.703.445.222.062.552.089.997.089.338 0 .605-.09.827-.258.259-.205.392-.499.392-.873 0-.48-.169-.845-.516-1.077-.267-.187-.748-.347-1.433-.48-.685-.143-1.219-.365-1.593-.677-.454-.373-.677-.872-.677-1.495 0-.56.187-1.032.57-1.424a1.875 1.875 0 0 1 1.397-.587c.419 0 .784.07 1.095.213.409.187.641.276.712.294m6.338 2.927v.739c0 .25 0 .48.018.712 0 .748-.089 1.264-.259 1.549-.24.382-.694.578-1.37.578-.677 0-1.122-.151-1.415-.463-.303-.311-.454-.756-.454-1.335v-4.575h-1.291v-.142c.881-.213 1.549-.73 1.994-1.54.356-.65.543-1.38.543-2.19h.276v3.4h1.851v.473h-1.851v4.37c0 .578.017.952.062 1.121.107.41.347.614.712.614.436 0 .721-.231.854-.703.098-.32.143-.934.143-1.825v-.774h.196l-.009-.009Zm7.253-1.495c.089-.49.213-.88.374-1.174.267-.463.632-.721 1.103-.775.071 0 .16 0 .25-.018.089-.008.16-.017.195-.017.668 0 1.193.204 1.593.614.33.347.499.756.499 1.228v4.281c0 .205.018.338.044.4.018.045.072.08.152.116.08.027.222.063.436.08.213.018.383.036.525.036v.142h-3.818v-.142c.258 0 .454 0 .596-.027.142-.017.294-.07.454-.151.062-.053.098-.205.098-.454v-4.103c0-.507-.045-.899-.125-1.184-.142-.445-.391-.667-.765-.667s-.694.178-.944.534c-.284.4-.498 1.121-.649 2.171v3.24c0 .214.017.356.044.419.018.035.071.062.143.089.071.026.213.053.409.08.196.026.383.044.552.044v.143h-3.836v-.143c.409 0 .721-.035.952-.116l.116-.053c.062-.053.098-.214.098-.472v-4.103c0-.516-.045-.908-.125-1.184-.142-.445-.4-.667-.774-.667-.481 0-.864.311-1.131.925-.187.437-.329 1.05-.436 1.852v3.177c0 .214.018.356.045.419.018.035.071.062.151.097.08.027.223.063.436.08.214.018.383.036.525.036v.143h-4.076v-.143c.222 0 .454-.009.685-.035.232-.018.436-.063.623-.134.063-.053.098-.214.098-.472v-5.189a.336.336 0 0 0-.071-.222.562.562 0 0 0-.196-.196c-.16-.053-.534-.08-1.112-.08v-.142l2.901-.276v2.056c.071-.517.187-.917.338-1.22.25-.49.614-.765 1.104-.819.107-.008.205-.017.285-.026h.187c.694 0 1.21.196 1.566.578.321.356.481.82.481 1.398m9.897 1.442c0-1.042-.089-1.834-.276-2.386-.187-.542-.489-.818-.899-.818-.587 0-.996.258-1.237.783-.24.525-.356 1.326-.356 2.43h2.777l-.009-.01Zm-2.777.196c0 1.157.134 1.993.41 2.51.276.516.694.774 1.246.774.587 0 1.112-.205 1.566-.596.552-.49.819-1.149.819-1.976h.125c0 .8-.258 1.468-.775 1.984-.516.517-1.201.775-2.065.775-.72 0-1.379-.276-1.967-.82-.694-.64-1.05-1.486-1.05-2.527 0-1.13.347-2.047 1.033-2.759.605-.614 1.281-.917 2.029-.917.694 0 1.282.205 1.744.614.677.606 1.015 1.585 1.015 2.947h-4.139l.009-.01Zm7.611-.632v3.177c0 .214.018.356.044.419.018.035.071.062.152.098.08.035.222.062.436.08.213.017.391.035.552.035v.143h-4.13v-.143c.24 0 .471-.009.703-.035.231-.027.436-.063.623-.134.062-.053.098-.213.098-.471V52.62a.336.336 0 0 0-.071-.223l-.098-.16c-.107-.071-.517-.116-1.229-.116v-.142l2.92-.258v2.056c.062-.463.204-.864.418-1.22.303-.49.614-.756.952-.792.33-.035.552-.053.641-.053.677 0 1.211.205 1.611.614.33.347.499.757.499 1.228v4.281c0 .214.017.356.053.419.018.035.071.062.16.098.089.035.241.062.472.08.222.017.436.035.641.035v.143h-4.13v-.143c.169 0 .374-.009.596-.035.223-.027.428-.063.597-.134.062-.053.098-.213.098-.471v-4.095c0-.516-.045-.907-.134-1.183-.142-.446-.4-.668-.774-.668-.499 0-.899.312-1.211.926-.24.462-.4 1.077-.498 1.851m10.342.515v.739c0 .25 0 .48.018.712 0 .748-.089 1.264-.258 1.549-.241.382-.694.578-1.371.578-.676 0-1.121-.151-1.415-.463-.303-.311-.454-.756-.454-1.335v-4.575h-1.291v-.142c.882-.213 1.549-.73 1.994-1.54.356-.65.543-1.38.543-2.19h.276v3.4h1.851v.473h-1.851v4.37c0 .578.018.952.062 1.121.107.41.347.614.712.614.436 0 .721-.231.855-.703.098-.32.142-.934.142-1.825v-.774h.196l-.009-.009Zm12.718-.89c0 1.558-.294 2.689-.899 3.4-.596.713-1.459 1.069-2.59 1.069-1.281 0-2.358-.383-3.24-1.157-1.05-.926-1.575-2.252-1.575-3.979 0-1.727.534-3.07 1.602-4.147.917-.926 1.896-1.389 2.937-1.389.508 0 .944.09 1.326.276.481.24.926.623 1.327 1.157l.792-1.513h.08v4.673l-.125-.08c0-1.38-.382-2.493-1.148-3.33-.641-.693-1.308-1.04-2.003-1.04-.934 0-1.611.436-2.02 1.299-.409.863-.614 2.163-.614 3.907 0 1.745.222 3 .659 3.872.445.872 1.112 1.308 2.02 1.308 1.024 0 1.807-.302 2.359-.899.658-.712.988-1.85.988-3.417h.124v-.01Zm5.42.936c0-1.193-.106-2.03-.302-2.52-.241-.56-.677-.836-1.309-.836-.578 0-.996.267-1.237.81-.249.534-.374 1.389-.374 2.546 0 1.157.107 2.038.33 2.58.222.535.649.802 1.281.802.579 0 .997-.276 1.238-.82.249-.55.373-1.396.373-2.562Zm1.674 0c0 1.04-.356 1.904-1.077 2.599-.659.623-1.389.934-2.208.934a3.15 3.15 0 0 1-2.189-.872c-.73-.677-1.095-1.567-1.095-2.661 0-1.095.356-1.905 1.077-2.582.659-.614 1.389-.916 2.207-.916.819 0 1.558.293 2.19.872.73.667 1.095 1.54 1.095 2.626Zm1.558 1.566c.285 0 .516.098.703.285a.952.952 0 0 1 .285.703.952.952 0 0 1-.285.703.967.967 0 0 1-.703.285.967.967 0 0 1-.703-.285.952.952 0 0 1-.285-.703c0-.285.098-.516.285-.703a.967.967 0 0 1 .703-.285Zm-212.026-1.931-1.46-4.059-1.46 4.059h2.92Zm.08.178h-3.071l-.489 1.406c-.125.356-.187.658-.187.908 0 .4.151.676.445.845.293.17.721.258 1.255.258v.16h-4.041v-.16c.73 0 1.299-.276 1.709-.827.222-.312.507-.944.863-1.914l2.688-7.494h.321l3.435 9.345c.16.436.32.695.481.775.16.08.641.115 1.433.115v.16h-5.875v-.16c.801 0 1.344-.026 1.638-.089.294-.062.445-.178.445-.356l-.036-.16-1.014-2.812Zm7.939 2.812c0 .214.018.347.044.418.018.036.071.063.143.098.222.072.685.116 1.388.116v.142h-4.655v-.142c.312 0 .588-.009.837-.035.249-.018.463-.063.641-.125.062-.054.098-.205.098-.463v-8.544c0-.214-.036-.365-.098-.445-.063-.09-.125-.143-.196-.16-.187-.054-.614-.08-1.273-.08v-.143l3.053-.267v9.63h.018Zm8.268-4.744h1.478c.774 0 1.344-.143 1.709-.437.445-.338.667-.916.667-1.735 0-.899-.187-1.531-.552-1.896-.365-.365-.97-.552-1.815-.552h-.766c-.222 0-.382.018-.489.045a.27.27 0 0 0-.196.205c-.027.097-.036.302-.036.614V53.1Zm6.453 3.213v.525c0 .623-.062 1.059-.178 1.308-.196.4-.569.605-1.139.605-.739 0-1.219-.276-1.46-.827-.196-.445-.285-1.3-.285-2.546v-.338c0-.107 0-.214.018-.338 0-.561-.133-.944-.4-1.14-.267-.195-.641-.293-1.14-.293h-1.869v4.28c0 .321.018.526.054.606.035.08.115.151.24.196.125.044.374.08.748.089.374.009.774.018 1.183.018v.142h-6.479v-.16c1.112 0 1.78-.045 2.003-.125a.429.429 0 0 0 .222-.187c.045-.08.062-.276.062-.578v-8.206c0-.303-.017-.481-.062-.561-.018-.045-.089-.09-.205-.125-.311-.115-.979-.178-2.02-.178v-.142h6.515c1.148 0 2.056.311 2.741.925.543.49.81.997.81 1.514 0 .614-.213 1.121-.641 1.513-.516.48-1.326.783-2.429.907 1.13.223 1.878.855 2.243 1.896.187.516.276 1.3.276 2.35 0 .312.026.525.08.668.053.142.187.204.382.204.223 0 .383-.178.463-.534.089-.356.125-.845.125-1.468h.142Zm4.727.552v-2.127c-.125.169-.312.276-.561.311l-.721.107a1.17 1.17 0 0 0-.73.516c-.213.32-.32.766-.32 1.344 0 .623.062 1.042.187 1.255.124.223.32.33.578.33.401 0 .766-.17 1.095-.508a1.73 1.73 0 0 0 .489-1.228m.045-2.884v-.925c0-.428-.071-.712-.205-.864-.133-.151-.427-.222-.872-.222-.365 0-.685.071-.961.213-.276.143-.454.33-.543.57a.794.794 0 0 1 .16-.018c.205 0 .365.08.49.24a.86.86 0 0 1 .186.544c0 .23-.08.427-.24.57a.786.786 0 0 1-.561.222.6.6 0 0 1-.373-.116c-.312-.205-.463-.454-.463-.766 0-.15.035-.32.098-.507.151-.41.516-.72 1.112-.908a4.04 4.04 0 0 1 1.291-.204c.783 0 1.379.15 1.78.445.356.267.543.596.543.996v3.516c0 .632.018 1.024.044 1.175.072.356.267.543.57.543.276 0 .463-.142.561-.427.098-.285.142-.695.142-1.237 0-.152 0-.294-.009-.445v-.606h.196v.703c0 .223 0 .437.018.632 0 .614-.071 1.033-.223 1.246-.195.267-.578.4-1.166.4-.462 0-.801-.08-1.023-.24-.267-.186-.445-.507-.525-.96-.223.516-.561.863-1.006 1.04-.267.108-.623.16-1.068.16-.445 0-.837-.106-1.166-.32-.454-.284-.685-.72-.685-1.308 0-.587.222-1.059.667-1.45.445-.383.979-.597 1.62-.65.632-.054 1.059-.143 1.282-.259.222-.115.329-.373.329-.783Z" fill="#fff"/><path d="M166.88 60.13c-.222.65-.427 1.104-.623 1.354-.222.293-.507.445-.863.445-.445 0-.774-.045-.988-.134a.684.684 0 0 1-.409-.463 1.918 1.918 0 0 1-.089-.516c0-.32.151-.56.454-.72a.777.777 0 0 1 .373-.099.77.77 0 0 1 .543.232c.152.151.232.356.232.614 0 .454-.214.712-.641.765.071.08.151.125.231.143.08.009.16.018.249.018a.874.874 0 0 0 .704-.33c.178-.222.373-.623.569-1.21l.508-1.442-2.306-6.24c-.098-.24-.151-.391-.178-.427-.062-.106-.249-.16-.56-.16h-.365v-.16h3.649v.16h-.739c-.249 0-.374.071-.374.196l.098.32 1.54 4.104 1.068-3.133c.125-.374.196-.659.196-.864 0-.427-.356-.64-1.068-.64v-.16h2.661v.16c-.4 0-.712.097-.934.293-.223.196-.472.686-.748 1.478l-2.181 6.399-.009.018Z" fill="#fff"/><path d="M173.724 60.13c-.222.65-.427 1.104-.623 1.354-.222.293-.507.445-.863.445-.445 0-.775-.045-.988-.134a.688.688 0 0 1-.41-.463 2.425 2.425 0 0 1-.089-.516c0-.32.152-.56.454-.72a.784.784 0 0 1 .374-.099.77.77 0 0 1 .543.232c.151.151.231.356.231.614 0 .454-.213.712-.64.765.071.08.151.125.231.143.08.009.16.018.249.018a.872.872 0 0 0 .703-.33c.178-.222.374-.623.57-1.21l.507-1.442-2.305-6.24c-.098-.24-.151-.391-.178-.427-.062-.106-.249-.16-.561-.16h-.365v-.16h3.65v.16h-.739c-.249 0-.374.071-.374.196l.098.32 1.54 4.104 1.068-3.133c.124-.374.196-.659.196-.864 0-.427-.356-.64-1.068-.64v-.16h2.661v.16c-.401 0-.712.097-.935.293-.222.196-.471.686-.747 1.478l-2.181 6.399-.009.018Zm7.067-3.265v-2.127c-.124.169-.311.276-.56.311-.25.036-.49.072-.721.107a1.17 1.17 0 0 0-.73.516c-.214.32-.321.766-.321 1.344 0 .623.063 1.042.178 1.255a.62.62 0 0 0 .579.33c.4 0 .765-.17 1.095-.508.32-.338.48-.747.48-1.228Zm.045-2.884v-.925c0-.428-.071-.712-.205-.864-.133-.151-.427-.222-.872-.222-.365 0-.686.071-.961.213-.276.143-.454.33-.543.57a.794.794 0 0 1 .16-.018c.205 0 .365.08.498.24.125.16.187.339.187.544 0 .23-.08.427-.24.57a.786.786 0 0 1-.561.222.604.604 0 0 1-.374-.116c-.311-.205-.462-.454-.462-.766 0-.15.035-.32.097-.507.152-.41.517-.72 1.113-.908a4.031 4.031 0 0 1 1.291-.204c.783 0 1.379.15 1.78.445.365.267.543.596.543.996v3.516c0 .632.017 1.024.044 1.175.071.356.267.543.57.543.276 0 .462-.142.56-.427.098-.285.143-.695.143-1.237V55.77h.187v.703c0 .223 0 .437.018.632 0 .614-.072 1.033-.223 1.246-.196.267-.579.4-1.166.4-.454 0-.801-.08-1.023-.24-.268-.186-.446-.507-.526-.96-.222.516-.56.863-1.005 1.04-.267.108-.623.16-1.068.16-.445 0-.837-.106-1.166-.32-.454-.284-.686-.72-.686-1.308 0-.587.223-1.059.668-1.45.445-.383.979-.597 1.62-.65.632-.054 1.059-.143 1.281-.259.223-.115.33-.373.33-.783m6.034.721v3.133c0 .214.018.356.045.419.017.035.071.062.151.098.08.035.222.062.427.08.205.017.392.035.552.035v.143h-4.076v-.143c.231 0 .462-.009.694-.035a2.42 2.42 0 0 0 .614-.125c.062-.053.098-.205.098-.463V52.71a.336.336 0 0 0-.071-.223l-.098-.16c-.107-.071-.508-.107-1.211-.107v-.142l2.884-.258v2.029a3.31 3.31 0 0 1 .409-1.21c.294-.49.615-.748.944-.784.329-.035.543-.053.632-.053.667 0 1.201.204 1.593.605.329.338.489.748.489 1.21v4.228c0 .214.018.347.045.419.018.035.071.062.16.097.089.036.24.063.463.08.223.018.436.036.632.036v.142h-4.076v-.142c.169 0 .364-.009.587-.035.222-.018.418-.063.587-.125.063-.053.098-.205.098-.463v-4.05c0-.516-.044-.899-.124-1.166-.143-.436-.392-.658-.766-.658-.489 0-.89.302-1.192.908-.232.462-.401 1.068-.499 1.824" fill="#fff"/></svg>