<svg xmlns="http://www.w3.org/2000/svg" fill="none" viewBox="0 0 3870 420"><g clip-path="url(#a)"><path d="M1910 413V3" stroke="#243C6C" stroke-width="8"/><path d="M642 250 600 130l-43 120h85Zm3 5h-90L540 297a70 70 0 00-5 26c0 12 4 20 13 25 8 5 20 8 37 8v5h-120v-5c22 0 40-8 50-25 8-9 16-27 26-56l80-220h9L730 330c5 12 10 20 15 22 4 3 18 4 42 4v5H614v-5c24 0 40-1 48-3 10-1 13-5 13-10v-5l-30-83Z" fill="#243C6C"/><path d="M868 198h44c22 0 40-4 50-12 13-10 20-27 20-51 0-26-6-45-17-56-10-10-28-16-53-16H890l-15 1a8 8 0 00-6 6v128Zm190 95v15a110 110 0 01-5 39c-6 12-17 18-34 18-21 0-36-9-43-25a240 240 0 01-8-75v-20c0-16-3-27-11-33-8-5-20-8-34-8h-55v125c0 10 0 16 2 18 0 3 3 5 7 6 3 2 10 2 22 3h35v4h-190v-4c32 0 52-2 58-4 3-1 6-3 7-6 1-2 2-8 2-17V90c0-10 0-15-2-17l-6-4a210 210 0 00-60-5V60h192c33 0 60 9 80 27 16 14 24 30 24 44 0 19-6 33-19 45a123 123 0 01-71 27c33 6 55 25 66 55 5 15 8 38 8 70 0 8 0 15 2 19 2 4 5 6 12 6 6 0 10-5 13-16 3-10 4-25 4-43h4Zm297-234v133h-6a240 240 0 00-34-105c-13-16-32-24-57-24h-10c-2 2-2 6-2 13v253c0 10 0 15 2 18l6 4 22 3 43 2v4h-204v-4a510 510 0 00 64-5l8-5 1-17V76c0-8 0-12-3-13h-10c-24 0-42 8-55 23-16 20-27 55-35 105h-7V60h277Zm140 30v240l1 18 6 3c9 4 27 6 55 6v4h-184v-4a377 377 0 00 55-5c4-2 6-3 7-5 1-2 2-8 2-17V90c0-10 0-15-2-17l-6-4c-10-3-28-5-56-5V60h185v4a377 377 0 00-56 5l-4 2c-3 2-4 8-4 18m310 147c0 45-10 78-26 99-18 20-43 30-76 30-37 0-68-10-94-33-30-27-46-65-46-116s16-89 47-120c26-27 55-40 85-40a80 80 0 01 39 8 100 100 0 01 38 34l23-44h2v135l-3-2c0-40-11-72-34-97-18-20-38-30-58-30a60 60 0 00-58 38 276 276 0 00-18 113c0 50 6 87 20 112 12 26 31 38 58 38 30 0 52-8 68-26 20-20 29-53 29-99h4ZM2020 368l4 3 4 4a28 28 0 00-2 3l-2 2-2 2-2 1a57 57 0 00-4-3 17 17 0 00-4-4s0 0 1-2a25 25 0 01 3-2l2-3a7 7 0 01 2 0Zm-17 0 4 3 4 4-2 3-2 2-2 2-2 1a42 42 0 00-3-3l-5-4 1-2 3-2 2-3a7 7 0 01 2 0Zm34-60h31l1 5c0 3 0 4-2 5a9 9 0 01-4 1h-6a8 8 0 01 2 3 6 6 0 01 1 3l-1 6a37 37 0 01-5 7l-8 8a57 57 0 01-10 7 65 65 0 01-13 5 64 64 0 01-16 2c-6 0-10 0-14-2-3 0-6-2-9-4a18 18 0 01-6-6 27 27 0 01-3-6 33 33 0 01 0-7 83 83 0 01-1-5v-8l2-7a36 36 0 01 2-5 10 10 0 01 2-3h2a44 44 0 00-2 7 54 54 0 00 0 10v7l6 8c2 2 5 4 10 5 3 2 8 2 14 2a80 80 0 00 17-1 76 76 0 00 13-5l10-5 2-5c0-1-1-3-4-5a80 80 0 00-15-6l5-11Z" fill="#243C6C"/><path d="m2075 285 4-5 3-5c0-1 3-2 7-2a715 715 0 01 34 10l12 1h10l-1 3-2 2-1 3a8 8 0 00 0 2 82 82 0 00-9 0 30 30 0 00-7 1 30 30 0 00-6 3 67 67 0 00-7 4l-10 7a64 64 0 01-10 5l-12 4-16 1h-3v-10a7 7 0 01 5-1c8 0 14 0 19-2a60 60 0 00 12-4l8-6 10-5-8-2a133 133 0 00-7-3 95 95 0 00-6-1 25 25 0 00-6-1 64 64 0 00-8 0 18 18 0 00-4 2v-1Zm93-52a460 460 0 01 0 27v18a44 44 0 00 0 3v13l3 8 5 4 8 2 3 1v9a9 9 0 01-5 1c-5 0-9 0-11-2a14 14 0 01-6-5 20 20 0 01-3-8 74 74 0 01 0-10V260a327 327 0 00-2-13 148 148 0 00-2-17 37 37 0 00 2-2l2-3 2-3 2-1h1l1 12Z" fill="#243C6C"/><path d="M2210 334c2 0 3 2 5 3l4 4-2 3-2 2-2 2-2 1a54 54 0 00-4-3 17 17 0 00-4-4s0 0 1-2a28 28 0 01 3-2l2-3a7 7 0 01 2 0Zm-16 0 4 3 4 4-2 3-2 2-2 2-2 1a54 54 0 00-3-3 17 17 0 00-5-4s0 0 1-2l3-2 2-3a7 7 0 01 2 0Zm34-20-1 4a9 9 0 01-5 1 48 48 0 01-6 0 17 17 0 01-5-2 13 13 0 01-4-3 12 12 0 01-2-5 52 52 0 01-3 3 18 18 0 01-4 4 22 22 0 01-7 2l-10 1-2-1v-9a8 8 0 01 5-1l10-1 5-3a14 14 0 00 5-6l3-6c0-2 2-3 2-3h1a12 12 0 00 0 4 20 20 0 00-1 4c0 4 1 7 4 8 2 2 6 3 12 3h3v5Z" fill="#243C6C"/><path d="M2292 320a20 20 0 01-4-1 11 11 0 01-3-2 12 12 0 01-3-3 14 14 0 01-3-5 44 44 0 01-9 7 20 20 0 01-10 3c-3 0-6 0-9-2s-4-4-5-8a52 52 0 01-3 3 19 19 0 01-5 4 25 25 0 01-6 2l-10 1-2-1-1-4 1-5a8 8 0 01 5-1l9-1c2 0 4-2 5-3a14 14 0 00 6-6c0-3 2-5 3-6 0-2 1-3 2-3h1a12 12 0 00 0 4 20 20 0 00-1 4c0 4 0 7 3 8 2 2 5 3 9 3l7-1a16 16 0 00 10-10 28 28 0 01 2-5l3-3h1l-1 4a20 20 0 00 0 4c0 3 0 6 2 8 1 2 4 3 8 3a10 10 0 00 6-2l4-5a23 23 0 01 0-3V290a10 10 0 01 0-3h1l2 7a16 16 0 00 10 12l10 2h3v10a9 9 0 01-5 1c-9 0-15-3-18-10l-2 3a23 23 0 01-4 3 16 16 0 01-4 3l-5 1" fill="#243C6C"/><path d="M2342 233a12 12 0 01-2-3 9 9 0 01-1-4l1-6a20 20 0 01 4-7l1 6 3 4 4 3 5 2-5 10v20a848 848 0 00 2 24v3a38 38 0 01-8 23 31 31 0 01-10 8 20 20 0 01-11 3l-3-1v-9a8 8 0 01 5-1l10-1c2 0 4-1 5-3a8 8 0 00 3-4v-18a372 372 0 00 0-12l-1-12a340 340 0 00 0-12l-2-9a133 133 0 00 0-4m32 0a23 23 0 01-3-3 7 7 0 01 0-4v-7a20 20 0 01 4-7l2 6 2 4 4 3 5 2-5 10 1 14 1 15v16a496 496 0 01 0 20 31 31 0 01-3 12 94 94 0 01-4 7h-2l1-12V260a627 627 0 00-3-27m91 77c0-5-2-10-8-18l-1-2v-2l4-10c2 0 3 2 4 4a68 68 0 01 5 13l1 7c0 9 0 16-2 22l-7 14-9 8-7 2h-7a87 87 0 01-7-2 130 130 0 00-4-2 47 47 0 01-4 0v-2a60 60 0 00 19-3l13-8a27 27 0 00 10-22Zm34-77a460 460 0 01 0 27v34l3 8 5 4 8 2 3 1v9a9 9 0 01-6 1c-4 0-8 0-10-2a14 14 0 01-7-5 20 20 0 01-2-8 74 74 0 01 0-10v-21l-1-14a327 327 0 00 0-13 154 154 0 00-4-17 67 67 0 00 5-5l2-3 1-1a1 1 0 01 1 0h1v12Z" fill="#243C6C"/><path d="M2544 287a6 6 0 00-3 1 18 18 0 00-4 3 32 32 0 00-2 4 43 43 0 00-2 5c2 3 5 5 10 7 3 2 6 3 10 3 5 0 7-2 7-6l-2-4a30 30 0 00-3-6 23 23 0 00-5-5 9 9 0 00-6-2m-29 20a12 12 0 00 10-4 20 20 0 00 3-5l2-5c2-5 4-10 7-12 3-3 6-4 8-4l6 1 5 4 4 5 4 6a57 57 0 00 8 12l4 2 5 1 3 1v5l-1 4a9 9 0 01-5 2l-8-3c-2-2-5-5-7-10a23 23 0 01-2 5 30 30 0 01-3 4c0 2-2 3-3 3a6 6 0 01-4 2 20 20 0 01-11-3c-4-2-8-5-12-10a20 20 0 01-6 8 15 15 0 01-10 4l-2-2-1-4c0-2 0-4 2-5a8 8 0 01 4 0" fill="#243C6C"/><path d="m2611 253 4 3 4 4-2 2-2 2-2 2-1 2h-1a60 60 0 00-3-4l-5-3 2-2a25 25 0 01 2-3l3-2a7 7 0 01 0-1h1Zm-9-18 4 3 4 5a28 28 0 00-2 2l-2 2-2 2-2 1a54 54 0 00-3-3 17 17 0 00-5-3s0-1 1-2l3-3 2-3a7 7 0 01 2 0Zm-8 18 4 3 4 4-2 2-2 2-2 2-1 2a42 42 0 00-4-4l-4-3v-2a25 25 0 01 3-3l3-2a7 7 0 01 0-1h1Zm31 60c0 3 0 4-2 5a9 9 0 01-4 1 49 49 0 01-6 0 17 17 0 01-5-2 13 13 0 01-4-3 12 12 0 01-2-5 52 52 0 01-3 3 18 18 0 01-5 4 22 22 0 01-6 2l-10 1-2-1-1-4 1-5a8 8 0 01 5-1l9-1a18 18 0 00 5-3 13 13 0 00 6-6 30 30 0 01 3-6c0-2 1-3 2-3h1v4a20 20 0 00-1 4c0 4 0 7 3 8 3 2 7 3 12 3h3l1 5Z" fill="#243C6C"/><path d="m2653 253 4 3 4 4a28 28 0 00-2 2l-2 2-2 2-1 2h-1a57 57 0 00-3-4 17 17 0 00-5-3l2-2a25 25 0 01 2-3l3-2a7 7 0 01 0-1h1Zm-17 0 4 3 4 4-2 2-2 2-2 2-1 2a54 54 0 00-4-4 17 17 0 00-4-3v-2l3-3 3-2a7 7 0 01 1-1Zm30 60c0 3 0 4-2 5a9 9 0 01-5 1 48 48 0 01-5 0 17 17 0 01-6-2 13 13 0 01-3-3 12 12 0 01-3-5 52 52 0 01-3 3 18 18 0 01-4 4 22 22 0 01-6 2l-10 1-3-1v-4l1-5a8 8 0 01 5-1l8-1a18 18 0 00 6-3 13 13 0 00 5-6 30 30 0 01 3-6l3-3h1l-1 4a20 20 0 00 0 4c0 4 0 7 3 8 2 2 6 3 12 3h3v5Z" fill="#243C6C"/><path d="m2695 320-9-3c-2-1-4-4-5-8a52 52 0 01-3 3 19 19 0 01-4 4 25 25 0 01-7 2l-10 1-2-1-1-4c0-3 0-4 2-5a8 8 0 01 4-1l9-1a18 18 0 00 6-3l3-3 2-3c0-3 2-5 3-6 0-2 2-3 2-3h1a12 12 0 00 0 4 20 20 0 00-1 4c0 4 1 7 3 8 2 2 6 3 10 3a19 19 0 00 10-4c2 0 3-2 4-3l2-3c0-3 2-5 3-6a11 11 0 01 2-3h1v4a20 20 0 00-1 4c0 3 0 6 2 8 2 2 4 3 8 3 5 0 8-1 10-3a7 7 0 00 3-5l-1-6c0-2-3-5-6-9a3 3 0 01 0-2 4 4 0 01 0-2l5-10a53 53 0 01 8 24l-1 6a33 33 0 01-2 5l-3 5a15 15 0 01-3 3 23 23 0 01-6 4l-6 1a20 20 0 01-4 0 11 11 0 01-3-2 12 12 0 01-4-3 13 13 0 01-2-5 38 38 0 01-8 7 20 20 0 01-12 3m129-86a460 460 0 01 0 27v33a21 21 0 00 3 8c2 2 3 4 6 5l8 2 3 1v9a9 9 0 01-6 1c-4 0-8 0-10-2a15 15 0 01-7-5 20 20 0 01-3-8 61 61 0 01-1-10v-7a70 70 0 01-13 19l-10 10-10 4a56 56 0 01-9 0h-3a84 84 0 00-5 0 379 379 0 01-4 0 18 18 0 01-3 0l-1-2a134 134 0 00 18-5 84 84 0 00 13-5 57 57 0 00 17-14 100 100 0 00-4-7 103 103 0 00-8-10 142 142 0 00-10-10 93 93 0 00-15-10l-1 3-2-4-2-3-2-5a10 10 0 01-1-3v-1a16 16 0 01 1-3V240l2-2a194 194 0 01 26 25 131 131 0 01 20 27l4-6a52 52 0 00 3-5v-20a292 292 0 00 0-12 153 153 0 00-4-18l3-2 2-3 2-3 1-1a1 1 0 01 1 0h1v12Z" fill="#243C6C"/><path d="M2854 233a11 11 0 01-2-3 9 9 0 01 0-4V220l5-7 1 6a14 14 0 00 3 4l4 3 5 2-5 10a1714 1714 0 01 1 44v2a38 38 0 01-8 24 31 31 0 01-9 8 23 23 0 01-12 3l-2-1-1-4 1-5a8 8 0 01 5-1l10-1c2 0 3-1 5-3a8 8 0 00 3-4v-18a345 345 0 00 0-12l-2-12a400 400 0 00 0-12l-1-9a133 133 0 00 0-4m93 20 4 3 4 4a28 28 0 00-2 2l-2 2-2 2-2 2a57 57 0 00-4-4 17 17 0 00-4-3l1-2a25 25 0 01 3-3l2-2a7 7 0 01 1-1Zm25 28a61 61 0 01 6 14 106 106 0 01 2 14c0 3 0 7-2 10a46 46 0 01-6 10 47 47 0 01-5 6 40 40 0 01-7 5 36 36 0 01-20 6c-8 0-14-2-19-7-4-4-7-10-7-20v-5a83 83 0 01 4-12l2-5h1a9 9 0 00 0 2 70 70 0 00 0 4l-1 4V320a20 20 0 00 10 12c4 2 7 2 11 2 6 0 10 0 15-2 4-2 7-3 10-6l6-6 2-6c0-4 0-7-2-10a63 63 0 00-5-7l-1-3v-2l6-10Zm36-48a464 464 0 01 0 27v18a44 44 0 00 0 3v3l1 10c0 3 1 6 3 8 0 2 2 3 5 4l8 2 2 1 1 4-1 5a9 9 0 01-5 1c-5 0-8 0-10-2a14 14 0 01-7-5 20 20 0 01-3-8 76 76 0 01 0-10V260a310 310 0 00-1-13 154 154 0 00-3-17l2-2a74 74 0 00 5-6V220a1 1 0 01 2 0 1 1 0 01 1 0v12Z" fill="#243C6C"/><path d="m3046 334 4 3 3 4-1 3-3 2-2 2-1 1a57 57 0 00-4-3 17 17 0 00-4-4V340a25 25 0 01 3-2l3-3a7 7 0 01 1-1Zm-17 0 4 3 4 4-2 3-2 2-2 2-2 1a54 54 0 00-4-3 17 17 0 00-4-4l1-2 3-2 2-3a7 7 0 01 2-1Zm-10-20c0-3 1-4 2-5a8 8 0 01 5-1c6 0 10 0 13-2 3-2 4-4 4-6l-1-6c0-2-3-5-6-9a3 3 0 01 0-2v-2l5-10a56 56 0 01 8 24l-1 6a33 33 0 01-2 5l-3 5a22 22 0 01-3 3 20 20 0 01-7 4l-10 1h-3v-5Zm81 1-1-6-7-10a31 31 0 01 0-2 2 2 0 01-1 0v-2l5-10h1a196 196 0 00 9 18l4 4h6l3 2v4l-1 5-5 1a9 9 0 01-4 0 8 8 0 01-4-4c0 6-2 11-4 16a41 41 0 01-7 10l-7 5-6 2a40 40 0 01-8-1 92 92 0 01-7-2h-4a56 56 0 01-4-2l20-4a50 50 0 00 13-8l7-8 2-7" fill="#243C6C"/><path d="M3130 233a11 11 0 01-2-3 9 9 0 01-1-4l1-6 4-7c0 3 0 5 2 6l2 4 4 3 5 2-5 10a1489 1489 0 01 2 44v3c0 4 0 8-2 12a37 37 0 01-6 11 31 31 0 01-10 8 20 20 0 01-11 3l-3-1v-9a8 8 0 01 5-1l10-1c2 0 4-1 5-3a8 8 0 00 3-4v-18a373 373 0 00 0-12l-1-12a340 340 0 00 0-12l-2-9v-4m32 0a23 23 0 01-3-3 7 7 0 01 0-4v-7l4-7 2 6c0 2 1 3 3 4a14 14 0 00 3 3l5 2-5 10 1 14a1034 1034 0 01 2 30 464 464 0 01 0 22 30 30 0 01-2 5 37 37 0 01-2 6 98 98 0 01-4 7h-2l1-12a635 635 0 00 0-33 531 531 0 00 0-16 683 683 0 00-3-27m89-8 3 3 4 5-2 2-2 2-2 2-1 2a54 54 0 00-4-4 17 17 0 00-4-3v-2l3-3 3-3a7 7 0 01 1 0Zm0 75a135 135 0 01-1-10l-2-12-16 9c-3 3-5 6-5 8v2l3 2 5 1a40 40 0 00 17 0m-18-74 4 2 3 5a28 28 0 00-1 2l-3 2a27 27 0 01-2 2l-1 2a57 57 0 00-4-4 17 17 0 00-4-3v-2a25 25 0 01 3-3l3-2a7 7 0 01 1-2Zm40 82 3 1v5l-1 4a9 9 0 01-5 1 23 23 0 01-8 0 15 15 0 01-6-4 16 16 0 01-3-5 36 36 0 01-2-7 18 18 0 01-2 2s-2 0-3 2l-3 2-2 1a13 13 0 01-3 0l-3 1c-4 0-8 0-10-3a10 10 0 01-5-8c0-6 2-11 7-16 4-5 10-10 20-16a20 20 0 00-1-3l-1-3 8-5a470 470 0 00 2 27c0 7 2 12 3 16 2 3 3 5 6 6 2 2 5 2 9 2" fill="#243C6C"/><path d="M3336 222v2l-3 3a25 25 0 01-2 3 7 7 0 01-2 2 1446 1446 0 00-35 13 58 58 0 00-8 4l7 8 8 8a223 223 0 01 10 13c3 3 4 7 5 10v16l-7 8a30 30 0 01-14 5c-6 2-13 2-23 2-3 0-4-1-4-5l1-5a7 7 0 01 4-1 380 380 0 00 30-2l7-2a5 5 0 00 2-4l-1-5a47 47 0 00-3-5 110 110 0 00-9-12l-6-6a140 140 0 00-6-7l-1 2h-1l-1-2a70 70 0 01-3-3 36 36 0 01-2-4 6 6 0 01-1-3v-3a43 43 0 01 4-8 9 9 0 01 1-3l10-5a260 260 0 01 29-10l14-4Zm84 17 3 3 4 4a28 28 0 00-2 3l-2 2-2 2-1 1a54 54 0 00-4-3 17 17 0 00-4-4s0 0 0-2c2 0 2-1 3-2l3-3a7 7 0 01 1 0Zm-10-17 4 3 4 4-2 2-2 2-2 2-1 2h-1a57 57 0 00-3-4 17 17 0 00-5-3l2-2 2-3 3-2a7 7 0 01 0-1h1Zm-7 17 4 3 3 4-1 3-2 2-3 2-1 1a42 42 0 00-4-3 17 17 0 00-4-4s0 0 0-2c2 0 2-1 3-2l3-3a7 7 0 01 1 0Zm-7 69a20 20 0 00 11-4c2 0 3-2 4-3l2-3 2-6a11 11 0 01 3-3h1l-1 4a20 20 0 00 0 4c0 4 0 6 2 8 1 2 4 3 8 3l10-2a7 7 0 00 3-6l-1-6-6-9a3 3 0 01 0-2 4 4 0 01 0-2l5-10a57 57 0 01 7 24v6a34 34 0 01-2 5l-3 5a29 29 0 01-3 3 20 20 0 01-6 4 16 16 0 01-6 1 20 20 0 01-4 0 11 11 0 01-3-2 12 12 0 01-4-3 14 14 0 01-2-5 38 38 0 01-9 7 20 20 0 01-10 3 24 24 0 01-7 0 17 17 0 01-6-3 17 17 0 01-4-6l-3-8-18 6 2 6 1 7a60 60 0 01-3 20c-2 6-4 10-7 13l-8 8-7 2h-7a84 84 0 01-8-2l-4-2a48 48 0 01-3 0v-2a60 60 0 00 19-3l13-8 8-10a28 28 0 00 2-11c0-4 0-7-2-10l-10-7 6-11 5-1 6-1 8-2a50 50 0 00 8-3l2-2 3-2 1-3h1v4a20 20 0 00 0 10l2 5 5 4h7m-765-270v40h-2a68 68 0 00-10-32c-4-5-10-7-17-7h-3v85l2 1 7 1h12v2h-60v-1a175 175 0 00 19-2l2-1V37a17 17 0 00-3 0c-8 0-13 2-17 7a70 70 0 00-10 31h-3v-40h83Zm46 60c0-10 0-17-2-21-3-5-6-8-12-8a10 10 0 00-10 7c-3 5-4 12-4 23 0 10 1 17 3 22 2 5 6 7 11 7 5 0 9-2 10-7 3-5 4-12 4-22Zm15 0a30 30 0 01-10 23c-5 6-12 8-19 8a27 27 0 01-19-7 30 30 0 01-10-23 30 30 0 01 10-23 27 27 0 01 38 0 30 30 0 01 10 23Zm49-21L2740 70a4 4 0 00-3-2h-11v-1l28-2V120l1 1 10 1v2l-25 2v-18a25 25 0 01-4 10c-3 5-6 7-10 8h-4a20 20 0 01-13-5 15 15 0 01-4-10V70a2 2 0 00-2-1 93 93 0 00-7 0h-3v-1l25-2v46l2 10c1 2 3 2 5 2 5 0 8-2 11-7a33 33 0 00 4-17V75Zm40 0v-3a4 4 0 00-3-2h-11v-2l27-2v18a23 23 0 01 4-10c3-5 7-8 11-8 2 0 4 0 6 2a10 10 0 01 4 4l1 5c0 4-1 6-4 8a7 7 0 01-3 0 7 7 0 01-5-1l-2-6c0-2 0-4 2-5 1-2 3-3 4-2 0-2-2-3-5-3-2 0-5 2-8 6-3 5-5 11-5 20v29h1c2 2 6 2 13 2v1h-41v-1h7c2 0 4 0 6-2V76Zm61-40a8 8 0 01 6 2 8 8 0 01 2 5c0 3 0 4-2 6a8 8 0 01-6 2 8 8 0 01-5-2 8 8 0 01-3-6c0-2 1-4 3-5a8 8 0 01 5-3Zm8 31v57h1l12 2h-40a74 74 0 00 12-2l1-4V72a4 4 0 00-2-2h-12v-2l27-2Zm50 4 6-4v21c-2-6-5-10-8-14a17 17 0 00-20-4c-3 2-5 5-5 10 0 3 2 5 5 7l14 4 14 6c3 3 5 8 5 14 0 6-2 10-6 14a20 20 0 01-12 3h-9c-3-1-5-3-9-7l-5 7v-25l4 12c2 4 3 6 5 7 2 2 4 4 6 4l9 1c3 0 5 0 7-2 2-2 3-5 3-8 0-4-1-7-4-10l-13-3-13-6c-4-3-6-8-6-13a17 17 0 01 5-13c3-3 7-5 12-5 3 0 7 0 10 2l5 3m75 12 3-10c3-4 6-6 10-7h4c6 0 10 2 14 5 3 3 4 7 4 10v42h2l4 1h4v2h-33v-1h5a13 13 0 00 4-2l1-4V83l-1-10c-1-4-3-6-7-6s-6 2-8 5a70 70 0 00-6 19v32h2l4 1h4v2h-33v-1l8-1h1l1-5V73c-2-4-4-6-8-6s-7 3-10 8l-3 16v32h1l4 1h5v2h-36v-2h6l6-1V74a3 3 0 00 0-2 5 5 0 00-2-2 40 40 0 00-10 0v-2l26-2v18c0-5 1-8 3-10 2-5 5-8 10-8h2c7 0 11 1 14 5 3 3 4 7 4 12m118-39v78l2 1c3 1 8 2 17 2h-56a134 134 0 00 17-2l2-1V40l-2-2-17-1v-1h56a134 134 0 00-17 2h-1l-1 6m47 48v31h2l4 1h4v2h-36v-1h7l5-2V74a3 3 0 00 0-2v-1l-11-1v-2l25-2v18c0-4 2-8 4-10 2-5 5-7 8-7a71 71 0 01 6 0c5 0 10 0 14 4a15 15 0 01 4 11v41h2l4 1h5v2H3150v-1h6l5-2V74c-2-5-4-6-7-6-5 0-8 2-10 8-3 4-4 9-5 16m76 35-20-54v-4l-6-1h-3v-2h32v2h-6l-4 1 1 3 13 36 10-27 2-8c0-4-4-5-10-5v-2h24v2c-4 0-6 0-8 2a30 30 0 00-7 13l-15 44h-3Zm73-32c0-9 0-15-2-20s-4-7-8-7a10 10 0 00-10 6c-3 5-4 12-4 22h24Zm-24 2c0 10 1 17 4 22 2 4 6 7 10 7 6 0 10-2 14-5 5-5 7-10 7-18h1c0 7-2 13-6 18-5 4-10 6-18 6-7 0-12-2-17-7-6-5-10-13-10-22 0-10 4-18 10-24 5-5 10-8 17-8a20 20 0 01 15 6c6 5 10 13 10 25h-37ZM3340 70l5-4v21c-2-6-4-10-8-14a17 17 0 00-20-4c-3 2-4 5-4 10 0 3 1 5 4 7l14 4 14 6c4 3 6 8 6 14 0 6-3 10-7 14a20 20 0 01-12 3h-9c-2-1-5-3-8-7l-6 7v-25l5 12c1 4 3 6 4 7 2 2 4 4 6 4l10 1c2 0 4 0 6-2 2-2 4-5 4-8 0-4-2-7-5-10l-12-3-14-6c-4-3-6-8-6-13s2-10 5-13c3-3 7-5 12-5 4 0 7 0 10 2l6 3m55 25V110c0 6 0 10-2 13-2 4-6 5-12 5s-10-1-12-4c-3-2-4-6-4-11v-40h-12V70c8-2 14-7 18-14 3-5 4-12 4-19h3v30h16v4h-16V120c1 3 3 5 7 5 3 0 6-2 7-6l1-16v-7h2Zm63-13c0-4 2-8 3-10 2-4 6-6 10-7h4c5 0 10 2 13 5 3 3 5 7 5 10v42h1l4 1h5v2H3470v-1h5l4-2v-50c-2-4-4-6-7-6s-6 2-8 5c-3 3-5 10-6 19v32h2l3 1h5v2h-33v-1l8-1 2-5V83l-1-10c-2-4-4-6-7-6-4 0-8 3-10 8l-4 16v32h2l4 1h4v2h-35v-2h6l5-1 1-4V74a3 3 0 00 0-2 5 5 0 00-2-2 40 40 0 00-10 0v-2l25-2v18l3-10c3-5 6-8 10-8h4c6 0 10 1 14 5 2 3 4 7 4 12m86 12c0-9 0-15-3-20-1-5-4-7-7-7a10 10 0 00-11 6 60 60 0 00-3 22h24Zm-24 2c0 10 0 17 3 22 3 4 6 7 11 7 5 0 10-2 14-5 5-5 7-10 7-18 0 7-1 13-6 18-4 4-10 6-18 6-6 0-12-2-17-7-6-5-9-13-9-22a30 30 0 01 10-24c4-5 10-8 17-8 6 0 10 2 15 6 6 5 9 13 9 25H3520Zm66-5v31h2l3 1h5v2H3560v-1h6l6-2V74a3 3 0 00 0-2v-1L3560 70v-2l25-2v18c0-4 2-8 4-10 2-5 5-7 8-7h5c6 0 10 0 14 4 3 3 5 7 5 11v41h2l4 1h5v2h-36v-1h6l5-2V74c-2-5-4-6-7-6-5 0-8 2-10 8-3 4-4 9-5 16m90 4V110c0 6 0 10-2 13-2 4-6 5-12 5s-10-1-13-4c-2-2-4-6-4-11v-40h-10V70a30 30 0 00 17-14c3-5 4-12 4-19h3v30h16v4h-16V120c1 3 3 5 6 5 4 0 7-2 8-6l1-16v-7h2Zm110-8c0 14-2 24-8 30-5 6-12 10-22 10-11 0-20-4-28-10-10-9-14-20-14-35s5-27 14-36c8-8 16-12 26-12 4 0 8 0 11 2 4 2 8 5 12 10l6-13h1v40a50 50 0 00-10-30c-6-5-12-8-18-8a20 20 0 00-18 11c-3 8-5 19-5 34s2 26 5 34a20 20 0 00 18 11c9 0 16-3 20-8 6-6 10-16 10-30Zm47 9c0-10 0-18-2-22-2-5-6-8-12-8a10 10 0 00-10 7c-3 5-4 12-4 23 0 10 1 17 3 22 2 5 6 7 11 7 5 0 9-2 11-7a60 60 0 00 3-22Zm15 0a30 30 0 01-10 22c-5 6-12 8-19 8a27 27 0 01-19-7 30 30 0 01-10-23 30 30 0 01 10-23 27 27 0 01 38 0 30 30 0 01 10 23ZM3860 110c3 0 5 1 7 3a8 8 0 01 2 6 8 8 0 01-2 6 8 8 0 01-7 2 8 8 0 01-8-8 8 8 0 01 8-9ZM2020 93l-13-35-13 35h26Zm0 2h-26l-4 12c-2 3-2 6-2 8 0 4 1 6 4 7 2 2 6 3 10 3v1h-34v-1c6 0 10-3 14-8l8-16 23-65h3l30 80c1 5 3 7 4 8h13v2H2010v-1l15-1c2 0 4-2 4-3v-2l-10-24Zm70 24v4h1l12 2v1h-40v-1a69 69 0 00 7 0c2 0 4 0 6-2V41l-2-1h-11v-2l26-2v83Zm71-40h13c7 0 12-2 15-5 4-3 6-8 6-15 0-8-2-13-5-16-3-3-8-5-16-5h-6a19 19 0 00-5 0 2 2 0 00-1 2v38Zm56 27v5l-1 10c-2 4-5 6-10 6-6 0-10-2-13-7l-2-22v-6c0-5-1-8-4-10-2-2-5-2-10-2H2160v42l3 2h16v2h-56v-1c10 0 16 0 18-2a4 4 0 00 2-1V40h-3l-18-2v-1h57c10 0 18 2 24 8 5 4 7 8 7 13s-2 10-6 13c-4 4-11 7-20 8 9 2 15 7 19 16l2 20v7l4 1c2 0 3-1 4-4l1-13h1Zm41 5V92a7 7 0 01-4 3l-7 1a10 10 0 00-6 4 20 20 0 00-3 12c0 6 0 10 2 11a5 5 0 00 5 3c3 0 7-2 10-4 2-3 4-7 4-11m0-25v-8c0-4 0-6-2-8 0-1-3-2-7-2-4 0-6 0-9 2l-4 5c3 0 4 0 5 2a7 7 0 01 2 5 6 6 0 01-2 5 7 7 0 01-5 2 5 5 0 01-3-1c-3-2-4-4-4-7v-4c2-4 5-7 10-8a35 35 0 01 11-2c7 0 12 1 16 4 3 2 5 5 5 8V120c0 3 2 5 5 5 2 0 4-1 5-4v-20h3v12c0 5 0 9-2 10-2 3-5 4-10 4-4 0-7 0-10-2-2-1-3-4-4-8-2 4-5 7-8 9l-10 1c-4 0-7 0-10-3a10 10 0 01-6-10c0-6 2-10 6-14 4-3 8-5 14-5 6 0 10-1 11-2 2-1 3-4 3-7Z" fill="#243C6C"/><path d="M2304 140c-2 5-3 9-5 10a10 10 0 01-7 5l-10-1a6 6 0 01-3-4 17 17 0 01 0-5c0-3 0-5 4-6a7 7 0 01 3 0 7 7 0 01 5 1l2 5c0 4-2 7-6 7l2 1h2a8 8 0 00 6-2l5-10 5-13-20-55-2-3c0-1-2-2-5-2h-3v-1h32v1h-7c-2 0-3 0-3 2v3l14 35 10-27 1-7c0-4-3-6-10-6v-1h24v1c-3 0-6 0-8 3-2 1-4 6-7 12l-18 56Z" fill="#243C6C"/><path d="M2364 140c-2 5-4 9-6 10a10 10 0 01-7 5l-9-1a6 6 0 01-3-4 20 20 0 01 0-5c0-3 0-5 3-6a7 7 0 01 3 0 7 7 0 01 5 1l2 5c0 4-2 7-6 7l2 1h3a8 8 0 00 6-2l5-10 4-13-20-55c0-2-1-3-2-3l-4-2h-4v-1h32v1h-6c-2 0-4 0-4 2l1 3 14 35 10-27v-7c0-4-2-6-9-6v-1h24v1c-4 0-7 0-9 3-2 1-4 6-6 12l-20 56Zm61-30V93a7 7 0 01-5 3 605 605 0 00-6 0 10 10 0 00-6 5 20 20 0 00-3 12c0 6 0 10 2 11a5 5 0 00 5 3c3 0 6-2 10-4 2-3 3-7 3-11Zm0-24v-8l-1-8-8-2c-3 0-6 0-8 2l-5 5a7 7 0 01 2 0c1 0 3 0 4 2a7 7 0 01 2 5l-2 5a7 7 0 01-5 2 5 5 0 01-4-1c-2-2-4-4-4-7l1-4c2-4 5-7 10-8a35 35 0 01 11-2c7 0 12 1 16 4 3 2 4 5 4 8V120c1 3 3 5 6 5 2 0 4-1 5-4v-20h2v12l-1 10c-2 3-5 4-10 4-4 0-7 0-10-2-2-1-3-4-4-8a20 20 0 01-9 9l-9 1c-4 0-7 0-10-3a10 10 0 01-6-10c0-6 2-10 6-14 4-3 8-5 14-5l10-2c3-1 4-4 4-7m52 6v31h2l4 1h4v2h-35v-1a53 53 0 00 11-2l1-4V75a3 3 0 00 0-2l-1-2h-10v-2l24-2v18c0-4 2-8 4-10 2-5 5-7 8-8h6c5 0 10 2 13 5 3 3 5 7 5 10v42h1l4 2h6v1H2490v-1h5a20 20 0 00 5-2v-50c-2-4-4-6-7-6-4 0-8 3-10 8a50 50 0 00-5 16M123 100v5h2v-3l-1-2Zm0 13 1 2v-2h-2Zm0-6-1 4h3v-4h-3Zm3-7Zm-2-6v4h2v-4h-2ZM40 100v5h8l-5-5H40Zm0 7 1 4h13l-4-4H40Zm44 0 5 4h13l-4-4H84Zm34 40 3-1 3-30-2-2-4 33Zm-40-47 4 5h14l-4-5H78Zm-10 7 4 4h14l-4-4H68ZM110 100l4 5h5V100h-10Zm-48 0 4 5H80l-5-5H62Zm32 0 4 5h14l-4-5H94Zm180-8 1-2v-3h-10l-2 3s7-2 8 0l2 2ZM260 118h4l2-3c-5-3-14-5-14-5l8 8Zm-220-20h2H40v2Zm224 2h10l3-6-4 1-10 1 1 4Zm-1 24H260l-12-10v3c4 4 5 12 5 12l-2-4v2l-6-6c1 5-5 7-5 7a118 118 0 00-8 84h16a160 160 0 01 14-88" fill="#243C6C"/><path d="m173 56-15 80c5 13 26 25 26 25l-3 9h-10c-7 0-14-5-20-12l22-104v3m2 129H170c-8 0-16-3-24-7l3-14a32 32 0 00 20 8c4 0 7 0 10-2a129 129 0 01-5 15m-10 16a42 42 0 01-14-1 57 57 0 01-8-3l3-14c6 3 13 5 20 5h1l7-1a83 83 0 01-9 14M40 92h13l-7-6 1-1 8 7h3v-7H60l1 7h7L60 86l1-1 8 7h14l-7-6 1-1 8 7H100l-7-6v-1h1l8 7h14l-7-6v-1h1l8 7h2v-10h5l-1 10h3V90h2l-4-3v-1h1l8 7h12c3-7 7-15 9-23 3-16 12-17 12-17l-20 105a165 165 0 01-50 13 170 170 0 01-30 0v1a167 167 0 00 22 2h19a170 170 0 00 37-10l-3 15a167 167 0 01-60 6v1a168 168 0 00 42 0 164 164 0 00 17-2l-3 14a124 124 0 01-10 2 100 100 0 01-23 0 103 103 0 00 30 2h2l-2 10h5l2-10h3a43 43 0 00 20 0 56 56 0 01-10 10H220c-14-46 14-87 14-87-5-2 0-5 0-5-3-6 3-6 3-6l-2-3-4 3h-5l2-4-7 5-7-1 8-6H220l-6 3h-2l-3-3h2l4-3h24l1-2c-10 1-13-6-13-6l2-3H220l-2-1h1l-7-4 10 1-12-6V80l12 8 3 1h8l6 4h3c0-2-5-4-5-4v-6h4l-5-4v-4l5 3-6-4V70l11 10 3 9h2c0-3 10-10 10-10l-1 4h3l7-4h4l4 5h2v-2l-1-4-3-1H260l-5-4-10-2 10-2c4-2 15 5 15 5l5 2 1-1-2-3-3-3-8-2h5l-1-3C258 66 250 60 250 60l21 3 11 10 1-3-2-8h2l-6-7h4l3-3v4h2l1 3 2 1v10l8-8v-6l9-6c0 4-5 19-5 19h2c0-2 3-5 3-5h5l7-2-2 2-4 2h2l-1 3-6 4h1l10 2c17-1 20 10 20 10h-3v-2l-2-2h-2l-2-2-1 1h-2l-1 2-21-1 3 2c16 3 20 26 20 26l-2-2-20-15c-6-6-10-4-10-4l11 8c2 3 2 10 2 10l-2-3v5l-3-1a8 8 0 00-2-4l-12-10-3-3-1 2 2 3 8 6h-2l-3-3v3l-5-8-5 9h7c0 3-5 4-10 5l-2 3h6l-9 6a160 160 0 00-11 96h26v-30h12v30h6V160h12v50h6v-87h13v89h6v-100h12v100h6v-87h13v87h43a208 208 0 00-334-170A207 207 0 00 40 88v4Z" fill="#243C6C"/><path d="M270 108a96 96 0 01-2 0h2m-212 5 2 2v-2h-2Zm6 44-4-40-4-4H40l5 42h-4l22 2m-12-50 4 4H60v-4h-7Zm-7-7 5 5H60V100H44Zm10-6 3 3v-3h-3ZM40 94l5 5h14l-5-5H40Zm98 15 1-3h-6l4 5v-2Z" fill="#243C6C"/><path d="m33 154 9 1-5-42H25v-1c0-1 0 0 0 0h12v-6h-10A210 210 0 00 0 212h55c-24-25-22-58-22-58m3-55v-5h-2c0 2-2 3-3 5h5Zm180 148H4l3 10h191a151 151 0 01 20-10Zm-88-130h5l2-4h-7v3ZM180 268H10c0 4 1 7 3 10h152l15-10ZM36 100H30l-2 5h9V100Zm93 7v4h6l-5-4Zm18 185h-130l5 10H130l17-10ZM405 280c0-4 2-7 3-10H390l15 10M0 224v10h414l1-10H1ZM375 260v-2H410l3-10h-67l28 12ZM29 315v1c20 19 47 14 79-1H29Z" fill="#243C6C"/><path d="M231 285C182 330 158 380 106 390c70 40 160 37 229-15a208 208 0 00 68-91c-86-44-133-35-172 0Z" fill="#E09235"/><path d="m103 94 5 5H120v-3l-2-2h-14Zm13 13 2 2v-2h-2Zm-16 0 5 4h13l-4-4H100Zm20-13Zm-57 13v4H70l-4-4h-3Zm51 41 4-35h-12l5 4v1H110l-6-5H90l5 4v1h-1l-6-5H74l5 5h-2l-5-5h-9l5 44a150 150 0 00 46-9m-52-43h2l-2-2v2Zm67-1 1 1h10l1-3-1-2h-10v4Zm1-10v5h8l-5-5H130Zm0-2h2-1Zm13 7 2-5h-10l5 5h3ZM60 94v5h13l-5-5H60Zm10 0 5 5H90l-5-5H71Zm16 0 5 5h14l-5-5H87Z" fill="#243C6C"/></g><defs><clipPath id="a"><path d="M0 0h3870v417H0" fill="#fff"/></clipPath></defs></svg>
