<svg width="28" height="28" viewBox="0 0 28 28" fill="none" xmlns="http://www.w3.org/2000/svg">
<rect width="28" height="28" rx="14" fill="#E09235"/>
<path d="M13.55 19.14C12.738 19.14 12.0333 19.0187 11.436 18.776C10.8387 18.5333 10.3767 18.1927 10.05 17.754C9.72333 17.306 9.56 16.7833 9.56 16.186C9.56 15.5887 9.71867 15.0847 10.036 14.674C10.3533 14.2633 10.8107 13.9507 11.408 13.736C12.0053 13.5213 12.7193 13.414 13.55 13.414C14.3807 13.414 15.0947 13.5213 15.692 13.736C16.2987 13.9507 16.7607 14.268 17.078 14.688C17.4047 15.0987 17.568 15.598 17.568 16.186C17.568 16.7833 17.4 17.306 17.064 17.754C16.7373 18.1927 16.2707 18.5333 15.664 18.776C15.0667 19.0187 14.362 19.14 13.55 19.14ZM13.55 17.712C14.222 17.712 14.754 17.572 15.146 17.292C15.538 17.012 15.734 16.6247 15.734 16.13C15.734 15.6447 15.538 15.262 15.146 14.982C14.754 14.702 14.222 14.562 13.55 14.562C12.878 14.562 12.3507 14.702 11.968 14.982C11.5853 15.262 11.394 15.6447 11.394 16.13C11.394 16.6247 11.5853 17.012 11.968 17.292C12.3507 17.572 12.878 17.712 13.55 17.712ZM13.55 14.366C12.794 14.366 12.1453 14.268 11.604 14.072C11.0627 13.8667 10.6427 13.5727 10.344 13.19C10.0547 12.798 9.91 12.3313 9.91 11.79C9.91 11.23 10.0593 10.7493 10.358 10.348C10.666 9.93733 11.0953 9.62 11.646 9.396C12.1967 9.172 12.8313 9.06 13.55 9.06C14.278 9.06 14.9173 9.172 15.468 9.396C16.0187 9.62 16.448 9.93733 16.756 10.348C17.064 10.7493 17.218 11.23 17.218 11.79C17.218 12.3313 17.0687 12.798 16.77 13.19C16.4807 13.5727 16.0607 13.8667 15.51 14.072C14.9593 14.268 14.306 14.366 13.55 14.366ZM13.55 13.246C14.1287 13.246 14.586 13.1247 14.922 12.882C15.258 12.63 15.426 12.294 15.426 11.874C15.426 11.4353 15.2533 11.0947 14.908 10.852C14.5627 10.6093 14.11 10.488 13.55 10.488C12.99 10.488 12.542 10.6093 12.206 10.852C11.87 11.0947 11.702 11.4353 11.702 11.874C11.702 12.294 11.8653 12.63 12.192 12.882C12.528 13.1247 12.9807 13.246 13.55 13.246Z" fill="white"/>
</svg>
