<svg width="24" height="20" viewBox="0 0 24 20" fill="none" xmlns="http://www.w3.org/2000/svg">
<path d="M0 10C0 10.1396 0.054966 10.2734 0.152809 10.3722C0.250652 10.4709 0.383358 10.5263 0.52173 10.5263H22.2179L13.7176 19.101C13.6197 19.1998 13.5647 19.3337 13.5647 19.4734C13.5647 19.6131 13.6197 19.747 13.7176 19.8458C13.8155 19.9445 13.9483 20 14.0867 20C14.2252 20 14.3579 19.9445 14.4558 19.8458L23.847 10.3724C23.8955 10.3235 23.934 10.2654 23.9602 10.2015C23.9865 10.1377 24 10.0692 24 10C24 9.93084 23.9865 9.86235 23.9602 9.79846C23.934 9.73457 23.8955 9.67652 23.847 9.62764L14.4558 0.154235C14.4074 0.105337 14.3498 0.066548 14.2865 0.0400843C14.2232 0.0136205 14.1553 0 14.0867 0C14.0182 0 13.9503 0.0136205 13.8869 0.0400843C13.8236 0.066548 13.7661 0.105337 13.7176 0.154235C13.6691 0.203134 13.6307 0.261185 13.6044 0.325074C13.5782 0.388964 13.5647 0.45744 13.5647 0.526593C13.5647 0.595746 13.5782 0.664222 13.6044 0.728112C13.6307 0.792001 13.6691 0.850052 13.7176 0.898951L22.2179 9.4737H0.52173C0.383358 9.4737 0.250652 9.52915 0.152809 9.62785C0.054966 9.72655 0 9.86042 0 10Z" fill="#292929"/>
</svg>
