<svg width="18" height="14" viewBox="0 0 18 14" fill="none" xmlns="http://www.w3.org/2000/svg">
<path fill-rule="evenodd" clip-rule="evenodd" d="M10.4707 0.46995C10.3302 0.610576 10.2513 0.8012 10.2513 0.99995C10.2513 1.1987 10.3302 1.38933 10.4707 1.52995L15.1907 6.24995H1.00066C0.801748 6.24995 0.610981 6.32897 0.470329 6.46962C0.329678 6.61027 0.25066 6.80104 0.25066 6.99995C0.25066 7.19886 0.329678 7.38963 0.470329 7.53028C0.610981 7.67093 0.801748 7.74995 1.00066 7.74995H15.1907L10.4707 12.4699C10.397 12.5386 10.3379 12.6214 10.2969 12.7134C10.2559 12.8054 10.2338 12.9047 10.2321 13.0054C10.2303 13.1061 10.2488 13.2062 10.2865 13.2995C10.3243 13.3929 10.3804 13.4778 10.4516 13.549C10.5228 13.6202 10.6077 13.6764 10.7011 13.7141C10.7945 13.7518 10.8945 13.7703 10.9952 13.7685C11.0959 13.7668 11.1952 13.7447 11.2872 13.7037C11.3792 13.6627 11.462 13.6036 11.5307 13.53L17.5307 7.52995C17.6711 7.38932 17.75 7.1987 17.75 6.99995C17.75 6.8012 17.6711 6.61058 17.5307 6.46995L11.5307 0.46995C11.39 0.3295 11.1994 0.25061 11.0007 0.25061C10.8019 0.25061 10.6113 0.3295 10.4707 0.46995Z" fill="#0065BE"/>
</svg>
