<svg width="23" height="14" viewBox="0 0 23 14" fill="none" xmlns="http://www.w3.org/2000/svg">
<path fill-rule="evenodd" clip-rule="evenodd" d="M15.4707 0.470011C15.3302 0.610637 15.2513 0.801261 15.2513 1.00001C15.2513 1.19876 15.3302 1.38939 15.4707 1.53001L20.1907 6.25001H1.00066C0.801748 6.25001 0.610981 6.32903 0.470329 6.46968C0.329678 6.61033 0.25066 6.8011 0.25066 7.00001C0.25066 7.19892 0.329678 7.38969 0.470329 7.53034C0.610981 7.67099 0.801748 7.75001 1.00066 7.75001H20.1907L15.4707 12.47C15.397 12.5387 15.3379 12.6215 15.2969 12.7135C15.2559 12.8055 15.2338 12.9048 15.2321 13.0055C15.2303 13.1062 15.2488 13.2062 15.2865 13.2996C15.3243 13.393 15.3804 13.4778 15.4516 13.549C15.5228 13.6203 15.6077 13.6764 15.7011 13.7141C15.7945 13.7519 15.8945 13.7704 15.9952 13.7686C16.0959 13.7668 16.1952 13.7448 16.2872 13.7038C16.3792 13.6628 16.462 13.6037 16.5307 13.53L22.5307 7.53001C22.6711 7.38939 22.75 7.19876 22.75 7.00001C22.75 6.80126 22.6711 6.61064 22.5307 6.47001L16.5307 0.470011C16.39 0.329561 16.1994 0.250671 16.0007 0.250671C15.8019 0.250671 15.6113 0.329561 15.4707 0.470011Z" fill="#025AA8"/>
</svg>
