<svg xmlns="http://www.w3.org/2000/svg" fill="none" viewBox="0 0 246 27"><g clip-path="url(#a)"><path d="M121.362 26.269V.73" stroke="#fff" stroke-width=".797"/><path d="m41.272 16.082-2.705-7.425-2.705 7.425h5.41Zm.146.323h-5.703l-.91 2.579c-.234.646-.351 1.205-.351 1.673 0 .723.278 1.239.826 1.552.553.314 1.33.468 2.338.468v.294h-7.513v-.294c1.36 0 2.417-.506 3.165-1.519.416-.564.949-1.73 1.6-3.505l4.998-13.725h.592l6.392 17.114c.299.8.592 1.273.886 1.418.298.145 1.183.217 2.66.217v.294H39.481v-.294c1.483 0 2.495-.053 3.048-.16.552-.105.826-.327.826-.66l-.058-.294-1.884-5.158h.005Z" fill="#fff"/><path d="M55.548 12.87h2.74c1.432 0 2.494-.264 3.179-.79.821-.627 1.237-1.682 1.237-3.172 0-1.644-.338-2.806-1.017-3.48-.68-.676-1.805-1.013-3.375-1.013h-1.414c-.415 0-.719.029-.914.086a.516.516 0 0 0-.372.367c-.049.188-.073.564-.073 1.133v6.87h.01Zm11.983 5.892v.964c0 1.148-.107 1.943-.327 2.392-.357.737-1.062 1.109-2.113 1.109-1.37 0-2.27-.507-2.705-1.52-.357-.814-.533-2.371-.533-4.666v-.612c0-.193.01-.4.03-.612 0-1.032-.245-1.726-.74-2.083-.488-.357-1.198-.54-2.117-.54h-3.478v7.839c0 .583.035.954.103 1.109.069.154.22.28.445.366.225.087.69.14 1.39.16a85.54 85.54 0 0 0 2.205.028v.26H47.65v-.294c2.068 0 3.316-.077 3.726-.236.196-.077.338-.188.416-.337.078-.145.117-.502.117-1.066V5.996c0-.545-.039-.887-.117-1.022-.039-.077-.166-.154-.386-.231-.572-.213-1.825-.323-3.756-.323v-.26h12.1c2.132 0 3.825.563 5.086 1.691 1.008.897 1.512 1.818 1.512 2.777 0 1.128-.397 2.054-1.189 2.772-.954.878-2.455 1.432-4.514 1.664 2.103.41 3.492 1.562 4.167 3.466.337.95.509 2.386.509 4.31 0 .564.049.97.146 1.225.103.25.338.376.72.376.42 0 .709-.328.865-.979.161-.65.24-1.552.24-2.7h.238ZM86.342 4.154v8.312h-.416c-.454-3.182-1.174-5.366-2.157-6.557-.807-.998-2.005-1.494-3.58-1.494-.396 0-.611.019-.65.057-.079.058-.118.314-.118.762v15.799c0 .564.04.925.118 1.08.039.077.176.164.415.25.235.087.69.16 1.36.217.67.058 1.58.087 2.72.087v.294H71.165v-.294c1.125 0 2.02-.029 2.69-.087.67-.057 1.125-.13 1.36-.216.235-.087.386-.198.46-.324.068-.125.103-.462.103-1.007V5.263c0-.506-.06-.78-.177-.82-.058-.019-.264-.028-.62-.028-1.541 0-2.715.487-3.522 1.465-.988 1.21-1.727 3.385-2.22 6.528h-.416V4.154h17.519Zm8.79 1.842v15.037c0 .564.038.925.117 1.08.039.077.156.154.357.231.572.217 1.746.323 3.521.323v.294H87.472v-.294c.846 0 1.585-.029 2.206-.087.62-.057 1.046-.13 1.271-.216.225-.087.377-.198.445-.324.069-.125.103-.462.103-1.007V5.996c0-.545-.039-.887-.117-1.022-.04-.077-.166-.154-.387-.236-.572-.212-1.746-.323-3.521-.323v-.26h11.69v.26c-.847 0-1.585.029-2.207.086-.62.058-1.06.135-1.315.232l-.294.116c-.137.115-.205.496-.205 1.142m19.544 9.155c0 2.82-.547 4.87-1.643 6.152s-2.675 1.924-4.749 1.924c-2.348 0-4.329-.7-5.948-2.098-1.932-1.672-2.9-4.073-2.9-7.202 0-3.13.978-5.55 2.935-7.497 1.677-1.673 3.477-2.507 5.394-2.507.93 0 1.742.164 2.431.497.89.429 1.702 1.128 2.431 2.102l1.453-2.744h.146v8.461l-.239-.144c0-2.498-.7-4.503-2.103-6.012-1.169-1.258-2.397-1.89-3.678-1.89-1.722 0-2.959.781-3.708 2.343-.753 1.562-1.125 3.915-1.125 7.063 0 3.148.406 5.419 1.218 7 .812 1.581 2.049 2.372 3.707 2.372 1.879 0 3.321-.545 4.334-1.634 1.203-1.283 1.81-3.346 1.81-6.18h.239l-.005-.006Zm13.749 8.302a1.2 1.2 0 0 1 .24.179 1.7 1.7 0 0 1 .244.265v.034a2.048 2.048 0 0 0-.117.106l-.132.13c-.044.043-.088.092-.128.13-.039.043-.073.077-.092.097h-.035a3.255 3.255 0 0 0-.205-.232 1.095 1.095 0 0 0-.269-.198v-.033s.024-.034.068-.087c.044-.053.098-.11.157-.164l.161-.159a.482.482 0 0 1 .083-.072h.035l-.01.005Zm-1.061 0c.058.03.136.087.239.179.103.091.181.178.245.265v.034c-.034.029-.074.062-.118.106l-.132.13c-.044.043-.088.092-.127.13a1.943 1.943 0 0 1-.093.097h-.034a2.633 2.633 0 0 0-.21-.232 1.095 1.095 0 0 0-.269-.198v-.033s.024-.034.068-.087c.044-.053.098-.11.157-.164l.161-.159a.442.442 0 0 1 .083-.072h.034l-.004.005Zm2.171-3.774h1.771c.088 0 .146.029.176.082.034.053.049.144.049.265v.043c0 .135-.035.222-.108.27a.566.566 0 0 1-.289.068h-.347a.467.467 0 0 1 .137.14.402.402 0 0 1 .059.226.888.888 0 0 1-.098.347c-.068.14-.166.294-.298.453a3.862 3.862 0 0 1-.489.482c-.191.16-.416.309-.661.434a4.12 4.12 0 0 1-.831.314c-.308.077-.641.12-.998.12s-.626-.034-.866-.096a2.067 2.067 0 0 1-.587-.251 1.152 1.152 0 0 1-.361-.357 1.599 1.599 0 0 1-.191-.41 1.986 1.986 0 0 1-.074-.404 5.378 5.378 0 0 1-.014-.352c0-.155.014-.309.049-.468a4.35 4.35 0 0 1 .107-.439c.039-.135.079-.246.123-.337a.576.576 0 0 1 .097-.169c.01-.01.025-.02.035-.02.029 0 .058.015.088.044-.044.116-.084.26-.118.439a3.418 3.418 0 0 0-.049.55c0 .168.035.342.098.51.069.17.176.323.328.458.151.136.352.246.597.333.244.087.547.13.904.13a5.11 5.11 0 0 0 1.086-.106c.333-.072.616-.159.856-.26s.426-.212.558-.323c.132-.116.2-.212.2-.299 0-.097-.088-.198-.264-.309-.176-.106-.489-.236-.944-.385l.279-.714-.01-.01Z" fill="#fff"/><path d="M131.882 18.26c.088-.091.161-.197.23-.313a3.56 3.56 0 0 1 .196-.323c.039-.067.176-.101.405-.101.172 0 .377.038.607.11.23.073.479.155.739.242.264.087.528.169.802.24.274.073.538.112.797.112.083 0 .181 0 .293-.01a4.31 4.31 0 0 0 .304-.024l.014.024c-.024.039-.049.087-.083.14a2.025 2.025 0 0 0-.093.164 2.332 2.332 0 0 0-.078.159.464.464 0 0 0-.044.125c-.191 0-.362.01-.514.024a1.952 1.952 0 0 0-.425.087 1.966 1.966 0 0 0-.396.164 4.37 4.37 0 0 0-.426.256c-.22.154-.43.294-.631.424-.2.13-.416.241-.645.337-.23.092-.49.17-.778.222a5.67 5.67 0 0 1-1.017.082c-.059 0-.108-.024-.157-.077-.044-.053-.068-.135-.068-.246v-.053c0-.12.034-.207.107-.26a.468.468 0 0 1 .279-.082c.474-.005.856-.044 1.154-.116.299-.072.553-.159.763-.26.211-.101.396-.212.563-.328.161-.116.347-.227.557-.328-.132-.053-.274-.101-.43-.159a8.22 8.22 0 0 0-.876-.25 1.615 1.615 0 0 0-.337-.044c-.22 0-.386.01-.499.024a1.16 1.16 0 0 0-.279.077l-.034-.043v.005Zm5.859-3.263c.01.226.02.487.025.78.005.295.01.599.01.926v.57c0 .192-.005.385-.02.568-.005.068-.01.135-.01.198v.188c0 .231.015.439.044.622a1.2 1.2 0 0 0 .157.458.674.674 0 0 0 .313.28c.132.062.303.091.509.091.088 0 .146.029.176.082.034.053.049.14.049.26v.044c0 .13-.035.217-.108.265a.552.552 0 0 1-.289.067c-.288 0-.518-.038-.689-.12a.886.886 0 0 1-.392-.333 1.212 1.212 0 0 1-.171-.492 4.65 4.65 0 0 1-.039-.602v-1.355c0-.26 0-.535-.015-.824-.009-.285-.024-.56-.044-.815a9.177 9.177 0 0 0-.073-.675c-.029-.193-.064-.328-.103-.4.044-.039.093-.092.147-.15.054-.057.103-.115.152-.173.049-.058.093-.111.127-.16.039-.047.063-.081.083-.096a.103.103 0 0 1 .059-.024c.019 0 .039.01.054.024.014.02.019.034.019.053l.025.733.004.01Z" fill="#fff"/><path d="M140.451 21.327c.059.029.137.087.24.178.102.092.181.179.244.265v.034a2.048 2.048 0 0 0-.117.106l-.132.13c-.049.044-.088.092-.127.13a.935.935 0 0 1-.098.097h-.034a3.575 3.575 0 0 0-.206-.231 1.095 1.095 0 0 0-.269-.198v-.034s.025-.034.069-.086c.044-.054.097-.111.156-.164l.162-.16a.406.406 0 0 1 .083-.072h.034l-.005.005Zm-1.061 0c.058.029.137.087.239.178.103.092.181.179.245.265v.034a2.048 2.048 0 0 0-.117.106l-.133.13c-.044.044-.088.092-.127.13a1.943 1.943 0 0 1-.093.097h-.034a3.528 3.528 0 0 0-.205-.231 1.095 1.095 0 0 0-.269-.198v-.034s.024-.034.068-.086c.044-.054.098-.111.157-.164l.161-.16a.439.439 0 0 1 .083-.072h.034l-.009.005Zm2.166-1.258c0 .13-.034.217-.107.265a.568.568 0 0 1-.289.067 3.17 3.17 0 0 1-.376-.024 1.06 1.06 0 0 1-.318-.096.806.806 0 0 1-.245-.198.77.77 0 0 1-.147-.328 2.86 2.86 0 0 1-.181.212 1.143 1.143 0 0 1-.273.208 1.44 1.44 0 0 1-.416.159 2.431 2.431 0 0 1-.612.063c-.058 0-.107-.025-.156-.078-.044-.053-.069-.135-.069-.245v-.054c0-.12.04-.207.113-.26a.48.48 0 0 1 .284-.082c.22 0 .401-.02.552-.058.152-.038.274-.091.367-.154a.88.88 0 0 0 .22-.198.76.76 0 0 0 .113-.197c.058-.16.117-.285.181-.381a.78.78 0 0 1 .156-.188.039.039 0 0 1 .025-.01c.009 0 .024 0 .034.015.01.01.019.014.024.019a1.248 1.248 0 0 0-.112.511c0 .241.078.405.23.496.151.092.411.14.773.14.088 0 .146.03.176.082.029.053.048.14.048.26v.044l.005.01Z" fill="#fff"/><path d="M145.562 20.397c-.068 0-.142-.01-.22-.024a.74.74 0 0 1-.23-.097.768.768 0 0 1-.2-.198.877.877 0 0 1-.132-.327 2.796 2.796 0 0 1-.578.472c-.195.116-.42.174-.684.174a1.08 1.08 0 0 1-.529-.135c-.166-.092-.283-.26-.347-.511-.054.067-.112.14-.181.212a1.132 1.132 0 0 1-.274.207 1.61 1.61 0 0 1-.415.164 2.431 2.431 0 0 1-.612.063c-.058 0-.107-.024-.156-.077a.384.384 0 0 1-.069-.246v-.053c0-.121.039-.208.113-.26a.479.479 0 0 1 .283-.083c.221 0 .406-.019.553-.058.152-.038.274-.091.367-.154a.88.88 0 0 0 .22-.198.76.76 0 0 0 .113-.197c.058-.16.117-.29.18-.381a.8.8 0 0 1 .157-.188.038.038 0 0 1 .024-.01c.01 0 .025 0 .035.015.009.01.019.014.024.019a.754.754 0 0 0-.078.222 1.196 1.196 0 0 0-.034.29c0 .24.073.404.215.496.142.091.332.14.562.14.162 0 .304-.02.426-.058.122-.039.225-.092.308-.155a.978.978 0 0 0 .205-.197.76.76 0 0 0 .113-.198c.059-.16.117-.29.181-.38a.778.778 0 0 1 .156-.189.039.039 0 0 1 .025-.01c.01 0 .024 0 .034.015.01.01.02.014.024.02a1.247 1.247 0 0 0-.112.511c0 .187.049.342.152.457.102.12.274.179.523.179a.62.62 0 0 0 .386-.12.92.92 0 0 0 .25-.27 1.298 1.298 0 0 1-.034-.203c-.005-.068-.01-.13-.01-.193 0-.116.005-.217.019-.309a.658.658 0 0 1 .059-.202c.005-.02.02-.024.044-.024.025 0 .034.005.034.019.02.154.044.308.079.463a1 1 0 0 0 .591.723c.172.077.397.116.685.116.088 0 .147.029.176.082.034.053.049.14.049.26v.043c0 .13-.034.217-.108.266a.564.564 0 0 1-.288.067c-.538 0-.9-.217-1.091-.646-.044.063-.098.13-.161.207a1.423 1.423 0 0 1-.211.212.904.904 0 0 1-.626.227" fill="#fff"/><path d="M148.731 15.04a.72.72 0 0 1-.136-.188.516.516 0 0 1-.054-.236c0-.106.029-.246.088-.415a1.21 1.21 0 0 1 .235-.414c.019.15.048.27.092.361a.97.97 0 0 0 .172.241.87.87 0 0 0 .244.169c.093.048.201.092.318.135l-.313.699c.02.453.029.839.044 1.152.01.314.02.579.029.786.01.212.015.376.015.492 0 .12.005.207.01.27v.159c0 .25-.044.501-.132.757a2.293 2.293 0 0 1-.377.69 1.965 1.965 0 0 1-.582.496c-.225.13-.474.193-.748.193-.059 0-.108-.024-.157-.078-.044-.053-.068-.135-.068-.245v-.053c0-.12.039-.208.112-.26a.483.483 0 0 1 .284-.083c.235 0 .43-.014.582-.043a.755.755 0 0 0 .357-.15.517.517 0 0 0 .176-.294c.03-.125.049-.284.049-.477 0-.164-.005-.366-.019-.602-.01-.237-.025-.483-.044-.743-.015-.26-.035-.52-.054-.786-.015-.26-.034-.501-.054-.718-.02-.217-.039-.405-.054-.555-.015-.149-.024-.24-.029-.274m2.044-.01a1.486 1.486 0 0 1-.166-.202.436.436 0 0 1-.078-.256c0-.106.029-.246.088-.414a1.22 1.22 0 0 1 .234-.415c.015.15.049.27.093.362a.868.868 0 0 0 .416.41c.093.048.201.091.318.134l-.313.646c.02.26.034.545.054.859.015.308.034.626.049.95.014.322.024.645.034.963.01.323.015.618.015.892 0 .16-.005.3-.02.42a1.82 1.82 0 0 1-.24.718 5.549 5.549 0 0 1-.259.42h-.034l-.044-.034c.029-.15.049-.381.054-.7.01-.317.014-.698.014-1.142 0-.275-.009-.573-.019-.906a66.03 66.03 0 0 0-.054-.993 42.344 42.344 0 0 0-.142-1.721m5.776 4.797c0-.294-.18-.666-.542-1.11-.049-.057-.079-.105-.079-.144 0-.024.01-.048.025-.077l.283-.69h.035c.044.058.102.145.171.266.068.12.137.25.2.395.064.145.118.294.162.453.049.155.068.3.068.425 0 .554-.063 1.017-.186 1.383-.122.367-.273.66-.445.878-.171.217-.347.376-.528.463-.176.091-.323.134-.43.134-.147 0-.299-.014-.465-.043a5.623 5.623 0 0 1-.465-.101 8.03 8.03 0 0 0-.249-.072 2.98 2.98 0 0 1-.249-.082l.009-.053c.46-.01.861-.082 1.199-.203.337-.125.616-.284.836-.477.22-.193.381-.405.489-.641a1.67 1.67 0 0 0 .161-.704Zm2.123-4.807c.01.226.02.487.025.78.005.295.009.599.009.926v.57c0 .192-.004.385-.019.568-.005.068-.01.135-.01.198v.188c0 .231.015.439.044.622.029.183.078.337.157.458.078.12.176.217.313.28.132.062.303.091.508.091.088 0 .147.029.176.082.035.053.049.14.049.26v.044c0 .13-.034.217-.107.265a.57.57 0 0 1-.289.067c-.288 0-.518-.038-.69-.12a.883.883 0 0 1-.391-.333 1.197 1.197 0 0 1-.171-.492 4.65 4.65 0 0 1-.039-.602v-1.355c0-.26 0-.535-.015-.824a19.21 19.21 0 0 0-.044-.815 9.177 9.177 0 0 0-.073-.675c-.03-.193-.064-.328-.103-.4.044-.039.093-.092.147-.15.054-.057.103-.115.151-.173a2.87 2.87 0 0 0 .128-.16c.039-.047.063-.081.083-.096a.089.089 0 0 1 .058-.024c.02 0 .04.01.054.024a.08.08 0 0 1 .02.053l.024.733.005.01Z" fill="#fff"/><path d="M161.536 18.386a.404.404 0 0 0-.235.078 1.086 1.086 0 0 0-.205.192 1.927 1.927 0 0 0-.298.526c.166.193.361.342.586.453.225.106.46.16.7.16.279 0 .416-.122.416-.358a.753.753 0 0 0-.084-.24 1.902 1.902 0 0 0-.215-.353 1.458 1.458 0 0 0-.308-.313.573.573 0 0 0-.362-.135m-1.849 1.297a.756.756 0 0 0 .631-.314 1.31 1.31 0 0 0 .172-.298c.044-.107.088-.213.122-.314.122-.328.269-.583.45-.757.181-.173.362-.265.543-.265.132 0 .254.029.366.087.113.058.216.13.314.226.097.092.185.198.269.319.078.12.156.24.225.366.097.193.185.352.273.473.084.12.167.216.245.289.083.072.166.12.254.15a.93.93 0 0 0 .289.043c.088 0 .147.029.176.082.029.053.049.14.049.26v.043c0 .13-.034.217-.108.266a.564.564 0 0 1-.288.067.966.966 0 0 1-.485-.154c-.171-.102-.337-.3-.498-.588a1.506 1.506 0 0 1-.108.27 1.927 1.927 0 0 1-.166.265.98.98 0 0 1-.206.202.382.382 0 0 1-.225.077c-.259 0-.508-.058-.743-.173-.235-.116-.475-.318-.719-.608a1.283 1.283 0 0 1-.401.516.96.96 0 0 1-.602.198c-.058 0-.107-.024-.156-.077-.044-.053-.069-.135-.069-.246v-.053c0-.12.039-.208.113-.26a.479.479 0 0 1 .283-.082" fill="#fff"/><path d="M165.762 16.25c.059.03.137.087.24.179.102.091.185.178.244.265v.034a2.054 2.054 0 0 0-.117.106l-.132.13c-.044.043-.088.091-.127.13-.04.043-.074.077-.093.096h-.035a3.278 3.278 0 0 0-.205-.231 1.095 1.095 0 0 0-.269-.198v-.034l.068-.091c.044-.053.098-.111.157-.164l.161-.16a.478.478 0 0 1 .083-.071h.035l-.01.01Zm-.577-1.08c.058.03.137.087.239.179.103.091.181.178.245.265v.034a2.048 2.048 0 0 0-.117.106l-.132.13a1.683 1.683 0 0 1-.133.13c-.039.043-.073.077-.092.096h-.035a3.278 3.278 0 0 0-.205-.231 1.095 1.095 0 0 0-.269-.198v-.033l.068-.092c.044-.053.098-.11.157-.164l.161-.159a.476.476 0 0 1 .083-.072h.035l-.005.01Zm-.484 1.08c.058.03.137.087.239.179.103.091.181.178.245.265v.034a1.596 1.596 0 0 0-.118.106l-.132.13c-.044.043-.088.091-.132.13a1.899 1.899 0 0 1-.093.096h-.034a2.647 2.647 0 0 0-.21-.231 1.095 1.095 0 0 0-.269-.198v-.034l.068-.091c.044-.053.098-.111.157-.164l.161-.16a.439.439 0 0 1 .083-.071h.035v.01Zm1.936 3.819c0 .13-.034.216-.107.265a.557.557 0 0 1-.289.067 3.17 3.17 0 0 1-.376-.024 1.057 1.057 0 0 1-.318-.096.807.807 0 0 1-.245-.198.77.77 0 0 1-.147-.328 2.86 2.86 0 0 1-.181.212 1.143 1.143 0 0 1-.273.208c-.113.067-.25.12-.416.159a2.452 2.452 0 0 1-.612.062c-.058 0-.107-.024-.156-.077-.044-.053-.069-.135-.069-.246v-.053c0-.12.04-.207.113-.26a.48.48 0 0 1 .284-.082c.22 0 .401-.02.552-.058.152-.038.274-.091.367-.154a.801.801 0 0 0 .333-.396c.058-.159.117-.284.181-.38a.678.678 0 0 1 .156-.188.039.039 0 0 1 .025-.01c.009 0 .024 0 .034.014.01.01.019.015.024.02a1.249 1.249 0 0 0-.112.511c0 .24.078.405.23.496.151.092.411.14.773.14.088 0 .146.03.176.082.034.053.048.14.048.26v.044l.005.01Z" fill="#fff"/><path d="M168.418 16.25c.058.03.137.087.239.179.103.091.181.178.245.265v.034a2.092 2.092 0 0 0-.117.106l-.133.13c-.044.043-.088.091-.127.13a1.91 1.91 0 0 1-.093.096h-.034a3.528 3.528 0 0 0-.205-.23 1.095 1.095 0 0 0-.269-.199v-.033l.068-.092c.044-.053.098-.11.157-.164l.161-.159a.439.439 0 0 1 .083-.072h.034l-.009.01Zm-1.062 0a1.2 1.2 0 0 1 .24.179c.103.091.186.178.245.265v.034a1.78 1.78 0 0 0-.118.106l-.132.13c-.044.043-.088.091-.127.13a1.91 1.91 0 0 1-.093.096h-.034a3.298 3.298 0 0 0-.206-.23 1.095 1.095 0 0 0-.269-.199v-.033l.069-.092c.044-.053.098-.11.156-.164l.162-.159a.439.439 0 0 1 .083-.072h.034l-.01.01Zm1.849 3.819c0 .13-.034.217-.107.265a.557.557 0 0 1-.289.067c-.132 0-.259-.01-.377-.024a1.068 1.068 0 0 1-.318-.096.802.802 0 0 1-.244-.198.758.758 0 0 1-.147-.328c-.054.068-.112.14-.181.212a1.424 1.424 0 0 1-.689.366 2.458 2.458 0 0 1-.612.063c-.058 0-.107-.024-.156-.077-.044-.053-.069-.135-.069-.245v-.054c0-.12.039-.207.113-.26a.479.479 0 0 1 .283-.082c.22 0 .406-.02.553-.058.152-.038.274-.091.367-.154a.801.801 0 0 0 .332-.395 1.93 1.93 0 0 1 .181-.381.8.8 0 0 1 .157-.188.038.038 0 0 1 .024-.01c.01 0 .025 0 .035.015.009.01.019.014.024.019a.753.753 0 0 0-.078.222 1.195 1.195 0 0 0-.034.289c0 .241.078.405.229.497.152.091.411.14.773.14.088 0 .147.028.176.081.035.053.049.14.049.26v.044l.005.01Z" fill="#fff"/><path d="M171.044 20.397a1.08 1.08 0 0 1-.528-.135c-.166-.092-.284-.26-.347-.511-.054.067-.113.14-.181.212a1.17 1.17 0 0 1-.274.207c-.113.067-.25.12-.416.164a2.45 2.45 0 0 1-.611.063c-.059 0-.108-.024-.157-.077-.044-.053-.068-.136-.068-.246v-.053c0-.12.039-.208.112-.26a.481.481 0 0 1 .284-.083c.22 0 .401-.019.553-.058.151-.038.274-.091.366-.154a.887.887 0 0 0 .221-.198.755.755 0 0 0 .112-.197c.059-.16.117-.29.181-.381a.776.776 0 0 1 .157-.188.034.034 0 0 1 .024-.01c.01 0 .024 0 .034.015.01.01.02.014.025.02a.749.749 0 0 0-.079.22 1.249 1.249 0 0 0-.034.29c0 .241.069.405.21.497.142.091.343.14.612.14.137 0 .264-.02.381-.058a1.23 1.23 0 0 0 .299-.15.95.95 0 0 0 .322-.395c.064-.16.128-.29.186-.381a.7.7 0 0 1 .152-.188.038.038 0 0 1 .024-.01c.01 0 .025 0 .035.015.009.01.019.014.024.02a.753.753 0 0 0-.078.22 1.197 1.197 0 0 0-.034.29.67.67 0 0 0 .151.458c.103.12.274.178.524.178.298 0 .508-.043.631-.134a.426.426 0 0 0 .18-.357c0-.087-.024-.203-.073-.347-.049-.145-.166-.333-.352-.56a.213.213 0 0 1-.054-.144c0-.053.01-.097.034-.135l.338-.637h.034a3.282 3.282 0 0 1 .421 1.524c0 .125-.02.246-.054.366s-.078.232-.127.333a1.965 1.965 0 0 1-.171.275.966.966 0 0 1-.172.188 1.42 1.42 0 0 1-.376.26 1.008 1.008 0 0 1-.421.087c-.068 0-.142-.01-.22-.024a.74.74 0 0 1-.23-.097.768.768 0 0 1-.2-.197.801.801 0 0 1-.132-.328 2.407 2.407 0 0 1-.558.458c-.205.125-.44.188-.704.188m8.114-5.395c.01.226.019.487.024.78.005.295.01.599.01.926v.57c0 .192-.005.385-.019.568v.324c0 .245.014.457.048.645.035.188.088.343.172.473a.77.77 0 0 0 .327.294c.137.067.318.101.538.101.088 0 .147.029.176.082a.55.55 0 0 1 .049.26v.044c0 .13-.034.217-.107.265a.557.557 0 0 1-.289.067c-.293 0-.528-.038-.704-.12a.97.97 0 0 1-.411-.333 1.236 1.236 0 0 1-.196-.492 3.852 3.852 0 0 1-.049-.602v-.468c-.269.511-.533.907-.787 1.186-.254.28-.494.492-.719.627a1.752 1.752 0 0 1-.626.246 3.58 3.58 0 0 1-.514.043c-.058 0-.132 0-.225-.01a5.296 5.296 0 0 0-.278-.019l-.264-.029a1.17 1.17 0 0 1-.172-.033c-.058-.02-.088-.039-.088-.068 0-.014.01-.034.025-.053a8.53 8.53 0 0 0 1.11-.246c.318-.096.602-.207.841-.328.24-.12.45-.255.626-.395s.333-.294.47-.453a6.645 6.645 0 0 0-.289-.453 6.384 6.384 0 0 0-.489-.608 8.724 8.724 0 0 0-.685-.675 5.825 5.825 0 0 0-.88-.64l-.093.202-.024.01a4.664 4.664 0 0 0-.118-.223c-.039-.067-.068-.135-.098-.197a6.264 6.264 0 0 1-.151-.3.62.62 0 0 1-.064-.168c0-.01.01-.043.025-.096a.91.91 0 0 1 .068-.169c.01-.029.025-.063.039-.097.015-.038.035-.072.054-.115h.054a12.194 12.194 0 0 1 1.638 1.557c.48.555.871 1.143 1.174 1.765a4.604 4.604 0 0 0 .44-.7v-.453c0-.26 0-.535-.014-.82-.01-.284-.025-.549-.044-.8a9.114 9.114 0 0 0-.074-.665 1.58 1.58 0 0 0-.102-.41v-.033c.044-.034.093-.082.146-.135.054-.058.103-.116.152-.17.049-.057.093-.11.127-.158.039-.048.064-.082.083-.097a.091.091 0 0 1 .059-.024c.02 0 .044.01.054.024.014.02.019.034.019.053l.025.733v.01Z" fill="#fff"/><path d="M181.139 15.04a.702.702 0 0 1-.137-.188.53.53 0 0 1-.054-.236c0-.106.03-.246.088-.415.059-.168.137-.303.235-.414.02.15.049.27.093.361a.875.875 0 0 0 .171.241.89.89 0 0 0 .245.169c.093.048.2.092.318.135l-.313.699c.019.453.034.839.044 1.152.01.314.019.579.029.786.01.212.015.376.015.492 0 .12.005.207.01.27 0 .058.004.101.004.12v.039c0 .25-.044.501-.132.757a2.313 2.313 0 0 1-.376.69 1.977 1.977 0 0 1-.582.496 1.48 1.48 0 0 1-.749.193c-.058 0-.107-.024-.156-.078-.044-.053-.069-.135-.069-.245v-.053c0-.12.04-.208.113-.26a.479.479 0 0 1 .284-.083c.234 0 .43-.014.582-.043a.76.76 0 0 0 .357-.15.522.522 0 0 0 .176-.294c.029-.125.049-.284.049-.477 0-.164-.005-.366-.02-.602a21.54 21.54 0 0 0-.044-.743 44.45 44.45 0 0 0-.054-.786c-.014-.26-.034-.501-.053-.718-.02-.217-.04-.405-.054-.555a8.811 8.811 0 0 0-.03-.274m5.918 1.224a1.2 1.2 0 0 1 .24.179c.103.091.181.178.245.265v.034a1.78 1.78 0 0 0-.118.106l-.132.13c-.049.043-.088.091-.132.13a1.91 1.91 0 0 1-.093.096h-.034a3.528 3.528 0 0 0-.205-.23 1.114 1.114 0 0 0-.269-.199v-.033l.068-.092c.044-.053.098-.11.157-.164l.161-.159a.439.439 0 0 1 .083-.072h.034l-.005.01Zm1.6 1.755c.063.12.122.256.181.41.058.154.107.309.156.473.044.163.083.318.113.472.029.154.044.284.044.4 0 .198-.049.415-.147.65-.098.237-.22.45-.362.637a2.885 2.885 0 0 1-.313.347 2.315 2.315 0 0 1-1.678.66c-.508 0-.909-.139-1.208-.414-.298-.28-.45-.684-.45-1.22 0-.115.01-.236.03-.366.019-.13.049-.26.078-.385.034-.13.073-.251.117-.362a1.7 1.7 0 0 1 .147-.299c.015-.024.03-.034.034-.034.01 0 .025.005.035.015l.024.024a.544.544 0 0 0-.039.13 4.337 4.337 0 0 0-.044.236 4.224 4.224 0 0 0-.039.28c-.01.101-.02.193-.02.275 0 .135.025.284.074.443.049.16.127.304.234.434.108.13.25.241.426.328.176.087.396.13.655.13.352 0 .656-.048.915-.144.259-.097.469-.213.636-.343.166-.13.293-.265.376-.41a.737.737 0 0 0 .123-.356c0-.232-.044-.43-.132-.598a3.774 3.774 0 0 0-.299-.468c-.058-.072-.088-.135-.088-.188l.044-.125.338-.641h.034l.005.01Zm2.289-3.008c.01.226.019.487.024.78.005.295.01.599.01.926v.57c0 .192-.005.385-.02.568-.004.068-.009.135-.009.198v.188c0 .231.014.439.044.622.029.183.083.337.156.458a.679.679 0 0 0 .313.28c.132.062.303.091.509.091.088 0 .147.029.176.082.034.053.049.14.049.26v.044c0 .13-.034.217-.108.265a.551.551 0 0 1-.288.067c-.289 0-.519-.038-.69-.12a.883.883 0 0 1-.391-.333 1.197 1.197 0 0 1-.171-.492 4.48 4.48 0 0 1-.039-.602v-1.355c0-.26 0-.535-.015-.824-.01-.285-.025-.56-.044-.815a9.13 9.13 0 0 0-.074-.675c-.029-.193-.063-.328-.102-.4.044-.039.093-.092.146-.15.054-.057.103-.115.152-.173.049-.058.093-.111.127-.16.039-.047.064-.081.083-.096a.096.096 0 0 1 .064-.024c.024 0 .039.01.054.024.014.02.019.034.019.053l.025.733v.01Z" fill="#fff"/><path d="M193.235 21.327c.058.03.137.087.239.179.103.091.181.178.245.265v.034a1.813 1.813 0 0 0-.118.105l-.132.13-.132.13a1.943 1.943 0 0 1-.093.097h-.034a3.528 3.528 0 0 0-.205-.231 1.095 1.095 0 0 0-.269-.198v-.034l.068-.091c.044-.053.098-.111.157-.164l.161-.16a.439.439 0 0 1 .083-.072h.034l-.004.01Zm-1.062 0c.059.03.137.087.24.179.103.091.181.178.244.265v.034a2.048 2.048 0 0 0-.117.105l-.132.13-.132.13a1.943 1.943 0 0 1-.093.097h-.034a3.575 3.575 0 0 0-.206-.231 1.095 1.095 0 0 0-.269-.198v-.034l.069-.091c.044-.053.098-.111.156-.164.059-.058.113-.11.162-.16a.439.439 0 0 1 .083-.072h.034l-.005.01Zm-.606-1.302c0-.12.039-.207.112-.26a.482.482 0 0 1 .284-.082c.381 0 .66-.043.836-.135.176-.091.269-.212.269-.357 0-.086-.024-.197-.073-.347-.049-.144-.166-.328-.352-.559a.213.213 0 0 1-.054-.145.24.24 0 0 1 .034-.134l.338-.642h.034c.142.26.249.526.318.79.068.266.103.512.103.738 0 .126-.02.246-.054.367-.035.12-.079.231-.127.333a1.88 1.88 0 0 1-.172.274c-.058.082-.117.14-.166.188a1.31 1.31 0 0 1-.44.26 2.14 2.14 0 0 1-.675.092c-.059 0-.108-.024-.157-.077-.044-.053-.068-.135-.068-.246v-.053l.01-.005Zm5.106.135a1.13 1.13 0 0 0-.088-.385c-.059-.155-.191-.377-.396-.66a1.75 1.75 0 0 1-.069-.083.144.144 0 0 1-.034-.053c.005 0 .01 0 .01-.01 0-.019 0-.033.01-.053l.337-.655h.044c.108.255.205.472.294.65.088.179.171.328.259.444a.823.823 0 0 0 .274.25.718.718 0 0 0 .347.078c.088 0 .147.029.176.082.029.053.049.14.049.26v.044c0 .13-.034.217-.108.265a.509.509 0 0 1-.288.067.563.563 0 0 1-.269-.077.493.493 0 0 1-.215-.207c-.064.395-.157.728-.294.993a2.577 2.577 0 0 1-.425.632 1.471 1.471 0 0 1-.455.332.965.965 0 0 1-.387.097c-.146 0-.298-.015-.459-.044a5.824 5.824 0 0 1-.46-.101c-.078-.024-.162-.043-.25-.067a3.589 3.589 0 0 1-.244-.078l.01-.053c.479-.019.885-.091 1.217-.221a2.99 2.99 0 0 0 .812-.454 1.92 1.92 0 0 0 .455-.53c.093-.183.142-.337.142-.458" fill="#fff"/><path d="M198.561 15.04a.702.702 0 0 1-.137-.188.53.53 0 0 1-.054-.236c0-.106.029-.246.088-.415.059-.168.137-.303.235-.414.015.15.049.27.093.361a.994.994 0 0 0 .171.241.875.875 0 0 0 .245.169c.092.048.2.092.317.135l-.313.699c.02.453.035.839.044 1.152.01.314.02.579.03.786.01.212.015.376.015.492 0 .12.004.207.009.27v.159c0 .25-.044.501-.132.757a2.313 2.313 0 0 1-.376.69 1.977 1.977 0 0 1-.582.496c-.23.13-.48.193-.749.193-.058 0-.107-.024-.156-.078-.044-.053-.069-.135-.069-.245v-.053c0-.12.039-.208.113-.26a.478.478 0 0 1 .283-.083 3.2 3.2 0 0 0 .582-.043.764.764 0 0 0 .358-.15.522.522 0 0 0 .176-.294c.029-.125.049-.284.049-.477 0-.164-.005-.366-.02-.602a21.54 21.54 0 0 0-.044-.743 44.45 44.45 0 0 0-.054-.786c-.015-.26-.034-.501-.054-.718-.019-.217-.039-.405-.053-.555a8.811 8.811 0 0 0-.03-.274m2.045-.01a1.419 1.419 0 0 1-.167-.202.443.443 0 0 1-.078-.256c0-.106.029-.246.088-.414.059-.17.137-.304.235-.415.019.15.049.27.093.362a.874.874 0 0 0 .171.24.873.873 0 0 0 .245.17c.092.048.2.091.317.134l-.313.646c.02.26.035.545.054.859.02.308.034.626.049.95a53.248 53.248 0 0 1 .049 1.855c0 .16-.01.3-.02.42a1.75 1.75 0 0 1-.078.357 2.317 2.317 0 0 1-.161.361 6.284 6.284 0 0 1-.259.42h-.035l-.044-.034c.03-.15.049-.381.054-.7.01-.317.015-.698.015-1.142 0-.275-.005-.573-.025-.906a33.01 33.01 0 0 0-.053-.993 42.171 42.171 0 0 0-.142-1.721m5.595-.453c.059.028.137.086.24.178.102.092.181.178.244.265v.034a2.048 2.048 0 0 0-.117.106l-.132.13c-.049.048-.088.092-.132.13-.039.044-.074.077-.093.097h-.034a3.602 3.602 0 0 0-.206-.232 1.095 1.095 0 0 0-.269-.197v-.034l.069-.092c.044-.053.097-.11.156-.164l.162-.159a.409.409 0 0 1 .083-.072h.034l-.005.01Zm.059 4.633a8.01 8.01 0 0 1-.103-.603 61.496 61.496 0 0 1-.093-.767c-.43.174-.768.362-1.012.555-.24.193-.362.361-.362.51 0 .03.014.064.049.107a.466.466 0 0 0 .171.13c.078.044.186.077.323.106.137.03.308.044.523.044.137 0 .244-.01.323-.02a.884.884 0 0 0 .186-.053m-1.125-4.633c.058.03.137.087.239.179.103.091.181.178.245.265v.034a2.432 2.432 0 0 0-.118.106l-.132.13a1.66 1.66 0 0 1-.132.13 1.856 1.856 0 0 1-.093.096h-.034a3.554 3.554 0 0 0-.205-.231 1.094 1.094 0 0 0-.269-.198v-.034l.068-.091c.044-.053.098-.111.157-.164l.161-.16a.439.439 0 0 1 .083-.071h.035l-.005.01Zm2.538 5.13c.088 0 .147.029.176.082.029.053.049.14.049.26v.043c0 .13-.034.218-.108.266a.551.551 0 0 1-.288.067c-.201 0-.372-.024-.514-.077a.983.983 0 0 1-.352-.212.986.986 0 0 1-.225-.328 2.175 2.175 0 0 1-.127-.42 1.105 1.105 0 0 1-.127.107c-.054.043-.113.086-.171.13a7.49 7.49 0 0 1-.186.13c-.064.039-.118.072-.166.092a.86.86 0 0 1-.338.067c-.284 0-.509-.063-.685-.188a.576.576 0 0 1-.259-.487c0-.376.132-.723.396-1.041.264-.323.675-.637 1.238-.95a1.386 1.386 0 0 0-.039-.212c-.02-.077-.035-.15-.049-.212l.499-.3.024.02c.039.704.083 1.263.132 1.683.049.42.117.737.201.96.088.22.2.366.347.428.142.068.332.097.562.097" fill="#fff"/><path d="m211.59 14.332-.053.106c-.035.058-.069.125-.113.198-.044.072-.088.14-.137.197a.416.416 0 0 1-.132.12l-.763.261a16.1 16.1 0 0 0-.792.284 15.56 15.56 0 0 0-.695.285c-.21.096-.371.178-.479.25.157.16.313.319.47.483.156.164.308.318.449.472.142.154.269.3.387.439.117.14.215.265.288.38.157.237.255.444.299.618.044.174.063.299.063.38a2 2 0 0 1-.107.661 1.051 1.051 0 0 1-.416.502c-.205.14-.489.245-.861.318-.367.072-.851.11-1.443.11-.195 0-.293-.105-.293-.322v-.053c0-.116.034-.198.093-.246a.442.442 0 0 1 .249-.092c.455 0 .837-.01 1.15-.024a5.15 5.15 0 0 0 .758-.087c.191-.038.332-.091.416-.154a.292.292 0 0 0 .127-.236.75.75 0 0 0-.069-.285 2.751 2.751 0 0 0-.181-.332 6.946 6.946 0 0 0-.543-.709 8.778 8.778 0 0 0-.787-.834l-.078.101h-.035s-.044-.048-.093-.11a6.031 6.031 0 0 1-.151-.208 2.296 2.296 0 0 1-.142-.236.403.403 0 0 1-.064-.188c0-.053.01-.12.035-.203a2.417 2.417 0 0 1 .2-.501.538.538 0 0 1 .113-.154c.161-.092.371-.193.636-.309a15.513 15.513 0 0 1 1.795-.665c.317-.097.611-.174.88-.232l.024.024-.005-.01Zm5.283 1.075c.058.029.137.087.239.178.103.092.181.179.245.265v.034a2.092 2.092 0 0 0-.117.106l-.133.13c-.044.044-.088.092-.127.13a1.91 1.91 0 0 1-.093.097h-.034a3.553 3.553 0 0 0-.205-.231 1.097 1.097 0 0 0-.269-.198v-.034s.024-.034.068-.091c.044-.053.098-.111.157-.164l.161-.16a.439.439 0 0 1 .083-.072h.034l-.009.01Zm-.577-1.08c.058.029.137.087.239.178.103.092.181.179.245.266v.033c-.034.03-.074.063-.118.106l-.132.13c-.049.044-.088.092-.132.13a.839.839 0 0 1-.098.097h-.034a3.554 3.554 0 0 0-.205-.231 1.094 1.094 0 0 0-.269-.198v-.034l.068-.091c.049-.053.098-.111.157-.164l.161-.16a.439.439 0 0 1 .083-.072h.035v.01Zm-.485 1.08c.059.029.137.087.24.178.103.092.181.179.245.265v.034a1.78 1.78 0 0 0-.118.106l-.132.13c-.044.044-.088.092-.132.13a1.91 1.91 0 0 1-.093.097h-.034a2.647 2.647 0 0 0-.21-.231 1.097 1.097 0 0 0-.269-.198v-.034s.024-.034.068-.091c.044-.053.098-.111.157-.164l.161-.16a.439.439 0 0 1 .083-.072h.034v.01Zm-.42 4.276c.151 0 .283-.02.401-.058a1.09 1.09 0 0 0 .308-.15.909.909 0 0 0 .328-.4c.063-.158.127-.284.185-.38a.7.7 0 0 1 .152-.188.04.04 0 0 1 .025-.01c.009 0 .024 0 .034.015.01.01.019.014.024.019a1.247 1.247 0 0 0-.112.511.67.67 0 0 0 .151.458c.103.12.274.178.524.178.298 0 .508-.043.631-.135a.426.426 0 0 0 .181-.356 1.16 1.16 0 0 0-.074-.348c-.049-.144-.166-.332-.352-.559a.213.213 0 0 1-.054-.144c0-.053.01-.097.035-.135l.337-.637h.034c.142.26.25.526.318.786.069.265.103.511.103.738 0 .125-.02.246-.054.366s-.078.232-.127.333a1.965 1.965 0 0 1-.171.275c-.059.077-.118.14-.167.188a1.318 1.318 0 0 1-.376.26 1.027 1.027 0 0 1-.641.063.738.738 0 0 1-.23-.097.769.769 0 0 1-.332-.525 2.386 2.386 0 0 1-.558.458c-.205.125-.44.188-.704.188-.132 0-.264-.02-.391-.053a1.036 1.036 0 0 1-.646-.501 1.335 1.335 0 0 1-.152-.502l-1.174.376c.044.068.093.178.137.333.044.154.069.308.069.467 0 .497-.064.912-.186 1.249a2.855 2.855 0 0 1-.445.824 1.655 1.655 0 0 1-.528.454c-.176.096-.323.14-.431.14-.142 0-.298-.015-.464-.044a5.368 5.368 0 0 1-.46-.101l-.25-.073a2.98 2.98 0 0 1-.249-.082l.01-.053c.46-.01.861-.082 1.198-.202a2.65 2.65 0 0 0 .836-.477c.221-.193.382-.41.49-.642a1.7 1.7 0 0 0 .161-.704.993.993 0 0 0-.161-.559c-.108-.164-.299-.318-.573-.472.176-.468.294-.704.348-.714a3.85 3.85 0 0 1 .327-.062c.123-.02.25-.044.387-.073.185-.038.342-.077.464-.106.127-.029.235-.062.318-.091a1.3 1.3 0 0 0 .211-.092.872.872 0 0 0 .151-.116.687.687 0 0 0 .137-.164.658.658 0 0 1 .103-.135.053.053 0 0 1 .034-.014c.01 0 .024 0 .034.014.01.01.02.015.025.02a.75.75 0 0 0-.079.221 1.248 1.248 0 0 0 .015.637.777.777 0 0 0 .455.506c.122.053.274.082.46.082m-48.357-16.97v2.487h-.123c-.137-.95-.352-1.605-.645-1.962-.245-.299-.602-.448-1.071-.448-.118 0-.181.005-.196.02-.025.018-.034.09-.034.226v4.734c0 .169.009.28.034.323.01.024.054.048.122.077.069.024.206.048.406.068.201.019.475.024.817.024v.087h-3.854v-.087c.337 0 .606-.01.807-.024.2-.02.337-.039.406-.068.068-.024.117-.058.137-.096.019-.039.029-.14.029-.304V3.05c0-.149-.019-.236-.054-.245a1.073 1.073 0 0 0-.186-.01c-.459 0-.811.145-1.056.439-.293.361-.518 1.012-.665 1.952h-.122V2.718h5.248Zm2.895 3.799c0-.646-.059-1.1-.166-1.365-.132-.303-.372-.453-.719-.453a.693.693 0 0 0-.68.439c-.137.29-.206.752-.206 1.379 0 .626.059 1.104.181 1.398.123.29.357.434.705.434.318 0 .547-.15.68-.444.136-.299.205-.757.205-1.388Zm.919 0c0 .564-.195 1.031-.591 1.407-.362.338-.763.507-1.213.507-.45 0-.861-.16-1.204-.473-.401-.366-.601-.848-.601-1.441 0-.593.196-1.032.592-1.398.362-.333.763-.497 1.213-.497.45 0 .856.16 1.203.473.401.361.601.834.601 1.422Zm3.087-1.35c0-.135-.015-.222-.049-.27-.034-.044-.083-.073-.162-.082a8.228 8.228 0 0 0-.723-.02v-.077l1.76-.096v3.192c0 .077.015.13.039.163l.054.087c.059.039.284.063.675.063v.077l-1.604.14V7.24a1.516 1.516 0 0 1-.264.66c-.181.26-.406.405-.675.434a.747.747 0 0 1-.108.01h-.107c-.348 0-.621-.106-.817-.323a.941.941 0 0 1-.25-.656V5.08c0-.106-.014-.178-.039-.212a.153.153 0 0 0-.117-.068 5.952 5.952 0 0 0-.416-.01h-.205v-.076l1.614-.097v2.878c0 .3.039.497.112.603a.37.37 0 0 0 .323.16c.264 0 .489-.16.675-.473.181-.314.274-.66.274-1.027V5.162l.01.005Zm2.538.034c0-.116-.01-.193-.034-.222a.26.26 0 0 0-.117-.106c-.108-.03-.348-.044-.729-.044v-.077l1.712-.13v1.109c.024-.236.107-.463.249-.67.196-.29.44-.434.734-.434a.75.75 0 0 1 .362.11.573.573 0 0 1 .264.276c.044.11.068.207.068.298 0 .232-.098.391-.293.483a.428.428 0 0 1-.186.033.416.416 0 0 1-.303-.12c-.084-.082-.128-.203-.128-.367a.5.5 0 0 1 .123-.313c.078-.106.176-.145.279-.12-.035-.126-.142-.184-.318-.184-.176 0-.343.126-.514.367-.225.318-.337.723-.337 1.22v1.634a.69.69 0 0 0 .024.226c.01.02.039.034.078.053.123.039.382.063.768.063v.077h-2.587v-.077c.171 0 .328-.005.465-.02a1.2 1.2 0 0 0 .357-.072c.034-.028.053-.115.053-.255V5.21l.01-.01Zm3.888-2.55c.142 0 .26.048.353.14a.468.468 0 0 1 .141.346c0 .14-.048.256-.141.347a.485.485 0 0 1-.353.14.484.484 0 0 1-.494-.487.484.484 0 0 1 .494-.487Zm.465 1.971V7.93c0 .116.01.193.025.227.009.02.039.034.078.053.122.039.381.063.768.063v.077h-2.588v-.077c.172 0 .328-.005.465-.02.137-.01.259-.033.357-.067.034-.029.054-.116.054-.256V5.201c0-.111-.015-.183-.034-.212a.261.261 0 0 0-.118-.106c-.107-.03-.347-.044-.729-.044v-.077l1.712-.14h.01Zm3.223.27c.23-.169.352-.26.362-.27v1.311l-.068-.019c-.083-.347-.23-.636-.445-.853-.23-.236-.485-.357-.763-.357-.211 0-.387.039-.524.12-.185.111-.274.295-.274.55 0 .207.098.371.299.487.142.082.425.174.846.27.425.101.719.217.89.352.24.188.362.482.362.892 0 .376-.132.656-.391.839-.206.144-.465.217-.778.217-.259 0-.445-.02-.557-.053-.167-.053-.348-.179-.543-.376-.235.274-.362.414-.372.429V6.883h.063c.103.362.186.612.25.752.088.193.186.333.284.43.137.13.264.207.386.24a2.2 2.2 0 0 0 .548.049.72.72 0 0 0 .455-.14.57.57 0 0 0 .215-.473c0-.26-.093-.458-.284-.583-.147-.101-.411-.188-.787-.26-.377-.078-.67-.198-.876-.367-.249-.202-.371-.472-.371-.81 0-.303.102-.559.313-.771.21-.212.464-.318.767-.318.23 0 .431.038.602.115.225.102.352.15.391.16m4.73.776c.049-.265.117-.477.2-.636.147-.251.348-.391.607-.42.039 0 .088 0 .137-.01.049-.004.088-.01.112-.01.367 0 .656.112.876.333a.93.93 0 0 1 .274.666v2.319c0 .11.009.183.029.217.01.024.039.043.083.062.044.015.122.034.24.044.117.01.21.019.288.019v.077h-2.098v-.077c.142 0 .25 0 .328-.014a.795.795 0 0 0 .249-.082c.035-.03.054-.111.054-.246V5.702a2.2 2.2 0 0 0-.073-.641c-.078-.241-.215-.362-.421-.362-.205 0-.381.097-.518.29-.157.217-.274.607-.357 1.176V7.92a.69.69 0 0 0 .024.226c.01.02.039.034.078.049.04.014.118.029.225.043.108.015.211.024.304.024v.077h-2.108v-.077c.225 0 .401-.02.523-.063l.064-.028c.034-.03.053-.116.053-.256V5.693c0-.28-.024-.492-.068-.642-.078-.24-.22-.361-.426-.361-.264 0-.474.168-.621.501-.103.236-.181.569-.24 1.003v1.721c0 .116.01.193.025.227.01.019.039.033.083.053.044.014.122.033.24.043.117.01.21.02.288.02v.076h-2.24v-.077c.123 0 .25-.004.377-.019.127-.01.24-.034.342-.072.034-.03.054-.116.054-.256V5.1a.181.181 0 0 0-.039-.12.305.305 0 0 0-.108-.106c-.088-.029-.293-.043-.611-.043v-.078l1.594-.149v1.114c.04-.28.103-.497.186-.66.137-.266.338-.415.607-.444l.156-.015h.103c.381 0 .665.106.861.314.176.192.269.443.269.756m7.419-2.396v4.503c0 .169.01.275.035.323.009.024.048.048.107.068.171.062.524.096 1.057.096v.087h-3.493v-.087c.255 0 .475-.01.661-.024.186-.02.313-.039.381-.068.069-.024.113-.057.132-.096.02-.039.03-.14.03-.304V3.272c0-.164-.01-.265-.035-.308-.014-.024-.048-.048-.117-.068-.171-.062-.523-.096-1.056-.096v-.077h3.497V2.8c-.255 0-.475.01-.661.024-.186.02-.318.038-.396.067l-.088.034c-.039.034-.063.15-.063.342m3.003 2.946v1.721a.69.69 0 0 0 .024.227c.01.019.039.033.083.053a.874.874 0 0 0 .24.043c.112.01.215.02.303.02v.077h-2.269v-.078c.132 0 .259-.004.386-.019.127-.014.24-.034.343-.072.034-.03.053-.116.053-.256V5.108a.176.176 0 0 0-.039-.12l-.054-.086c-.058-.039-.283-.063-.675-.063v-.077l1.605-.14v1.114c.034-.251.112-.468.23-.66.166-.266.337-.41.523-.43.181-.02.303-.029.352-.029.372 0 .665.111.885.333a.93.93 0 0 1 .274.665v2.32c0 .115.01.192.025.226.009.019.039.033.088.053.049.019.132.033.254.043.122.01.245.02.357.02v.077h-2.269v-.078a2.8 2.8 0 0 0 .327-.019 1.26 1.26 0 0 0 .328-.072c.034-.03.054-.116.054-.256V5.712c0-.28-.025-.492-.074-.642-.078-.24-.22-.361-.425-.361-.274 0-.494.169-.665.501-.132.25-.22.584-.274 1.003m4.837 2.184-1.242-3.36c-.054-.135-.083-.212-.098-.237-.034-.057-.137-.086-.308-.086h-.206v-.087h2.03v.087h-.411c-.137 0-.21.038-.21.11l.054.174.841 2.252.597-1.717c.068-.202.107-.361.107-.472 0-.232-.2-.352-.591-.352v-.087h1.496v.087c-.225 0-.401.053-.523.164-.122.106-.264.376-.421.81l-.944 2.714h-.171Zm4.612-1.948c0-.564-.054-.993-.151-1.292-.103-.294-.269-.443-.494-.443-.323 0-.548.14-.68.424s-.196.718-.196 1.316h1.526l-.005-.005Zm-1.526.106c0 .627.074 1.08.225 1.36.152.28.382.42.685.42.323 0 .611-.111.861-.324.303-.265.45-.622.45-1.07h.068c0 .434-.142.796-.425 1.075-.284.28-.661.42-1.135.42-.396 0-.758-.15-1.081-.444-.381-.347-.577-.805-.577-1.37 0-.611.191-1.108.567-1.494.333-.332.705-.496 1.116-.496.381 0 .704.11.953.332.372.328.558.859.558 1.596H207.1l.01-.005Zm4.715-1.663c.23-.169.352-.26.362-.27v1.311l-.068-.019c-.083-.347-.23-.636-.445-.853-.23-.236-.485-.357-.763-.357-.211 0-.387.039-.524.12-.186.111-.274.295-.274.55 0 .207.098.371.299.487.142.082.425.174.846.27.425.101.719.217.89.352.24.188.362.482.362.892 0 .376-.132.656-.391.839-.206.144-.465.217-.778.217-.259 0-.445-.02-.558-.053-.166-.053-.347-.179-.542-.376-.235.274-.362.414-.372.429V6.883h.063c.103.362.186.612.25.752.088.193.186.333.284.43.136.13.264.207.386.24a2.2 2.2 0 0 0 .548.049.73.73 0 0 0 .455-.14.57.57 0 0 0 .215-.473c0-.26-.093-.458-.284-.583-.147-.101-.411-.188-.787-.26-.377-.078-.67-.198-.876-.367a.99.99 0 0 1-.372-.81c0-.303.103-.559.313-.771a1.04 1.04 0 0 1 .768-.318c.23 0 .431.038.602.115.225.102.352.15.391.16m3.483 1.586v.4c0 .135 0 .26.009.386 0 .405-.049.684-.141.839-.133.207-.382.313-.754.313-.371 0-.616-.082-.777-.25-.167-.17-.25-.41-.25-.724V4.979h-.709v-.077a1.649 1.649 0 0 0 1.096-.834c.195-.352.298-.747.298-1.186h.152v1.841h1.017v.256h-1.017v2.367c0 .314.009.516.034.608.059.221.191.332.391.332.24 0 .396-.125.47-.38.053-.174.078-.507.078-.989v-.42h.107l-.004-.004Zm3.986-.81a2.13 2.13 0 0 1 .205-.636c.147-.251.347-.391.607-.42.039 0 .088 0 .137-.01.049-.004.088-.01.107-.01.367 0 .656.112.876.333a.93.93 0 0 1 .274.666v2.319c0 .11.009.183.024.217.01.024.039.043.083.062.044.015.122.034.24.044.117.01.21.019.288.019v.077h-2.098v-.077c.142 0 .25 0 .328-.014a.795.795 0 0 0 .249-.082c.035-.03.054-.111.054-.246V5.702c0-.275-.024-.487-.068-.641-.079-.241-.216-.362-.421-.362s-.381.097-.518.29c-.157.217-.274.607-.357 1.176V7.92a.69.69 0 0 0 .024.226c.01.02.039.034.078.049.039.014.118.029.225.043.108.015.211.024.303.024v.077h-2.108v-.077c.225 0 .397-.02.524-.063l.063-.028c.035-.03.054-.116.054-.256V5.693c0-.28-.024-.492-.068-.642-.079-.24-.22-.361-.426-.361-.264 0-.474.168-.621.501-.103.236-.181.569-.24 1.003v1.721c0 .116.01.193.025.227.01.019.039.033.083.053.044.014.122.033.24.043.117.01.21.02.288.02v.076h-2.24v-.077c.122 0 .25-.004.377-.019a1.23 1.23 0 0 0 .342-.072c.034-.03.054-.116.054-.256V5.1a.181.181 0 0 0-.039-.12.305.305 0 0 0-.108-.106c-.088-.029-.293-.043-.611-.043v-.078l1.594-.149v1.114c.039-.28.103-.497.186-.66.137-.266.338-.415.607-.444l.156-.015h.103c.381 0 .665.106.861.314.176.192.264.443.264.756m5.438.781c0-.564-.048-.993-.151-1.292-.103-.294-.269-.443-.494-.443-.323 0-.548.14-.68.424s-.196.718-.196 1.316h1.526l-.005-.005Zm-1.526.106c0 .627.074 1.08.225 1.36.152.28.382.42.685.42.323 0 .612-.111.861-.324.303-.265.45-.622.45-1.07h.068c0 .434-.141.796-.425 1.075-.284.28-.66.42-1.135.42-.396 0-.758-.15-1.081-.444-.381-.347-.577-.805-.577-1.37 0-.611.191-1.108.568-1.494.332-.332.704-.496 1.115-.496.381 0 .704.11.958.332.372.328.558.859.558 1.596h-2.274l.004-.005Zm4.182-.342v1.721c0 .116.01.193.025.227.01.019.039.033.083.053a.866.866 0 0 0 .24.043c.117.01.215.02.303.02v.077h-2.27v-.078c.132 0 .26-.004.387-.019a1.43 1.43 0 0 0 .342-.072c.034-.03.054-.116.054-.256V5.108a.181.181 0 0 0-.039-.12l-.054-.086c-.059-.039-.284-.063-.675-.063v-.077l1.604-.14v1.114c.035-.251.113-.468.23-.66.166-.266.338-.41.524-.43.181-.02.303-.029.352-.029.371 0 .665.111.885.333a.93.93 0 0 1 .274.665v2.32c0 .115.01.192.029.226.01.019.039.033.088.053.049.019.132.033.259.043.123.01.24.02.353.02v.077h-2.27v-.078c.093 0 .206-.004.328-.019a1.27 1.27 0 0 0 .328-.072c.034-.03.053-.116.053-.256V5.712c0-.28-.024-.492-.073-.642-.078-.24-.22-.361-.425-.361-.274 0-.494.169-.666.501-.132.25-.22.584-.274 1.003m5.684.28v.4c0 .135 0 .26.01.386 0 .405-.049.684-.142.839-.132.207-.382.313-.754.313-.371 0-.616-.082-.777-.25-.166-.17-.25-.41-.25-.724V4.979h-.709v-.077a1.649 1.649 0 0 0 1.096-.834c.195-.352.298-.747.298-1.186h.152v1.841h1.017v.256h-1.017v2.367c0 .314.01.516.034.608.059.221.191.332.391.332.24 0 .396-.125.47-.38.054-.174.078-.507.078-.989v-.42h.108l-.005-.004Zm6.989-.482c0 .843-.161 1.456-.494 1.841-.328.386-.802.579-1.423.579-.705 0-1.296-.208-1.781-.627-.577-.501-.865-1.22-.865-2.155 0-.935.293-1.663.88-2.247.504-.501 1.042-.752 1.614-.752.279 0 .519.049.729.15.264.13.509.337.729.627l.435-.82h.044v2.531l-.069-.043c0-.748-.21-1.35-.63-1.803-.353-.377-.719-.565-1.101-.565-.513 0-.885.237-1.11.704-.225.468-.338 1.172-.338 2.117 0 .945.123 1.624.362 2.097.245.472.612.709 1.111.709.562 0 .992-.164 1.296-.487.362-.386.543-1.003.543-1.852h.068v-.004Zm2.979.506c0-.646-.059-1.1-.167-1.365-.132-.303-.371-.453-.719-.453a.691.691 0 0 0-.679.439c-.137.29-.206.752-.206 1.379 0 .626.059 1.104.181 1.398.122.29.357.434.704.434.318 0 .548-.15.68-.444.137-.299.206-.757.206-1.388Zm.919 0c0 .564-.196 1.031-.592 1.407-.362.338-.763.507-1.213.507-.45 0-.86-.16-1.203-.473-.401-.366-.601-.848-.601-1.441 0-.593.195-1.032.591-1.398.362-.333.763-.497 1.213-.497.45 0 .856.16 1.204.473.401.361.601.834.601 1.422Zm.856.848c.157 0 .284.053.386.155a.512.512 0 0 1 .157.38.533.533 0 0 1-.543.535.533.533 0 0 1-.543-.535.533.533 0 0 1 .543-.535ZM128.297 6.32l-.802-2.198-.802 2.198h1.604Zm.044.097h-1.687l-.269.761a1.505 1.505 0 0 0-.103.492c0 .217.083.366.244.458.162.092.397.14.69.14v.087h-2.22v-.087c.401 0 .714-.15.939-.448.122-.17.278-.512.474-1.037l1.477-4.06h.176l1.888 5.063c.088.236.176.376.264.42.088.043.352.062.788.062v.087h-3.228v-.087c.44 0 .738-.015.9-.048.161-.034.244-.097.244-.193l-.019-.087-.558-1.523Zm4.363 1.523a.71.71 0 0 0 .024.227c.01.019.039.033.078.053.123.038.377.062.763.062v.077h-2.558v-.077c.172 0 .323-.004.46-.019a1.37 1.37 0 0 0 .352-.067c.035-.03.054-.111.054-.251V3.316c0-.116-.019-.198-.054-.241-.034-.049-.068-.078-.107-.087-.103-.03-.338-.044-.7-.044v-.077l1.678-.144v5.216h.01Zm4.543-2.57h.812c.426 0 .739-.077.939-.236.245-.183.367-.496.367-.94 0-.487-.102-.83-.303-1.027-.201-.198-.533-.299-.998-.299h-.42c-.123 0-.211.01-.269.024-.059.02-.093.053-.108.111-.015.053-.02.164-.02.333V5.37Zm3.546 1.74v.285c0 .338-.034.574-.097.709-.108.217-.313.328-.626.328-.406 0-.671-.15-.803-.449-.107-.24-.156-.704-.156-1.378V6.42c0-.058 0-.115.01-.183 0-.304-.074-.51-.22-.617-.147-.106-.353-.16-.626-.16h-1.028v2.32c0 .173.01.284.03.328.019.043.063.082.132.106.068.024.205.043.411.048.205.005.425.01.65.01v.077h-3.56v-.087c.611 0 .978-.024 1.1-.068a.231.231 0 0 0 .122-.1c.025-.044.035-.15.035-.314V3.335c0-.164-.01-.26-.035-.304-.009-.024-.049-.048-.112-.067-.171-.063-.538-.097-1.11-.097V2.79h3.58c.631 0 1.13.169 1.506.501.299.266.445.54.445.82 0 .333-.117.607-.352.82-.284.26-.729.424-1.335.491.621.12 1.032.463 1.232 1.027.103.28.152.704.152 1.273 0 .169.015.284.044.362.029.077.103.11.21.11.123 0 .211-.096.255-.289.049-.193.068-.458.068-.795h.078Zm2.598.3V6.257a.447.447 0 0 1-.309.168l-.396.058a.643.643 0 0 0-.401.28c-.117.173-.176.414-.176.728 0 .337.034.564.103.68a.34.34 0 0 0 .318.178c.22 0 .42-.092.601-.275a.93.93 0 0 0 .269-.665m.025-1.562v-.502c0-.231-.039-.385-.113-.467-.073-.082-.235-.12-.479-.12-.201 0-.377.038-.528.115a.574.574 0 0 0-.299.308.451.451 0 0 1 .088-.01c.113 0 .201.044.269.131a.457.457 0 0 1 .103.294.394.394 0 0 1-.132.309.436.436 0 0 1-.308.12.332.332 0 0 1-.205-.063c-.172-.11-.255-.245-.255-.414 0-.082.02-.174.054-.275.083-.222.284-.39.611-.492.235-.077.47-.11.71-.11.43 0 .758.081.978.24.195.145.298.323.298.54v1.905c0 .342.01.554.025.636.039.193.146.294.313.294.151 0 .254-.077.308-.231.053-.154.078-.376.078-.67 0-.082 0-.16-.005-.241v-.328h.108v.38c0 .121 0 .237.009.343 0 .333-.039.56-.122.675-.107.145-.318.217-.641.217-.254 0-.44-.044-.562-.13-.147-.102-.245-.275-.289-.521-.122.28-.308.468-.552.564a1.637 1.637 0 0 1-.587.087c-.245 0-.46-.058-.641-.174-.249-.154-.376-.39-.376-.708a.99.99 0 0 1 .366-.786c.245-.208.538-.323.89-.352.348-.03.583-.077.705-.14.122-.063.181-.202.181-.424Z" fill="#fff"/><path d="M146.359 9.178c-.122.352-.234.598-.342.733a.572.572 0 0 1-.474.24c-.245 0-.426-.023-.543-.072a.372.372 0 0 1-.225-.25 1.012 1.012 0 0 1-.049-.28c0-.173.083-.304.249-.39a.426.426 0 0 1 .504.072.448.448 0 0 1 .127.333c0 .245-.117.385-.352.414a.24.24 0 0 0 .127.077c.044.005.088.01.137.01a.48.48 0 0 0 .386-.178c.098-.12.206-.338.314-.656l.278-.781-1.266-3.38c-.054-.13-.084-.212-.098-.231-.035-.058-.137-.087-.308-.087h-.201v-.087h2.005v.087h-.406c-.137 0-.205.039-.205.106l.054.174.846 2.222.587-1.697c.068-.202.107-.356.107-.467 0-.232-.195-.347-.586-.347v-.087h1.462v.087c-.22 0-.391.053-.514.159-.122.106-.259.37-.41.8l-1.199 3.466-.005.01Z" fill="#fff"/><path d="M150.121 9.178c-.123.352-.235.598-.343.733a.572.572 0 0 1-.474.24c-.245 0-.426-.023-.543-.072a.372.372 0 0 1-.225-.25 1.245 1.245 0 0 1-.049-.28c0-.173.083-.304.249-.39a.426.426 0 0 1 .504.072.448.448 0 0 1 .127.333c0 .245-.117.385-.352.414a.24.24 0 0 0 .127.077c.044.005.088.01.137.01a.483.483 0 0 0 .387-.178c.097-.12.205-.338.313-.656l.278-.781-1.266-3.38c-.054-.13-.083-.212-.098-.231-.034-.058-.137-.087-.308-.087h-.201v-.087h2.006v.087h-.406c-.137 0-.206.039-.206.106l.054.174.846 2.222.587-1.697c.068-.202.108-.356.108-.467 0-.232-.196-.347-.587-.347v-.087h1.462v.087c-.22 0-.391.053-.513.159-.123.106-.26.37-.411.8l-1.199 3.466-.004.01Zm3.883-1.77v-1.15a.445.445 0 0 1-.308.168l-.396.058a.638.638 0 0 0-.401.28c-.118.173-.176.414-.176.728 0 .337.034.564.097.68.069.12.176.178.318.178.22 0 .421-.092.602-.275a.925.925 0 0 0 .264-.665Zm.024-1.561v-.502c0-.231-.039-.385-.112-.467-.073-.082-.235-.12-.479-.12-.201 0-.377.038-.529.115a.576.576 0 0 0-.298.308.443.443 0 0 1 .088-.01.34.34 0 0 1 .274.131.462.462 0 0 1 .103.294.394.394 0 0 1-.132.309.437.437 0 0 1-.309.12.334.334 0 0 1-.205-.063c-.171-.11-.254-.245-.254-.414 0-.082.019-.174.054-.275.083-.222.283-.39.611-.492.235-.077.469-.11.709-.11.43 0 .758.081.978.24.201.145.299.323.299.54v1.905c0 .342.009.554.024.636.039.193.147.294.313.294.152 0 .254-.077.308-.231.054-.154.079-.376.079-.67v-.569h.102v.38c0 .121 0 .237.01.343 0 .333-.039.56-.122.675-.108.145-.318.217-.641.217-.249 0-.44-.044-.562-.13-.147-.102-.245-.275-.289-.521-.122.28-.308.468-.553.564a1.63 1.63 0 0 1-.587.087c-.244 0-.459-.058-.64-.174-.25-.154-.377-.39-.377-.708a.99.99 0 0 1 .367-.786c.244-.208.538-.323.89-.352.347-.03.582-.077.704-.14.123-.063.181-.202.181-.424m3.316.39v1.697c0 .116.01.193.025.227.01.02.039.034.083.053.044.02.122.034.235.043.112.01.215.02.303.02v.077h-2.24v-.077c.127 0 .254-.005.381-.02.128-.01.24-.034.338-.067.034-.03.054-.111.054-.251V5.157a.181.181 0 0 0-.039-.12l-.054-.087c-.059-.039-.279-.058-.665-.058v-.077l1.584-.14v1.1a1.79 1.79 0 0 1 .225-.656c.162-.265.338-.405.519-.425.181-.019.298-.028.347-.028.367 0 .66.11.875.327a.903.903 0 0 1 .269.656v2.29c0 .116.01.188.025.227.01.019.039.033.088.053.049.019.132.033.254.043.123.01.24.02.348.02v.076h-2.241v-.077c.093 0 .201-.005.323-.019.123-.01.23-.034.323-.067.034-.03.054-.111.054-.251V5.75c0-.28-.025-.487-.069-.631-.078-.237-.215-.357-.42-.357-.269 0-.489.164-.656.492-.127.25-.22.578-.273.988M8.429 6.748l-.035.294h.176l.025-.169-.132-.125h-.034Zm-.054.78.127.121.015-.12h-.142Zm.01-.39-.03.295h.171l.035-.294h-.176Zm.215-.39.011.006v-.006H8.6Zm-.132-.39-.025.236.059.058h.117l.035-.294h-.186Zm-5.297.39.03.294h.478l-.298-.294h-.21Zm.039.39.034.295h.832l-.299-.294H3.21Zm2.734 0 .303.295h.88l-.298-.294h-.885Zm2.172 2.507.151-.057.22-1.818-.151-.15-.22 2.025ZM5.548 6.748l.303.294h.88l-.298-.294h-.885Zm-.621.39.303.295h.88l-.298-.294h-.885Zm2.655-.39.304.294h.264l.034-.294h-.602Zm-3.012 0 .005.039.259.255h.88l-.298-.294H4.57Zm1.995 0 .303.294h.88l-.298-.294h-.885Zm11.377-.506.039-.058.063-.096.02-.135-.675-.039-.103.193s.406-.135.49-.02l.16.155h.006Zm-.773 1.586c.093.01.171.038.235.082.034-.082.073-.164.107-.246-.288-.193-.895-.28-.895-.28l.553.439v.005ZM3.16 6.652h.122l-.137-.135.015.135Zm14.208.067s-.049.01-.083.02c.064-.015.49.029.65.048.089-.169.172-.313.236-.43l-.069.035-.166.038-.675.077.102.212h.005Zm-.112 1.524-.03-.053-.102.02-.714-.594v.154c.225.285.288.762.288.762l-.142-.265-.02.174-.366-.4c.122.342-.308.419-.308.419-1.169 2.242-.714 4.464-.49 5.245h.999c-.387-1.798.24-3.91.89-5.457" fill="#fff"/><path d="M11.613 4.015 10.62 8.98c.308.815 1.643 1.524 1.643 1.524a8.45 8.45 0 0 1-.171.588 1.75 1.75 0 0 1-.611.02c-.46-.068-.89-.319-1.282-.738l1.36-6.504c.093.116.049.154.049.154m.098 8.042c-.05 0-.093.01-.142.01h-.074c-.518 0-1.041-.145-1.565-.43l.181-.867c.323.274.675.443 1.042.496.083.015.171.02.26.02.21 0 .425-.04.645-.107a7.96 7.96 0 0 1-.352.883m-.602.998a2.672 2.672 0 0 1-.875-.053 3.616 3.616 0 0 1-.548-.179l.186-.887c.425.198.86.304 1.296.304h.078c.132 0 .264-.02.396-.043a5.18 5.18 0 0 1-.533.853M3.117 6.26h.787l-.405-.4s0-.034.014-.053c.02-.02.044-.024.054-.014l.47.462h.23l-.05-.472h.245l.049.472h.406l-.406-.4s0-.033.015-.053c.02-.019.044-.024.053-.014l.47.463h.88l-.406-.4s0-.034.015-.054c.02-.019.044-.024.054-.014l.47.463h.885l-.406-.4s0-.034.014-.053c.02-.02.044-.024.054-.015l.47.463h.88l-.406-.4s0-.034.015-.053c.02-.02.044-.024.054-.015l.47.463h.126l.074-.655h.244l-.073.655h.186l.024-.183h.118l-.225-.222s0-.029.02-.048c.019-.02.038-.024.048-.02l.474.468h.754c.23-.443.46-.95.562-1.427.21-.974.763-1.065.763-1.065l-1.296 6.518c-.998.439-2.054.723-3.145.839-.606.067-1.237.077-1.868.038-.01 0-.03.01-.03.03 0 .014.01.028.025.033a10.718 10.718 0 0 0 2.577.029c.803-.087 1.59-.265 2.353-.526l-.171.868a10.702 10.702 0 0 1-3.747.415c-.01 0-.029.01-.029.024 0 .015.01.034.024.034a10.717 10.717 0 0 0 2.578.029c.372-.039.743-.102 1.105-.179l-.176.883a8.03 8.03 0 0 1-.68.115 6.35 6.35 0 0 1-1.418-.01c-.015 0-.03.01-.03.025 0 .014.006.024.02.029a6.173 6.173 0 0 0 1.961.092c.035 0 .064-.01.093-.015l-.132.665h.274l.137-.656c.074.024.152.044.225.058a2.725 2.725 0 0 0 1.189.005 3.513 3.513 0 0 1-.587.588h4.182c-.89-2.873.914-5.419.914-5.419l-.039-.057c-.328-.097-.02-.27-.02-.27-.141-.4.245-.381.245-.381h.01l-.034-.063-.142-.135-.245.193h-.288l.102-.25-.45.341-.43-.115.514-.362h-.289l-.347.212-.123-.058-.205-.154.122-.02.289-.173 1.472.058.103-.173c-.695.077-.817-.381-.817-.381l.122-.154-.406-.039-.205.039-.122-.078.083-.057-.45-.174.655.077-.777-.4v-.174L14.64 6l.166.058.514-.039.386.304h.162c.063-.154-.308-.304-.308-.304V5.66h.264l-.308-.212-.059-.266.367.155-.367-.251.04-.193.654.535.206.613.103.019c.024-.174.616-.651.616-.651l-.064.246.186-.039c.225-.096.49-.173.49-.173l.205.038.288.246.103-.02v-.115l-.083-.25-.162-.058-1.002-.02-.348-.212-.552-.135.592-.135c.225-.077.958.323.958.323l.264.116.103-.058-.122-.193-.206-.154-.533-.154.328-.02-.064-.135c-.489.135-.939-.303-.939-.303l1.35.188.675.554.083-.116c-.102-.173-.166-.496-.166-.496l.166-.039-.43-.42.284-.038.161-.135.059.208.102.057.064.155.142.058.02.593.489-.458a.648.648 0 0 1 0-.362l.533-.4c.063.231-.328 1.167-.328 1.167l.122.019c.02-.135.225-.285.225-.285l.289-.019.43-.154-.083.116-.245.154h.084l-.06.173-.39.285.102.038.656.039c1.041-.039 1.227.685 1.227.685h-.161l-.064-.155-.102-.115h-.123l-.122-.116-.083.058-.103-.058-.083.173-1.33-.096.02.058.224.096c.959.174 1.189 1.586 1.189 1.586l-.064-.077-1.267-.974c-.386-.361-.635-.212-.635-.212l.694.497c.122.154.142.612.142.612l-.122-.169-.04.078.02.212-.225-.077c0-.135-.083-.251-.083-.251l-.797-.665-.157-.145c-.03.043-.053.082-.083.12l.113.193.552.4h-.122l-.244-.207.083.227-.123.019-.322-.53a9.89 9.89 0 0 0-.318.52l.42.049c0 .135-.303.221-.606.28-.03.057-.059.12-.093.178l.328.057-.519.333c-1.203 2.637-.939 5.014-.753 5.964h1.663v-1.88h.773v1.88h.386v-3.187h.773v3.187h.386V8.156h.778v5.549h.386V7.462h.778v6.243h.386V8.32h.778v5.385h2.763a12.82 12.82 0 0 0-2.68-8.06C19.932-.079 11.662-1.198 5.86 3.146c-1.095.82-2.02 1.77-2.772 2.815l.034.3h-.005Z" fill="#fff"/><path d="M17.712 7.24c-.083.01-.137.014-.137.014l.117.025.015-.034m-13.401.284.117.11-.015-.11h-.102Zm.4 2.733L4.439 7.79l-.264-.26H3.26l.288 2.661h-.22c.485.058.944.082 1.38.077M3.909 7.14l.304.294h.185l-.029-.294h-.46Zm-.396-.391.303.294h.543l-.034-.294h-.812Zm.621-.39.167.164-.02-.164h-.147Zm-1.007 0 .005.01.288.284h.88l-.298-.294h-.875Zm6.167.95c.025-.049.059-.107.093-.174h-.396l.26.255c.014-.029.024-.053.043-.082Z" fill="#fff"/><path d="M2.75 10.104c.186.033.367.057.548.077l-.284-2.657h-.802s-.03-.02-.03-.048c0-.029.015-.048.03-.048H3l-.035-.3H2.33a12.992 12.992 0 0 0-1.683 6.577h3.458c-1.521-1.548-1.355-3.597-1.355-3.597m.166-3.457-.034-.298H2.82c-.069.1-.132.197-.196.298h.293Zm11.445 9.228H.867c.04.217.088.434.137.646h12.11c.411-.25.827-.467 1.247-.646Zm-5.63-8.142.319.086s.03-.082.137-.299h-.43l-.025.213ZM12 17.29H1.219c.064.218.137.434.22.646h9.626c.308-.212.621-.428.934-.646ZM2.926 6.748H2.57c-.058.101-.117.198-.176.299h.568l-.035-.299Zm5.88.39-.035.295h.391l-.298-.294h-.059ZM9.91 18.706H1.748c.097.217.2.434.308.646h6.813c.342-.203.69-.42 1.042-.646Zm16.32-.772c.079-.212.152-.43.216-.642h-1.125l.905.642M.687 14.467c.014.217.038.429.063.646h26.167c.029-.217.048-.43.063-.646H.686Zm23.657 2.203v-.145h2.318c.054-.216.098-.429.142-.646h-4.235c.665.237 1.261.511 1.775.791ZM2.48 20.117c.02.03.034.058.054.092 1.218 1.142 2.925.877 4.925-.092H2.481Zm12.78-1.876c-3.09 2.811-4.607 5.974-7.884 6.586h-.015c4.441 2.464 10.13 2.256 14.448-.974a12.96 12.96 0 0 0 4.324-5.66c-5.458-2.729-8.442-2.16-10.873.048ZM7.186 6.358l.304.294h.704l.015-.154-.142-.14h-.88Zm.793.78.146.145.015-.144h-.161Zm-1.018 0 .304.295h.846l.005-.03-.27-.264h-.885Zm1.243-.78.022.022v-.022h-.022Zm-3.595.78.034.295h.455l-.303-.294h-.186Zm3.251 2.6L8.1 7.53h-.744l.294.29s0 .033-.015.052c-.02.02-.044.024-.054.015l-.361-.352h-.88l.293.289s0 .034-.015.053c-.02.02-.044.024-.054.014l-.362-.352h-.88l.293.29s0 .033-.014.053c-.02.019-.044.024-.054.014l-.357-.352h-.538l.293 2.734a9.636 9.636 0 0 0 2.91-.526M4.6 7.042h.098l-.108-.106.01.106Zm4.226-.072.073.077h.543c.04-.067.078-.135.122-.212l-.083-.082h-.63l-.03.222.005-.005Zm.073-.612-.034.294h.523l-.303-.294h-.186Zm.01-.096h.083l-.073-.068-.01.068Zm.758.39c.054-.092.108-.193.161-.3h-.606l.303.3h.147-.005Zm-5.14-.294.034.294h.758l-.298-.294h-.494Zm.626 0 .303.294h.88l-.303-.294h-.88Zm1.017 0 .303.294h.88l-.303-.294h-.88Z" fill="#fff"/></g><defs><clipPath id="a"><path d="M.647.5h244.706v26H.647z" fill="#fff"/></clipPath></defs></svg>