<svg width="24" height="25" viewBox="0 0 24 25" fill="none" xmlns="http://www.w3.org/2000/svg">
<path fill-rule="evenodd" clip-rule="evenodd" d="M1.75 6.75C1.75 6.47386 1.97386 6.25 2.25 6.25L21.25 6.25C21.5261 6.25 21.75 6.47386 21.75 6.75C21.75 7.02614 21.5261 7.25 21.25 7.25L2.25 7.25C1.97386 7.25 1.75 7.02614 1.75 6.75ZM21.75 12.75L9.25 12.75C8.97386 12.75 8.75 12.5262 8.75 12.25C8.75 11.9739 8.97386 11.75 9.25 11.75L21.75 11.75C22.0261 11.75 22.25 11.9739 22.25 12.25C22.25 12.5261 22.0261 12.75 21.75 12.75ZM4.75 17.75C4.47386 17.75 4.25 17.9738 4.25 18.25C4.25 18.5261 4.47386 18.75 4.75 18.75L21.75 18.75C22.0261 18.75 22.25 18.5261 22.25 18.25C22.25 17.9739 22.0261 17.75 21.75 17.75L4.75 17.75Z" fill="#243C6C"/>
</svg>
