<?xml version="1.0" encoding="UTF-8"?>
<svg version="1.1" xmlns="http://www.w3.org/2000/svg" width="253" height="251">
<path d="M0 0 C24.40047509 20.77154761 39.59374282 49.6544682 43.18164062 81.51367188 C45.13376801 116.89217463 36.09962926 148.35027876 13.18164062 175.51367188 C12.63894531 176.20847656 12.09625 176.90328125 11.53710938 177.61914062 C-6.49321172 200.32591388 -38.22728438 213.84205055 -66.31591797 217.26611328 C-100.34139888 220.63214622 -132.60428861 210.50839053 -159.00585938 188.97460938 C-168.04809736 181.06265114 -176.45213887 172.75980289 -182.81835938 162.51367188 C-183.4603125 161.56621094 -184.10226563 160.61875 -184.76367188 159.64257812 C-201.57202703 134.04658483 -207.1418557 100.56892552 -201.296875 70.60620117 C-197.25463662 52.20466775 -189.74321455 33.29377406 -177.81835938 18.51367188 C-177.15835938 18.51367188 -176.49835938 18.51367188 -175.81835938 18.51367188 C-175.57472656 17.95421875 -175.33109375 17.39476562 -175.08007812 16.81835938 C-171.14451422 9.62955843 -164.24266189 3.49578403 -157.81835938 -1.48632812 C-157.15835938 -1.48632812 -156.49835938 -1.48632812 -155.81835938 -1.48632812 C-155.81835938 -2.14632813 -155.81835938 -2.80632813 -155.81835938 -3.48632812 C-153.84839093 -4.96996061 -151.90087483 -6.30106844 -149.81835938 -7.61132812 C-149.1911499 -8.00803711 -148.56394043 -8.40474609 -147.91772461 -8.81347656 C-100.99878565 -37.92719063 -42.98301215 -35.13434184 0 0 Z M-144.81835938 1.51367188 C-144.81835938 2.17367187 -144.81835938 2.83367188 -144.81835938 3.51367188 C-145.50414062 3.7225 -146.18992188 3.93132813 -146.89648438 4.14648438 C-150.7657512 5.95697019 -153.47893242 8.47542233 -156.56835938 11.38867188 C-157.18598145 11.96875 -157.80360352 12.54882812 -158.43994141 13.14648438 C-176.97121098 30.94733847 -190.53613225 56.69887193 -191.99536133 82.66308594 C-192.47793121 105.39358247 -192.47793121 105.39358247 -187.81835938 127.51367188 C-187.60937012 128.15224121 -187.40038086 128.79081055 -187.18505859 129.44873047 C-182.17512234 144.20834041 -174.36608663 158.03476485 -163.81835938 169.51367188 C-163.37121582 170.00319336 -162.92407227 170.49271484 -162.46337891 170.99707031 C-147.69490625 186.98737679 -129.00290218 198.44094637 -107.81835938 203.51367188 C-106.7175 203.85527344 -105.61664063 204.196875 -104.48242188 204.54882812 C-89.2470189 208.56070929 -70.03722316 208.13174138 -54.81835938 204.51367188 C-53.53574219 204.21847656 -52.253125 203.92328125 -50.93164062 203.61914062 C-21.00909378 196.10356399 2.85640987 175.61831591 18.59570312 149.58007812 C33.04454414 124.59176626 36.46871932 93.36860905 29.18164062 65.51367188 C28.91480469 64.42699219 28.64796875 63.3403125 28.37304688 62.22070312 C23.76197814 45.39542567 14.201353 29.11971169 2.18164062 16.51367188 C1.52164063 16.51367188 0.86164063 16.51367188 0.18164062 16.51367188 C-0.14835938 15.52367187 -0.47835937 14.53367188 -0.81835938 13.51367188 C-1.47835937 13.51367188 -2.13835937 13.51367188 -2.81835938 13.51367188 C-3.14835938 12.52367188 -3.47835937 11.53367187 -3.81835938 10.51367188 C-5.63698941 8.85928593 -7.42761822 7.3684087 -9.38085938 5.88867188 C-10.24553833 5.2327002 -10.24553833 5.2327002 -11.12768555 4.56347656 C-51.97993107 -25.65226243 -102.4353624 -24.3460014 -144.81835938 1.51367188 Z " fill="#101010" transform="translate(206.818359375,31.486328125)"/>
<path d="M0 0 C3.80664199 0.9516605 5.11754396 2.5091438 7.5 5.625 C8.24012269 9.12023169 8.17302625 12.55727873 8.13110352 16.11914062 C8.13825882 17.17497849 8.14541412 18.23081635 8.15278625 19.31864929 C8.16968644 22.80662379 8.1502615 26.29331548 8.12890625 29.78125 C8.12973482 32.2059337 8.13219374 34.63061735 8.13621521 37.05529785 C8.13907414 42.13615838 8.12436187 47.21657832 8.09692383 52.29736328 C8.06284167 58.81112502 8.06885879 65.32409881 8.0875864 71.83789825 C8.09815331 76.84448822 8.08922122 81.85089474 8.07420158 86.85746765 C8.06901709 89.25924637 8.06950479 91.66104423 8.07574654 94.06282043 C8.08119472 97.4192527 8.06083449 100.77455575 8.03344727 104.13085938 C8.03997314 105.12425827 8.04649902 106.11765717 8.05322266 107.14115906 C7.993581 111.43830818 7.87907315 113.97307107 5.68540955 117.74572754 C3.5 119.625 3.5 119.625 0 120.1875 C-3.5 119.625 -3.5 119.625 -5.68540955 118.24436951 C-8.54167659 114.12133515 -8.06523789 110.05496772 -8.03344727 105.15258789 C-8.04206284 104.08714249 -8.05067841 103.02169708 -8.05955505 101.92396545 C-8.08227747 98.39828267 -8.07546403 94.87339072 -8.06640625 91.34765625 C-8.0716392 88.89912173 -8.07791446 86.45058924 -8.08518982 84.00205994 C-8.0956058 78.86822022 -8.09101534 73.73465747 -8.07641602 68.60083008 C-8.05923106 62.01858498 -8.08271487 55.43721299 -8.11790562 48.85506535 C-8.13985629 43.79786889 -8.1384436 38.74088207 -8.1301403 33.68365288 C-8.12931943 31.2567391 -8.13620861 28.82981013 -8.15091133 26.40294075 C-8.16831212 23.01034876 -8.1538496 19.61933485 -8.13110352 16.22680664 C-8.14279572 15.22248596 -8.15448792 14.21816528 -8.16653442 13.18341064 C-8.10240058 8.48688896 -8.03839246 6.33064798 -5.11680603 2.50144958 C-2.5 0.625 -2.5 0.625 0 0 Z " fill="#010101" transform="translate(156.5,65.375)"/>
<path d="M0 0 C3.80664199 0.9516605 5.11754396 2.5091438 7.5 5.625 C8.24012269 9.12023169 8.17302625 12.55727873 8.13110352 16.11914062 C8.13825882 17.17497849 8.14541412 18.23081635 8.15278625 19.31864929 C8.16968644 22.80662379 8.1502615 26.29331548 8.12890625 29.78125 C8.12973482 32.2059337 8.13219374 34.63061735 8.13621521 37.05529785 C8.13907414 42.13615838 8.12436187 47.21657832 8.09692383 52.29736328 C8.06284167 58.81112502 8.06885879 65.32409881 8.0875864 71.83789825 C8.09815331 76.84448822 8.08922122 81.85089474 8.07420158 86.85746765 C8.06901709 89.25924637 8.06950479 91.66104423 8.07574654 94.06282043 C8.08119472 97.4192527 8.06083449 100.77455575 8.03344727 104.13085938 C8.03997314 105.12425827 8.04649902 106.11765717 8.05322266 107.14115906 C7.99359807 111.437079 7.88049002 113.97145341 5.68540955 117.74182129 C3.5 119.625 3.5 119.625 0 120.25 C-3.5 119.625 -3.5 119.625 -5.68540955 117.74182129 C-8.31525187 113.22468712 -8.06722571 109.27276684 -8.03344727 104.13085938 C-8.04206284 103.07502151 -8.05067841 102.01918365 -8.05955505 100.93135071 C-8.08224564 97.44356732 -8.07547045 93.95658532 -8.06640625 90.46875 C-8.07164019 88.04406495 -8.07791582 85.61938194 -8.08518982 83.19470215 C-8.0955996 78.11391618 -8.09102358 73.03341019 -8.07641602 67.95263672 C-8.05922213 61.43879842 -8.08272911 54.92584168 -8.11790562 48.41210175 C-8.1398551 43.40551905 -8.13844406 38.39914811 -8.1301403 33.39253235 C-8.12931956 30.99073825 -8.13620636 28.58892879 -8.15091133 26.18717957 C-8.16831224 22.83061345 -8.15385018 19.47564227 -8.13110352 16.11914062 C-8.14279572 15.12574173 -8.15448792 14.13234283 -8.16653442 13.10884094 C-8.10204644 8.43663156 -8.02857407 6.31628696 -5.11680603 2.50817871 C-2.5 0.625 -2.5 0.625 0 0 Z " fill="#131313" transform="translate(97.5,65.375)"/>
<path d="M0 0 C0.66 0.33 1.32 0.66 2 1 C2.07005067 15.15998612 2.1227694 29.3199454 2.15543652 43.48006916 C2.17111268 50.05472625 2.1923867 56.62926719 2.22631836 63.20385742 C2.25884199 69.54509312 2.27683831 75.88621688 2.28463173 82.22752953 C2.29018781 84.65052237 2.30103702 87.07350887 2.31719017 89.49645424 C2.33887111 92.88229382 2.3419708 96.26766697 2.34057617 99.65356445 C2.351362 100.66200912 2.36214783 101.6704538 2.3732605 102.7094574 C2.36913651 103.63072418 2.36501251 104.55199097 2.36076355 105.50117493 C2.36352893 106.30221303 2.36629431 107.10325113 2.36914349 107.92856312 C1.91329156 110.48656163 0.97168318 111.37346106 -1 113 C-1.02333003 98.41428805 -1.04091327 83.82857897 -1.05181217 69.24285221 C-1.05697491 62.47089579 -1.06401718 55.69895095 -1.07543945 48.92700195 C-1.08644714 42.39775574 -1.09227625 35.86851706 -1.09487724 29.33926201 C-1.09673199 26.84206388 -1.10035354 24.34486645 -1.10573006 21.84767342 C-1.11293684 18.36335931 -1.1139911 14.87909569 -1.11352539 11.39477539 C-1.11712067 10.35108795 -1.12071594 9.30740051 -1.12442017 8.23208618 C-1.1230455 7.28832626 -1.12167084 6.34456635 -1.12025452 5.37220764 C-1.12117631 4.54720292 -1.1220981 3.7221982 -1.12304783 2.87219334 C-1 1 -1 1 0 0 Z " fill="#5B5B5B" transform="translate(162,70)"/>
<path d="M0 0 C0.33 0.66 0.66 1.32 1 2 C-1.31 2.33 -3.62 2.66 -6 3 C-7.11235199 8.38826399 -7.15831126 13.61366099 -7.17358398 19.08862305 C-7.180271 20.0892981 -7.18695801 21.08997314 -7.19384766 22.12097168 C-7.20786075 24.28659047 -7.21976659 26.4522237 -7.22979546 28.61786461 C-7.24624266 32.0427265 -7.2694788 35.4674803 -7.29469299 38.89228821 C-7.36539042 48.62711188 -7.42574081 58.36197763 -7.47680664 68.09692383 C-7.50854074 74.05611065 -7.54979197 80.01516936 -7.59700203 85.9742527 C-7.6130438 88.24648559 -7.62535527 90.51874793 -7.63390923 92.79102135 C-7.64602047 95.96066754 -7.67014947 99.13001016 -7.69702148 102.29956055 C-7.69761063 103.24247452 -7.69819977 104.18538849 -7.69880676 105.15687561 C-7.70852509 106.01898651 -7.71824341 106.88109741 -7.72825623 107.76933289 C-7.73248816 108.51833201 -7.7367201 109.26733114 -7.74108028 110.03902721 C-8 112 -8 112 -10 115 C-10.11684888 100.74423671 -10.20466303 86.48854777 -10.25906086 72.23240376 C-10.2851676 65.61285621 -10.32058665 58.99363011 -10.37719727 52.37426758 C-10.43147661 45.98761518 -10.46141242 39.6012722 -10.47438622 33.21440697 C-10.48363327 30.77628902 -10.50169041 28.33818822 -10.52865028 25.9002018 C-10.56488465 22.48818841 -10.56994745 19.07745767 -10.56762695 15.6652832 C-10.58560333 14.65467834 -10.60357971 13.64407349 -10.62210083 12.60284424 C-10.58739195 7.89426002 -10.5357181 5.71446978 -7.64030457 1.85295105 C-4.74782373 -0.1769759 -3.45037041 -0.49291006 0 0 Z " fill="#585858" transform="translate(159,66)"/>
<path d="M0 0 C3 1 3 1 4 3 C4.09202562 4.45717088 4.12193276 5.91849765 4.12025452 7.37857056 C4.12162918 8.29846268 4.12300385 9.2183548 4.12442017 10.16612244 C4.12082489 11.17816238 4.11722961 12.19020233 4.11352539 13.23291016 C4.11367142 14.2963414 4.11381744 15.35977264 4.1139679 16.45542908 C4.11326919 19.98332737 4.10547871 23.51117339 4.09765625 27.0390625 C4.09579192 29.48001069 4.09436809 31.92095926 4.09336853 34.36190796 C4.08954451 40.79647855 4.0797152 47.23102668 4.06866455 53.66558838 C4.05844795 60.22757666 4.05387038 66.78956856 4.04882812 73.3515625 C4.03809284 86.2343846 4.02120915 99.11719111 4 112 C1.47595789 109.06768276 0.62373554 107.28251351 0.60127258 103.41888428 C0.58873444 102.50465698 0.57619629 101.59042969 0.5632782 100.64849854 C0.56471329 99.65299988 0.56614838 98.65750122 0.56762695 97.63183594 C0.5574353 96.57786621 0.54724365 95.52389648 0.53674316 94.43798828 C0.50654303 90.95339694 0.49733628 87.46908018 0.48828125 83.984375 C0.47143981 81.56869589 0.45329031 79.15302558 0.43388367 76.73736572 C0.38631967 70.3784866 0.35655154 64.01964312 0.33044434 57.66064453 C0.30067121 51.1721289 0.25412971 44.68373616 0.20898438 38.1953125 C0.12287836 25.46360841 0.05499609 12.73187452 0 0 Z " fill="#646464" transform="translate(101,68)"/>
<path d="M0 0 C0.33 0 0.66 0 1 0 C4.61943293 20.89266165 2.58222033 44.50740383 -6 64 C-6.66 63.01 -7.32 62.02 -8 61 C-7.30087061 57.79565696 -6.51965484 54.94760588 -4.9375 52.0625 C-3.71579815 49.37475592 -3.52463139 46.82086945 -3.21484375 43.90234375 C-2.61805556 38.61805556 -2.61805556 38.61805556 -1 37 C-0.92429472 34.86321835 -0.91695031 32.72396108 -0.9375 30.5859375 C-0.94523438 29.26722656 -0.95296875 27.94851562 -0.9609375 26.58984375 C-0.97950671 24.49005744 -0.99984953 22.39029404 -1.02050781 20.29052734 C-1.03876045 18.26400452 -1.05075919 16.23750695 -1.0625 14.2109375 C-1.07410156 12.99712402 -1.08570313 11.78331055 -1.09765625 10.53271484 C-0.99864171 6.950864 -0.57495809 3.53406816 0 0 Z " fill="#636363" transform="translate(248,106)"/>
<path d="M0 0 C0.33 0 0.66 0 1 0 C1.33 35.97 1.66 71.94 2 109 C6.60532389 110.45314664 6.60532389 110.45314664 9 109 C9.66 108.01 10.32 107.02 11 106 C11.6875 107.8125 11.6875 107.8125 12 110 C11 111.75 11 111.75 9 113 C2.89594953 113.65400541 2.89594953 113.65400541 0.30142498 111.76011181 C-1.36684112 109.50386585 -1.35779538 108.25332246 -1.32279968 105.46321106 C-1.31850952 104.53353012 -1.31421936 103.60384918 -1.30979919 102.64599609 C-1.28966263 101.62820068 -1.26952606 100.61040527 -1.2487793 99.56176758 C-1.23946381 98.48843674 -1.23014832 97.4151059 -1.22055054 96.30924988 C-1.18611772 92.75402624 -1.13023291 89.19947504 -1.07421875 85.64453125 C-1.04619284 83.18260641 -1.01950168 80.72066603 -0.99409485 78.25871277 C-0.92356471 71.77298692 -0.83485749 65.28763091 -0.74243164 58.80218506 C-0.65134566 52.18661024 -0.57735734 45.57084698 -0.50195312 38.95507812 C-0.35141966 25.96981211 -0.18227317 12.98485726 0 0 Z " fill="#181818" transform="translate(92,72)"/>
<path d="M0 0 C3.70826651 -0.05837668 7.4164137 -0.09372277 11.125 -0.125 C12.69507813 -0.15013672 12.69507813 -0.15013672 14.296875 -0.17578125 C19.65944906 -0.20972159 23.95550485 -0.01938189 29 2 C31.33299825 2.03954234 33.66708189 2.04401732 36 2 C36.99 2.33 37.98 2.66 39 3 C39.495 4.485 39.495 4.485 40 6 C39.25878906 5.86722656 38.51757812 5.73445313 37.75390625 5.59765625 C23.21702204 3.16001471 8.7075262 2.82184692 -6 3 C-6 2.67 -6 2.34 -6 2 C-4.02 2 -2.04 2 0 2 C0 1.34 0 0.68 0 0 Z " fill="#696969" transform="translate(116,11)"/>
<path d="M0 0 C4.82629358 0.48262936 9.52247074 1.09582163 14.28125 2.03125 C22.09730224 3.35073409 29.85664571 3.21901074 37.75 3.125 C39.23697307 3.11493973 40.72395281 3.10581932 42.2109375 3.09765625 C45.80743323 3.075908 49.403672 3.04155018 53 3 C45.75614401 7.02436444 37.80069848 6.18351056 29.75 6.1875 C27.82220703 6.20586914 27.82220703 6.20586914 25.85546875 6.22460938 C16.56334669 6.23890495 8.78187093 5.15246649 0 2 C0 1.34 0 0.68 0 0 Z " fill="#494949" transform="translate(94,234)"/>
<path d="M0 0 C0.33 0.66 0.66 1.32 1 2 C1.66 2 2.32 2 3 2 C3.33 3.98 3.66 5.96 4 8 C4.33 8 4.66 8 5 8 C6.33664395 12.95503363 6.02900501 17.81574731 5.87890625 22.89453125 C5.85529526 23.84188644 5.83168427 24.78924164 5.80735779 25.76530457 C5.7309889 28.78119903 5.64684967 31.79681923 5.5625 34.8125 C5.5092525 36.86131485 5.45651229 38.91014296 5.40429688 40.95898438 C5.27541007 45.97282884 5.13955559 50.98644161 5 56 C3.515 56.495 3.515 56.495 2 57 C2.06928711 56.35313232 2.13857422 55.70626465 2.20996094 55.03979492 C3.80670353 39.05674247 4.29107827 22.6938292 0.65625 6.9765625 C0 4 0 4 0 0 Z " fill="#818181" transform="translate(235,93)"/>
<path d="M0 0 C5.18346004 -0.44605442 7.66646548 0.64441985 11.875 3.625 C12.90882813 4.35203125 13.94265625 5.0790625 15.0078125 5.828125 C15.99523437 6.54484375 16.98265625 7.2615625 18 8 C18.84304687 8.59296875 19.68609375 9.1859375 20.5546875 9.796875 C24.58941904 12.697287 24.58941904 12.697287 26 14 C26 14.66 26 15.32 26 16 C27.32 16.66 28.64 17.32 30 18 C30 18.99 30 19.98 30 21 C28 21 28 21 25.796875 18.8125 C24.87390625 17.884375 23.9509375 16.95625 23 16 C20.81661712 14.23702003 18.54488228 12.6141278 16.25 11 C15.63817871 10.56574707 15.02635742 10.13149414 14.39599609 9.68408203 C9.77541023 6.44614847 5.04594474 3.53632143 0 1 C0 0.67 0 0.34 0 0 Z " fill="#515151" transform="translate(176,24)"/>
<path d="M0 0 C0.99 0.33 1.98 0.66 3 1 C2.32195313 1.69222656 1.64390625 2.38445313 0.9453125 3.09765625 C-6.42636683 10.79053875 -12.32889716 18.9951252 -18 28 C-18.6953125 26.3359375 -18.6953125 26.3359375 -19 24 C-16.00754436 17.8478086 -11.70264539 11.97136798 -7 7 C-6.34 7 -5.68 7 -5 7 C-4.67 6.01 -4.34 5.02 -4 4 C-3.34 4 -2.68 4 -2 4 C-1.34 2.68 -0.68 1.36 0 0 Z " fill="#5A5A5A" transform="translate(47,43)"/>
<path d="M0 0 C32.37402657 -0.66994961 32.37402657 -0.66994961 45 3 C45.66 3.66 46.32 4.32 47 5 C45.2709226 5.02725341 43.54171824 5.04650987 41.8125 5.0625 C40.36810547 5.07990234 40.36810547 5.07990234 38.89453125 5.09765625 C35.50292413 4.98322956 32.4237857 4.44186453 29.1875 3.4375 C25.78848628 2.75769726 22.4618957 2.94230174 19 3 C19 2.67 19 2.34 19 2 C12.73 1.67 6.46 1.34 0 1 C0 0.67 0 0.34 0 0 Z " fill="#727272" transform="translate(113,3)"/>
<path d="M0 0 C5.445 0.495 5.445 0.495 11 1 C3.72636146 4.63681927 -4.08161879 4.1574646 -12.0625 4.125 C-13.01705078 4.12886719 -13.97160156 4.13273438 -14.95507812 4.13671875 C-20.07862118 4.12964692 -24.9513699 3.88228487 -30 3 C-30 2.67 -30 2.34 -30 2 C-15.15 1.505 -15.15 1.505 0 1 C0 0.67 0 0.34 0 0 Z " fill="#8D8D8D" transform="translate(139,245)"/>
<path d="M0 0 C0.33 0 0.66 0 1 0 C1 9.57 1 19.14 1 29 C0.67 29 0.34 29 0 29 C0 27.35 0 25.7 0 24 C-0.66 24 -1.32 24 -2 24 C-2 17.73 -2 11.46 -2 5 C-1.34 5 -0.68 5 0 5 C0 3.35 0 1.7 0 0 Z " fill="#717171" transform="translate(14,111)"/>
<path d="M0 0 C3.1278933 3.80942969 5.96886725 7.74950964 8.75 11.8125 C9.36681641 12.7087207 9.36681641 12.7087207 9.99609375 13.62304688 C10.99907918 15.08087454 11.9997783 16.54027474 13 18 C12.01 18.33 11.02 18.66 10 19 C7 15.375 7 15.375 7 12 C6.38125 11.773125 5.7625 11.54625 5.125 11.3125 C2.35442606 9.60126315 2.0342676 8.02892655 1 5 C0.34 4.01 -0.32 3.02 -1 2 C-0.67 1.34 -0.34 0.68 0 0 Z " fill="#5F5F5F" transform="translate(28,180)"/>
<path d="M0 0 C-1.11375 0.45375 -2.2275 0.9075 -3.375 1.375 C-6.96199008 2.72465986 -6.96199008 2.72465986 -9 5 C-11.1640625 5.4140625 -11.1640625 5.4140625 -13.625 5.625 C-14.44226563 5.69976563 -15.25953125 5.77453125 -16.1015625 5.8515625 C-16.72804688 5.90054687 -17.35453125 5.94953125 -18 6 C-18.33 6.99 -18.66 7.98 -19 9 C-20.65 9 -22.3 9 -24 9 C-20.73179214 5.40516163 -16.98770128 4.05574964 -12.5625 2.25 C-11.4168457 1.75693359 -11.4168457 1.75693359 -10.24804688 1.25390625 C-9.50748047 0.94839844 -8.76691406 0.64289062 -8.00390625 0.328125 C-7.33174072 0.0487207 -6.6595752 -0.23068359 -5.96704102 -0.51855469 C-3.64110845 -1.0878409 -2.24688784 -0.74864911 0 0 Z " fill="#6D6D6D" transform="translate(93,9)"/>
<path d="M0 0 C0.53625 0.2475 1.0725 0.495 1.625 0.75 C-0.025 1.41 -1.675 2.07 -3.375 2.75 C-3.375 3.41 -3.375 4.07 -3.375 4.75 C-5.34633986 6.12535339 -7.35181922 7.45211044 -9.375 8.75 C-11.05583079 10.06543279 -12.7274116 11.39316249 -14.375 12.75 C-15.035 12.09 -15.695 11.43 -16.375 10.75 C-15.715 10.75 -15.055 10.75 -14.375 10.75 C-14.045 9.76 -13.715 8.77 -13.375 7.75 C-12.385 7.75 -11.395 7.75 -10.375 7.75 C-10.16875 7.1725 -9.9625 6.595 -9.75 6 C-7.55467561 2.40765099 -4.37161746 -0.46017026 0 0 Z " fill="#575757" transform="translate(65.375,30.25)"/>
<path d="M0 0 C0.56847656 0.36222656 1.13695313 0.72445313 1.72265625 1.09765625 C-0.89769393 2.4615515 -3.52291374 3.81397798 -6.15234375 5.16015625 C-7.27189453 5.74506836 -7.27189453 5.74506836 -8.4140625 6.34179688 C-9.12949219 6.70595703 -9.84492187 7.07011719 -10.58203125 7.4453125 C-11.57178955 7.9559021 -11.57178955 7.9559021 -12.58154297 8.47680664 C-13.14115723 8.68168701 -13.70077148 8.88656738 -14.27734375 9.09765625 C-14.93734375 8.76765625 -15.59734375 8.43765625 -16.27734375 8.09765625 C-12.5614638 3.78244083 -6.02207106 -2.38610363 0 0 Z " fill="#5A5A5A" transform="translate(83.27734375,20.90234375)"/>
<path d="M0 0 C5.5137682 3.67584547 10.75168712 9.89443764 12.703125 16.3125 C12.80109375 16.869375 12.8990625 17.42625 13 18 C10.57819441 17.02623233 9.25699253 16.42028986 7.875 14.16015625 C7.58625 13.46792969 7.2975 12.77570312 7 12.0625 C5.44537043 8.64600181 4.04647978 7.20607157 1 5 C0.25 2.3125 0.25 2.3125 0 0 Z " fill="#757575" transform="translate(219,45)"/>
<path d="M0 0 C5.11698731 -0.42515028 7.66835485 0.62716917 11.875 3.5 C12.84179688 4.1496875 13.80859375 4.799375 14.8046875 5.46875 C15.52914062 5.9740625 16.25359375 6.479375 17 7 C16.67 7.66 16.34 8.32 16 9 C10.40967094 6.74007974 5.22804829 3.99931115 0 1 C0 0.67 0 0.34 0 0 Z " fill="#383838" transform="translate(176,24)"/>
<path d="M0 0 C0.33 0.99 0.66 1.98 1 3 C0.01 3.33 -0.98 3.66 -2 4 C-2.69658363 5.65438613 -3.36096883 7.32254318 -4 9 C-5.80895352 11.41193803 -6.72455494 11.92953731 -9.6875 12.6875 C-10.8321875 12.8421875 -10.8321875 12.8421875 -12 13 C-8.19524578 8.43969176 -4.25030379 4.14910608 0 0 Z " fill="#636363" transform="translate(212,199)"/>
<path d="M0 0 C0.598125 0.20625 1.19625 0.4125 1.8125 0.625 C1.8125 1.285 1.8125 1.945 1.8125 2.625 C2.43125 2.439375 3.05 2.25375 3.6875 2.0625 C5.8125 1.625 5.8125 1.625 7.8125 2.625 C7.8125 3.285 7.8125 3.945 7.8125 4.625 C10.2875 5.615 10.2875 5.615 12.8125 6.625 C10.8125 7.625 10.8125 7.625 7.1171875 6.41015625 C5.63764342 5.84366415 4.16117819 5.26908111 2.6875 4.6875 C1.93339844 4.39681641 1.17929688 4.10613281 0.40234375 3.80664062 C-1.46358602 3.08625002 -3.3258958 2.35649596 -5.1875 1.625 C-2.1875 -0.375 -2.1875 -0.375 0 0 Z " fill="#646464" transform="translate(163.1875,16.375)"/>
<path d="M0 0 C-4.54623064 2.52568369 -8.70399635 3.17847763 -13.86328125 2.87890625 C-14.74951172 2.83056641 -15.63574219 2.78222656 -16.54882812 2.73242188 C-17.46083984 2.67634766 -18.37285156 2.62027344 -19.3125 2.5625 C-20.70952148 2.48418945 -20.70952148 2.48418945 -22.13476562 2.40429688 C-24.42356353 2.2751852 -26.71186186 2.14024585 -29 2 C-29 1.67 -29 1.34 -29 1 C-25.66682397 0.83008756 -22.33343885 0.66466921 -19 0.5 C-18.06542969 0.45230469 -17.13085938 0.40460938 -16.16796875 0.35546875 C-10.77043673 0.0912539 -5.40391896 -0.05098037 0 0 Z " fill="#989898" transform="translate(147,237)"/>
<path d="M0 0 C1.19625 0 2.3925 0 3.625 0 C4.73875 0 5.8525 0 7 0 C7.33 0.33 7.66 0.66 8 1 C9.32594105 1.36162029 10.65938457 1.69728039 12 2 C9.11777664 3.44111168 6.81963279 2.92799483 3.625 2.6875 C2.48289062 2.60886719 1.34078125 2.53023437 0.1640625 2.44921875 C-2.71698835 2.04018067 -4.53669677 1.48647608 -7 0 C-3.98968256 -0.93423645 -3.13349732 -1.04449911 0 0 Z " fill="#4F4F4F" transform="translate(101,244)"/>
<path d="M0 0 C0.33 0.99 0.66 1.98 1 3 C-2.68991989 6.90077246 -6.21715436 9.60857718 -11 12 C-9.60609461 8.84280428 -7.96365028 6.7187347 -5.5 4.3125 C-4.8915625 3.71050781 -4.283125 3.10851563 -3.65625 2.48828125 C-2 1 -2 1 0 0 Z " fill="#6D6D6D" transform="translate(46,33)"/>
<path d="M0 0 C0.66 0.33 1.32 0.66 2 1 C0.49448658 5.21543758 -2.17944866 6.86049125 -6 9 C-7.32 9 -8.64 9 -10 9 C-6.83047153 5.73991357 -3.60062011 2.77762123 0 0 Z " fill="#6B6B6B" transform="translate(198,212)"/>
<path d="M0 0 C-0.99 0.495 -0.99 0.495 -2 1 C-2 1.66 -2 2.32 -2 3 C-3.19625 2.95875 -4.3925 2.9175 -5.625 2.875 C-8.63407566 2.85373445 -10.32649916 3.11301894 -13.25 4.125 C-16 5 -16 5 -18.171875 4.0546875 C-18.77515625 3.70664063 -19.3784375 3.35859375 -20 3 C-17.79344925 2.49219106 -15.58466395 1.99408635 -13.375 1.5 C-11.53035156 1.08234375 -11.53035156 1.08234375 -9.6484375 0.65625 C-6.32847772 0.05908379 -3.36091549 -0.12409534 0 0 Z " fill="#767676" transform="translate(113,4)"/>
<path d="M0 0 C0.66 0.66 1.32 1.32 2 2 C0.23871656 3.36656457 -1.53436088 4.71794085 -3.3125 6.0625 C-4.29863281 6.81660156 -5.28476563 7.57070312 -6.30078125 8.34765625 C-7.19152344 8.89292969 -8.08226562 9.43820313 -9 10 C-9.99 9.67 -10.98 9.34 -12 9 C-11.34 8.01 -10.68 7.02 -10 6 C-8.68 6 -7.36 6 -6 6 C-5.67 5.34 -5.34 4.68 -5 4 C-3.35704805 2.63755204 -1.69175663 1.30135125 0 0 Z " fill="#5C5C5C" transform="translate(198,223)"/>
<path d="M0 0 C0.99 0.33 1.98 0.66 3 1 C-0.3 4.63 -3.6 8.26 -7 12 C-7.66 11.01 -8.32 10.02 -9 9 C-8.0409375 8.5978125 -8.0409375 8.5978125 -7.0625 8.1875 C-4.66868314 7.11332248 -4.66868314 7.11332248 -4 4 C-3.34 4 -2.68 4 -2 4 C-1.34 2.68 -0.68 1.36 0 0 Z " fill="#515151" transform="translate(47,43)"/>
<path d="M0 0 C0.99 0.66 1.98 1.32 3 2 C1.04669132 3.03041513 -0.91281528 4.0490893 -2.875 5.0625 C-3.96554688 5.63097656 -5.05609375 6.19945312 -6.1796875 6.78515625 C-7.11039063 7.18605469 -8.04109375 7.58695313 -9 8 C-9.66 7.67 -10.32 7.34 -11 7 C-8.94766315 4.7522025 -7.99332739 3.9977758 -5 3 C-4.34 3.33 -3.68 3.66 -3 4 C-3 3.34 -3 2.68 -3 2 C-2.01 1.34 -1.02 0.68 0 0 Z " fill="#686868" transform="translate(183,232)"/>
<path d="M0 0 C1 3 1 3 -0.21484375 5.69921875 C-0.78332031 6.68535156 -1.35179687 7.67148438 -1.9375 8.6875 C-2.50339844 9.68136719 -3.06929687 10.67523438 -3.65234375 11.69921875 C-4.31943359 12.83810547 -4.31943359 12.83810547 -5 14 C-5.66 13.01 -6.32 12.02 -7 11 C-5.46395304 7.85808576 -3.94268841 4.91403262 -2 2 C-1.34 2 -0.68 2 0 2 C0 1.34 0 0.68 0 0 Z " fill="#666666" transform="translate(240,171)"/>
<path d="M0 0 C1.25955231 3.77865693 0.48087189 5.03411786 -0.9375 8.6875 C-1.31777344 9.68136719 -1.69804687 10.67523438 -2.08984375 11.69921875 C-2.39019531 12.45847656 -2.69054687 13.21773437 -3 14 C-5 11 -5 11 -4.86328125 9.0625 C-3.03205128 2.20512821 -3.03205128 2.20512821 0 0 Z " fill="#5A5A5A" transform="translate(23,79)"/>
<path d="M0 0 C0.66 0.33 1.32 0.66 2 1 C-4.07792208 7.24675325 -4.07792208 7.24675325 -7 9 C-7.99 8.67 -8.98 8.34 -10 8 C-8.68 7.34 -7.36 6.68 -6 6 C-6 5.34 -6 4.68 -6 4 C-4.03852126 2.61061923 -2.03833424 1.2739589 0 0 Z " fill="#575757" transform="translate(57,24)"/>
<path d="M0 0 C0 0.66 0 1.32 0 2 C-5.56069582 4.25433614 -11.0785651 4.59961828 -17 5 C-14.22005549 3.14670366 -12.21743449 2.31436395 -9.0625 1.375 C-8.20785156 1.11460937 -7.35320312 0.85421875 -6.47265625 0.5859375 C-4 0 -4 0 0 0 Z " fill="#727272" transform="translate(169,231)"/>
<path d="M0 0 C0.99 0.33 1.98 0.66 3 1 C0.03 4.3 -2.94 7.6 -6 11 C-6.33 10.01 -6.66 9.02 -7 8 C-6.360625 7.7525 -5.72125 7.505 -5.0625 7.25 C-2.82123176 6.20265017 -2.82123176 6.20265017 -2.375 4 C-2.189375 3.01 -2.189375 3.01 -2 2 C-1.34 1.34 -0.68 0.68 0 0 Z " fill="#5B5B5B" transform="translate(221,201)"/>
<path d="M0 0 C0.6875 1.8125 0.6875 1.8125 1 4 C-0.125 5.4375 -0.125 5.4375 -2 7 C-2.886875 7.886875 -3.77375 8.77375 -4.6875 9.6875 C-5.450625 10.450625 -6.21375 11.21375 -7 12 C-7 8.40142046 -6.04169485 6.90548882 -4 4 C-3.34 4 -2.68 4 -2 4 C-1.34 2.68 -0.68 1.36 0 0 Z " fill="#5E5E5E" transform="translate(33,46)"/>
<path d="M0 0 C0 0.33 0 0.66 0 1 C-9.41002278 3.29612756 -9.41002278 3.29612756 -14 3 C-14 2.34 -14 1.68 -14 1 C-9.22426677 -1.61895048 -5.15565119 -0.83119431 0 0 Z " fill="#5D5D5D" transform="translate(110,14)"/>
<path d="M0 0 C5.66710699 1.31793186 7.66437233 3.48709197 11 8 C7.24026115 8 6.54322371 7.03457593 3.8125 4.5625 C3.09707031 3.92441406 2.38164063 3.28632813 1.64453125 2.62890625 C1.10183594 2.09136719 0.55914062 1.55382812 0 1 C0 0.67 0 0.34 0 0 Z " fill="#585858" transform="translate(43,215)"/>
<path d="M0 0 C0.66 1.32 1.32 2.64 2 4 C0.02 6.64 -1.96 9.28 -4 12 C-4.33 11.34 -4.66 10.68 -5 10 C-4.00390625 7.6171875 -4.00390625 7.6171875 -2.5625 4.875 C-1.85287109 3.50988281 -1.85287109 3.50988281 -1.12890625 2.1171875 C-0.75636719 1.41851562 -0.38382813 0.71984375 0 0 Z " fill="#575757" transform="translate(20,64)"/>
<path d="M0 0 C2.9375 0.8125 2.9375 0.8125 6 2 C6.33 2.99 6.66 3.98 7 5 C8.32 5 9.64 5 11 5 C11 5.66 11 6.32 11 7 C6.24518354 6.42365861 3.02951788 4.44931479 -1 2 C-0.67 1.34 -0.34 0.68 0 0 Z " fill="#666666" transform="translate(65,230)"/>
<path d="M0 0 C4.28477792 2.30718811 7.72291137 4.32966073 11 8 C3 6 3 6 0 3 C0 2.01 0 1.02 0 0 Z " fill="#6A6A6A" transform="translate(54,212)"/>
<path d="M0 0 C0.33 0.66 0.66 1.32 1 2 C-0.89467269 7.12676141 -3.31614016 9.29376987 -8 12 C-6.59023295 8.96147295 -4.91129772 6.4060405 -2.875 3.75 C-2.06675781 2.69039062 -2.06675781 2.69039062 -1.2421875 1.609375 C-0.83226562 1.07828125 -0.42234375 0.5471875 0 0 Z " fill="#797979" transform="translate(221,187)"/>
<path d="M0 0 C2 3 2 3 1.75 5.875 C1.06189923 8.74208654 0.1882053 11.30673466 -1 14 C-1.33 14 -1.66 14 -2 14 C-2.21192221 8.80790596 -1.5912689 4.873261 0 0 Z " fill="#646464" transform="translate(8,93)"/>
<path d="M0 0 C1.43836751 0.11458693 2.87570966 0.24209116 4.3125 0.375 C5.51326172 0.47941406 5.51326172 0.47941406 6.73828125 0.5859375 C9 1 9 1 12 3 C7.31034294 4.11658501 4.46236469 3.80619523 0 2 C0 1.34 0 0.68 0 0 Z " fill="#666666" transform="translate(94,234)"/>
<path d="M0 0 C7.48291572 6.15034169 7.48291572 6.15034169 10 10 C6.40486061 8.3407049 3.13593666 6.42322378 0 4 C0 2.68 0 1.36 0 0 Z " fill="#7F7F7F" transform="translate(41,199)"/>
<path d="M0 0 C3.98175544 2.10148204 6.35039045 4.36905358 9 8 C2.18181818 6.03030303 2.18181818 6.03030303 0 3 C0 2.01 0 1.02 0 0 Z " fill="#6B6B6B" transform="translate(207,33)"/>
<path d="M0 0 C0.33 1.32 0.66 2.64 1 4 C1.66 4 2.32 4 3 4 C4.23076923 9.41538462 4.23076923 9.41538462 3.0625 12.375 C2.711875 12.91125 2.36125 13.4475 2 14 C0.4087311 9.126739 -0.21192221 5.19209404 0 0 Z " fill="#7A7A7A" transform="translate(6,145)"/>
<path d="M0 0 C2.97069541 2.54631035 4.4775751 5.42230149 6 9 C5.67 9.66 5.34 10.32 5 11 C1.87729874 8.48169253 1.05476902 7.2738451 0.25 3.25 C0.1675 2.1775 0.085 1.105 0 0 Z " fill="#646464" transform="translate(232,63)"/>
<path d="M0 0 C-3.68734758 2.45823172 -6.69699971 3.01242616 -11 4 C-10 1 -10 1 -7.75 -0.25 C-4.71763271 -1.07700926 -2.98879276 -0.85394079 0 0 Z " fill="#5D5D5D" transform="translate(96,17)"/>
<path d="M0 0 C-3.16240582 2.10827055 -4.50657469 2.33817465 -8.1875 2.625 C-9.53908203 2.73714844 -9.53908203 2.73714844 -10.91796875 2.8515625 C-11.94857422 2.92503906 -11.94857422 2.92503906 -13 3 C-11.68 2.67 -10.36 2.34 -9 2 C-9 1.34 -9 0.68 -9 0 C-5.52176885 -1.15941038 -3.54104422 -0.70820884 0 0 Z " fill="#707070" transform="translate(163,243)"/>
<path d="M0 0 C3.16717283 1.58358642 4.73268318 2.45263699 6.3125 5.6875 C6.539375 6.450625 6.76625 7.21375 7 8 C6.01 8 5.02 8 4 8 C0 2.74285714 0 2.74285714 0 0 Z " fill="#5B5B5B" transform="translate(22,189)"/>
<path d="M0 0 C0.33 0 0.66 0 1 0 C1.33951619 1.56116819 1.67132544 3.12401338 2 4.6875 C2.185625 5.55761719 2.37125 6.42773438 2.5625 7.32421875 C2.98972047 9.93712964 3.07616201 12.35813038 3 15 C0.98111477 12.98111477 0.03340621 11.63565987 -1 9 C-0.9765625 6.640625 -0.9765625 6.640625 -0.625 4.25 C-0.51414062 3.45078125 -0.40328125 2.6515625 -0.2890625 1.828125 C-0.19367187 1.22484375 -0.09828125 0.6215625 0 0 Z " fill="#7F7F7F" transform="translate(15,141)"/>
<path d="M0 0 C2.96404505 2.80804268 5.44499019 5.18315774 7 9 C5.1875 8.875 5.1875 8.875 3 8 C0 2.96428571 0 2.96428571 0 0 Z " fill="#6A6A6A" transform="translate(34,190)"/>
<path d="M0 0 C0.66 0.99 1.32 1.98 2 3 C1.34 4.32 0.68 5.64 0 7 C-0.66 7 -1.32 7 -2 7 C-2 7.99 -2 8.98 -2 10 C-2.99 10.33 -3.98 10.66 -5 11 C-3.55049545 7.2089881 -1.84827434 3.6125362 0 0 Z " fill="#6F6F6F" transform="translate(227,176)"/>
<path d="M0 0 C1.09898702 3.29696105 0.87124444 4.40494903 0.0625 7.6875 C-0.22947266 8.89986328 -0.22947266 8.89986328 -0.52734375 10.13671875 C-0.68332031 10.75160156 -0.83929687 11.36648437 -1 12 C-1.33 12 -1.66 12 -2 12 C-3.35111663 4.19354839 -3.35111663 4.19354839 -2 1 C-1.34 0.67 -0.68 0.34 0 0 Z " fill="#717171" transform="translate(18,93)"/>
<path d="M0 0 C0.33 0.66 0.66 1.32 1 2 C-0.134375 2.12375 -1.26875 2.2475 -2.4375 2.375 C-4.2009375 2.684375 -4.2009375 2.684375 -6 3 C-6.33 3.66 -6.66 4.32 -7 5 C-7.66 5 -8.32 5 -9 5 C-6.81610567 0.16423399 -5.20641855 -0.13701101 0 0 Z " fill="#838383" transform="translate(159,66)"/>
<path d="M0 0 C0.33 0.99 0.66 1.98 1 3 C-3.29 2.34 -7.58 1.68 -12 1 C-12 0.67 -12 0.34 -12 0 C-7.66726186 -0.92844389 -4.33273814 -0.92844389 0 0 Z " fill="#7B7B7B" transform="translate(155,14)"/>
<path d="M0 0 C0.66 1.32 1.32 2.64 2 4 C0.9375 5.5 0.9375 5.5 -1 7 C-4.6875 7.1875 -4.6875 7.1875 -8 7 C-8.33 6.34 -8.66 5.68 -9 5 C-6.69 5.33 -4.38 5.66 -2 6 C-1.34 4.02 -0.68 2.04 0 0 Z " fill="#686868" transform="translate(102,178)"/>
<path d="M0 0 C3 1.8125 3 1.8125 6 4 C6 4.99 6 5.98 6 7 C3.53199953 5.84826645 1.95216435 4.95216435 0 3 C0 2.01 0 1.02 0 0 Z " fill="#555555" transform="translate(200,27)"/>
<path d="M0 0 C3.63 0.33 7.26 0.66 11 1 C6.78370866 3.10814567 4.60209225 3.17700355 0 3 C0 2.01 0 1.02 0 0 Z " fill="#6F6F6F" transform="translate(139,245)"/>
<path d="M0 0 C0.66 0.33 1.32 0.66 2 1 C1.25 7.75 1.25 7.75 -1 10 C-2.31223496 6.06329512 -1.24296256 3.87511856 0 0 Z " fill="#565656" transform="translate(242,160)"/>
<path d="M0 0 C2.0343459 1.41519715 2.90410393 2.54982123 3.421875 4.98046875 C3.66273952 6.98176954 3.83532741 8.9909944 4 11 C3.34 11 2.68 11 2 11 C2 9.68 2 8.36 2 7 C1.34 7 0.68 7 0 7 C0 4.69 0 2.38 0 0 Z " fill="#444444" transform="translate(5,138)"/>
<path d="M0 0 C0.8353125 0.556875 0.8353125 0.556875 1.6875 1.125 C-1.68347383 2.62321059 -3.51692119 3.125 -7.3125 3.125 C-7.3125 2.465 -7.3125 1.805 -7.3125 1.125 C-2.88173077 -1.09038462 -2.88173077 -1.09038462 0 0 Z " fill="#4E4E4E" transform="translate(83.3125,20.875)"/>
<path d="M0 0 C7.60344828 0.60344828 7.60344828 0.60344828 10 3 C8.68 3.33 7.36 3.66 6 4 C6 3.34 6 2.68 6 2 C5.01 2.33 4.02 2.66 3 3 C0.8125 2.0625 0.8125 2.0625 -1 1 C-0.67 0.67 -0.34 0.34 0 0 Z " fill="#6F6F6F" transform="translate(160,8)"/>
<path d="M0 0 C1.10493755 3.31481265 1.05432279 5.66131116 0 9 C-0.99 9.66 -1.98 10.32 -3 11 C-1.125 3.375 -1.125 3.375 0 0 Z " fill="#6F6F6F" transform="translate(234,159)"/>
<path d="M0 0 C3.465 1.98 3.465 1.98 7 4 C7 4.99 7 5.98 7 7 C6.34 6.67 5.68 6.34 5 6 C5 5.34 5 4.68 5 4 C3.35 3.67 1.7 3.34 0 3 C0 2.01 0 1.02 0 0 Z " fill="#585858" transform="translate(191,21)"/>
<path d="M0 0 C0.598125 0.350625 1.19625 0.70125 1.8125 1.0625 C-1.09350261 2.31914978 -2.98354584 3.0625 -6.1875 3.0625 C-5.8575 2.0725 -5.5275 1.0825 -5.1875 0.0625 C-2.1875 -0.9375 -2.1875 -0.9375 0 0 Z " fill="#585858" transform="translate(169.1875,239.9375)"/>
<path d="M0 0 C5.75 1.875 5.75 1.875 8 3 C8 3.66 8 4.32 8 5 C5.03 4.01 2.06 3.02 -1 2 C-0.67 1.34 -0.34 0.68 0 0 Z " fill="#606060" transform="translate(77,236)"/>
<path d="M0 0 C3.5786304 1.65167557 6.74820188 3.78286492 10 6 C9.01 6.33 8.02 6.66 7 7 C5.17578125 5.8203125 5.17578125 5.8203125 3.3125 4.125 C2.68988281 3.57070312 2.06726562 3.01640625 1.42578125 2.4453125 C0 1 0 1 0 0 Z " fill="#373737" transform="translate(44,205)"/>
<path d="M0 0 C-0.33 0.66 -0.66 1.32 -1 2 C-3.31 2 -5.62 2 -8 2 C-8.33 1.34 -8.66 0.68 -9 0 C-3.375 -1.125 -3.375 -1.125 0 0 Z " fill="#636363" transform="translate(161,183)"/>
<path d="M0 0 C0.33 0.99 0.66 1.98 1 3 C1.99 3.33 2.98 3.66 4 4 C4.33 5.98 4.66 7.96 5 10 C1.91910327 7.22719294 0.31224548 4.93673644 -1 1 C-0.67 0.67 -0.34 0.34 0 0 Z " fill="#797979" transform="translate(219,58)"/>
<path d="M0 0 C3 1 3 1 4.75 3.4375 C5.36875 4.7059375 5.36875 4.7059375 6 6 C5.67 6.66 5.34 7.32 5 8 C2.20127563 5.47211993 0.54226981 3.79588866 0 0 Z " fill="#595959" transform="translate(226,55)"/>
<path d="M0 0 C5.75 1.625 5.75 1.625 8 5 C7.01 5.33 6.02 5.66 5 6 C3.35 4.02 1.7 2.04 0 0 Z " fill="#606060" transform="translate(199,39)"/>
<path d="M0 0 C2.8125 -0.3125 2.8125 -0.3125 6 0 C7.875 2.5 7.875 2.5 9 5 C5.54074837 3.7508258 2.85306797 2.32472205 0 0 Z " fill="#616161" transform="translate(176,24)"/>
<path d="M0 0 C-0.639375 0.103125 -1.27875 0.20625 -1.9375 0.3125 C-2.9584375 0.6528125 -2.9584375 0.6528125 -4 1 C-4.33 1.99 -4.66 2.98 -5 4 C-6.65 4 -8.3 4 -10 4 C-7.39928297 0.98864344 -3.94054294 -1.97027147 0 0 Z " fill="#797979" transform="translate(79,14)"/>
<path d="M0 0 C0.66 0.33 1.32 0.66 2 1 C0.95125002 3.62187494 0.35068687 4.79371361 -2.125 6.25 C-2.74375 6.4975 -3.3625 6.745 -4 7 C-2.92598892 4.08482708 -2.22189824 2.22189824 0 0 Z " fill="#545454" transform="translate(198,212)"/>
<path d="M0 0 C2.6855594 2.6855594 3.06049974 5.37621328 4 9 C2.68 8.34 1.36 7.68 0 7 C0 4.69 0 2.38 0 0 Z " fill="#777777" transform="translate(21,165)"/>
</svg>
