<?xml version="1.0" encoding="UTF-8"?>
<svg version="1.1" xmlns="http://www.w3.org/2000/svg" width="249" height="251">
<path d="M0 0 C1.57955982 1.10645575 3.14565703 2.23232791 4.69921875 3.375 C5.53388672 3.96804932 6.36855469 4.56109863 7.22851562 5.17211914 C9.62967508 6.88673484 12.01146757 8.62473186 14.38671875 10.375 C14.95825684 10.79378418 15.52979492 11.21256836 16.11865234 11.64404297 C18.99499741 13.75936093 21.83766451 15.91715334 24.67675781 18.08203125 C42.92733131 32.36520461 42.92733131 32.36520461 62.26953125 45.01953125 C62.96820313 45.46683594 63.666875 45.91414063 64.38671875 46.375 C64.38671875 47.035 64.38671875 47.695 64.38671875 48.375 C65.06734375 48.58125 65.74796875 48.7875 66.44921875 49 C71.08187111 51.16847557 75.14216914 53.73460259 77.3828125 58.48828125 C79.00141083 64.30920321 77.93079355 67.99330331 75.38671875 73.375 C74.72671875 73.375 74.06671875 73.375 73.38671875 73.375 C73.38671875 74.035 73.38671875 74.695 73.38671875 75.375 C71.64803545 76.71741096 69.84044844 77.97060456 68.01171875 79.1875 C66.81776085 79.99294245 65.62512707 80.80035006 64.43359375 81.609375 C63.78455078 82.04958984 63.13550781 82.48980469 62.46679688 82.94335938 C58.68664159 85.54510005 54.97683741 88.24409742 51.26171875 90.9375 C50.4948877 91.49179688 49.72805664 92.04609375 48.93798828 92.6171875 C45.56735528 95.05647089 42.20368242 97.50382143 38.86328125 99.984375 C37.88101563 100.71140625 36.89875 101.4384375 35.88671875 102.1875 C34.63375 103.12529297 34.63375 103.12529297 33.35546875 104.08203125 C31.38671875 105.375 31.38671875 105.375 29.38671875 105.375 C29.38671875 106.035 29.38671875 106.695 29.38671875 107.375 C27.73657227 108.65209961 27.73657227 108.65209961 25.453125 110.08984375 C19.82445677 113.71857821 14.44631127 117.64617888 9.04882812 121.60742188 C-5.89412613 132.49498491 -5.89412613 132.49498491 -12.61328125 132.375 C-18.03080221 130.81401938 -20.98206777 128.58199367 -23.75592232 123.56329536 C-25.44413283 119.25436114 -25.15781501 114.77929407 -25.11499023 110.21069336 C-25.12039322 109.10740189 -25.1257962 108.00411041 -25.13136292 106.86738586 C-25.14383531 103.23292943 -25.12736909 99.59926735 -25.109375 95.96484375 C-25.10953001 93.43331358 -25.11101932 90.90178318 -25.11378479 88.37025452 C-25.11516809 83.07020654 -25.1030574 77.770437 -25.07983398 72.47045898 C-25.05321372 66.35312562 -25.05148342 60.23617157 -25.06322235 54.1188001 C-25.07402044 48.2193084 -25.06769579 42.31993189 -25.05366707 36.42044258 C-25.04915316 33.91621867 -25.04881523 31.41198362 -25.05273247 28.90775871 C-25.05564447 25.40824426 -25.03913757 21.90934838 -25.01733398 18.40991211 C-25.02183563 17.37649689 -25.02633728 16.34308167 -25.03097534 15.27835083 C-24.96238762 8.64891375 -24.0461013 4.27868844 -19.67578125 -0.9375 C-13.83446497 -5.71675877 -5.87550382 -3.74474431 0 0 Z " fill="#020202" transform="translate(103.61328125,61.625)"/>
<path d="M0 0 C0.59425781 0.56074219 1.18851563 1.12148438 1.80078125 1.69921875 C1.80078125 2.35921875 1.80078125 3.01921875 1.80078125 3.69921875 C2.35121094 3.91578125 2.90164062 4.13234375 3.46875 4.35546875 C6.56671955 6.14056343 8.75132221 8.56524671 11.11328125 11.19921875 C11.59966064 11.7396582 12.08604004 12.28009766 12.5871582 12.83691406 C26.1984612 28.18491724 35.27612893 47.73419038 39.80078125 67.69921875 C40.00703125 68.58867188 40.21328125 69.478125 40.42578125 70.39453125 C46.51329798 102.10034756 39.33462389 135.60090441 21.55078125 162.32421875 C16.81054326 168.95409165 11.44980898 174.83909133 5.80078125 180.69921875 C4.80111328 181.79363281 4.80111328 181.79363281 3.78125 182.91015625 C-1.81467691 188.87129103 -8.38912609 193.26397007 -15.19921875 197.69921875 C-16.02292969 198.24578125 -16.84664062 198.79234375 -17.6953125 199.35546875 C-43.2689421 215.5707887 -76.03218038 220.81272245 -105.62109375 214.8046875 C-129.35644389 209.3701036 -149.57451788 198.55246806 -167.19921875 181.69921875 C-167.92367187 181.04953125 -168.648125 180.39984375 -169.39453125 179.73046875 C-185.03051352 165.15930247 -196.27780447 144.4039566 -201.19921875 123.69921875 C-201.49570313 122.49136719 -201.7921875 121.28351563 -202.09765625 120.0390625 C-209.30622875 87.57837406 -202.17679247 54.78162056 -185.19921875 26.69921875 C-177.11257646 14.46114513 -167.1045953 3.29854991 -155.19921875 -5.30078125 C-154.29816406 -5.955625 -153.39710938 -6.61046875 -152.46875 -7.28515625 C-104.86100209 -40.43711026 -44.675396 -35.36512685 0 0 Z M-153.19921875 6.69921875 C-154.20984375 7.46234375 -155.22046875 8.22546875 -156.26171875 9.01171875 C-156.90109375 9.56859375 -157.54046875 10.12546875 -158.19921875 10.69921875 C-158.19921875 11.35921875 -158.19921875 12.01921875 -158.19921875 12.69921875 C-159.18921875 13.02921875 -160.17921875 13.35921875 -161.19921875 13.69921875 C-161.19921875 14.35921875 -161.19921875 15.01921875 -161.19921875 15.69921875 C-162.68421875 16.19421875 -162.68421875 16.19421875 -164.19921875 16.69921875 C-184.21471557 36.67378408 -193.37898124 65.54369984 -193.44921875 93.19921875 C-193.4456493 103.43141531 -192.86800213 112.80203019 -190.19921875 122.69921875 C-189.87050781 123.92125 -189.54179687 125.14328125 -189.203125 126.40234375 C-180.86727232 153.97699828 -161.54406344 178.27218906 -136.1015625 191.9609375 C-132.18643282 193.98933528 -128.21311975 195.87532528 -124.19921875 197.69921875 C-123.28269531 198.12074219 -122.36617188 198.54226562 -121.421875 198.9765625 C-102.01890031 207.31009296 -76.63650209 208.50350551 -56.19921875 203.69921875 C-54.9153125 203.40402344 -53.63140625 203.10882813 -52.30859375 202.8046875 C-25.11025559 195.9677557 -0.36699648 177.41261892 14.60400391 153.71826172 C21.10998635 142.74223666 25.93782566 131.13008292 28.80078125 118.69921875 C28.97520752 118.08280518 29.14963379 117.4663916 29.3293457 116.83129883 C31.2546372 109.51245416 31.15518872 102.15955833 31.11328125 94.63671875 C31.1111261 93.94569061 31.10897095 93.25466248 31.10675049 92.54269409 C30.96682438 64.64199345 22.14954525 40.67902472 3.73828125 19.51171875 C3.20912109 18.89619141 2.67996094 18.28066406 2.13476562 17.64648438 C-1.36745775 13.51442556 -1.36745775 13.51442556 -5.19921875 9.69921875 C-5.85921875 9.69921875 -6.51921875 9.69921875 -7.19921875 9.69921875 C-7.19921875 9.03921875 -7.19921875 8.37921875 -7.19921875 7.69921875 C-26.76562709 -9.58720557 -53.0619041 -18.90102221 -78.90283203 -18.74682617 C-81.06639946 -18.73831202 -83.22731535 -18.76722371 -85.390625 -18.79882812 C-110.05792596 -18.92130155 -134.43288459 -9.17362776 -153.19921875 6.69921875 Z " fill="#131313" transform="translate(204.19921875,32.30078125)"/>
<path d="M0 0 C0.66 0.99 1.32 1.98 2 3 C1.34 3 0.68 3 0 3 C0 41.94 0 80.88 0 121 C1.32 121.66 2.64 122.32 4 123 C4 123.99 4 124.98 4 126 C4.99 126 5.98 126 7 126 C7 126.66 7 127.32 7 128 C3.38010032 127.09502508 2.10814996 126.14600468 -0.14151001 123.10891724 C-2.79467118 118.18872266 -2.54538703 113.29272297 -2.48583984 107.81982422 C-2.48963654 106.71492645 -2.49343323 105.61002869 -2.49734497 104.47164917 C-2.50473315 100.83236995 -2.48339367 97.19389534 -2.4609375 93.5546875 C-2.45855227 91.02076308 -2.45764792 88.48683687 -2.4581604 85.95291138 C-2.45503549 80.64866179 -2.43898077 75.34468926 -2.41162109 70.04052734 C-2.38014213 63.9152766 -2.36962626 57.790277 -2.3710922 51.66495121 C-2.37231431 45.76012528 -2.3618734 39.85537138 -2.34550858 33.95056534 C-2.33914329 31.44272478 -2.33520231 28.93487686 -2.33372116 26.42702866 C-2.32938739 22.92502019 -2.31188513 19.4233274 -2.29052734 15.92138672 C-2.29143372 14.88437622 -2.29234009 13.84736572 -2.29327393 12.77893066 C-2.28474396 11.8229599 -2.27621399 10.86698914 -2.26742554 9.88204956 C-2.26407385 9.05507505 -2.26072216 8.22810055 -2.25726891 7.37606621 C-1.96186525 4.64779777 -1.11756273 2.49460205 0 0 Z " fill="#828282" transform="translate(81,64)"/>
<path d="M0 0 C1.47288175 4.41864525 -0.40483899 6.70485698 -2.36328125 10.77734375 C-10.39998868 26.60140969 -20.23143645 38.72999207 -33 51 C-33.495 49.515 -33.495 49.515 -34 48 C-33.34 48 -32.68 48 -32 48 C-31.62875 47.071875 -31.62875 47.071875 -31.25 46.125 C-30 44 -30 44 -28 43.0625 C-25.74387165 42.13991505 -25.74387165 42.13991505 -25 39.5 C-23.77750928 36.44377319 -22.86808452 36.34441462 -20 35 C-18.83333333 33.08333333 -18.83333333 33.08333333 -18 31 C-17.34 30.01 -16.68 29.02 -16 28 C-15.34 28 -14.68 28 -14 28 C-13.67 26.35 -13.34 24.7 -13 23 C-12.01 22.67 -11.02 22.34 -10 22 C-9.43941523 20.26566343 -9.43941523 20.26566343 -9 18 C-8.03121372 15.64723332 -7.03544776 13.32300454 -6 11 C-5.64164063 10.19046875 -5.28328125 9.3809375 -4.9140625 8.546875 C-3.94582012 6.36317943 -2.97428172 4.1810063 -2 2 C-1.34 2 -0.68 2 0 2 C0 1.34 0 0.68 0 0 Z " fill="#5B5B5B" transform="translate(237,168)"/>
<path d="M0 0 C0.33 0 0.66 0 1 0 C1.33 3.63 1.66 7.26 2 11 C2.66 11 3.32 11 4 11 C4.02948491 14.14581302 4.04695916 17.29158963 4.0625 20.4375 C4.07087891 21.31599609 4.07925781 22.19449219 4.08789062 23.09960938 C4.14182692 37.71634615 4.14182692 37.71634615 2 42 C1.67 42.99 1.34 43.98 1 45 C0.33333333 47 -0.33333333 49 -1 51 C-1.33 51 -1.66 51 -2 51 C-1.85704109 49.60386935 -1.71048442 48.20810692 -1.5625 46.8125 C-1.48128906 46.03519531 -1.40007812 45.25789063 -1.31640625 44.45703125 C-1 42 -1 42 -0.48632812 39.8828125 C0.15913104 36.05671721 0.12312826 32.28481813 0.09765625 28.41796875 C0.0962413 27.60378983 0.09482635 26.7896109 0.09336853 25.95075989 C0.08779317 23.36296844 0.07524524 20.77526508 0.0625 18.1875 C0.05748181 16.42773563 0.05291946 14.66796989 0.04882812 12.90820312 C0.03783181 8.60543506 0.02058421 4.30273244 0 0 Z " fill="#6D6D6D" transform="translate(234,105)"/>
<path d="M0 0 C0.33 0 0.66 0 1 0 C2.20311547 6.59803803 2.14800939 13.12060228 2.125 19.8125 C2.12886719 20.95654297 2.13273438 22.10058594 2.13671875 23.27929688 C2.13542969 24.36919922 2.13414063 25.45910156 2.1328125 26.58203125 C2.13168457 27.57436768 2.13055664 28.5667041 2.12939453 29.58911133 C2 32 2 32 1 34 C1.66 34 2.32 34 3 34 C2.67 37.3 2.34 40.6 2 44 C1.67 44 1.34 44 1 44 C-0.81054926 35.84688639 -1.27894208 28.08566768 -1.1875 19.75 C-1.18685547 18.61820313 -1.18621094 17.48640625 -1.18554688 16.3203125 C-1.15636158 10.78159216 -0.98523543 5.45426332 0 0 Z " fill="#616161" transform="translate(1,106)"/>
<path d="M0 0 C-3 2 -3 2 -7 2 C-7 2.66 -7 3.32 -7 4 C-11.53126893 5.51042298 -16.2146287 5.82672885 -20.9453125 6.40234375 C-21.95335938 6.59957031 -22.96140625 6.79679688 -24 7 C-24.33 7.66 -24.66 8.32 -25 9 C-27.40057681 11.2227563 -28.79111835 11.96589687 -32.0625 12.5 C-35.02641862 12.71310303 -35.02641862 12.71310303 -36.625 14.625 C-37.07875 15.07875 -37.5325 15.5325 -38 16 C-40.0859375 15.5859375 -40.0859375 15.5859375 -42 15 C-30.99443945 7.27269153 -13.70372399 -1.11111276 0 0 Z " fill="#686868" transform="translate(102,5)"/>
<path d="M0 0 C0.33 0 0.66 0 1 0 C1.74312171 3.98533148 2.1281073 7.75640408 2.1328125 11.80859375 C2.13410156 12.88560547 2.13539063 13.96261719 2.13671875 15.07226562 C2.13285156 16.18279297 2.12898437 17.29332031 2.125 18.4375 C2.12886719 19.54416016 2.13273438 20.65082031 2.13671875 21.79101562 C2.13013347 27.29960268 1.98339349 32.57572636 1 38 C0.67 38 0.34 38 0 38 C-1.13505547 31.65810279 -1.14858535 25.43093844 -1.125 19 C-1.13080078 17.41832031 -1.13080078 17.41832031 -1.13671875 15.8046875 C-1.12998234 10.42903565 -0.94760458 5.29455256 0 0 Z " fill="#595959" transform="translate(244,107)"/>
<path d="M0 0 C2.8836316 0.69238847 5.5536713 0.64508881 8.51855469 0.63110352 C10.32646484 0.62626953 10.32646484 0.62626953 12.17089844 0.62133789 C14.05228516 0.60876953 14.05228516 0.60876953 15.97167969 0.59594727 C17.24140625 0.59143555 18.51113281 0.58692383 19.81933594 0.58227539 C22.95349805 0.57049283 26.0875651 0.55404143 29.22167969 0.53344727 C29.22167969 0.20344727 29.22167969 -0.12655273 29.22167969 -0.46655273 C32.52167969 -0.13655273 35.82167969 0.19344727 39.22167969 0.53344727 C32.06784119 4.11036652 24.33126846 3.72637048 16.47167969 3.72094727 C15.50536621 3.7215918 14.53905273 3.72223633 13.54345703 3.72290039 C6.58100128 3.67145655 0.0176693 3.13925072 -6.77832031 1.53344727 C-6.77832031 1.20344727 -6.77832031 0.87344727 -6.77832031 0.53344727 C-2.26626243 -0.5945672 -2.26626243 -0.5945672 0 0 Z " fill="#878787" transform="translate(106.7783203125,245.466552734375)"/>
<path d="M0 0 C0.96550781 0.00902344 1.93101563 0.01804687 2.92578125 0.02734375 C5.28412099 0.05069365 7.64192286 0.08343953 10 0.125 C10 0.785 10 1.445 10 2.125 C11.65 2.125 13.3 2.125 15 2.125 C15 2.455 15 2.785 15 3.125 C3.78 3.125 -7.44 3.125 -19 3.125 C-19 2.795 -19 2.465 -19 2.125 C-12.53546326 0.18868829 -6.72378423 -0.12056441 0 0 Z " fill="#747474" transform="translate(125,10.875)"/>
<path d="M0 0 C0 2.62113708 -0.31292445 4.50935112 -1 7 C-1.61875 7.061875 -2.2375 7.12375 -2.875 7.1875 C-3.57625 7.455625 -4.2775 7.72375 -5 8 C-5.6852263 9.6591224 -6.34836746 11.32739806 -7 13 C-8.09436946 14.78263555 -9.24244664 16.53323517 -10.4375 18.25 C-11.03433594 19.12140625 -11.63117187 19.9928125 -12.24609375 20.890625 C-14 23 -14 23 -17 24 C-13.72433942 14.77161612 -6.53683792 7.12923886 0 0 Z " fill="#6C6C6C" transform="translate(35,39)"/>
<path d="M0 0 C1.22589844 0.15275391 1.22589844 0.15275391 2.4765625 0.30859375 C3.41628906 0.43427734 3.41628906 0.43427734 4.375 0.5625 C4.375 0.8925 4.375 1.2225 4.375 1.5625 C2.83392578 1.94341797 2.83392578 1.94341797 1.26171875 2.33203125 C-6.72797312 4.31400027 -14.6965494 6.34522144 -22.625 8.5625 C-22.625 7.5725 -22.625 6.5825 -22.625 5.5625 C-19.625 4.5625 -19.625 4.5625 -16.625 5.5625 C-16.625 4.9025 -16.625 4.2425 -16.625 3.5625 C-13.86575815 1.75838033 -12.73527897 1.5497755 -9.375 1.9375 C-8.4675 2.14375 -7.56 2.35 -6.625 2.5625 C-6.625 1.9025 -6.625 1.2425 -6.625 0.5625 C-4.10446405 -0.69776798 -2.7707902 -0.35624445 0 0 Z " fill="#525252" transform="translate(101.625,13.4375)"/>
<path d="M0 0 C2.65936571 8.22681479 -1.65795339 17.52095396 -5 25 C-6.67624889 20.88945335 -5.28658748 17.14961515 -4.1875 13.0625 C-3.91969727 12.00772461 -3.91969727 12.00772461 -3.64648438 10.93164062 C-2.66883135 7.16573528 -1.54831586 3.58004255 0 0 Z " fill="#5D5D5D" transform="translate(8,81)"/>
<path d="M0 0 C0.85658203 0.27263672 0.85658203 0.27263672 1.73046875 0.55078125 C8.74564162 2.72559637 15.83049367 4.41551663 23 6 C23 6.33 23 6.66 23 7 C16.3707072 8.1473776 12.57208001 7.28117042 6.3125 5.125 C5.33925781 4.79757813 4.36601563 4.47015625 3.36328125 4.1328125 C2.19345703 3.57207031 2.19345703 3.57207031 1 3 C0.67 2.01 0.34 1.02 0 0 Z " fill="#606060" transform="translate(80,230)"/>
<path d="M0 0 C0.66 0.33 1.32 0.66 2 1 C-1.45877212 6.86487447 -6.11321868 11.30117181 -11 16 C-11.33 15.01 -11.66 14.02 -12 13 C-9.11729209 7.48525443 -4.76220339 3.90685618 0 0 Z " fill="#3E3E3E" transform="translate(46,29)"/>
<path d="M0 0 C0.33 0.99 0.66 1.98 1 3 C-0.15234375 4.76171875 -0.15234375 4.76171875 -1.9375 6.6875 C-2.576875 7.38230469 -3.21625 8.07710937 -3.875 8.79296875 C-7.20032142 12.24665736 -10.57003442 15.65021544 -14 19 C-14.33 18.01 -14.66 17.02 -15 16 C-14.34 16 -13.68 16 -13 16 C-12.7525 15.38125 -12.505 14.7625 -12.25 14.125 C-11 12 -11 12 -9 11.0625 C-6.74387165 10.13991505 -6.74387165 10.13991505 -6 7.5 C-4.78780741 4.46951852 -3.86378868 4.29332392 -1 3 C-0.67 2.01 -0.34 1.02 0 0 Z " fill="#4E4E4E" transform="translate(218,200)"/>
<path d="M0 0 C12.87 0 25.74 0 39 0 C39 0.33 39 0.66 39 1 C31.93860666 2.08473379 24.94349863 2.45059299 17.8125 2.75 C16.54212891 2.81832031 15.27175781 2.88664063 13.96289062 2.95703125 C12.74408203 3.00730469 11.52527344 3.05757812 10.26953125 3.109375 C8.60821167 3.18623535 8.60821167 3.18623535 6.91333008 3.26464844 C4 3 4 3 0 0 Z " fill="#B2B2B2" transform="translate(104,237)"/>
<path d="M0 0 C0.33 1.32 0.66 2.64 1 4 C-0.98 4.99 -0.98 4.99 -3 6 C-3 6.99 -3 7.98 -3 9 C-4.609375 10.46484375 -4.609375 10.46484375 -6.75 11.9375 C-9.78272376 14.09374508 -12.46510479 16.25386352 -15 19 C-15.66 18.67 -16.32 18.34 -17 18 C-16.10796875 17.11957031 -15.2159375 16.23914063 -14.296875 15.33203125 C-13.11444899 14.15898957 -11.93216481 12.98580491 -10.75 11.8125 C-9.87021484 10.9452832 -9.87021484 10.9452832 -8.97265625 10.06054688 C-5.75018163 6.85617604 -2.75826734 3.62534642 0 0 Z " fill="#777777" transform="translate(213,193)"/>
<path d="M0 0 C0.99 0.33 1.98 0.66 3 1 C-9.48519362 10.59453303 -9.48519362 10.59453303 -16 14 C-16.33 13.34 -16.66 12.68 -17 12 C-16.01 12 -15.02 12 -14 12 C-13.76152344 11.40703125 -13.52304688 10.8140625 -13.27734375 10.203125 C-11.72989801 7.53413602 -10.13804513 6.42473871 -7.5625 4.75 C-6.78003906 4.22921875 -5.99757812 3.7084375 -5.19140625 3.171875 C-3 2 -3 2 0 2 C0 1.34 0 0.68 0 0 Z " fill="#676767" transform="translate(162,144)"/>
<path d="M0 0 C0.99 0 1.98 0 3 0 C0.93145788 6.95782348 -1.9682292 13.9523438 -6 20 C-6.46950638 13.42691063 -5.25232964 9.65003251 -2 4 C-1.32590542 2.67040656 -0.65717702 1.33803609 0 0 Z " fill="#747474" transform="translate(22,70)"/>
<path d="M0 0 C0.66 0.33 1.32 0.66 2 1 C2 1.66 2 2.32 2 3 C0.34614767 4.34919532 -1.321702 5.68133728 -3 7 C-3.99 8.485 -3.99 8.485 -5 10 C-5.66 10 -6.32 10 -7 10 C-7.268125 10.598125 -7.53625 11.19625 -7.8125 11.8125 C-8.98493467 13.97224808 -10.19369282 15.35790256 -12 17 C-11.4739075 13.21213403 -10.61896089 10.82847776 -8 8 C-7.34 8 -6.68 8 -6 8 C-5.67 7.01 -5.34 6.02 -5 5 C-4.01 5 -3.02 5 -2 5 C-1.855625 4.360625 -1.71125 3.72125 -1.5625 3.0625 C-1 1 -1 1 0 0 Z " fill="#5D5D5D" transform="translate(44,42)"/>
<path d="M0 0 C2.48291009 3.01802003 3.91340355 5.89683437 5.25 9.5625 C5.60578125 10.51253906 5.9615625 11.46257812 6.328125 12.44140625 C7 15 7 15 6 18 C6 17.34 6 16.68 6 16 C5.34 16 4.68 16 4 16 C3.87625 15.21625 3.7525 14.4325 3.625 13.625 C3.20882007 10.85942178 3.20882007 10.85942178 1 9 C-0.1875 5.5 -0.1875 5.5 -1 2 C-0.67 1.34 -0.34 0.68 0 0 Z " fill="#505050" transform="translate(234,74)"/>
<path d="M0 0 C0.55429687 0.23074219 1.10859375 0.46148438 1.6796875 0.69921875 C0.92042969 1.24191406 0.16117188 1.78460938 -0.62109375 2.34375 C-1.61496094 3.05917969 -2.60882813 3.77460937 -3.6328125 4.51171875 C-4.61894531 5.21941406 -5.60507812 5.92710938 -6.62109375 6.65625 C-8.72088437 8.24552712 -10.54066219 9.77379504 -12.3203125 11.69921875 C-12.9803125 11.36921875 -13.6403125 11.03921875 -14.3203125 10.69921875 C-12.82838496 6.9191102 -10.73472057 5.20492176 -7.4453125 2.88671875 C-6.14980469 1.94892578 -6.14980469 1.94892578 -4.828125 0.9921875 C-2.3203125 -0.30078125 -2.3203125 -0.30078125 0 0 Z " fill="#535353" transform="translate(61.3203125,30.30078125)"/>
<path d="M0 0 C0.66 0.33 1.32 0.66 2 1 C-1.53241244 5.74667922 -5.39688195 9.76098066 -11 12 C-13.12280273 11.54907227 -13.12280273 11.54907227 -15 11 C-13.50146484 9.93458984 -13.50146484 9.93458984 -11.97265625 8.84765625 C-10.66923542 7.91932055 -9.36585193 6.99093243 -8.0625 6.0625 C-7.40314453 5.59392578 -6.74378906 5.12535156 -6.06445312 4.64257812 C-2.89795165 2.48544482 -2.89795165 2.48544482 0 0 Z " fill="#727272" transform="translate(194,212)"/>
<path d="M0 0 C6.90584443 0.17225462 10.67483383 1.58124509 16 6 C15.34 6.66 14.68 7.32 14 8 C14 7.34 14 6.68 14 6 C13.01 6 12.02 6 11 6 C11 5.34 11 4.68 11 4 C7.7 3.67 4.4 3.34 1 3 C0.67 2.01 0.34 1.02 0 0 Z " fill="#5D5D5D" transform="translate(90,58)"/>
<path d="M0 0 C0 0.66 0 1.32 0 2 C0.721875 1.79375 1.44375 1.5875 2.1875 1.375 C6.13657245 0.84845701 8.53760872 2.26880436 12 4 C12 4.66 12 5.32 12 6 C5.73 4.68 -0.54 3.36 -7 2 C-7 1.67 -7 1.34 -7 1 C-2.25 0 -2.25 0 0 0 Z " fill="#686868" transform="translate(147,13)"/>
<path d="M0 0 C0.99 0 1.98 0 3 0 C1.55797524 4.15151338 -0.5010438 7.29978445 -3.125 10.8125 C-4.21167969 12.27623047 -4.21167969 12.27623047 -5.3203125 13.76953125 C-5.87460938 14.50558594 -6.42890625 15.24164063 -7 16 C-7.33 15.01 -7.66 14.02 -8 13 C-7.34 12.01 -6.68 11.02 -6 10 C-5.34 10 -4.68 10 -4 10 C-3.67 8.35 -3.34 6.7 -3 5 C-2.01 4.67 -1.02 4.34 0 4 C0 2.68 0 1.36 0 0 Z " fill="#676767" transform="translate(227,186)"/>
<path d="M0 0 C-0.66 0 -1.32 0 -2 0 C-2 0.66 -2 1.32 -2 2 C-2.845625 2.12375 -3.69125 2.2475 -4.5625 2.375 C-8.83824315 3.15240784 -13.09433958 4.04716979 -17 6 C-19.125 5.0625 -19.125 5.0625 -21 4 C-20.02417969 3.72285156 -19.04835937 3.44570312 -18.04296875 3.16015625 C-16.75780249 2.794306 -15.47264679 2.42841864 -14.1875 2.0625 C-12.92292969 1.70285156 -11.65835938 1.34320313 -10.35546875 0.97265625 C-3.38061798 -1.0491573 -3.38061798 -1.0491573 0 0 Z " fill="#777777" transform="translate(165,232)"/>
<path d="M0 0 C0 0.66 0 1.32 0 2 C-1.051875 2.268125 -2.10375 2.53625 -3.1875 2.8125 C-6.9461743 3.81183586 -6.9461743 3.81183586 -9.75 5.6875 C-10.4925 6.120625 -11.235 6.55375 -12 7 C-12.99 6.67 -13.98 6.34 -15 6 C-13.73168307 5.18357746 -12.46024069 4.37200895 -11.1875 3.5625 C-10.47980469 3.11003906 -9.77210937 2.65757813 -9.04296875 2.19140625 C-5.80372288 0.30236229 -3.80139296 0 0 0 Z " fill="#575757" transform="translate(75,14)"/>
<path d="M0 0 C0.33 0.66 0.66 1.32 1 2 C2.423125 1.9690625 2.423125 1.9690625 3.875 1.9375 C7.57716581 2.01154332 9.74196211 3.37098106 13 5 C13 5.66 13 6.32 13 7 C7.23955788 6.39363767 2.27985631 4.24341721 -3 2 C-2.01 1.34 -1.02 0.68 0 0 Z " fill="#656565" transform="translate(74,236)"/>
<path d="M0 0 C-5.445 3.96 -5.445 3.96 -11 8 C-11.33 7.01 -11.66 6.02 -12 5 C-10.76265016 3.96386967 -9.50955363 2.94652198 -8.25 1.9375 C-7.55390625 1.36902344 -6.8578125 0.80054688 -6.140625 0.21484375 C-4 -1 -4 -1 0 0 Z " fill="#5D5D5D" transform="translate(146,159)"/>
<path d="M0 0 C2.67576692 1.00617682 3.7785108 1.54214546 5.046875 4.1640625 C5.27890625 4.97617188 5.5109375 5.78828125 5.75 6.625 C5.99234375 7.44226563 6.2346875 8.25953125 6.484375 9.1015625 C6.73960937 10.04128906 6.73960937 10.04128906 7 11 C6.34 11.66 5.68 12.32 5 13 C4.16209211 11.21046815 3.32980604 9.41830305 2.5 7.625 C1.80390625 6.12839844 1.80390625 6.12839844 1.09375 4.6015625 C0 2 0 2 0 0 Z " fill="#4E4E4E" transform="translate(223,73)"/>
<path d="M0 0 C3.03852705 1.40976705 5.5939595 3.08870228 8.25 5.125 C8.95640625 5.66382813 9.6628125 6.20265625 10.390625 6.7578125 C10.92171875 7.16773438 11.4528125 7.57765625 12 8 C10 9 10 9 8.125 8.3984375 C2.3318223 5.60834089 2.3318223 5.60834089 0.5 2.25 C0.335 1.5075 0.17 0.765 0 0 Z " fill="#6B6B6B" transform="translate(50,212)"/>
<path d="M0 0 C5.19209404 -0.21192221 9.126739 0.4087311 14 2 C11.23184713 3.96077495 9.15014529 4.1221501 5.875 3.8125 C2 3 2 3 0 0 Z " fill="#656565" transform="translate(143,5)"/>
<path d="M0 0 C3.63 1.98 7.26 3.96 11 6 C10.01 6.66 9.02 7.32 8 8 C5.03 6.02 2.06 4.04 -1 2 C-0.67 1.34 -0.34 0.68 0 0 Z " fill="#4A4A4A" transform="translate(51,223)"/>
<path d="M0 0 C5.01791571 2.36957131 6.69517696 5.1244128 9 10 C8.67 10.66 8.34 11.32 8 12 C6.66081194 10.37982158 5.3288031 8.75370657 4 7.125 C3.2575 6.22007812 2.515 5.31515625 1.75 4.3828125 C0 2 0 2 0 0 Z " fill="#636363" transform="translate(22,195)"/>
<path d="M0 0 C0.66 0.66 1.32 1.32 2 2 C-0.97 6.95 -0.97 6.95 -4 12 C-4.66 11.01 -5.32 10.02 -6 9 C-4.7260411 6.96166576 -3.38938077 4.96147874 -2 3 C-1.34 3 -0.68 3 0 3 C0 2.01 0 1.02 0 0 Z " fill="#626262" transform="translate(30,58)"/>
<path d="M0 0 C2.52394612 3.12488567 4.39701907 6.31314387 6 10 C5.67 10.66 5.34 11.32 5 12 C4.34 12 3.68 12 3 12 C1.26184996 8.77200707 -0.00246808 5.52972833 -1 2 C-0.67 1.34 -0.34 0.68 0 0 Z " fill="#5F5F5F" transform="translate(19,170)"/>
<path d="M0 0 C0.33 0 0.66 0 1 0 C1.21192221 5.19209404 0.5912689 9.126739 -1 14 C-2.80411967 11.24075815 -3.0127245 10.11027897 -2.625 6.75 C-2.41875 5.8425 -2.2125 4.935 -2 4 C-1.34 4 -0.68 4 0 4 C0 2.68 0 1.36 0 0 Z " fill="#6D6D6D" transform="translate(243,145)"/>
<path d="M0 0 C3.16470185 4.74705277 3.10927475 8.31771295 3 14 C2.67 12.68 2.34 11.36 2 10 C1.34 10 0.68 10 0 10 C-0.74926071 6.33694766 -1.2380014 3.57644848 0 0 Z " fill="#686868" transform="translate(241,93)"/>
<path d="M0 0 C1.8125 0.125 1.8125 0.125 4 1 C5.6875 3.9375 5.6875 3.9375 7 7 C7.33 7.66 7.66 8.32 8 9 C7.34 9.66 6.68 10.32 6 11 C4.9944239 9.54550599 3.99569565 8.08627557 3 6.625 C2.443125 5.81289062 1.88625 5.00078125 1.3125 4.1640625 C0 2 0 2 0 0 Z " fill="#616161" transform="translate(216,62)"/>
<path d="M0 0 C0 3.31934673 -0.43709146 4.02487607 -2.3125 6.625 C-2.95638672 7.54152344 -2.95638672 7.54152344 -3.61328125 8.4765625 C-5 10 -5 10 -8 11 C-6.60366572 6.55711819 -4.39598172 4.13475236 -1 1 C-0.67 0.67 -0.34 0.34 0 0 Z " fill="#4A4A4A" transform="translate(26,52)"/>
<path d="M0 0 C3.73884332 2.65654657 5.64978174 4.58110387 7 9 C4.37098712 7.47793991 2.15634036 6.15634036 0 4 C0 2.68 0 1.36 0 0 Z " fill="#666666" transform="translate(216,46)"/>
<path d="M0 0 C3.81684226 1.55500981 6.19195732 4.03595495 9 7 C8.67 7.66 8.34 8.32 8 9 C4.83884224 7.63016497 4.0072908 7.0109362 2 4 C1.34 3.67 0.68 3.34 0 3 C0 2.01 0 1.02 0 0 Z " fill="#777777" transform="translate(206,36)"/>
<path d="M0 0 C1.22589844 0.15275391 1.22589844 0.15275391 2.4765625 0.30859375 C3.41628906 0.43427734 3.41628906 0.43427734 4.375 0.5625 C4.375 0.8925 4.375 1.2225 4.375 1.5625 C0.415 2.2225 -3.545 2.8825 -7.625 3.5625 C-7.295 2.5725 -6.965 1.5825 -6.625 0.5625 C-4.10446405 -0.69776798 -2.7707902 -0.35624445 0 0 Z " fill="#686868" transform="translate(101.625,13.4375)"/>
<path d="M0 0 C0.928125 0.20625 1.85625 0.4125 2.8125 0.625 C-0.34990582 2.73327055 -1.69407469 2.96317465 -5.375 3.25 C-6.72658203 3.36214844 -6.72658203 3.36214844 -8.10546875 3.4765625 C-9.13607422 3.55003906 -9.13607422 3.55003906 -10.1875 3.625 C-9.2903125 3.191875 -9.2903125 3.191875 -8.375 2.75 C-2.46409574 -0.28989362 -2.46409574 -0.28989362 0 0 Z " fill="#6C6C6C" transform="translate(156.1875,242.375)"/>
<path d="M0 0 C3.5786304 1.65167557 6.74820188 3.78286492 10 6 C8.375 6.8125 8.375 6.8125 6 7 C2.75 4.6875 2.75 4.6875 0 2 C0 1.34 0 0.68 0 0 Z " fill="#595959" transform="translate(142,91)"/>
<path d="M0 0 C0.66 0.33 1.32 0.66 2 1 C0 3 0 3 -2 3.9375 C-4.32131409 4.96786859 -4.32131409 4.96786859 -6 8 C-7.32 7.67 -8.64 7.34 -10 7 C-6.7 4.69 -3.4 2.38 0 0 Z " fill="#626262" transform="translate(58,21)"/>
<path d="M0 0 C4.43458973 1.3937282 6.87378374 3.60582235 10 7 C7.03 6.505 7.03 6.505 4 6 C4 5.01 4 4.02 4 3 C3.01 3 2.02 3 1 3 C0.67 2.01 0.34 1.02 0 0 Z " fill="#787878" transform="translate(127,80)"/>
<path d="M0 0 C0.99 0.66 1.98 1.32 3 2 C1.54735962 2.8638129 0.0876837 3.71580454 -1.375 4.5625 C-2.59316406 5.27599609 -2.59316406 5.27599609 -3.8359375 6.00390625 C-4.55007812 6.33261719 -5.26421875 6.66132813 -6 7 C-6.66 6.67 -7.32 6.34 -8 6 C-7.67 5.34 -7.34 4.68 -7 4 C-6.01 4 -5.02 4 -4 4 C-4 3.34 -4 2.68 -4 2 C-2.68 1.34 -1.36 0.68 0 0 Z " fill="#626262" transform="translate(71,23)"/>
<path d="M0 0 C-2.52788007 2.79872437 -4.20411134 4.45773019 -8 5 C-8 4.01 -8 3.02 -8 2 C-3.71900826 -1.23966942 -3.71900826 -1.23966942 0 0 Z " fill="#585858" transform="translate(189,229)"/>
<path d="M0 0 C2.5 1.3125 2.5 1.3125 5 3 C5 3.99 5 4.98 5 6 C5.99 6 6.98 6 8 6 C8 6.66 8 7.32 8 8 C4.11137013 6.73882275 2.10624401 5.54735833 0 2 C0 1.34 0 0.68 0 0 Z " fill="#646464" transform="translate(80,184)"/>
<path d="M0 0 C2.39073445 3.82517513 2.55966552 7.59665524 3 12 C2.67 11.34 2.34 10.68 2 10 C1.34 10 0.68 10 0 10 C-0.95024979 6.30458414 -0.95024979 3.69541586 0 0 Z " fill="#737373" transform="translate(12,147)"/>
<path d="M0 0 C0.33 0.99 0.66 1.98 1 3 C-1.31 4.65 -3.62 6.3 -6 8 C-6.66 7.34 -7.32 6.68 -8 6 C-7.01 6 -6.02 6 -5 6 C-4.731875 5.38125 -4.46375 4.7625 -4.1875 4.125 C-3 2 -3 2 0 0 Z " fill="#4F4F4F" transform="translate(153,150)"/>
<path d="M0 0 C1.31223496 3.93670488 0.24296256 6.12488144 -1 10 C-3 7 -3 7 -2.75 3.875 C-2.37875 2.451875 -2.37875 2.451875 -2 1 C-1.34 0.67 -0.68 0.34 0 0 Z " fill="#6A6A6A" transform="translate(15,90)"/>
<path d="M0 0 C0.33 0 0.66 0 1 0 C0.88541307 1.43836751 0.75790884 2.87570966 0.625 4.3125 C0.55539063 5.11300781 0.48578125 5.91351563 0.4140625 6.73828125 C0 9 0 9 -2 12 C-2.28571429 3.42857143 -2.28571429 3.42857143 0 0 Z " fill="#4E4E4E" transform="translate(18,78)"/>
<path d="M0 0 C0.66 0 1.32 0 2 0 C0.68775452 3.93673644 -0.91910327 6.22719294 -4 9 C-3.4739075 5.21213403 -2.61896089 2.82847776 0 0 Z " fill="#494949" transform="translate(36,50)"/>
<path d="M0 0 C-3 2 -3 2 -7 2 C-7 2.66 -7 3.32 -7 4 C-9.97 3.505 -9.97 3.505 -13 3 C-8.54370064 0.02913376 -5.32064558 -0.12092376 0 0 Z " fill="#898989" transform="translate(102,5)"/>
<path d="M0 0 C0.8125 1.6875 0.8125 1.6875 1 4 C-1.4375 6.75 -1.4375 6.75 -4 9 C-4 5.00095031 -2.27413033 3.19799578 0 0 Z " fill="#676767" transform="translate(219,184)"/>
<path d="M0 0 C0.99 0 1.98 0 3 0 C2.67 3.3 2.34 6.6 2 10 C1.67 10 1.34 10 1 10 C0.67 6.7 0.34 3.4 0 0 Z " fill="#5F5F5F" transform="translate(1,140)"/>
<path d="M0 0 C0.33 0.66 0.66 1.32 1 2 C0.0625 4.125 0.0625 4.125 -1 6 C-1.66 6 -2.32 6 -3 6 C-3 6.66 -3 7.32 -3 8 C-3.66 7.67 -4.32 7.34 -5 7 C-3.70700306 4.11562221 -2.34058637 2.12780579 0 0 Z " fill="#6B6B6B" transform="translate(180,129)"/>
<path d="M0 0 C0 0.66 0 1.32 0 2 C0.66 2.33 1.32 2.66 2 3 C0.741875 2.87625 -0.51625 2.7525 -1.8125 2.625 C-2.87404297 2.52058594 -2.87404297 2.52058594 -3.95703125 2.4140625 C-6 2 -6 2 -9 0 C-5.67465243 -1.10844919 -3.37817425 -0.84454356 0 0 Z " fill="#7E7E7E" transform="translate(96,243)"/>
<path d="M0 0 C7.42857143 -0.28571429 7.42857143 -0.28571429 11 2 C3.57142857 3.28571429 3.57142857 3.28571429 0 2 C0 1.34 0 0.68 0 0 Z " fill="#676767" transform="translate(92,235)"/>
<path d="M0 0 C1.32 0.33 2.64 0.66 4 1 C1.69 2.65 -0.62 4.3 -3 6 C-3.66 5.67 -4.32 5.34 -5 5 C-4.67 4.34 -4.34 3.68 -4 3 C-3.01 3 -2.02 3 -1 3 C-0.67 2.01 -0.34 1.02 0 0 Z " fill="#636363" transform="translate(103,186)"/>
<path d="M0 0 C2.64 0 5.28 0 8 0 C8 0.99 8 1.98 8 3 C4.62537285 2.45276317 2.91765 1.9451 0 0 Z " fill="#7C7C7C" transform="translate(104,237)"/>
<path d="M0 0 C1.98 1.65 3.96 3.3 6 5 C4.125 5.625 4.125 5.625 2 6 C1.34 5.34 0.68 4.68 0 4 C0 2.68 0 1.36 0 0 Z " fill="#666666" transform="translate(41,203)"/>
<path d="M0 0 C2 2 2 2 2.125 5.625 C2.08375 6.73875 2.0425 7.8525 2 9 C1.67 8.01 1.34 7.02 1 6 C0.34 6 -0.32 6 -1 6 C-1.042721 4.33388095 -1.04063832 2.66617115 -1 1 C-0.67 0.67 -0.34 0.34 0 0 Z " fill="#6E6E6E" transform="translate(10,137)"/>
<path d="M0 0 C6.875 3.75 6.875 3.75 8 6 C5.69 5.34 3.38 4.68 1 4 C0.67 2.68 0.34 1.36 0 0 Z " fill="#676767" transform="translate(169,110)"/>
<path d="M0 0 C4.67692308 1.47692308 4.67692308 1.47692308 6.3125 4.125 C6.539375 4.74375 6.76625 5.3625 7 6 C6.01 6 5.02 6 4 6 C1.8125 3 1.8125 3 0 0 Z " fill="#5C5C5C" transform="translate(209,53)"/>
<path d="M0 0 C3.65316671 1.24976756 4.78065836 1.67098753 7 5 C6.34 5.66 5.68 6.32 5 7 C3.35 4.69 1.7 2.38 0 0 Z " fill="#626262" transform="translate(203,46)"/>
<path d="M0 0 C3.3 0.33 6.6 0.66 10 1 C6.23312136 2.88343932 4.97041037 3.22057835 1 3 C0.67 2.01 0.34 1.02 0 0 Z " fill="#727272" transform="translate(136,245)"/>
<path d="M0 0 C0.33 0.66 0.66 1.32 1 2 C-2.3 1.67 -5.6 1.34 -9 1 C-9 0.67 -9 0.34 -9 0 C-5.67032582 -0.83241855 -3.24733335 -1.2757381 0 0 Z " fill="#7C7C7C" transform="translate(109,246)"/>
<path d="M0 0 C-3.8503105 2.56687367 -5.58569763 1.83288724 -10 1 C-6.1496895 -1.56687367 -4.41430237 -0.83288724 0 0 Z " fill="#797979" transform="translate(98,192)"/>
<path d="M0 0 C2.76223278 2.76223278 2.57856291 5.20706617 3 9 C2.67 8.34 2.34 7.68 2 7 C1.34 7 0.68 7 0 7 C-0.93423645 3.98968256 -1.04449911 3.13349732 0 0 Z " fill="#777777" transform="translate(238,83)"/>
<path d="M0 0 C2.88437779 1.29299694 4.87219421 2.65941363 7 5 C5.68 5 4.36 5 3 5 C1.25 2.5 1.25 2.5 0 0 Z " fill="#5E5E5E" transform="translate(120,75)"/>
<path d="M0 0 C3.465 1.98 3.465 1.98 7 4 C7 4.33 7 4.66 7 5 C4.625 5.125 4.625 5.125 2 5 C1.34 4.34 0.68 3.68 0 3 C0 2.01 0 1.02 0 0 Z " fill="#616161" transform="translate(108,66)"/>
<path d="M0 0 C1.32 0.33 2.64 0.66 4 1 C3.34 1 2.68 1 2 1 C1.67 1.99 1.34 2.98 1 4 C-0.65 4.33 -2.3 4.66 -4 5 C-2.68 3.35 -1.36 1.7 0 0 Z " fill="#6B6B6B" transform="translate(86,59)"/>
</svg>
