<svg width="18" height="19" viewBox="0 0 18 19" fill="none" xmlns="http://www.w3.org/2000/svg">
<path d="M17 17.5L13.1396 13.6396M13.1396 13.6396C13.7999 12.9793 14.3237 12.1953 14.6811 11.3326C15.0385 10.4698 15.2224 9.54507 15.2224 8.61121C15.2224 7.67735 15.0385 6.75264 14.6811 5.88987C14.3237 5.0271 13.7999 4.24316 13.1396 3.58283C12.4793 2.92249 11.6953 2.39868 10.8326 2.04131C9.96978 1.68394 9.04507 1.5 8.11121 1.5C7.17735 1.5 6.25264 1.68394 5.38987 2.04131C4.5271 2.39868 3.74316 2.92249 3.08283 3.58283C1.74921 4.91644 1 6.7252 1 8.61121C1 10.4972 1.74921 12.306 3.08283 13.6396C4.41644 14.9732 6.2252 15.7224 8.11121 15.7224C9.99722 15.7224 11.806 14.9732 13.1396 13.6396Z" stroke="white" stroke-width="1.5" stroke-linecap="round" stroke-linejoin="round"/>
</svg>
