<svg width="18" height="17" viewBox="0 0 18 17" fill="none" xmlns="http://www.w3.org/2000/svg">
<path d="M17 16.5L13.1396 12.6396M13.1396 12.6396C13.7999 11.9793 14.3237 11.1953 14.6811 10.3326C15.0385 9.46978 15.2224 8.54507 15.2224 7.61121C15.2224 6.67735 15.0385 5.75264 14.6811 4.88987C14.3237 4.0271 13.7999 3.24316 13.1396 2.58283C12.4793 1.92249 11.6953 1.39868 10.8326 1.04131C9.96978 0.683937 9.04507 0.5 8.11121 0.5C7.17735 0.5 6.25264 0.683937 5.38987 1.04131C4.5271 1.39868 3.74316 1.92249 3.08283 2.58283C1.74921 3.91644 1 5.7252 1 7.61121C1 9.49722 1.74921 11.306 3.08283 12.6396C4.41644 13.9732 6.2252 14.7224 8.11121 14.7224C9.99722 14.7224 11.806 13.9732 13.1396 12.6396Z" stroke="#292929" stroke-linecap="round" stroke-linejoin="round"/>
</svg>
