<svg width="24" height="25" viewBox="0 0 24 25" fill="none" xmlns="http://www.w3.org/2000/svg">
<path d="M20 20.5L16.1396 16.6396M16.1396 16.6396C16.7999 15.9793 17.3237 15.1953 17.6811 14.3326C18.0385 13.4698 18.2224 12.5451 18.2224 11.6112C18.2224 10.6774 18.0385 9.75264 17.6811 8.88987C17.3237 8.0271 16.7999 7.24316 16.1396 6.58283C15.4793 5.92249 14.6953 5.39868 13.8326 5.04131C12.9698 4.68394 12.0451 4.5 11.1112 4.5C10.1774 4.5 9.25264 4.68394 8.38987 5.04131C7.5271 5.39868 6.74316 5.92249 6.08283 6.58283C4.74921 7.91644 4 9.7252 4 11.6112C4 13.4972 4.74921 15.306 6.08283 16.6396C7.41644 17.9732 9.2252 18.7224 11.1112 18.7224C12.9972 18.7224 14.806 17.9732 16.1396 16.6396Z" stroke="#292929" stroke-linecap="round" stroke-linejoin="round"/>
</svg>
