<svg width="10" height="8" viewBox="0 0 10 8" fill="none" xmlns="http://www.w3.org/2000/svg">
<path d="M9.18173 4.35349C9.27547 4.25972 9.32812 4.13257 9.32812 3.99999C9.32812 3.86741 9.27547 3.74025 9.18173 3.64649L6.35323 0.817988C6.30711 0.770233 6.25194 0.732142 6.19093 0.705938C6.12993 0.679733 6.06432 0.66594 5.99793 0.665363C5.93154 0.664786 5.8657 0.677437 5.80425 0.702578C5.74281 0.727718 5.68698 0.764845 5.64003 0.811791C5.59309 0.858737 5.55596 0.914563 5.53082 0.976011C5.50568 1.03746 5.49303 1.1033 5.49361 1.16969C5.49418 1.23608 5.50798 1.30169 5.53418 1.36269C5.56039 1.42369 5.59848 1.47887 5.64623 1.52499L7.62123 3.49999L0.999733 3.49999C0.867124 3.49999 0.739947 3.55267 0.646179 3.64644C0.552411 3.7402 0.499733 3.86738 0.499733 3.99999C0.499733 4.1326 0.552411 4.25977 0.646179 4.35354C0.739947 4.44731 0.867124 4.49999 0.999733 4.49999H7.62123L5.64623 6.47499C5.55515 6.56929 5.50476 6.69559 5.5059 6.82669C5.50703 6.95779 5.55962 7.08319 5.65232 7.1759C5.74503 7.2686 5.87043 7.32119 6.00153 7.32233C6.13263 7.32347 6.25893 7.27307 6.35323 7.18199L9.18173 4.35349Z" fill="#243C6C"/>
</svg>
