<svg width="8" height="10" viewBox="0 0 8 10" fill="none" xmlns="http://www.w3.org/2000/svg">
<path d="M3.64633 9.18222C3.74009 9.27596 3.86725 9.32861 3.99983 9.32861C4.13241 9.32861 4.25956 9.27596 4.35333 9.18222L7.18183 6.35372C7.22958 6.3076 7.26767 6.25242 7.29388 6.19142C7.32008 6.13042 7.33388 6.06481 7.33445 5.99842C7.33503 5.93203 7.32238 5.86619 7.29724 5.80474C7.2721 5.7433 7.23497 5.68747 7.18803 5.64052C7.14108 5.59358 7.08525 5.55645 7.02381 5.53131C6.96236 5.50617 6.89652 5.49352 6.83013 5.49409C6.76374 5.49467 6.69813 5.50846 6.63713 5.53467C6.57612 5.56087 6.52095 5.59897 6.47483 5.64672L4.49983 7.62172L4.49983 1.00022C4.49983 0.867612 4.44715 0.740435 4.35338 0.646667C4.25961 0.552899 4.13244 0.500221 3.99983 0.500221C3.86722 0.500221 3.74004 0.552899 3.64628 0.646667C3.55251 0.740435 3.49983 0.867612 3.49983 1.00022L3.49983 7.62172L1.52483 5.64672C1.43053 5.55564 1.30423 5.50524 1.17313 5.50638C1.04203 5.50752 0.916623 5.56011 0.823919 5.65281C0.731215 5.74551 0.67863 5.87092 0.677491 6.00202C0.676352 6.13312 0.726749 6.25942 0.817828 6.35372L3.64633 9.18222Z" fill="white"/>
</svg>
