<svg width="10" height="8" viewBox="0 0 10 8" fill="none" xmlns="http://www.w3.org/2000/svg">
<path d="M9.18173 4.35343C9.27547 4.25966 9.32812 4.13251 9.32812 3.99993C9.32812 3.86735 9.27547 3.74019 9.18173 3.64643L6.35323 0.817927C6.30711 0.770172 6.25194 0.732081 6.19093 0.705877C6.12993 0.679672 6.06432 0.665879 5.99793 0.665302C5.93154 0.664725 5.8657 0.677376 5.80425 0.702517C5.74281 0.727657 5.68698 0.764784 5.64003 0.81173C5.59309 0.858676 5.55596 0.914502 5.53082 0.97595C5.50568 1.0374 5.49303 1.10324 5.49361 1.16963C5.49418 1.23602 5.50798 1.30163 5.53418 1.36263C5.56039 1.42363 5.59848 1.4788 5.64623 1.52493L7.62123 3.49993H0.999733C0.867124 3.49993 0.739947 3.55261 0.646179 3.64637C0.552411 3.74014 0.499733 3.86732 0.499733 3.99993C0.499733 4.13254 0.552411 4.25971 0.646179 4.35348C0.739947 4.44725 0.867124 4.49993 0.999733 4.49993H7.62123L5.64623 6.47493C5.55515 6.56923 5.50476 6.69553 5.5059 6.82663C5.50703 6.95773 5.55962 7.08313 5.65232 7.17584C5.74503 7.26854 5.87043 7.32113 6.00153 7.32227C6.13263 7.3234 6.25893 7.27301 6.35323 7.18193L9.18173 4.35343Z" fill="white"/>
</svg>
