<svg width="28" height="28" viewBox="0 0 28 28" fill="none" xmlns="http://www.w3.org/2000/svg">
<rect x="28" width="28" height="28" rx="14" transform="rotate(90 28 0)" fill="#E09235"/>
<path fill-rule="evenodd" clip-rule="evenodd" d="M10.195 10.2072C10.3199 10.0824 10.4893 10.0122 10.6659 10.0122C10.8425 10.0122 11.0118 10.0824 11.1367 10.2072L13.9958 13.0663L16.855 10.2072C16.9164 10.1436 16.9899 10.0929 17.0711 10.058C17.1524 10.0231 17.2398 10.0047 17.3282 10.0039C17.4166 10.0032 17.5043 10.02 17.5862 10.0535C17.668 10.087 17.7424 10.1364 17.8049 10.199C17.8675 10.2615 17.9169 10.3359 17.9504 10.4177C17.9839 10.4996 18.0007 10.5873 18 10.6757C17.9992 10.7641 17.9808 10.8515 17.9459 10.9328C17.911 11.014 17.8603 11.0875 17.7967 11.1489L14.9376 14.0081L17.7967 16.8672C17.918 16.9928 17.9851 17.161 17.9836 17.3357C17.9821 17.5103 17.912 17.6773 17.7886 17.8008C17.6651 17.9243 17.498 17.9943 17.3234 17.9958C17.1488 17.9974 16.9806 17.9302 16.855 17.8089L13.9958 14.9498L11.1367 17.8089C11.0111 17.9302 10.8429 17.9974 10.6683 17.9958C10.4936 17.9943 10.3266 17.9243 10.2031 17.8008C10.0796 17.6773 10.0096 17.5103 10.0081 17.3357C10.0065 17.161 10.0737 16.9928 10.195 16.8672L13.0541 14.0081L10.195 11.1489C10.0701 11.0241 10 10.8547 10 10.6781C10 10.5015 10.0701 10.3321 10.195 10.2072Z" fill="white"/>
</svg>
