<svg width="28" height="28" viewBox="0 0 28 28" fill="none" xmlns="http://www.w3.org/2000/svg">
<rect x="28" width="28" height="28" rx="14" transform="rotate(90 28 0)" fill="white"/>
<path fill-rule="evenodd" clip-rule="evenodd" d="M10.195 10.2073C10.3199 10.0825 10.4893 10.0124 10.6659 10.0124C10.8425 10.0124 11.0118 10.0825 11.1367 10.2073L13.9958 13.0665L16.855 10.2073C16.9164 10.1437 16.9899 10.093 17.0711 10.0581C17.1524 10.0232 17.2398 10.0048 17.3282 10.0041C17.4166 10.0033 17.5043 10.0201 17.5862 10.0536C17.668 10.0871 17.7424 10.1366 17.8049 10.1991C17.8675 10.2616 17.9169 10.336 17.9504 10.4178C17.9839 10.4997 18.0007 10.5874 18 10.6758C17.9992 10.7642 17.9808 10.8516 17.9459 10.9329C17.911 11.0141 17.8603 11.0876 17.7967 11.1491L14.9376 14.0082L17.7967 16.8673C17.918 16.9929 17.9851 17.1612 17.9836 17.3358C17.9821 17.5104 17.912 17.6774 17.7886 17.8009C17.6651 17.9244 17.498 17.9944 17.3234 17.996C17.1488 17.9975 16.9806 17.9303 16.855 17.809L13.9958 14.9499L11.1367 17.809C11.0111 17.9303 10.8429 17.9975 10.6683 17.996C10.4936 17.9944 10.3266 17.9244 10.2031 17.8009C10.0796 17.6774 10.0096 17.5104 10.0081 17.3358C10.0065 17.1612 10.0737 16.9929 10.195 16.8673L13.0541 14.0082L10.195 11.1491C10.0701 11.0242 10 10.8548 10 10.6782C10 10.5016 10.0701 10.3322 10.195 10.2073Z" fill="#243C6C"/>
</svg>
