<svg width="16" height="17" viewBox="0 0 16 17" fill="none" xmlns="http://www.w3.org/2000/svg">
<path d="M2.34367 14.156C1.57959 13.4181 0.970134 12.5353 0.550862 11.5593C0.13159 10.5832 -0.0891002 9.53348 -0.0983308 8.47125C-0.107561 7.40901 0.0948523 6.35558 0.497099 5.37241C0.899347 4.38924 1.49337 3.49602 2.24451 2.74488C2.99565 1.99374 3.88887 1.39971 4.87204 0.997466C5.85521 0.595219 6.90865 0.392805 7.97088 0.402035C9.03312 0.411266 10.0829 0.631956 11.0589 1.05123C12.0349 1.4705 12.9177 2.07996 13.6557 2.84404C15.1129 4.35286 15.9193 6.37367 15.9011 8.47125C15.8828 10.5688 15.0415 12.5753 13.5582 14.0586C12.075 15.5419 10.0685 16.3832 7.97088 16.4014C5.87331 16.4197 3.85249 15.6133 2.34367 14.156ZM9.11967 8.50004L11.3837 6.23604L10.2557 5.10804L7.99967 7.37204L5.73567 5.10804L4.60767 6.23604L6.87167 8.50004L4.60767 10.764L5.73567 11.892L7.99967 9.62804L10.2637 11.892L11.3917 10.764L9.12767 8.50004H9.11967Z" fill="#292929" fill-opacity="0.3"/>
</svg>
