<svg width="48" height="48" viewBox="0 0 48 48" fill="none" xmlns="http://www.w3.org/2000/svg">
<path d="M41.3328 20.8439C41.8972 21.1547 42.3679 21.6112 42.6957 22.1659C43.0235 22.7207 43.1965 23.3532 43.1965 23.9975C43.1965 24.6418 43.0235 25.2744 42.6957 25.8291C42.3679 26.3838 41.8972 26.8403 41.3328 27.1511L17.3328 40.3463C16.7846 40.6474 16.1674 40.8004 15.542 40.7903C14.9167 40.7802 14.3047 40.6074 13.7665 40.2889C13.2283 39.9704 12.7823 39.5171 12.4725 38.9737C12.1628 38.4304 11.9999 37.8157 12 37.1903V10.8047C12.0001 10.1791 12.1632 9.56438 12.4733 9.02105C12.7833 8.47772 13.2296 8.02456 13.7682 7.70624C14.3067 7.38792 14.9189 7.21542 15.5444 7.20575C16.1699 7.19608 16.7871 7.34958 17.3352 7.65111L41.3328 20.8439Z" fill="#E09235"/>
</svg>
