<svg width="40" height="50" viewBox="0 0 40 50" fill="none" xmlns="http://www.w3.org/2000/svg">
<path d="M26.4833 0H13.5167C12.5381 0.0576305 11.6208 0.508815 10.9628 1.25614C10.3048 2.00346 9.95901 2.98696 10 3.99429V5.14286H6.66667C4.89856 5.14286 3.20287 5.86531 1.95262 7.15127C0.70238 8.43723 0 10.1814 0 12H40C40 10.1814 39.2976 8.43723 38.0474 7.15127C36.7971 5.86531 35.1014 5.14286 33.3333 5.14286H30V3.99429C30.041 2.98696 29.6952 2.00346 29.0372 1.25614C28.3792 0.508815 27.4619 0.0576305 26.4833 0ZM26.6667 5.14286H13.3333V3.99429C13.3235 3.78877 13.3889 3.58693 13.5167 3.42857H26.45C26.5281 3.49763 26.5887 3.58525 26.6264 3.68383C26.6642 3.78241 26.678 3.88898 26.6667 3.99429V5.14286Z" fill="#292929"/>
<path d="M32.928 48.5109L36 14H4L7.072 48.5109C7.10805 48.9189 7.2924 49.2982 7.58864 49.5739C7.88488 49.8496 8.27146 50.0016 8.672 50H31.344C31.7418 49.9976 32.1244 49.8437 32.4173 49.5684C32.7101 49.2931 32.8922 48.9161 32.928 48.5109ZM18.4 40.1818H12C11.7141 40.1824 11.4333 40.1046 11.1868 39.9566C10.9402 39.8086 10.737 39.5957 10.5981 39.3401C10.4593 39.0846 10.39 38.7956 10.3973 38.5033C10.4047 38.211 10.4885 37.9261 10.64 37.6782L13.648 32.7691L16.368 34.5036L14.896 36.9091H18.4V40.1818ZM18.4 31.2309L15.68 29.4964L18.672 24.5873C18.8132 24.3561 19.0086 24.1647 19.2406 24.0304C19.4725 23.896 19.7335 23.8231 20 23.8182C20.2719 23.8176 20.5395 23.8879 20.7774 24.0225C21.0154 24.1571 21.2159 24.3514 21.36 24.5873L24.368 29.4964L21.6 31.2309L20 28.5473L18.4 31.2309ZM29.424 39.4127C29.2743 39.6582 29.0637 39.8587 28.8135 39.9938C28.5633 40.1289 28.2826 40.1938 28 40.1818H21.6V36.9091H25.12L23.648 34.5036L26.4 32.7691L29.392 37.6782C29.5384 37.9308 29.6157 38.219 29.6157 38.5127C29.6157 38.8064 29.5384 39.0947 29.392 39.3473L29.424 39.4127Z" fill="#292929"/>
</svg>
