<svg width="120" height="120" viewBox="0 0 120 120" fill="none" xmlns="http://www.w3.org/2000/svg">
<g clip-path="url(#clip0_4394_780)">
<path d="M9.91823 60.3846C9.49549 60.3846 9.18207 60.2459 8.97558 60.0394C8.7691 59.8329 8.63037 59.5195 8.63037 59.0968C8.63037 33.2342 27.0516 11.2767 52.1943 7.02692C52.991 6.8944 53.639 7.42334 53.7668 8.06215C53.8243 8.34965 53.7413 8.70794 53.5281 9.02763C53.3164 9.34523 53.0201 9.55891 52.7344 9.61807C28.7192 13.7746 11.2061 34.5418 11.2061 59.0968C11.2061 59.3811 11.0589 59.7073 10.7938 59.9724C10.5288 60.2374 10.2026 60.3846 9.91823 60.3846Z" fill="#292929" stroke="white"/>
<path d="M9.16129 66.8879L9.15956 66.8766L9.15732 66.8654C9.04805 66.3191 9.48756 65.6351 10.3583 65.49C11.1881 65.3517 11.7427 65.9018 11.7427 66.4271V66.4642L11.7482 66.5009C15.3603 90.7018 36.6662 109.12 61.0512 109.12C61.4739 109.12 61.7874 109.259 61.9938 109.466C62.2003 109.672 62.3391 109.986 62.3391 110.408C62.3391 111.173 61.702 111.696 61.0512 111.696C35.3769 111.696 13.0577 92.3915 9.16129 66.8879Z" fill="#292929" stroke="white"/>
<path d="M67.8454 108.584H67.8802L67.9146 108.579C92.4764 105.148 111.075 83.84 111.075 58.9181C111.075 58.4954 111.214 58.1819 111.42 57.9755C111.627 57.769 111.94 57.6302 112.363 57.6302C112.786 57.6302 113.099 57.769 113.306 57.9755C113.512 58.1819 113.651 58.4954 113.651 58.9181C113.651 85.1196 94.1834 107.603 68.3476 111.16H68.3473H68.3462H68.3452H68.3441H68.3431H68.3421H68.341H68.34H68.3389H68.3379H68.3368H68.3358H68.3348H68.3337H68.3327H68.3316H68.3306H68.3296H68.3285H68.3275H68.3265H68.3254H68.3244H68.3234H68.3223H68.3213H68.3203H68.3192H68.3182H68.3172H68.3161H68.3151H68.3141H68.313H68.312H68.311H68.3099H68.3089H68.3079H68.3069H68.3058H68.3048H68.3038H68.3028H68.3017H68.3007H68.2997H68.2987H68.2976H68.2966H68.2956H68.2946H68.2936H68.2925H68.2915H68.2905H68.2895H68.2885H68.2875H68.2864H68.2854H68.2844H68.2834H68.2824H68.2814H68.2804H68.2794H68.2784H68.2774H68.2763H68.2753H68.2743H68.2733H68.2723H68.2713H68.2703H68.2693H68.2683H68.2673H68.2663H68.2653H68.2643H68.2633H68.2623H68.2614H68.2604H68.2594H68.2584H68.2574H68.2564H68.2554H68.2544H68.2534H68.2525H68.2515H68.2505H68.2495H68.2485H68.2475H68.2466H68.2456H68.2446H68.2436H68.2427H68.2417H68.2407H68.2398H68.2388H68.2378H68.2368H68.2359H68.2349H68.2339H68.233H68.232H68.2311H68.2301H68.2291H68.2282H68.2272H68.2263H68.2253H68.2244H68.2234H68.2225H68.2215H68.2206H68.2196H68.2187H68.2177H68.2168H68.2159H68.2149H68.214H68.213H68.2121H68.2112H68.2102H68.2093H68.2084H68.2075H68.2065H68.2056H68.2047H68.2038H68.2028H68.2019H68.201H68.2001H68.1992H68.1982H68.1973H68.1964H68.1955H68.1946H68.1937H68.1928H68.1919H68.191H68.1901H68.1892H68.1883H68.1874H68.1865H68.1856H68.1847H68.1838H68.1829H68.182H68.1812H68.1803H68.1794H68.1785H68.1776H68.1768H68.1759H68.175H68.1741H68.1733H68.1724H68.1715H68.1707H68.1698H68.1689H68.1681H68.1672H68.1664H68.1655H68.1647H68.1638H68.163H68.1621H68.1613H68.1604H68.1596H68.1587H68.1579H68.1571H68.1562H68.1554H68.1546H68.1537H68.1529H68.1521H68.1512H68.1504H68.1496H68.1488H68.148H68.1472H68.1463H68.1455H68.1447H68.1439H68.1431H68.1423H68.1415H68.1407H68.1399H68.1391H68.1383H68.1375H68.1367H68.136H68.1352H68.1344H68.1336H68.1328H68.1321H68.1313H68.1305H68.1297H68.129H68.1282H68.1274H68.1267H68.1259H68.1252H68.1244H68.1237H68.1229H68.1222H68.1214H68.1207H68.1199H68.1192H68.1184H68.1177H68.117H68.1162H68.1155H68.1148H68.1141H68.1133H68.1126H68.1119H68.1112H68.1105H68.1098H68.1091H68.1084H68.1077H68.107H68.1063H68.1056H68.1049H68.1042H68.1035H68.1028H68.1021H68.1014H68.1008H68.1001H68.0994H68.0987H68.0981H68.0974H68.0967H68.0961H68.0954H68.0947H68.0941H68.0934H68.0928H68.0921H68.0915H68.0909H68.0902H68.0896H68.0889H68.0883H68.0877H68.0871H68.0864H68.0858H68.0852H68.0846H68.084H68.0833H68.0827H68.0821H68.0815H68.0809H68.0803H68.0797H68.0791H68.0786H68.078H68.0774H68.0768H68.0762H68.0756H68.0751H68.0745H68.0739H68.0734H68.0728H68.0723H68.0717H68.0711H68.0706H68.07H68.0695H68.069H68.0684H68.0679H68.0673H68.0668H68.0663H68.0658H68.0652H68.0647H68.0642H68.0637H68.0632H68.0627H68.0622H68.0617H68.0612H68.0607H68.0602H68.0597H68.0592H68.0587H68.0582H68.0578H68.0573H68.0568H68.0563H68.0559H68.0554H68.0549H68.0545H68.054H68.0536H68.0531H68.0527H68.0523H68.0518H68.0514H68.0509H68.0505H68.0501H68.0497H68.0493H68.0488H68.0484H68.048H68.0476H68.0472H68.0468H68.0464H68.046H68.0456H68.0452H68.0449H68.0445H68.0441H68.0437H68.0433H68.043H68.0426H68.0423H68.0419H68.0415H68.0412H68.0408H68.0405H68.0402H68.0398H68.0395H68.0392H68.0388H68.0385H68.0382H68.0379H68.0376H68.0372H68.0369H68.0366H68.0363H68.036H68.0357H68.0355H68.0352H68.0349H68.0346H68.0343H68.0341H68.0338H68.0335H68.0333H68.033H68.0327H68.0325H68.0323H68.032H68.0318H68.0315H68.0313H68.0311H68.0308H68.0306H68.0304H68.0302H68.03H68.0298H68.0296H68.0294H68.0292H68.029H68.0288H68.0286H68.0284H68.0282H68.0281H68.0279H68.0277H68.0276H68.0274H68.0273H68.0271H68.027H68.0268H68.0267H68.0265H68.0264H68.0263H68.0261H68.026H68.0259H68.0258H68.0257H68.0256H68.0255H68.0254H68.0253H68.0252H68.0251H68.025H68.0249H68.0249H68.0248H68.0247H68.0247H68.0246H68.0246H68.0245H68.0245H68.0244H68.0244H68.0244H68.0243H68.0243H68.0242C67.4198 111.16 66.8695 110.667 66.7267 109.953C66.6027 109.333 67.1233 108.584 67.8454 108.584Z" fill="#292929" stroke="white"/>
<path d="M112.941 51.4808L112.943 51.4941L112.945 51.5072C113.003 51.7967 112.918 52.151 112.714 52.4394C112.51 52.7286 112.245 52.8758 112.005 52.8758H111.798L111.652 53.0222C111.64 53.0342 111.629 53.0448 111.62 53.0542C111.03 53.0394 110.498 52.5569 110.353 51.8609C106.915 27.3065 85.6104 8.89456 61.0515 8.89456C60.6288 8.89456 60.3154 8.75583 60.1089 8.54935C59.9024 8.34286 59.7637 8.02944 59.7637 7.6067C59.7637 7.18397 59.9024 6.87055 60.1089 6.66406C60.3154 6.45758 60.6288 6.31885 61.0515 6.31885C86.903 6.31885 109.222 25.8001 112.941 51.4808Z" fill="#292929" stroke="white"/>
<path d="M60.2562 6.77121L60.28 6.75535L60.3018 6.73688L67.2744 0.836952L67.2903 0.823518L67.305 0.808812C67.5397 0.574075 67.8754 0.472979 68.2226 0.506043C68.5752 0.539624 68.8839 0.706616 69.0545 0.934045L69.4545 0.634045L69.0545 0.934045C69.4491 1.46028 69.4484 2.24281 68.9364 2.76903L63.412 7.40237L62.9938 7.7531L63.3798 8.13902L68.3858 13.145C68.9056 13.6649 68.9056 14.421 68.3858 14.9409C68.2365 15.0902 68.1071 15.1822 67.9775 15.2398C67.8502 15.2964 67.6976 15.3308 67.4878 15.3308C67.278 15.3308 67.1255 15.2964 66.9981 15.2398C66.8685 15.1822 66.7391 15.0902 66.5899 14.9409L60.1536 8.50463C59.8959 8.24695 59.7637 7.84057 59.7637 7.60668C59.7637 7.39582 59.7983 7.26265 59.8572 7.15671C59.9179 7.04744 60.0293 6.92248 60.2562 6.77121Z" fill="#292929" stroke="white"/>
<path d="M83.4075 56.1974L79.845 55.41C79.335 53.2125 78.4725 51.1274 77.2725 49.215L79.245 46.1325C79.4325 45.84 79.3875 45.45 79.14 45.2025L74.7975 40.86C74.55 40.6125 74.16 40.5675 73.86 40.755L70.785 42.7275C68.865 41.5275 66.7875 40.665 64.59 40.155L63.8025 36.5925C63.7275 36.2476 63.42 36 63.0675 36H56.925C56.5725 36 56.265 36.2476 56.19 36.5925L55.41 40.155C53.2125 40.665 51.1275 41.5275 49.215 42.7275L46.1325 40.755C45.84 40.5675 45.45 40.6125 45.195 40.86L40.8525 45.2025C40.605 45.45 40.5675 45.84 40.755 46.1325L42.7275 49.215C41.52 51.1349 40.6575 53.2125 40.155 55.41L36.585 56.1974C36.24 56.2725 36 56.5724 36 56.925V63.075C36 63.4275 36.24 63.7275 36.585 63.8025L40.155 64.59C40.665 66.7875 41.5275 68.8726 42.7275 70.785L40.755 73.8675C40.5675 74.16 40.605 74.55 40.8525 74.7975L45.195 79.14C45.45 79.395 45.8325 79.4324 46.1325 79.2449L49.215 77.2725C51.1275 78.4725 53.2125 79.335 55.41 79.845L56.19 83.415C56.265 83.7524 56.5725 84 56.925 84H63.0675C63.42 84 63.7275 83.7524 63.8025 83.415L64.59 79.845C66.7875 79.3425 68.865 78.4725 70.785 77.2725L73.86 79.2449C74.16 79.4324 74.55 79.395 74.7975 79.14L79.14 74.7975C79.3875 74.55 79.4325 74.16 79.245 73.8675L77.2725 70.785C78.4725 68.865 79.335 66.7875 79.845 64.59L83.4075 63.8025C83.7525 63.7275 84 63.4275 84 63.075V56.925C84 56.5724 83.7525 56.2725 83.4075 56.1974ZM60 74.9775C51.6606 74.9775 45.0225 68.2131 45.0225 60C45.0225 51.7275 51.7275 45.0225 60 45.0225C68.2725 45.0225 74.9775 51.7275 74.9775 60C74.9775 68.2768 68.2473 74.9775 60 74.9775Z" fill="#292929"/>
<path d="M60.0001 60C62.3345 60 64.2268 58.1077 64.2268 55.7733C64.2268 53.439 62.3345 51.5466 60.0001 51.5466C57.6658 51.5466 55.7734 53.439 55.7734 55.7733C55.7734 58.1077 57.6658 60 60.0001 60Z" fill="#292929"/>
<path d="M68.565 67.3351V70.3951C66.2457 72.3379 63.1774 73.4775 60 73.4775C56.9305 73.4775 53.837 72.4147 51.4351 70.4026V67.3351C51.4351 63.9826 54.1576 61.26 57.51 61.26H62.4901C65.8425 61.26 68.565 63.9826 68.565 67.3351Z" fill="#292929"/>
</g>
<defs>
<clipPath id="clip0_4394_780">
<rect width="120" height="120" fill="white"/>
</clipPath>
</defs>
</svg>
