<svg width="120" height="120" viewBox="0 0 120 120" fill="none" xmlns="http://www.w3.org/2000/svg">
<g clip-path="url(#clip0_4394_1578)">
<path d="M9.91823 60.3846C9.49549 60.3846 9.18207 60.2459 8.97558 60.0394C8.7691 59.8329 8.63037 59.5195 8.63037 59.0968C8.63037 33.2342 27.0516 11.2767 52.1943 7.02692C52.991 6.8944 53.639 7.42334 53.7668 8.06215C53.8243 8.34965 53.7413 8.70794 53.5281 9.02763C53.3164 9.34523 53.0201 9.55891 52.7344 9.61807C28.7192 13.7746 11.2061 34.5418 11.2061 59.0968C11.2061 59.3811 11.0589 59.7073 10.7938 59.9724C10.5288 60.2374 10.2026 60.3846 9.91823 60.3846Z" fill="#292929" stroke="white"/>
<path d="M9.16129 66.8879L9.15956 66.8766L9.15732 66.8654C9.04805 66.3191 9.48756 65.6351 10.3583 65.49C11.1881 65.3517 11.7427 65.9018 11.7427 66.4271V66.4642L11.7482 66.5009C15.3603 90.7018 36.6662 109.12 61.0512 109.12C61.4739 109.12 61.7874 109.259 61.9938 109.466C62.2003 109.672 62.3391 109.986 62.3391 110.408C62.3391 111.173 61.702 111.696 61.0512 111.696C35.3769 111.696 13.0577 92.3915 9.16129 66.8879Z" fill="#292929" stroke="white"/>
<path d="M67.8454 108.584H67.8802L67.9146 108.579C92.4764 105.148 111.075 83.84 111.075 58.9181C111.075 58.4954 111.214 58.1819 111.42 57.9755C111.627 57.769 111.94 57.6302 112.363 57.6302C112.786 57.6302 113.099 57.769 113.306 57.9755C113.512 58.1819 113.651 58.4954 113.651 58.9181C113.651 85.1196 94.1834 107.603 68.3476 111.16H68.3473H68.3462H68.3452H68.3441H68.3431H68.3421H68.341H68.34H68.3389H68.3379H68.3368H68.3358H68.3348H68.3337H68.3327H68.3316H68.3306H68.3296H68.3285H68.3275H68.3265H68.3254H68.3244H68.3234H68.3223H68.3213H68.3203H68.3192H68.3182H68.3172H68.3161H68.3151H68.3141H68.313H68.312H68.311H68.3099H68.3089H68.3079H68.3069H68.3058H68.3048H68.3038H68.3028H68.3017H68.3007H68.2997H68.2987H68.2976H68.2966H68.2956H68.2946H68.2936H68.2925H68.2915H68.2905H68.2895H68.2885H68.2875H68.2864H68.2854H68.2844H68.2834H68.2824H68.2814H68.2804H68.2794H68.2784H68.2774H68.2763H68.2753H68.2743H68.2733H68.2723H68.2713H68.2703H68.2693H68.2683H68.2673H68.2663H68.2653H68.2643H68.2633H68.2623H68.2614H68.2604H68.2594H68.2584H68.2574H68.2564H68.2554H68.2544H68.2534H68.2525H68.2515H68.2505H68.2495H68.2485H68.2475H68.2466H68.2456H68.2446H68.2436H68.2427H68.2417H68.2407H68.2398H68.2388H68.2378H68.2368H68.2359H68.2349H68.2339H68.233H68.232H68.2311H68.2301H68.2291H68.2282H68.2272H68.2263H68.2253H68.2244H68.2234H68.2225H68.2215H68.2206H68.2196H68.2187H68.2177H68.2168H68.2159H68.2149H68.214H68.213H68.2121H68.2112H68.2102H68.2093H68.2084H68.2075H68.2065H68.2056H68.2047H68.2038H68.2028H68.2019H68.201H68.2001H68.1992H68.1982H68.1973H68.1964H68.1955H68.1946H68.1937H68.1928H68.1919H68.191H68.1901H68.1892H68.1883H68.1874H68.1865H68.1856H68.1847H68.1838H68.1829H68.182H68.1812H68.1803H68.1794H68.1785H68.1776H68.1768H68.1759H68.175H68.1741H68.1733H68.1724H68.1715H68.1707H68.1698H68.1689H68.1681H68.1672H68.1664H68.1655H68.1647H68.1638H68.163H68.1621H68.1613H68.1604H68.1596H68.1587H68.1579H68.1571H68.1562H68.1554H68.1546H68.1537H68.1529H68.1521H68.1512H68.1504H68.1496H68.1488H68.148H68.1472H68.1463H68.1455H68.1447H68.1439H68.1431H68.1423H68.1415H68.1407H68.1399H68.1391H68.1383H68.1375H68.1367H68.136H68.1352H68.1344H68.1336H68.1328H68.1321H68.1313H68.1305H68.1297H68.129H68.1282H68.1274H68.1267H68.1259H68.1252H68.1244H68.1237H68.1229H68.1222H68.1214H68.1207H68.1199H68.1192H68.1184H68.1177H68.117H68.1162H68.1155H68.1148H68.1141H68.1133H68.1126H68.1119H68.1112H68.1105H68.1098H68.1091H68.1084H68.1077H68.107H68.1063H68.1056H68.1049H68.1042H68.1035H68.1028H68.1021H68.1014H68.1008H68.1001H68.0994H68.0987H68.0981H68.0974H68.0967H68.0961H68.0954H68.0947H68.0941H68.0934H68.0928H68.0921H68.0915H68.0909H68.0902H68.0896H68.0889H68.0883H68.0877H68.0871H68.0864H68.0858H68.0852H68.0846H68.084H68.0833H68.0827H68.0821H68.0815H68.0809H68.0803H68.0797H68.0791H68.0786H68.078H68.0774H68.0768H68.0762H68.0756H68.0751H68.0745H68.0739H68.0734H68.0728H68.0723H68.0717H68.0711H68.0706H68.07H68.0695H68.069H68.0684H68.0679H68.0673H68.0668H68.0663H68.0658H68.0652H68.0647H68.0642H68.0637H68.0632H68.0627H68.0622H68.0617H68.0612H68.0607H68.0602H68.0597H68.0592H68.0587H68.0582H68.0578H68.0573H68.0568H68.0563H68.0559H68.0554H68.0549H68.0545H68.054H68.0536H68.0531H68.0527H68.0523H68.0518H68.0514H68.0509H68.0505H68.0501H68.0497H68.0493H68.0488H68.0484H68.048H68.0476H68.0472H68.0468H68.0464H68.046H68.0456H68.0452H68.0449H68.0445H68.0441H68.0437H68.0433H68.043H68.0426H68.0423H68.0419H68.0415H68.0412H68.0408H68.0405H68.0402H68.0398H68.0395H68.0392H68.0388H68.0385H68.0382H68.0379H68.0376H68.0372H68.0369H68.0366H68.0363H68.036H68.0357H68.0355H68.0352H68.0349H68.0346H68.0343H68.0341H68.0338H68.0335H68.0333H68.033H68.0327H68.0325H68.0323H68.032H68.0318H68.0315H68.0313H68.0311H68.0308H68.0306H68.0304H68.0302H68.03H68.0298H68.0296H68.0294H68.0292H68.029H68.0288H68.0286H68.0284H68.0282H68.0281H68.0279H68.0277H68.0276H68.0274H68.0273H68.0271H68.027H68.0268H68.0267H68.0265H68.0264H68.0263H68.0261H68.026H68.0259H68.0258H68.0257H68.0256H68.0255H68.0254H68.0253H68.0252H68.0251H68.025H68.0249H68.0249H68.0248H68.0247H68.0247H68.0246H68.0246H68.0245H68.0245H68.0244H68.0244H68.0244H68.0243H68.0243H68.0242C67.4198 111.16 66.8695 110.667 66.7267 109.953C66.6027 109.333 67.1233 108.584 67.8454 108.584Z" fill="#292929" stroke="white"/>
<path d="M112.941 51.4808L112.943 51.4941L112.945 51.5072C113.003 51.7967 112.918 52.151 112.714 52.4394C112.51 52.7286 112.245 52.8758 112.005 52.8758H111.798L111.652 53.0222C111.64 53.0342 111.629 53.0448 111.62 53.0542C111.03 53.0394 110.498 52.5569 110.353 51.8609C106.915 27.3065 85.6104 8.89456 61.0515 8.89456C60.6288 8.89456 60.3154 8.75583 60.1089 8.54935C59.9024 8.34286 59.7637 8.02944 59.7637 7.6067C59.7637 7.18397 59.9024 6.87055 60.1089 6.66406C60.3154 6.45758 60.6288 6.31885 61.0515 6.31885C86.903 6.31885 109.222 25.8001 112.941 51.4808Z" fill="#292929" stroke="white"/>
<path d="M60.2562 6.77121L60.28 6.75535L60.3018 6.73688L67.2744 0.836952L67.2903 0.823518L67.305 0.808812C67.5397 0.574075 67.8754 0.472979 68.2226 0.506043C68.5752 0.539624 68.8839 0.706616 69.0545 0.934045L69.4545 0.634045L69.0545 0.934045C69.4491 1.46028 69.4484 2.24281 68.9364 2.76903L63.412 7.40237L62.9938 7.7531L63.3798 8.13902L68.3858 13.145C68.9056 13.6649 68.9056 14.421 68.3858 14.9409C68.2365 15.0902 68.1071 15.1822 67.9775 15.2398C67.8502 15.2964 67.6976 15.3308 67.4878 15.3308C67.278 15.3308 67.1255 15.2964 66.9981 15.2398C66.8685 15.1822 66.7391 15.0902 66.5899 14.9409L60.1536 8.50463C59.8959 8.24695 59.7637 7.84057 59.7637 7.60668C59.7637 7.39582 59.7983 7.26265 59.8572 7.15671C59.9179 7.04744 60.0293 6.92248 60.2562 6.77121Z" fill="#292929" stroke="white"/>
<path fill-rule="evenodd" clip-rule="evenodd" d="M81.0906 55.9595V76.7921C81.0906 77.2376 80.7369 77.5916 80.2919 77.5916H63.4742C62.9266 77.5916 62.3218 77.7858 61.8084 78.1627C61.4433 78.4254 61.1238 78.7909 60.8957 79.2363C60.6446 79.7388 60.348 79.9673 59.9943 79.9787C59.7319 79.9787 59.4352 79.9673 59.1272 79.3048C58.899 78.8251 58.5681 78.4368 58.1802 78.1513C57.6667 77.7744 57.062 77.5802 56.5144 77.5802H39.6967C39.2517 77.5802 38.898 77.2261 38.898 76.7807V55.9595H36V80.4927H52.8519C54.0956 80.4927 54.5063 81.395 54.9056 82.2972C55.0996 82.7198 55.2936 83.1538 55.5103 83.1538H64.4897C64.7064 83.1538 64.9004 82.7313 65.0944 82.2972C65.4937 81.395 65.9044 80.4927 67.1481 80.4927H84V55.9595H81.0906ZM66.9199 39.764C65.2085 38.0622 62.8581 37 60.2567 37C57.6553 37 55.2936 38.0508 53.5935 39.764C51.8935 41.4658 50.8324 43.83 50.8324 46.4341C50.8324 48.3414 51.5512 50.1346 52.5324 51.8364C52.5553 51.8707 52.5667 51.9049 52.5895 51.9392C53.2512 53.0699 54.0157 54.1549 54.7573 55.2057C54.9285 55.457 55.111 55.6968 55.2479 55.9024H65.3111C65.4709 55.674 65.5964 55.5027 65.7105 55.3199C67.6045 52.6245 69.681 49.6777 69.681 46.4341C69.681 43.83 68.6313 41.4658 66.9199 39.764ZM66.2125 57.5014C67.285 57.5014 67.285 61.3276 66.2125 61.3276C62.242 61.3276 58.2829 61.3276 54.3123 61.3276C53.2398 61.3276 53.2398 57.5014 54.3123 57.5014H66.2125ZM54.6774 62.9266L55.6358 65.5192C55.9097 66.273 56.2748 66.8669 56.7083 67.2895C57.2104 67.7692 57.7808 68.0319 58.4198 68.0319H59.1956V76.9406C59.1728 76.9178 59.1386 76.9063 59.1158 76.8835C58.3171 76.301 57.3815 76.0041 56.5144 76.0041H40.4954V55.16V53.0927H51.4143C52.0418 54.1321 52.7492 55.1258 53.4338 56.0966C51.1405 57.2044 51.3801 62.9266 54.3009 62.9266H54.6774ZM64.136 62.9266L63.3829 64.971C63.189 65.4964 62.9608 65.8961 62.6984 66.1474C62.5044 66.3301 62.299 66.4329 62.0937 66.4329H59.9943H58.4198C58.2144 66.4329 58.009 66.3301 57.8151 66.1474C57.5527 65.8961 57.3245 65.4964 57.1305 64.971L56.3775 62.9266H64.136ZM67.1139 56.108C67.7984 55.1372 68.4944 54.1321 69.1219 53.0813H79.4932V55.16V75.9926H63.4742C62.6071 75.9926 61.6715 76.2896 60.8728 76.8721C60.85 76.8949 60.8158 76.9063 60.793 76.9292V68.0205H62.1051C62.744 68.0205 63.3145 67.7692 63.8165 67.2781C64.2501 66.8555 64.6152 66.2616 64.889 65.5078L65.8474 62.9151H66.2239C69.1219 62.9266 69.3729 57.2501 67.1139 56.108ZM44.5572 71.3327C44.1122 71.3327 43.7585 70.9786 43.7585 70.5332C43.7585 70.0878 44.1122 69.7337 44.5572 69.7337H50.0794C50.5244 69.7337 50.8781 70.0878 50.8781 70.5332C50.8781 70.9786 50.5244 71.3327 50.0794 71.3327H44.5572ZM44.5572 66.1474C44.1122 66.1474 43.7585 65.7933 43.7585 65.3479C43.7585 64.9025 44.1122 64.5484 44.5572 64.5484H48.9841C49.429 64.5484 49.7827 64.9025 49.7827 65.3479C49.7827 65.7933 49.429 66.1474 48.9841 66.1474H44.5572ZM75.2375 69.7337C75.6824 69.7337 76.0361 70.0878 76.0361 70.5332C76.0361 70.9786 75.6824 71.3327 75.2375 71.3327H69.7152C69.2703 71.3327 68.9166 70.9786 68.9166 70.5332C68.9166 70.0878 69.2703 69.7337 69.7152 69.7337H75.2375ZM75.2375 64.5484C75.6824 64.5484 76.0361 64.9025 76.0361 65.3479C76.0361 65.7933 75.6824 66.1474 75.2375 66.1474H70.8106C70.3656 66.1474 70.0119 65.7933 70.0119 65.3479C70.0119 64.9025 70.3656 64.5484 70.8106 64.5484H75.2375Z" fill="#292929"/>
</g>
<defs>
<clipPath id="clip0_4394_1578">
<rect width="120" height="120" fill="white"/>
</clipPath>
</defs>
</svg>
